<svg id="Layer_1" data-name="Layer 1" xmlns="http://www.w3.org/2000/svg" viewBox="0 0 259.04 27.96"><defs><style>.cls-1{fill:#fff;}</style></defs><title>Coalmarch</title><path class="cls-1" d="M21,19.2a11.58,11.58,0,0,1-1.31,1.26,9.58,9.58,0,0,1-1.86,1.2,5,5,0,0,1-2.24.53,4.75,4.75,0,0,1-2.39-.59A5.39,5.39,0,0,1,11.43,20a7.25,7.25,0,0,1-1.07-2.28A9.91,9.91,0,0,1,10,15a12.61,12.61,0,0,1,.32-2.92,8.73,8.73,0,0,1,.91-2.39,4.94,4.94,0,0,1,1.42-1.62,3.18,3.18,0,0,1,1.87-.59,3.7,3.7,0,0,1,1.77.4A3.55,3.55,0,0,1,17.51,9a5.26,5.26,0,0,1,.74,1.54,7.17,7.17,0,0,1,.3,1.78h6.8V1.52h-6L18.52,3.64c-0.08-.1-0.25-0.3-0.51-0.59a5.07,5.07,0,0,0-1.12-.87,8.73,8.73,0,0,0-1.77-.78,7.83,7.83,0,0,0-2.45-.34A9.19,9.19,0,0,0,8.77,2,12.31,12.31,0,0,0,5,4.77a14.55,14.55,0,0,0-2.8,4.41A14.88,14.88,0,0,0,1.13,15a15.84,15.84,0,0,0,1,5.71A12.15,12.15,0,0,0,4.81,25,11.58,11.58,0,0,0,9,27.75a15.54,15.54,0,0,0,5.51.93,13.62,13.62,0,0,0,3.53-.44,15.19,15.19,0,0,0,3.12-1.17,15.79,15.79,0,0,0,2.66-1.71,20.17,20.17,0,0,0,2.2-2L21.6,18.46ZM50.82,4.65A11.3,11.3,0,0,0,46.56,1.8a16.61,16.61,0,0,0-6.06-1,14.18,14.18,0,0,0-5.41,1,12.24,12.24,0,0,0-4.22,2.85A12.86,12.86,0,0,0,28.14,9a15.71,15.71,0,0,0-1,5.62,17.4,17.4,0,0,0,1,6.21A11.89,11.89,0,0,0,31,25.25a11.59,11.59,0,0,0,4.31,2.62,16.46,16.46,0,0,0,5.47.87,16,16,0,0,0,5.71-1,11.26,11.26,0,0,0,4.2-2.73,11.58,11.58,0,0,0,2.58-4.35,17.94,17.94,0,0,0,.87-5.79,19.5,19.5,0,0,0-.82-5.81A11.62,11.62,0,0,0,50.82,4.65Zm-6.44,13.5a9.26,9.26,0,0,1-.78,2.46,4.74,4.74,0,0,1-1.22,1.6,2.49,2.49,0,0,1-1.61.57,2.79,2.79,0,0,1-1.69-.57,4.61,4.61,0,0,1-1.34-1.63A10.44,10.44,0,0,1,36.87,18a16.14,16.14,0,0,1-.32-3.36,17.1,17.1,0,0,1,.28-3.23,10.33,10.33,0,0,1,.8-2.55,4.74,4.74,0,0,1,1.23-1.65,2.46,2.46,0,0,1,1.6-.59,2.84,2.84,0,0,1,1.88.65,4.84,4.84,0,0,1,1.29,1.77,10.36,10.36,0,0,1,.76,2.64,20.34,20.34,0,0,1,.25,3.23A18.14,18.14,0,0,1,44.38,18.15ZM75.25,1.52H60.67v4.9h1.56L57.1,23.09H54.52v5H66.6v-5h-3l0.8-2.58h7.79L73,23.09H69.42v5H84.64v-5H82ZM65.84,16L68.3,7.75,70.81,16h-5ZM101,23h-4.9V6.53h2v-5h-12v5h2.09V23H86.15v5.05h21.27V18.18H101V23Zm26.55-7.29L123.75,1.52H109.36v4.9h2V23.17h-2v4.9h10.29v-4.9h-2.16V8.2h0.15a13.42,13.42,0,0,0,.15,1.44c0.08,0.48.15,0.93,0.23,1.37s0.15,0.82.23,1.16a6.63,6.63,0,0,0,.19.74l2.12,7.58q1.06,3.77,2.13,7.58h7.94l4-14.77c0.08-.23.16-0.53,0.25-0.93s0.18-.82.28-1.29,0.2-1,.31-1.46,0.19-1,.27-1.41h0.15v2.24l0,12.69h-2.17v4.94h12V23.13h-2.09V6.42h2.09V1.52H131.23ZM168,1.52H153.38v4.9h1.55l-5.12,16.68h-2.59v5H159.3v-5h-3l0.8-2.58h7.78l0.8,2.58h-3.61v5h15.23v-5h-2.66ZM158.54,16L161,7.75,163.51,16h-5ZM203,21.61c0,0.81-.29,1.21-0.87,1.21a0.76,0.76,0,0,1-.72-0.68,7.41,7.41,0,0,1-.19-1.9,4.56,4.56,0,0,0-.42-1.94,6,6,0,0,0-1.1-1.63,6.14,6.14,0,0,0-1.58-1.2,5.92,5.92,0,0,0-1.88-.63,7.2,7.2,0,0,0,2.18-.63A6.46,6.46,0,0,0,200.14,13a5,5,0,0,0,1.58-3.7,11.26,11.26,0,0,0-.4-3.06,5.29,5.29,0,0,0-1.56-2.49,8.1,8.1,0,0,0-3.2-1.67,19.31,19.31,0,0,0-5.36-.61H178.86v5H181V23h-2.13v5h12.27V23h-2.32V17.16a8.6,8.6,0,0,1,2,.19A2.18,2.18,0,0,1,192,18a2.55,2.55,0,0,1,.51,1.31,16.23,16.23,0,0,1,.11,2.13,7.18,7.18,0,0,0,1.8,5.21A7.45,7.45,0,0,0,200,28.53a6.1,6.1,0,0,0,2.66-.52,4.73,4.73,0,0,0,1.71-1.35,5.05,5.05,0,0,0,.91-1.94,9.71,9.71,0,0,0,.27-2.28v-2.1H203v1.26Zm-9.8-9.48a4.17,4.17,0,0,1-2.66.78h-1.71V6.45h1.9a3.62,3.62,0,0,1,2.57.84,3.34,3.34,0,0,1,.89,2.55,2.73,2.73,0,0,1-1,2.29h0Zm33.14,7.07A11.56,11.56,0,0,1,225,20.45a9.61,9.61,0,0,1-1.86,1.2,5,5,0,0,1-2.24.53,4.75,4.75,0,0,1-2.39-.59A5.45,5.45,0,0,1,216.78,20a7.3,7.3,0,0,1-1.07-2.28,10,10,0,0,1-.36-2.69,12.68,12.68,0,0,1,.32-2.92,8.86,8.86,0,0,1,.91-2.39A4.94,4.94,0,0,1,218,8.11a3.16,3.16,0,0,1,1.86-.59,3.73,3.73,0,0,1,1.77.4A3.52,3.52,0,0,1,222.85,9a5.3,5.3,0,0,1,.74,1.54,7.24,7.24,0,0,1,.31,1.78h6.81V1.52h-6l-0.87,2.13c-0.07-.1-0.25-0.3-0.51-0.59a5,5,0,0,0-1.12-.87,8.56,8.56,0,0,0-1.77-.78A7.8,7.8,0,0,0,218,1.06a9.19,9.19,0,0,0-3.89.95,12.34,12.34,0,0,0-3.74,2.75,14.66,14.66,0,0,0-2.81,4.41,14.93,14.93,0,0,0-1.1,5.87,15.81,15.81,0,0,0,1,5.71A12.21,12.21,0,0,0,210.16,25a11.58,11.58,0,0,0,4.22,2.7,15.53,15.53,0,0,0,5.5.93,13.64,13.64,0,0,0,3.53-.44,15,15,0,0,0,3.11-1.17,15.7,15.7,0,0,0,2.66-1.71,19.83,19.83,0,0,0,2.2-2l-4.44-4.86ZM260.17,6.53v-5H247.82v5h2.24v5.74h-7.22V6.53h2.36v-5H232.9v5H235V23H232.9v5h12.3V23h-2.36V17.32h7.22V23h-2.24v5h12.34V23H258V6.53h2.2Z" transform="translate(-1.13 -0.79)"/></svg>