<?xml version="1.0" encoding="utf-8"?>
<svg version="1.1" xmlns="http://www.w3.org/2000/svg" xmlns:xlink="http://www.w3.org/1999/xlink" x="0px" y="0px"
	 viewBox="0 0 194 36.2" style="enable-background:new 0 0 194 36.2;" xml:space="preserve">
<style type="text/css">
	.st0{fill:#fff;}
</style>
<path class="st0" d="M17,18.4c0.6-0.5,1.1-1,1.6-1.5l-3.3-3.6c-0.1,0.1-0.2,0.3-0.5,0.6c-0.3,0.3-0.6,0.7-1,0.9
	c-0.4,0.4-0.9,0.7-1.4,0.9C12,15.9,11.4,16,10.8,16c-0.6,0-1.2-0.1-1.8-0.4c-0.5-0.3-1-0.7-1.3-1.2c-0.4-0.5-0.6-1.1-0.8-1.7
	c-0.2-0.7-0.3-1.3-0.3-2c0-0.7,0.1-1.5,0.2-2.2C7,7.9,7.3,7.2,7.6,6.7c0.3-0.5,0.6-0.9,1.1-1.2C9.1,5.2,9.5,5,10,5
	c0.5,0,0.9,0.1,1.3,0.3c0.4,0.2,0.7,0.5,0.9,0.8c0.2,0.4,0.4,0.7,0.6,1.2C13,7.7,13,8.2,13.1,8.6h5.1V0.5h-4.5L13,2.1
	c-0.1-0.1-0.2-0.2-0.4-0.4c-0.2-0.3-0.5-0.5-0.8-0.7c-0.4-0.2-0.9-0.4-1.3-0.6C9.9,0.3,9.3,0.2,8.6,0.2c-1,0-2,0.3-2.9,0.7
	C4.7,1.4,3.7,2.1,2.9,3C2,3.9,1.3,5.1,0.8,6.3C0.3,7.7,0,9.2,0,10.7c0,1.5,0.2,2.9,0.7,4.3c0.4,1.2,1.1,2.3,2,3.2
	c0.9,0.9,2,1.6,3.2,2c1.3,0.5,2.7,0.7,4.1,0.7c0.9,0,1.8-0.1,2.6-0.3c0.8-0.2,1.6-0.5,2.3-0.9C15.7,19.3,16.4,18.9,17,18.4z
	 M55.5,0.5H44.6v3.7h1.2l-3.8,12.5H40v3.7h9v-3.7h-2.2l0.6-1.9h5.8l0.6,1.9h-2.7v3.7h11.4v-3.7h-2L55.5,0.5z M48.5,11.4l1.8-6.1
	l1.9,6.1H48.5z M39.1,14.9c0.5-1.4,0.7-2.9,0.7-4.3c0-1.5-0.2-2.9-0.6-4.4c-0.4-1.2-1-2.4-1.9-3.3c-0.9-0.9-2-1.7-3.2-2.1
	C32.6,0.2,31,0,29.5,0c-1.4,0-2.8,0.2-4.1,0.8c-1.2,0.5-2.3,1.2-3.2,2.1c-0.9,0.9-1.6,2.1-2,3.3c-0.5,1.3-0.7,2.8-0.7,4.2
	c0,1.6,0.2,3.2,0.8,4.7c0.5,1.2,1.2,2.4,2.1,3.3c0.9,0.9,2,1.6,3.2,2c1.3,0.4,2.7,0.7,4.1,0.7c1.5,0,2.9-0.2,4.3-0.7
	c1.2-0.4,2.3-1.1,3.1-2C38,17.2,38.7,16.1,39.1,14.9z M32.4,13c-0.1,0.6-0.3,1.3-0.6,1.8c-0.2,0.5-0.5,0.9-0.9,1.2
	c-0.3,0.3-0.8,0.4-1.2,0.4c-0.5,0-0.9-0.2-1.3-0.4c-0.4-0.3-0.8-0.7-1-1.2c-0.3-0.6-0.5-1.3-0.7-1.9c-0.2-0.8-0.2-1.7-0.2-2.5
	c0-0.8,0.1-1.6,0.2-2.4c0.1-0.7,0.3-1.3,0.6-1.9c0.2-0.5,0.5-0.9,0.9-1.2c0.3-0.3,0.8-0.4,1.2-0.4c0.5,0,1,0.2,1.4,0.5
	c0.4,0.4,0.8,0.8,1,1.3c0.3,0.6,0.5,1.3,0.6,2c0.1,0.8,0.2,1.6,0.2,2.4C32.6,11.4,32.5,12.2,32.4,13L32.4,13z M194,4.3V0.5h-9.2v3.8
	h1.7v4.3H181V4.3h1.8V0.5h-9.2v3.8h1.6v12.4h-1.6v3.8h9.2v-3.8H181v-4.3h5.4v4.3h-1.7v3.8h9.2v-3.8h-1.6V4.3H194z M151.2,15.6
	c0,0.6-0.2,0.9-0.7,0.9c-0.3,0-0.4-0.2-0.5-0.5c-0.1-0.5-0.2-0.9-0.1-1.4c0-0.5-0.1-1-0.3-1.5c-0.2-0.4-0.5-0.9-0.8-1.2
	c-0.3-0.4-0.7-0.7-1.2-0.9c-0.4-0.2-0.9-0.4-1.4-0.5c0.6-0.1,1.1-0.2,1.6-0.5c0.5-0.2,0.9-0.5,1.3-0.9c0.8-0.7,1.2-1.7,1.2-2.8
	c0-0.8-0.1-1.5-0.3-2.3c-0.2-0.7-0.6-1.4-1.2-1.9c-0.7-0.6-1.5-1-2.4-1.3c-1.3-0.3-2.7-0.5-4-0.5h-9.2v3.7h1.6v12.4h-1.6v3.8h9.2
	v-3.8h-1.7v-4.4c0.5,0,1,0,1.5,0.1c0.3,0.1,0.6,0.2,0.9,0.5c0.2,0.3,0.3,0.6,0.4,1c0.1,0.5,0.1,1.1,0.1,1.6
	c-0.1,1.4,0.4,2.8,1.4,3.9c1.1,1,2.6,1.5,4.2,1.4c0.7,0,1.4-0.1,2-0.4c0.5-0.2,0.9-0.6,1.3-1c0.3-0.4,0.6-0.9,0.7-1.5
	c0.1-0.6,0.2-1.1,0.2-1.7v-1.6h-1.9V15.6z M143.8,8.5c-0.6,0.4-1.3,0.6-2,0.6h-1.3V4.2h1.4c0.7,0,1.4,0.2,1.9,0.6
	c0.5,0.5,0.7,1.2,0.7,1.9C144.6,7.4,144.3,8.1,143.8,8.5z M94.7,11.2L91.8,0.5H81.1v3.7h1.5v12.5H81v3.7h7.7v-3.7h-1.6V5.5h0.1
	c0,0.4,0.1,0.7,0.1,1.1c0.1,0.4,0.1,0.7,0.2,1c0.1,0.3,0.1,0.6,0.2,0.9s0.1,0.4,0.1,0.6c0.5,1.9,1.1,3.8,1.6,5.7
	c0.5,1.9,1.1,3.8,1.6,5.7H97l3-11.1c0.1-0.2,0.1-0.4,0.2-0.7c0.1-0.3,0.1-0.6,0.2-1c0.1-0.4,0.2-0.7,0.2-1.1
	c0.1-0.4,0.1-0.7,0.2-1.1h0.1v1.7l0,9.5h-1.6v3.7h9v-3.7h-1.6V4.2h1.6V0.5H97.4L94.7,11.2z M124.9,0.5H114v3.7h1.2l-3.8,12.5h-1.9
	v3.7h9v-3.7h-2.2l0.6-1.9h5.8l0.6,1.9h-2.7v3.7H132v-3.7h-2L124.9,0.5z M117.9,11.4l1.8-6.1l1.9,6.1H117.9z M74.8,16.6h-3.7V4.3h1.5
	V0.5h-9v3.8h1.6v12.3h-1.6v3.8h15.9V13h-4.8V16.6z M168.6,13.8L168.6,13.8c-0.3,0.3-0.6,0.7-1,0.9c-0.4,0.4-0.9,0.7-1.4,0.9
	c-0.5,0.3-1.1,0.4-1.7,0.4c-0.6,0-1.2-0.1-1.8-0.4c-0.5-0.3-1-0.7-1.3-1.2c-0.4-0.5-0.6-1.1-0.8-1.7c-0.2-0.7-0.3-1.3-0.3-2
	c0-0.7,0.1-1.5,0.2-2.2c0.1-0.6,0.4-1.2,0.7-1.8c0.3-0.5,0.6-0.9,1.1-1.2c0.4-0.3,0.9-0.4,1.4-0.4c0.5,0,0.9,0.1,1.3,0.3
	c0.4,0.2,0.7,0.5,0.9,0.8c0.2,0.4,0.4,0.7,0.6,1.2c0.1,0.4,0.2,0.9,0.2,1.3h5.1V0.5h-4.5l-0.7,1.6c-0.1-0.1-0.2-0.2-0.4-0.4
	c-0.2-0.3-0.5-0.5-0.8-0.7c-0.4-0.2-0.9-0.4-1.3-0.6c-0.6-0.2-1.2-0.3-1.8-0.3c-1,0-2,0.3-2.9,0.7c-1.1,0.5-2,1.2-2.8,2.1
	c-0.9,1-1.6,2.1-2.1,3.3c-0.6,1.4-0.8,2.9-0.8,4.4c0,1.5,0.2,2.9,0.7,4.3c0.4,1.2,1.1,2.3,2,3.2c0.9,0.9,2,1.6,3.2,2
	c1.3,0.5,2.7,0.7,4.1,0.7c0.9,0,1.8-0.1,2.6-0.3c0.8-0.2,1.6-0.5,2.3-0.9c0.7-0.4,1.4-0.8,2-1.3c0.6-0.5,1.1-1,1.6-1.5l-3.3-3.6
	C169.1,13.3,168.9,13.5,168.6,13.8z M23.7,25.3L23.7,25.3c-0.3,0-0.6,0.2-0.7,0.5l-1.5,4.6l-1.3-4.6c-0.1-0.3-0.4-0.5-0.7-0.5
	c-0.3,0-0.6,0.2-0.7,0.5l-1.3,4.5L16,25.8c-0.1-0.4-0.6-0.6-0.9-0.5c-0.3,0.1-0.5,0.4-0.5,0.7c0,0.3,2,6.3,2.2,7
	c0.1,0.3,0.4,0.5,0.7,0.5c0.3,0,0.6-0.2,0.7-0.5l1.3-4.5l1.3,4.5c0.1,0.3,0.4,0.5,0.7,0.5c0.3,0,0.6-0.2,0.7-0.5
	c0.2-0.7,2.2-6.7,2.2-7C24.4,25.6,24.1,25.3,23.7,25.3z M29.7,25.2C29.7,25.2,29.7,25.2,29.7,25.2c-2.4,0-4.3,1.8-4.3,4.1
	s1.8,4.2,4.1,4.3c2.3,0,4.2-1.8,4.3-4.1c0,0,0,0,0-0.1C33.8,27.1,32,25.3,29.7,25.2z M32.2,29.4c0.1,1.4-1,2.6-2.4,2.7
	c0,0-0.1,0-0.1,0c-1.4,0-2.6-1.2-2.5-2.6c0,0,0-0.1,0-0.1c-0.1-1.4,1-2.6,2.4-2.7c1.4-0.1,2.6,1,2.7,2.4
	C32.2,29.2,32.2,29.3,32.2,29.4z M4.7,27.8c-0.4-0.3-0.9-0.4-1.4-0.4c-0.4,0-0.8,0.1-1.2,0.3c-0.3,0.2-0.6,0.4-0.9,0.7v-2.9H0v7.9
	h1.2v-0.9c0.2,0.3,0.5,0.5,0.8,0.7c0.4,0.2,0.8,0.3,1.2,0.3c0.5,0,1-0.1,1.4-0.4c0.4-0.3,0.8-0.6,1-1.1c0.2-0.5,0.4-1,0.4-1.6
	c0-0.5-0.1-1.1-0.4-1.6C5.5,28.4,5.1,28,4.7,27.8z M4.6,31.5c-0.2,0.3-0.4,0.5-0.7,0.7c-0.5,0.3-1.2,0.3-1.8,0
	c-0.3-0.2-0.5-0.4-0.7-0.7c-0.2-0.3-0.3-0.7-0.3-1.1c0-0.4,0.1-0.7,0.3-1.1c0.2-0.3,0.4-0.5,0.7-0.7c0.3-0.2,0.6-0.2,0.9-0.2
	c0.3,0,0.6,0.1,0.9,0.2c0.3,0.2,0.5,0.4,0.7,0.7c0.2,0.3,0.3,0.7,0.3,1.1C4.8,30.8,4.7,31.2,4.6,31.5z M9.6,32l-1.7-4.5H6.6l2.3,5.8
	l-1.2,2.9H9l3.6-8.7h-1.3L9.6,32z M61.8,25.3c-0.3,0-0.6,0.2-0.7,0.5l-1.5,4.6l-1.3-4.6c-0.1-0.3-0.4-0.5-0.7-0.5
	c-0.3,0-0.6,0.2-0.7,0.5l-1.3,4.5l-1.5-4.5c-0.1-0.4-0.6-0.6-0.9-0.5c-0.3,0.1-0.5,0.4-0.5,0.7c0,0.3,2,6.3,2.2,7
	c0.1,0.3,0.4,0.5,0.7,0.5c0.3,0,0.6-0.2,0.7-0.5l1.3-4.5l1.3,4.5c0.1,0.3,0.4,0.5,0.7,0.5c0.3,0,0.6-0.2,0.7-0.5
	c0.2-0.7,2.2-6.7,2.2-7C62.5,25.6,62.2,25.3,61.8,25.3z M67.3,25.7c-0.1-0.3-0.4-0.4-0.7-0.4c-0.3,0-0.6,0.2-0.7,0.4l-3.1,6.8
	c0,0.1-0.1,0.2-0.1,0.3c0,0.4,0.3,0.8,0.7,0.8c0,0,0,0,0,0c0.2,0,0.3-0.1,0.5-0.2c0.1-0.1,0.2-0.1,0.2-0.2c0.8-1.4,2.2-2.3,3.8-2.4
	l1.1,2.4c0.1,0.3,0.4,0.4,0.7,0.4c0.4,0,0.8-0.3,0.8-0.8c0-0.1,0-0.2-0.1-0.3L67.3,25.7z M65.6,30.1l1.1-2.3l0.8,1.7
	C66.8,29.6,66.1,29.8,65.6,30.1z M85.2,32L85.2,32l-3.8,0v-1.8h2c0.4,0,0.8-0.3,0.8-0.7c0,0,0,0,0,0c0-0.4-0.3-0.8-0.8-0.8h-2v-1.7
	H85c0.4,0,0.8-0.3,0.8-0.8s-0.3-0.8-0.8-0.8h-4.4c-0.4,0-0.8,0.3-0.8,0.8c0,0,0,0,0,0v6.5c0,0.5,0.4,0.8,0.8,0.8c0,0,0,0,0,0h4.6
	c0.4,0,0.8-0.3,0.8-0.8C85.9,32.3,85.6,32,85.2,32z M77.2,25.3L77.2,25.3c-0.3,0-0.6,0.2-0.7,0.4l-2.3,5.4L72,25.7
	c-0.1-0.3-0.4-0.4-0.7-0.4c-0.4,0-0.7,0.4-0.7,0.8c0,0.1,0,0.2,0.1,0.3l3,6.8c0.2,0.4,0.6,0.5,1,0.4c0.2-0.1,0.3-0.2,0.4-0.4
	l2.9-6.8c0-0.1,0.1-0.2,0.1-0.3C77.9,25.6,77.6,25.3,77.2,25.3z M87.7,26.1L87.7,26.1c0.1,0,0.2-0.1,0.2-0.3c0-0.1,0-0.2-0.1-0.2
	c-0.1-0.1-0.2-0.1-0.4-0.1c-0.1,0-0.3,0-0.4,0v1.1h0.3l0-0.4h0.1c0.1,0,0.2,0.1,0.2,0.2c0,0.1,0,0.2,0.1,0.3H88
	c0-0.1-0.1-0.2-0.1-0.3C87.9,26.3,87.8,26.1,87.7,26.1z M87.4,26h-0.1l0-0.3c0,0,0.1,0,0.1,0c0.2,0,0.2,0.1,0.2,0.2
	C87.7,26,87.6,26,87.4,26z M87.5,25C87.5,25,87.5,25,87.5,25c-0.6,0-1.1,0.5-1.1,1.1c0,0.6,0.5,1.1,1.1,1.1c0.6,0,1.1-0.5,1.1-1.1
	c0,0,0,0,0,0C88.6,25.4,88.1,24.9,87.5,25z M88.4,26.1c0,0.5-0.4,0.9-0.9,1c0,0,0,0,0,0c-0.5,0-0.9-0.5-0.9-1h0c0,0,0-0.1,0-0.1
	c0-0.5,0.5-0.9,1-0.9C88.1,25.1,88.4,25.6,88.4,26.1C88.4,26.1,88.4,26.1,88.4,26.1z M51,32.4l-2.5-4l1.9-1.9
	c0.1-0.1,0.2-0.3,0.2-0.5c0-0.4-0.3-0.8-0.7-0.8c-0.2,0-0.4,0.1-0.5,0.2l-3.5,3.5v-2.9c0-0.4-0.4-0.8-0.8-0.8s-0.8,0.4-0.8,0.8
	c0,0,0,0,0,0v6.7c0,0.4,0.4,0.8,0.8,0.8c0.4,0,0.8-0.4,0.8-0.8c0,0,0,0,0,0V31c0.5-0.5,1-1,1.5-1.5l2.3,3.7c0.1,0.2,0.4,0.4,0.6,0.4
	c0.4,0,0.7-0.3,0.7-0.8c0,0,0,0,0,0C51.1,32.7,51.1,32.5,51,32.4z M39.4,25.4h-3c-0.4,0-0.8,0.3-0.8,0.8c0,0,0,0,0,0v6.6
	c0,0.4,0.3,0.8,0.8,0.8c0,0,0,0,0,0c0.4,0,0.8-0.4,0.8-0.8v-2.6h2.2c0,0.1,1.3,2.7,1.4,2.9c0.2,0.4,0.7,0.5,1,0.4
	c0.3-0.1,0.4-0.4,0.4-0.7c-0.4-1-0.8-2-1.3-2.9c0.8-0.4,1.4-1.2,1.3-2.1v0C42.3,26,41,25.4,39.4,25.4z M39.7,28.8c0,0-0.1,0-0.1,0v0
	h-2.4v-1.9h2.4c0.5-0.1,1,0.3,1.1,0.9c0,0,0,0.1,0,0.1C40.7,28.4,40.3,28.8,39.7,28.8z"/>
</svg>
