<?xml version="1.0" encoding="utf-8"?>
<!-- Generator: Adobe Illustrator 19.2.0, SVG Export Plug-In . SVG Version: 6.00 Build 0)  -->
<svg version="1.1" id="Layer_1" xmlns="http://www.w3.org/2000/svg" xmlns:xlink="http://www.w3.org/1999/xlink" x="0px" y="0px"
	 viewBox="0 0 62.7 63.5" style="enable-background:new 0 0 62.7 63.5;" xml:space="preserve">
<style type="text/css">
	.st0{clip-path:url(#SVGID_2_);}
	.st1{fill:#3E82F1;}
	.st2{clip-path:url(#SVGID_4_);}
	.st3{fill:#32A753;}
	.st4{clip-path:url(#SVGID_6_);}
	.st5{fill:#F9BB00;}
	.st6{clip-path:url(#SVGID_8_);}
	.st7{fill:#E74133;}
</style>
<g id="Group_202">
	<g id="Group_195">
		<g>
			<defs>
				<path id="SVGID_1_" d="M62.1,32.5c0-2.2-0.2-4.3-0.6-6.4H32v12.2h16.9c-0.7,3.9-3,7.3-6.3,9.5v7.9h10.2
					C58.7,50.1,62.1,42,62.1,32.5L62.1,32.5z"/>
			</defs>
			<clipPath id="SVGID_2_">
				<use xlink:href="#SVGID_1_"  style="overflow:visible;"/>
			</clipPath>
			<g class="st0">
				<g id="Group_194">
					<rect id="Rectangle_661" x="14.5" y="8.6" class="st1" width="65.1" height="64.4"/>
				</g>
			</g>
		</g>
	</g>
	<g id="Group_197">
		<g>
			<defs>
				<path id="SVGID_3_" d="M32,63.2c7.6,0.2,15.1-2.5,20.8-7.6l-10.2-7.9c-8.8,5.7-20.5,3.1-26.2-5.7c-0.9-1.3-1.5-2.7-2-4.2H3.9
					v8.1C9.2,56.5,20.1,63.2,32,63.2L32,63.2z"/>
			</defs>
			<clipPath id="SVGID_4_">
				<use xlink:href="#SVGID_3_"  style="overflow:visible;"/>
			</clipPath>
			<g class="st2">
				<g id="Group_196">
					<rect id="Rectangle_662" x="-13.6" y="20.3" class="st3" width="83.8" height="60.4"/>
				</g>
			</g>
		</g>
	</g>
	<g id="Group_199">
		<g>
			<defs>
				<path id="SVGID_5_" d="M14.4,37.7c-1.3-3.9-1.3-8.1,0-11.9v-8.1H3.9c-4.5,8.9-4.5,19.3,0,28.2L14.4,37.7L14.4,37.7z"/>
			</defs>
			<clipPath id="SVGID_6_">
				<use xlink:href="#SVGID_5_"  style="overflow:visible;"/>
			</clipPath>
			<g class="st4">
				<g id="Group_198">
					<rect id="Rectangle_663" x="-16.9" y="0.2" class="st5" width="48.8" height="63.1"/>
				</g>
			</g>
		</g>
	</g>
	<g id="Group_201">
		<g>
			<defs>
				<path id="SVGID_7_" d="M32,12.8c4.5-0.1,8.8,1.6,12,4.7l9-9c-5.7-5.3-13.2-8.3-21-8.2C20.1,0.3,9.2,7,3.9,17.6l10.5,8.1
					C16.9,18.1,23.9,12.9,32,12.8z"/>
			</defs>
			<clipPath id="SVGID_8_">
				<use xlink:href="#SVGID_7_"  style="overflow:visible;"/>
			</clipPath>
			<g class="st6">
				<g id="Group_200">
					<rect id="Rectangle_664" x="-13.6" y="-17.1" class="st7" width="84" height="60.4"/>
				</g>
			</g>
		</g>
	</g>
</g>
</svg>
