<?xml version="1.0" encoding="UTF-8"?>
<svg id="_ÎÓÈ_1" data-name="—ÎÓÈ_1" xmlns="http://www.w3.org/2000/svg" width="474.2" height="534" version="1.1" viewBox="0 0 474.2 534">
  <defs>
    <style>
      .cls-1 {
        fill: #231f20;
        stroke-width: 0px;
      }
    </style>
  </defs>
  <path class="cls-1" d="M400,.5c-6.3,1.7-12.6,3.5-18.9,5.2,0,1.8.2,3.5.3,5.3,11.6,1,23.3,1.9,36.8,3.1-20.1,9.6-57.5,11.5-78.2,8.6-9-1.3-19.3,4.7-28.5,8.5-7.5,3.1-14,10.6-21.5,11.4-29.8,3.1-55.1,17.8-81.3,29.9-42.3,19.5-80.6,44.7-116.2,75.2-32.6,27.8-51.2,61.8-61.8,102-7.3,27.6.2,52.3,13.6,75.6,12.9,22.5,31.5,39.8,53.8,53.7,63,39.3,132.6,54.2,205.6,56.8,27.6,1,55.3.7,83,.3,9.4-.1,18.7-2.5,31.4-4.3-18.6-20.5-43.2-27.3-60-44.4.8-6,1.5-12,2.7-21.2,14.7,6.7,28,12.1,40.5,18.7,13.4,7.1,26.5,14.8,39,23.3,9.6,6.6,19.2,13.9,26.8,22.6,10.1,11.7,9.5,22-.4,33.5-23.9,27.4-51.8,49.9-85,65.2-17.1,7.9-21.4,6.2-36.1-12.4,26.5-17.2,59.3-26,79.4-56.1-17.3,1.3-32.4,2.5-47.5,3.5-78.3,5.4-155.1-2.8-229.2-28.9-47.5-16.8-91.1-40.5-120.7-83.9C-.7,310.6-8.1,266.9,9.5,219.8c16.8-45,47.9-79.3,85.4-107.5,48.5-36.3,102-62.9,159.7-82.5C295.6,16,337.1,6.9,379.5.4c6.5-1,13.4.4,20.1.7l.3-.6Z"/>
</svg>