<svg xmlns="http://www.w3.org/2000/svg" width="192.635" height="67.231" viewBox="0 0 192.635 67.231">
  <g id="Group_297" data-name="Group 297" transform="translate(-571.394 -451.507)">
    <g id="Group_268" data-name="Group 268" transform="translate(571.394 451.507)">
      <path id="Path_302" data-name="Path 302" d="M18.961,0H180.605c10.472,0,10.668,8.489,10.668,18.961V46.908c0,10.472,1.1,18.961-9.367,18.961H18.961A18.961,18.961,0,0,1,0,46.908V18.961A18.961,18.961,0,0,1,18.961,0Z" transform="translate(0.681 0.681)" fill="#006a87"/>
      <path id="Path_234" data-name="Path 234" d="M754.227,518.738H581.2a9.813,9.813,0,0,1-9.8-9.8V461.309a9.813,9.813,0,0,1,9.8-9.8H754.227a9.813,9.813,0,0,1,9.8,9.8v47.627A9.813,9.813,0,0,1,754.227,518.738ZM581.2,452.87a8.449,8.449,0,0,0-8.439,8.439v47.627a8.449,8.449,0,0,0,8.439,8.439H754.227a8.449,8.449,0,0,0,8.439-8.439V461.309a8.449,8.449,0,0,0-8.439-8.439Z" transform="translate(-571.394 -451.507)" fill="#006a87"/>
    </g>
    <g id="Group_269" data-name="Group 269" transform="translate(572.075 452.188)">
      <path id="Path_235" data-name="Path 235" d="M639.939,453.007H582.014a9.12,9.12,0,0,0-9.12,9.121v47.628a9.12,9.12,0,0,0,9.12,9.121h57.924Z" transform="translate(-572.894 -453.007)" fill="#fff" fill-rule="evenodd"/>
    </g>
    <g id="Group_270" data-name="Group 270" transform="translate(600.173 472.668)">
      <path id="Path_236" data-name="Path 236" d="M638.442,498.094l-2.849,3.923a5.313,5.313,0,0,0,.964,6.859l5.282,3.813c.906.654.977,1.3.548,1.994l.767.57,2.674-3.7a5.013,5.013,0,0,0-.942-7.188l-5.326-3.879a1.335,1.335,0,0,1-.35-1.841l-.767-.548Z" transform="translate(-634.754 -498.094)" fill="#006a87" fill-rule="evenodd"/>
    </g>
    <g id="Group_271" data-name="Group 271" transform="translate(602.812 455.324)">
      <path id="Path_237" data-name="Path 237" d="M646.184,459.91l-4.435,6.133a7.609,7.609,0,0,0,1.518,9.875l7.291,5.351c1.478,1.085,1.671,3.847.6,5.264l.618.463,5.029-7.076a7.445,7.445,0,0,0-1.419-10.447l-7.8-5.663a2.37,2.37,0,0,1-.728-3.426l-.671-.475Z" transform="translate(-640.564 -459.91)" fill="#006a87" fill-rule="evenodd"/>
    </g>
    <g id="Group_272" data-name="Group 272" transform="translate(596.744 491.169)">
      <path id="Path_238" data-name="Path 238" d="M627.2,541.446h5.877l1.047,3.563h9.6l1.047-3.563h5.877l-.77-2.62H627.974l-.77,2.62Z" transform="translate(-627.204 -538.826)" fill="#006a87" fill-rule="evenodd"/>
    </g>
    <g id="Group_273" data-name="Group 273" transform="translate(626.094 510.972)">
      <path id="Path_239" data-name="Path 239" d="M692.822,583.523a.438.438,0,0,0-.021-.144.3.3,0,0,0-.072-.114.511.511,0,0,0-.134-.1,1.472,1.472,0,0,0-.208-.087c-.076-.027-.136-.051-.184-.074a.466.466,0,0,1-.108-.067.185.185,0,0,1-.051-.071.25.25,0,0,1-.013-.083.229.229,0,0,1,.016-.082.184.184,0,0,1,.052-.068.269.269,0,0,1,.091-.047.441.441,0,0,1,.133-.018.5.5,0,0,1,.2.035.643.643,0,0,1,.164.1l.107-.127a.828.828,0,0,0-.2-.115.781.781,0,0,0-.448-.017.431.431,0,0,0-.148.074.35.35,0,0,0-.095.118.345.345,0,0,0-.034.156.406.406,0,0,0,.022.139.3.3,0,0,0,.073.109.548.548,0,0,0,.133.092,1.461,1.461,0,0,0,.2.084,1.534,1.534,0,0,1,.171.07.567.567,0,0,1,.11.07.2.2,0,0,1,.059.077.233.233,0,0,1,.017.092.218.218,0,0,1-.086.183.381.381,0,0,1-.237.067.481.481,0,0,1-.214-.049.755.755,0,0,1-.185-.127l-.111.12a.733.733,0,0,0,.22.145.692.692,0,0,0,.284.057.649.649,0,0,0,.21-.032.472.472,0,0,0,.156-.085.36.36,0,0,0,.1-.129.393.393,0,0,0,.033-.161Z" transform="translate(-691.822 -582.425)" fill="#005486" fill-rule="evenodd"/>
    </g>
    <g id="Group_274" data-name="Group 274" transform="translate(627.356 510.995)">
      <path id="Path_240" data-name="Path 240" d="M695.893,583.934v-1.458h-.182l-.358.873c-.009.021-.018.044-.029.07s-.021.053-.031.08l-.028.075c-.008.024-.015.043-.019.058,0-.015-.011-.034-.019-.057l-.028-.074c-.01-.027-.021-.053-.031-.079s-.021-.05-.029-.073l-.353-.873H694.6v1.458h.16V582.79l.016.051c.006.02.014.041.022.062l.025.067a.633.633,0,0,0,.026.062l.394.939.4-.939c.008-.02.017-.04.025-.063l.026-.066c.008-.021.016-.042.022-.062l.016-.051v1.144Z" transform="translate(-694.6 -582.476)" fill="#005486" fill-rule="evenodd"/>
    </g>
    <g id="Group_275" data-name="Group 275" transform="translate(590.918 499.572)">
      <path id="Path_241" data-name="Path 241" d="M625.255,566.166c-.25-1.695-.933-2.1-2.3-2.7a3.036,3.036,0,0,0,1.667-2.71c0-2.435-1.994-3.426-4.17-3.426h-6.077v12.922h6.02C622.969,570.249,625.693,569.125,625.255,566.166Zm-8.13-6.369h3.157a1.382,1.382,0,1,1,.124,2.756h-3.281Zm3.522,8.01h-3.522v-2.948h3.522C623.237,564.859,623.079,567.807,620.647,567.807Z" transform="translate(-614.377 -557.327)" fill="#006a87" fill-rule="evenodd"/>
    </g>
    <g id="Group_276" data-name="Group 276" transform="translate(602.983 499.572)">
      <path id="Path_242" data-name="Path 242" d="M651.82,566.166c-.251-1.695-.934-2.1-2.3-2.7a3.035,3.035,0,0,0,1.667-2.71c0-2.435-1.994-3.426-4.17-3.426h-6.077v12.922h6.02C649.532,570.249,652.257,569.125,651.82,566.166Zm-8.13-6.369h3.157a1.382,1.382,0,1,1,.124,2.756H643.69Zm3.521,8.01H643.69v-2.948h3.521C649.8,564.859,649.643,567.807,647.211,567.807Z" transform="translate(-640.941 -557.327)" fill="#006a87" fill-rule="evenodd"/>
    </g>
    <g id="Group_277" data-name="Group 277" transform="translate(615.049 499.572)">
      <path id="Path_243" data-name="Path 243" d="M678.384,566.166c-.251-1.695-.933-2.1-2.3-2.7a3.035,3.035,0,0,0,1.667-2.71c0-2.435-1.994-3.426-4.169-3.426h-6.077v12.922h6.021C676.1,570.249,678.821,569.125,678.384,566.166Zm-8.13-6.369h3.157a1.382,1.382,0,1,1,.124,2.756h-3.281Zm3.521,8.01h-3.521v-2.948h3.521C676.365,564.859,676.207,567.807,673.775,567.807Z" transform="translate(-667.505 -557.327)" fill="#006a87" fill-rule="evenodd"/>
    </g>
    <g id="Group_296" data-name="Group 296" transform="translate(646.662 475.429)">
      <g id="Group_278" data-name="Group 278" transform="translate(12.331)">
        <path id="Path_244" data-name="Path 244" d="M774.346,506.287a6.537,6.537,0,0,0-2.981-1.919,6.011,6.011,0,0,0-1.583-.194,5.5,5.5,0,0,0-2.241.447,5.13,5.13,0,0,0-1.743,1.249,5.738,5.738,0,0,0-1.138,1.924,7.159,7.159,0,0,0-.409,2.472,7.616,7.616,0,0,0,.392,2.522,5.5,5.5,0,0,0,1.111,1.916,4.941,4.941,0,0,0,1.716,1.223,5.551,5.551,0,0,0,2.222.43c1.507,0,4.117-.824,4.86-2.293l-1.771-1.569a4.334,4.334,0,0,1-3.018,1.517,2.657,2.657,0,0,1-1.245-.287,2.752,2.752,0,0,1-.933-.793,3.6,3.6,0,0,1-.578-1.19,5.343,5.343,0,0,1-.2-1.476,5.48,5.48,0,0,1,.2-1.51,3.6,3.6,0,0,1,.569-1.181,2.62,2.62,0,0,1,.925-.776,2.722,2.722,0,0,1,1.245-.279,4.116,4.116,0,0,1,2.873,1.433l1.726-1.665Z" transform="translate(-764.252 -504.174)" fill="#fff" fill-rule="evenodd"/>
      </g>
      <g id="Group_279" data-name="Group 279" transform="translate(47.6 0.186)">
        <path id="Path_245" data-name="Path 245" d="M850.808,516.395v-2.312h-6.419v-2.852h5.166v-2.294h-5.166v-2.042h6.153v-2.311H841.9v11.812Z" transform="translate(-841.899 -504.583)" fill="#fff" fill-rule="evenodd"/>
      </g>
      <g id="Group_280" data-name="Group 280" transform="translate(58.365 0.186)">
        <path id="Path_246" data-name="Path 246" d="M875.214,507.747a4.826,4.826,0,0,0-1.3-1.831,5,5,0,0,0-1.955-1.021,9.233,9.233,0,0,0-2.464-.312H865.6v11.812h3.718a8.267,8.267,0,0,0,2.338-.337A5.93,5.93,0,0,0,873.7,515a5.2,5.2,0,0,0,1.439-1.839,6.091,6.091,0,0,0,.543-2.674A7.108,7.108,0,0,0,875.214,507.747Zm-2.322,4.218a3.022,3.022,0,0,1-.693,1.139,3.118,3.118,0,0,1-1.184.734,4.966,4.966,0,0,1-1.7.262h-1.227v-7.222h1.315a3.825,3.825,0,0,1,2.845.9,3.765,3.765,0,0,1,.871,2.708A4.459,4.459,0,0,1,872.892,511.965Z" transform="translate(-865.601 -504.583)" fill="#fff" fill-rule="evenodd"/>
      </g>
      <g id="Group_281" data-name="Group 281" transform="translate(70.858 0.186)">
        <path id="Path_247" data-name="Path 247" d="M895.593,516.395V504.583H893.1v11.812Z" transform="translate(-893.104 -504.583)" fill="#fff" fill-rule="evenodd"/>
      </g>
      <g id="Group_282" data-name="Group 282" transform="translate(75.311 0.186)">
        <path id="Path_248" data-name="Path 248" d="M912.546,506.912v-2.329h-9.639v2.329h3.575v9.483h2.489v-9.483Z" transform="translate(-902.907 -504.583)" fill="#fff" fill-rule="evenodd"/>
      </g>
      <g id="Group_283" data-name="Group 283" transform="translate(97.323 0.186)">
        <path id="Path_249" data-name="Path 249" d="M960.982,507.747a4.8,4.8,0,0,0-1.3-1.831,5.01,5.01,0,0,0-1.955-1.021,9.233,9.233,0,0,0-2.464-.312H951.37v11.812h3.717a8.268,8.268,0,0,0,2.339-.337A5.919,5.919,0,0,0,959.471,515a5.222,5.222,0,0,0,1.44-1.839,6.091,6.091,0,0,0,.542-2.674A7.082,7.082,0,0,0,960.982,507.747Zm-2.321,4.218a3.016,3.016,0,0,1-.693,1.139,3.116,3.116,0,0,1-1.183.734,4.974,4.974,0,0,1-1.7.262H953.86v-7.222h1.317a3.827,3.827,0,0,1,2.846.9,3.765,3.765,0,0,1,.871,2.708A4.457,4.457,0,0,1,958.661,511.965Z" transform="translate(-951.37 -504.583)" fill="#fff" fill-rule="evenodd"/>
      </g>
      <g id="Group_284" data-name="Group 284" transform="translate(86.548 0.186)">
        <path id="Path_250" data-name="Path 250" d="M936.558,516.395v-2.312h-6.42v-2.852H935.3v-2.294h-5.165v-2.042h6.153v-2.311h-8.643v11.812Z" transform="translate(-927.648 -504.583)" fill="#fff" fill-rule="evenodd"/>
      </g>
      <g id="Group_285" data-name="Group 285" transform="translate(65.718 15.437)">
        <path id="Path_251" data-name="Path 251" d="M890.7,549.972v-2.312h-6.419v-2.852h5.166v-2.3h-5.166v-2.042h6.153v-2.311h-8.643v11.811Z" transform="translate(-881.788 -538.161)" fill="#fff" fill-rule="evenodd"/>
      </g>
      <g id="Group_286" data-name="Group 286" transform="translate(23.826)">
        <path id="Path_252" data-name="Path 252" d="M799.653,506.287a6.535,6.535,0,0,0-2.981-1.919,6.009,6.009,0,0,0-1.583-.194,5.5,5.5,0,0,0-2.241.447,5.124,5.124,0,0,0-1.742,1.249,5.74,5.74,0,0,0-1.138,1.924,7.159,7.159,0,0,0-.409,2.472,7.641,7.641,0,0,0,.391,2.522,5.507,5.507,0,0,0,1.112,1.916,4.94,4.94,0,0,0,1.716,1.223,5.551,5.551,0,0,0,2.223.43c1.506,0,4.117-.824,4.86-2.293l-1.771-1.569a4.334,4.334,0,0,1-3.018,1.517,2.655,2.655,0,0,1-1.245-.287,2.754,2.754,0,0,1-.934-.793,3.6,3.6,0,0,1-.578-1.19,5.325,5.325,0,0,1-.2-1.476,5.461,5.461,0,0,1,.2-1.51,3.607,3.607,0,0,1,.569-1.181,2.619,2.619,0,0,1,.925-.776,2.723,2.723,0,0,1,1.245-.279,4.116,4.116,0,0,1,2.873,1.433l1.726-1.665Z" transform="translate(-789.559 -504.174)" fill="#fff" fill-rule="evenodd"/>
      </g>
      <g id="Group_287" data-name="Group 287" transform="translate(13.921 15.437)">
        <path id="Path_253" data-name="Path 253" d="M777.09,544.539a3.037,3.037,0,0,0-1.213-.962,2.539,2.539,0,0,0,.944-.945,2.67,2.67,0,0,0,.338-1.35,2.751,2.751,0,0,0-1.04-2.32,4.479,4.479,0,0,0-2.807-.8h-5.561v11.811h5.509a5.993,5.993,0,0,0,1.767-.244,3.771,3.771,0,0,0,1.36-.726,3.258,3.258,0,0,0,.875-1.2,4.091,4.091,0,0,0,.312-1.646A2.607,2.607,0,0,0,777.09,544.539Zm-6.965-4.2h3.084a1.8,1.8,0,0,1,1.143.287,1.032,1.032,0,0,1,.347.844,1.1,1.1,0,0,1-.3.8,1.456,1.456,0,0,1-1.066.313h-3.205Zm4.531,6.978a1.812,1.812,0,0,1-1.309.413h-3.222v-3.054h3.222q1.733,0,1.733,1.518A1.494,1.494,0,0,1,774.656,547.315Z" transform="translate(-767.752 -538.161)" fill="#fff" fill-rule="evenodd"/>
      </g>
      <g id="Group_288" data-name="Group 288" transform="translate(25.363 15.437)">
        <path id="Path_254" data-name="Path 254" d="M802.765,544.758v-6.6H800.34v6.632a3.437,3.437,0,0,1-.667,2.244,2.243,2.243,0,0,1-1.828.809,2.2,2.2,0,0,1-1.819-.827,3.535,3.535,0,0,1-.659-2.261v-6.6h-2.426v6.632a6.807,6.807,0,0,0,.356,2.294,4.749,4.749,0,0,0,1,1.679,4.172,4.172,0,0,0,1.551,1.038,5.468,5.468,0,0,0,2,.355,4.681,4.681,0,0,0,3.621-1.409,5.674,5.674,0,0,0,1.3-3.991Z" transform="translate(-792.942 -538.161)" fill="#fff" fill-rule="evenodd"/>
      </g>
      <g id="Group_289" data-name="Group 289" transform="translate(36.857 15.251)">
        <path id="Path_255" data-name="Path 255" d="M827.725,546.171a3.116,3.116,0,0,0-.363-1.586,3.207,3.207,0,0,0-.945-1.029,4.771,4.771,0,0,0-1.3-.633q-.72-.228-1.447-.4t-1.2-.3a3.782,3.782,0,0,1-.745-.287.974.974,0,0,1-.39-.346.944.944,0,0,1-.113-.481.914.914,0,0,1,.086-.388.9.9,0,0,1,.294-.338,1.692,1.692,0,0,1,.537-.245,3.072,3.072,0,0,1,.814-.093,3.5,3.5,0,0,1,1.5.312,4.45,4.45,0,0,1,1.256.9l1.75-1.654a6.515,6.515,0,0,0-1.931-1.366,6.389,6.389,0,0,0-4.176-.254,4.3,4.3,0,0,0-1.377.684,3.26,3.26,0,0,0-.927,1.088,3.063,3.063,0,0,0-.338,1.451,3.44,3.44,0,0,0,.278,1.468,2.623,2.623,0,0,0,.779.978,4.4,4.4,0,0,0,1.2.641,12.645,12.645,0,0,0,1.533.439q.85.185,1.386.355a3.434,3.434,0,0,1,.823.354,1.058,1.058,0,0,1,.39.4,1.112,1.112,0,0,1,.1.5,1.051,1.051,0,0,1-.511.978,3.236,3.236,0,0,1-1.6.3,4.5,4.5,0,0,1-1.672-.312A3.747,3.747,0,0,1,820,546.273l-1.75,1.519a4.677,4.677,0,0,0,1.941,1.569,6.553,6.553,0,0,0,2.772.574,7.464,7.464,0,0,0,2.14-.27,4.123,4.123,0,0,0,1.482-.768,3.007,3.007,0,0,0,.866-1.19,4.092,4.092,0,0,0,.277-1.536Z" transform="translate(-818.248 -537.751)" fill="#fff" fill-rule="evenodd"/>
      </g>
      <g id="Group_290" data-name="Group 290" transform="translate(48.299 15.437)">
        <path id="Path_256" data-name="Path 256" d="M845.864,549.972V538.161h-2.425v11.811Z" transform="translate(-843.439 -538.161)" fill="#fff" fill-rule="evenodd"/>
      </g>
      <g id="Group_291" data-name="Group 291" transform="translate(53.245 15.437)">
        <path id="Path_257" data-name="Path 257" d="M864.15,549.972V538.161h-2.391v4.994c0,.169,0,.378.008.625s.01.5.01.759,0,.481.008.7.01.385.01.5a7.134,7.134,0,0,0-.374-.616q-.25-.379-.476-.717l-4.3-6.243h-2.322v11.811h2.391v-5.2q0-.254-.009-.624c-.005-.248-.009-.5-.009-.742s0-.5-.009-.718-.008-.385-.008-.5a6.57,6.57,0,0,0,.372.616q.251.379.477.717l4.453,6.446Z" transform="translate(-854.327 -538.161)" fill="#fff" fill-rule="evenodd"/>
      </g>
      <g id="Group_292" data-name="Group 292" transform="translate(75.054 15.251)">
        <path id="Path_258" data-name="Path 258" d="M911.821,546.171a3.115,3.115,0,0,0-.364-1.586,3.2,3.2,0,0,0-.944-1.029,4.77,4.77,0,0,0-1.3-.633q-.72-.228-1.447-.4t-1.2-.3a3.8,3.8,0,0,1-.745-.287.969.969,0,0,1-.389-.346.935.935,0,0,1-.114-.481.91.91,0,0,1,.088-.388.9.9,0,0,1,.294-.338,1.674,1.674,0,0,1,.537-.245,3.068,3.068,0,0,1,.814-.093,3.5,3.5,0,0,1,1.5.312,4.437,4.437,0,0,1,1.255.9l1.751-1.654a6.54,6.54,0,0,0-1.933-1.366,6.389,6.389,0,0,0-4.176-.254,4.3,4.3,0,0,0-1.377.684,3.261,3.261,0,0,0-.927,1.088,3.06,3.06,0,0,0-.338,1.451,3.441,3.441,0,0,0,.278,1.468,2.632,2.632,0,0,0,.779.978,4.4,4.4,0,0,0,1.2.641,12.645,12.645,0,0,0,1.533.439q.85.185,1.385.355a3.481,3.481,0,0,1,.824.354,1.05,1.05,0,0,1,.389.4,1.106,1.106,0,0,1,.1.5,1.05,1.05,0,0,1-.511.978,3.237,3.237,0,0,1-1.6.3,4.5,4.5,0,0,1-1.672-.312,3.744,3.744,0,0,1-1.429-1.038l-1.751,1.519a4.674,4.674,0,0,0,1.941,1.569,6.551,6.551,0,0,0,2.772.574,7.464,7.464,0,0,0,2.139-.27,4.109,4.109,0,0,0,1.481-.768,3,3,0,0,0,.867-1.19,4.1,4.1,0,0,0,.277-1.536Z" transform="translate(-902.343 -537.751)" fill="#fff" fill-rule="evenodd"/>
      </g>
      <g id="Group_293" data-name="Group 293" transform="translate(85.474 15.251)">
        <path id="Path_259" data-name="Path 259" d="M934.761,546.171a3.121,3.121,0,0,0-.363-1.586,3.217,3.217,0,0,0-.945-1.029,4.776,4.776,0,0,0-1.3-.633q-.719-.228-1.447-.4t-1.2-.3a3.756,3.756,0,0,1-.745-.287.963.963,0,0,1-.39-.346.939.939,0,0,1-.114-.481.86.86,0,0,1,.382-.726,1.687,1.687,0,0,1,.536-.245,3.072,3.072,0,0,1,.814-.093,3.5,3.5,0,0,1,1.5.312,4.457,4.457,0,0,1,1.257.9l1.749-1.654a6.52,6.52,0,0,0-1.931-1.366,6.391,6.391,0,0,0-4.176-.254,4.3,4.3,0,0,0-1.377.684,3.267,3.267,0,0,0-.927,1.088,3.058,3.058,0,0,0-.338,1.451,3.433,3.433,0,0,0,.278,1.468,2.621,2.621,0,0,0,.779.978,4.405,4.405,0,0,0,1.2.641,12.641,12.641,0,0,0,1.534.439q.849.185,1.385.355a3.468,3.468,0,0,1,.823.354,1.067,1.067,0,0,1,.391.4,1.13,1.13,0,0,1,.1.5,1.051,1.051,0,0,1-.511.978,3.236,3.236,0,0,1-1.6.3,4.5,4.5,0,0,1-1.671-.312,3.736,3.736,0,0,1-1.429-1.038l-1.751,1.519a4.681,4.681,0,0,0,1.941,1.569,6.555,6.555,0,0,0,2.772.574,7.46,7.46,0,0,0,2.14-.27,4.114,4.114,0,0,0,1.481-.768,2.991,2.991,0,0,0,.866-1.19,4.085,4.085,0,0,0,.277-1.536Z" transform="translate(-925.283 -537.751)" fill="#fff" fill-rule="evenodd"/>
      </g>
      <g id="Group_294" data-name="Group 294" transform="translate(0 0.186)">
        <path id="Path_260" data-name="Path 260" d="M744.288,504.583H741.87L737.1,516.395h2.667l.978-2.633H745.3l.978,2.633h2.738Zm-2.685,6.935.8-2.143q.2-.523.364-1.012t.258-.827q.089.338.258.827t.364,1.012l.8,2.143Z" transform="translate(-737.104 -504.583)" fill="#fff" fill-rule="evenodd"/>
      </g>
      <g id="Group_295" data-name="Group 295" transform="translate(35.873 0.186)">
        <path id="Path_261" data-name="Path 261" d="M823.493,511.906a4.7,4.7,0,0,0,2.076-1.392,4.249,4.249,0,0,0,.258-3.831,3.356,3.356,0,0,0-.925-1.172,3.88,3.88,0,0,0-1.369-.7,5.874,5.874,0,0,0-1.653-.228h-5.8v11.812h2.49v-4.253l2.218.1,2.6,4.151h2.863Zm-1.667-1.991h-3.254v-3.037h3.254a2.169,2.169,0,0,1,1.307.346,1.337,1.337,0,0,1,.472,1.156Q823.6,509.914,821.826,509.916Z" transform="translate(-816.082 -504.583)" fill="#fff" fill-rule="evenodd"/>
      </g>
    </g>
  </g>
</svg>
