<?xml version="1.0" encoding="utf-8"?>
<!-- Generator: Adobe Illustrator 27.2.0, SVG Export Plug-In . SVG Version: 6.00 Build 0)  -->
<svg version="1.1" id="Layer_1" xmlns="http://www.w3.org/2000/svg" xmlns:xlink="http://www.w3.org/1999/xlink" x="0px" y="0px"
	 viewBox="0 0 385.1 403.9" style="enable-background:new 0 0 385.1 403.9;" xml:space="preserve">
<style type="text/css">
	.st0{fill:#E3EEFF;}
	.st1{fill:#203A72;}
	.st2{fill:#B8D2FF;stroke:#203A72;stroke-width:3;stroke-miterlimit:10;}
	.st3{fill:none;stroke:#203A72;stroke-width:4;stroke-miterlimit:10;}
	.st4{fill:none;stroke:#2EA507;stroke-width:4;stroke-miterlimit:10;}
	.st5{fill:#4FD80F;}
	.st6{fill-rule:evenodd;clip-rule:evenodd;fill:#203A72;}
	.st7{fill:#505050;}
	.st8{fill-rule:evenodd;clip-rule:evenodd;fill:#333333;}
	.st9{fill:#FFFFFF;}
	.st10{fill:#FEFEFE;}
	.st11{fill:#FDFDFD;}
	.st12{fill:#FCFCFC;}
	.st13{fill:#FBFBFB;}
	.st14{fill:#FAFAFA;}
	.st15{fill:#F9F9F9;}
	.st16{fill:#F8F8F8;}
	.st17{fill:#F7F7F7;}
	.st18{fill:#F6F6F6;}
	.st19{fill:#F5F5F5;}
	.st20{fill:#F4F4F4;}
	.st21{fill:#F4F3F3;}
	.st22{fill:#F3F2F2;}
	.st23{fill:#F2F1F1;}
	.st24{fill:#F1F0F0;}
	.st25{fill:#F0EFEF;}
	.st26{fill:#EFEFEE;}
	.st27{fill:#EEEEED;}
	.st28{fill:#EDEDEC;}
	.st29{fill:#ECECEB;}
	.st30{fill:#EBEBEA;}
	.st31{fill:#EAEAE9;}
	.st32{fill:#E9E9E8;}
	.st33{fill:#E8E8E7;}
	.st34{fill:#E7E7E6;}
	.st35{fill:#E6E6E5;}
	.st36{fill:#E5E5E4;}
	.st37{fill:#E4E4E3;}
	.st38{fill:#E3E3E2;}
	.st39{fill:#E2E2E1;}
	.st40{fill:#E1E1E0;}
	.st41{fill:#E0E0DF;}
	.st42{fill:#E0DFDF;}
	.st43{fill:#DFDEDE;}
	.st44{fill:#DEDDDD;}
	.st45{fill:#DDDCDC;}
	.st46{fill:#DCDBDB;}
	.st47{fill:#DBDADA;}
	.st48{fill:#DAD9D9;}
	.st49{fill:#D9D8D8;}
	.st50{fill:#D8D7D7;}
	.st51{fill:#D7D6D6;}
	.st52{fill:#D6D5D5;}
	.st53{fill:#D5D4D4;}
	.st54{fill:#D4D3D3;}
	.st55{fill:#D3D2D2;}
	.st56{fill:#D2D1D1;}
	.st57{fill:#D1D0D0;}
	.st58{fill:#D0CFCF;}
	.st59{fill:#CFCFCE;}
	.st60{fill:#CECECD;}
	.st61{fill:#CDCDCC;}
	.st62{fill:#CCCCCB;}
	.st63{fill:#CBCBCA;}
	.st64{fill:#CBCAC9;}
	.st65{fill:#CAC9C8;}
	.st66{fill:#C9C8C7;}
	.st67{fill:#C8C7C6;}
	.st68{fill:#C7C6C5;}
	.st69{fill:#C6C5C4;}
	.st70{fill:#C5C4C3;}
	.st71{fill:#C4C3C2;}
	.st72{fill:#C3C2C1;}
	.st73{fill:#C2C1C0;}
	.st74{fill:#C1C0BF;}
	.st75{fill:#C0BFBE;}
	.st76{fill:#BFBEBD;}
	.st77{fill:#BEBDBC;}
	.st78{fill:#BDBCBB;}
	.st79{fill:#BCBBBA;}
	.st80{fill:#BBBAB9;}
	.st81{fill:#BAB9B8;}
	.st82{fill:#B9B8B7;}
	.st83{fill:#B8B7B6;}
	.st84{fill:#B7B6B6;}
	.st85{fill:#B6B5B5;}
	.st86{fill:#B5B4B4;}
	.st87{fill:#B4B3B3;}
	.st88{fill:#B3B2B2;}
	.st89{fill:#B2B2B1;}
	.st90{fill:#B1B1B0;}
	.st91{fill:#B0B0AF;}
	.st92{fill:#AFAFAE;}
	.st93{fill:#AEAEAD;}
	.st94{fill:#ADADAC;}
	.st95{fill:#ACACAB;}
	.st96{fill:#ABABAA;}
	.st97{fill:#AAAAA9;}
	.st98{fill:#A9A9A8;}
	.st99{fill:#A8A8A7;}
	.st100{fill:#A7A7A6;}
	.st101{fill:#A7A6A6;}
	.st102{fill:#A6A5A5;}
	.st103{fill:#A5A4A4;}
	.st104{fill:#A4A3A3;}
	.st105{fill:#A3A2A2;}
	.st106{fill:#A2A1A1;}
	.st107{fill:#A1A0A0;}
	.st108{fill:#A09F9F;}
	.st109{fill:#9F9E9E;}
	.st110{fill:#9E9D9D;}
	.st111{fill:#9D9C9C;}
	.st112{fill:#9C9B9B;}
	.st113{fill:#9B9A9A;}
	.st114{fill:#9A9A99;}
	.st115{fill:#999998;}
	.st116{fill:#989897;}
	.st117{fill:#979796;}
	.st118{fill:#969695;}
	.st119{fill:#959595;}
	.st120{fill:#949494;}
	.st121{fill:#939393;}
	.st122{fill:#929292;}
	.st123{fill:#919191;}
	.st124{fill:#909090;}
	.st125{fill:#8F8F8F;}
	.st126{fill:#8E8E8E;}
	.st127{fill:#8D8D8D;}
	.st128{fill:url(#SVGID_1_);}
	.st129{fill:url(#SVGID_00000147193206068350094590000017866361307620036996_);}
	.st130{fill:url(#SVGID_00000129899836251034729130000007432355140597436570_);}
	.st131{fill:#AEAEAF;}
	.st132{fill:url(#SVGID_00000173135210957672683720000015484172189469266098_);}
	.st133{fill:#5A5751;}
	.st134{fill:url(#SVGID_00000151502639582390814840000000367199860912920205_);}
	.st135{fill:#C6852A;}
	.st136{fill:#D0912A;}
	.st137{fill:#8FF3AD;}
	.st138{fill:#EBEDF0;}
	.st139{fill:#FBB03B;}
	.st140{fill:#333366;}
	.st141{fill:#FFB600;}
	.st142{fill:#14A0DE;}
</style>
<path d="M249.9,179v26.3c0,4-3.2,7.2-7.2,7.2H142.4c-4,0-7.2-3.3-7.2-7.2V179c0-20,11.1-32.1,25.3-38.7c8.7,7.2,19.9,11.6,32.1,11.6
	c12.2,0,23.4-4.4,32.1-11.6C238.8,146.9,249.9,159,249.9,179z M192.5,136c19.1,0,34.7-15.5,34.7-34.7s-15.5-34.7-34.7-34.7
	c-19.1,0-34.7,15.5-34.7,34.7S173.4,136,192.5,136z M99.4,110.2c-3.6,0.3-6.9,2-9.1,4.9l-61.7,79.2c-5.7,7.4-8.4,16.7-7.5,26
	l4.7,48.6c0.3,3-0.6,6-2.4,8.3l-11.2,14.3c-1.8,2.3-1.3,5.6,1,7.3l43.6,32.3c2.2,1.7,5.4,1.2,7.1-1l42.1-54.4
	c4.1-5.7,6.3-12.8,6-19.8l-2.3-64.3c-0.1-2.9-1.4-5.6-3.5-7.6c-2.2-2-5-3-7.9-2.9c-4.9,0.2-9.1,3.8-10.1,8.7l-0.6,2.6
	c-2.9,13.6-4.6,27.5-5.1,41.4L82,246.9c-0.1,2-0.9,3.8-2.3,5.1c-1.4,1.3-3.3,2-5.2,1.9c-1.9-0.1-3.7-0.9-5.1-2.3
	c-1.3-1.4-2-3.3-1.9-5.2l0.4-12.2c0.5-15.4,2.4-30.7,5.7-45.8l0.3-1.5c2.4-11.2,11.8-19.6,23.2-20.2c1,0,2.1-0.1,3.1,0l12.4-39.9
	c1.4-4.6,0.1-9.8-3.4-13.1C106.5,111.2,103,109.9,99.4,110.2z M372.9,291.5l-11.2-14.3c-1.8-2.4-2.7-5.3-2.4-8.3l4.7-48.6
	c0.9-9.3-1.8-18.6-7.5-26l-61.7-79.2c-2.2-2.9-5.5-4.6-9.1-4.9c-3.6-0.3-7.1,1-9.7,3.5c-3.5,3.3-4.9,8.5-3.4,13.1l12.4,39.9
	c1-0.1,2,0,3.1,0c11.4,0.6,20.8,9,23.2,20.2l0.3,1.5c3.2,15.1,5.1,30.4,5.7,45.8l0.4,12.2c0.1,1.9-0.6,3.8-1.9,5.2
	c-1.3,1.4-3.1,2.2-5.1,2.3c-2,0.1-3.8-0.6-5.2-1.9c-1.4-1.3-2.2-3.1-2.3-5.1l-0.5-12.9c-0.5-13.9-2.2-27.8-5.1-41.4l-0.6-2.6
	c-1-4.9-5.2-8.4-10.1-8.7c-2.9-0.1-5.7,0.9-7.9,2.9c-2.2,2-3.4,4.7-3.5,7.6l-2.3,64.3c-0.3,7,1.9,14.1,6,19.8l42.1,54.4
	c1.7,2.2,4.9,2.7,7.1,1l43.6-32.3C374.3,297.1,374.7,293.8,372.9,291.5z M233.2,243c-11.4-5.9-25.5-2.5-34.6,6.6l-6,6l-6.8-6.8
	c-13.8-13.8-37.9-11.1-47.7,8c-5.9,11.4-2.5,25.5,6.6,34.6l44.1,44.1c2.1,2.1,5.5,2.1,7.7,0l44.9-44.9
	C255.1,276.9,252.4,252.9,233.2,243z"/>
</svg>
