<?xml version="1.0" encoding="utf-8"?>
<!-- Generator: Adobe Illustrator 27.2.0, SVG Export Plug-In . SVG Version: 6.00 Build 0)  -->
<svg version="1.1" id="Layer_1" xmlns="http://www.w3.org/2000/svg" xmlns:xlink="http://www.w3.org/1999/xlink" x="0px" y="0px"
	 viewBox="0 0 385.1 403.9" style="enable-background:new 0 0 385.1 403.9;" xml:space="preserve">
<style type="text/css">
	.st0{fill:#FBB03B;}
	.st1{fill:#E3EEFF;}
	.st2{fill:#203A72;}
	.st3{fill:#B8D2FF;stroke:#203A72;stroke-width:3;stroke-miterlimit:10;}
	.st4{fill:none;stroke:#203A72;stroke-width:4;stroke-miterlimit:10;}
	.st5{fill:none;stroke:#2EA507;stroke-width:4;stroke-miterlimit:10;}
	.st6{fill:#4FD80F;}
	.st7{fill-rule:evenodd;clip-rule:evenodd;fill:#203A72;}
	.st8{fill:#505050;}
	.st9{fill-rule:evenodd;clip-rule:evenodd;fill:#333333;}
	.st10{fill:#FFFFFF;}
	.st11{fill:#FEFEFE;}
	.st12{fill:#FDFDFD;}
	.st13{fill:#FCFCFC;}
	.st14{fill:#FBFBFB;}
	.st15{fill:#FAFAFA;}
	.st16{fill:#F9F9F9;}
	.st17{fill:#F8F8F8;}
	.st18{fill:#F7F7F7;}
	.st19{fill:#F6F6F6;}
	.st20{fill:#F5F5F5;}
	.st21{fill:#F4F4F4;}
	.st22{fill:#F4F3F3;}
	.st23{fill:#F3F2F2;}
	.st24{fill:#F2F1F1;}
	.st25{fill:#F1F0F0;}
	.st26{fill:#F0EFEF;}
	.st27{fill:#EFEFEE;}
	.st28{fill:#EEEEED;}
	.st29{fill:#EDEDEC;}
	.st30{fill:#ECECEB;}
	.st31{fill:#EBEBEA;}
	.st32{fill:#EAEAE9;}
	.st33{fill:#E9E9E8;}
	.st34{fill:#E8E8E7;}
	.st35{fill:#E7E7E6;}
	.st36{fill:#E6E6E5;}
	.st37{fill:#E5E5E4;}
	.st38{fill:#E4E4E3;}
	.st39{fill:#E3E3E2;}
	.st40{fill:#E2E2E1;}
	.st41{fill:#E1E1E0;}
	.st42{fill:#E0E0DF;}
	.st43{fill:#E0DFDF;}
	.st44{fill:#DFDEDE;}
	.st45{fill:#DEDDDD;}
	.st46{fill:#DDDCDC;}
	.st47{fill:#DCDBDB;}
	.st48{fill:#DBDADA;}
	.st49{fill:#DAD9D9;}
	.st50{fill:#D9D8D8;}
	.st51{fill:#D8D7D7;}
	.st52{fill:#D7D6D6;}
	.st53{fill:#D6D5D5;}
	.st54{fill:#D5D4D4;}
	.st55{fill:#D4D3D3;}
	.st56{fill:#D3D2D2;}
	.st57{fill:#D2D1D1;}
	.st58{fill:#D1D0D0;}
	.st59{fill:#D0CFCF;}
	.st60{fill:#CFCFCE;}
	.st61{fill:#CECECD;}
	.st62{fill:#CDCDCC;}
	.st63{fill:#CCCCCB;}
	.st64{fill:#CBCBCA;}
	.st65{fill:#CBCAC9;}
	.st66{fill:#CAC9C8;}
	.st67{fill:#C9C8C7;}
	.st68{fill:#C8C7C6;}
	.st69{fill:#C7C6C5;}
	.st70{fill:#C6C5C4;}
	.st71{fill:#C5C4C3;}
	.st72{fill:#C4C3C2;}
	.st73{fill:#C3C2C1;}
	.st74{fill:#C2C1C0;}
	.st75{fill:#C1C0BF;}
	.st76{fill:#C0BFBE;}
	.st77{fill:#BFBEBD;}
	.st78{fill:#BEBDBC;}
	.st79{fill:#BDBCBB;}
	.st80{fill:#BCBBBA;}
	.st81{fill:#BBBAB9;}
	.st82{fill:#BAB9B8;}
	.st83{fill:#B9B8B7;}
	.st84{fill:#B8B7B6;}
	.st85{fill:#B7B6B6;}
	.st86{fill:#B6B5B5;}
	.st87{fill:#B5B4B4;}
	.st88{fill:#B4B3B3;}
	.st89{fill:#B3B2B2;}
	.st90{fill:#B2B2B1;}
	.st91{fill:#B1B1B0;}
	.st92{fill:#B0B0AF;}
	.st93{fill:#AFAFAE;}
	.st94{fill:#AEAEAD;}
	.st95{fill:#ADADAC;}
	.st96{fill:#ACACAB;}
	.st97{fill:#ABABAA;}
	.st98{fill:#AAAAA9;}
	.st99{fill:#A9A9A8;}
	.st100{fill:#A8A8A7;}
	.st101{fill:#A7A7A6;}
	.st102{fill:#A7A6A6;}
	.st103{fill:#A6A5A5;}
	.st104{fill:#A5A4A4;}
	.st105{fill:#A4A3A3;}
	.st106{fill:#A3A2A2;}
	.st107{fill:#A2A1A1;}
	.st108{fill:#A1A0A0;}
	.st109{fill:#A09F9F;}
	.st110{fill:#9F9E9E;}
	.st111{fill:#9E9D9D;}
	.st112{fill:#9D9C9C;}
	.st113{fill:#9C9B9B;}
	.st114{fill:#9B9A9A;}
	.st115{fill:#9A9A99;}
	.st116{fill:#999998;}
	.st117{fill:#989897;}
	.st118{fill:#979796;}
	.st119{fill:#969695;}
	.st120{fill:#959595;}
	.st121{fill:#949494;}
	.st122{fill:#939393;}
	.st123{fill:#929292;}
	.st124{fill:#919191;}
	.st125{fill:#909090;}
	.st126{fill:#8F8F8F;}
	.st127{fill:#8E8E8E;}
	.st128{fill:#8D8D8D;}
	.st129{fill:url(#SVGID_1_);}
	.st130{fill:url(#SVGID_00000155865302790209237160000016185274238023995558_);}
	.st131{fill:url(#SVGID_00000000933973880007003640000009808625914719581329_);}
	.st132{fill:#AEAEAF;}
	.st133{fill:url(#SVGID_00000062187919551463651540000007864197817229590438_);}
	.st134{fill:#5A5751;}
	.st135{fill:url(#SVGID_00000041260529736638457900000010579026637728970889_);}
	.st136{fill:#C6852A;}
	.st137{fill:#D0912A;}
	.st138{fill:#8FF3AD;}
	.st139{fill:#EBEDF0;}
	.st140{fill:#333366;}
	.st141{fill:#FFB600;}
	.st142{fill:#14A0DE;}
	.st143{fill-rule:evenodd;clip-rule:evenodd;}
	.st144{fill:#1C1C1C;}
	.st145{fill:#606060;}
	.st146{fill:#3ABF00;}
</style>
<path d="M126.9,153.1l-22.8,64.6c-2.1,6.9-7.2,12.1-12.8,13c-2.8,0.4-5.4-0.2-7.6-1.7c-0.4-0.3-0.8-0.6-1.2-1l39.6-74.2
	c1.1-0.1,2.1-0.2,3.2-0.4l0.1,0l0.1,0L126.9,153.1z M110.8,151.6c-0.1,0-0.2-0.1-0.3-0.1c-0.5-0.3-1.1-0.5-1.6-0.8
	c0,0-0.1,0-0.1-0.1L69,204.5c-4.8,7.2-13.2,11-21.6,10.1c-1.1,3.5-2.1,6.8-3,9.9c-1.9,6.6,0.2,12.5,4.3,15.3c1.7,1.2,3.7,1.8,6,1.8
	c5.7,0,11.6-4.4,14.6-10.9l42.1-78.9C111.3,151.8,111,151.7,110.8,151.6z M60.6,198.6l40.7-55c-1.9-2.7-3.2-5.8-3.8-9.1
	c-2.2-11.7,4.3-22.3,17.4-28.3l0.3-0.1l0.3-0.1l38.7-14.8l3.7,9.6l-38.7,14.8c-4.2,1.9-13.4,7.3-11.6,17.1c0.5,2.7,1.8,5.1,3.6,6.9
	c0,0,0.1,0.1,0.1,0.1c0.2,0.2,0.5,0.4,0.7,0.6c0.1,0.1,0.2,0.2,0.3,0.2c0.1,0.1,0.3,0.2,0.4,0.3c0.2,0.1,0.3,0.2,0.5,0.4
	c2.9,2,6.5,2.8,10.1,2.1l80-16.3c6.3-1.3,11.8-5.2,15-10.8l17.5-30.5l28.8-40L204.1,2.4l-35.8,50.8L86.8,90.7
	c-4.8,2.2-8.7,6-10.9,10.8c-8.2,17.4-28.6,61.3-38.3,86.3c-2.1,5.4,0.3,11.2,4.9,14.3c1.3,0.9,2.8,1.6,4.4,2
	C52.1,205.4,57.7,203.2,60.6,198.6z M259.7,250.5L259.7,250.5l0.2,0c1.1-0.2,2.1-0.3,3.2-0.4l39.6-74.2c-0.4-0.4-0.8-0.7-1.2-1
	c-2.2-1.5-4.8-2.1-7.6-1.7c-5.6,0.9-10.8,6.1-12.8,13l-22.8,64.6L259.7,250.5z M274.2,252.3c0.1,0,0.2,0.1,0.3,0.1
	c0.5,0.3,1.1,0.5,1.6,0.8c0,0,0.1,0,0.1,0.1l39.9-53.9c4.8-7.2,13.2-11,21.6-10.1c1.1-3.5,2.1-6.8,3-9.9c1.9-6.6-0.2-12.5-4.3-15.3
	c-1.7-1.2-3.7-1.8-6-1.8c-5.7,0-11.6,4.4-14.6,10.9L273.6,252C273.8,252.1,274,252.2,274.2,252.3z M342.7,201.7
	c-1.3-0.9-2.8-1.6-4.4-2c-5.3-1.3-10.8,1-13.8,5.5l-40.7,55c1.9,2.7,3.2,5.8,3.8,9.1c2.2,11.7-4.3,22.3-17.4,28.3l-0.3,0.1l-0.3,0.1
	L231,312.8l-3.7-9.6l38.7-14.8c4.2-1.9,13.4-7.3,11.6-17.1c-0.5-2.7-1.8-5.1-3.6-6.9c0,0-0.1-0.1-0.1-0.1c-0.2-0.2-0.5-0.4-0.7-0.6
	c-0.1-0.1-0.2-0.2-0.3-0.2c-0.1-0.1-0.3-0.2-0.4-0.3c-0.2-0.1-0.3-0.2-0.5-0.4c-2.9-2-6.5-2.8-10.1-2.1l-80,16.3
	c-6.3,1.3-11.8,5.2-15,10.8l-17.5,30.5l-28.8,40l60.5,43.2l35.8-50.8l81.5-37.6c4.8-2.2,8.7-6,10.9-10.8
	c8.2-17.4,28.6-61.3,38.3-86.3C349.7,210.6,347.2,204.8,342.7,201.7z M259.7,186.4L259.7,186.4c0.3,11.3-4.4,23.3-13.7,34.7
	c-10.5,13-26.5,24.9-47.5,35.5l-2.9,1.4l-2.9-1.4c-21-10.6-37-22.5-47.5-35.5c-9.3-11.4-14-23.4-13.7-34.7l0,0c0-0.2,0-0.4,0-0.6
	c0-18.9,15.8-34.4,35.2-34.4c8.8,0,17.2,3.2,23.8,9.1c1.9,1.7,3.6,3.6,5.1,5.6c1.5-2,3.2-3.9,5.1-5.7c6.6-5.9,15-9.1,23.8-9.1
	c19.4,0,35.2,15.4,35.2,34.4C259.7,186,259.7,186.2,259.7,186.4z M167,175c0-4.7-3.8-8.5-8.5-8.5c-4.7,0-8.5,3.8-8.5,8.5
	c0,4.7,3.8,8.5,8.5,8.5C163.2,183.5,167,179.7,167,175z"/>
</svg>
