<?xml version="1.0" encoding="utf-8"?>
<!-- Generator: Adobe Illustrator 27.4.1, SVG Export Plug-In . SVG Version: 6.00 Build 0)  -->
<svg version="1.1" id="Layer_1" xmlns="http://www.w3.org/2000/svg" xmlns:xlink="http://www.w3.org/1999/xlink" x="0px" y="0px"
	 viewBox="0 0 160 160" style="enable-background:new 0 0 160 160;" xml:space="preserve">
<style type="text/css">
	.st0{opacity:0.1;fill-rule:evenodd;clip-rule:evenodd;}
</style>
<path class="st0" d="M0,0h2L1,2L0,0z M4,7.8l1-2H3L4,7.8z M7,2l1-2H6L7,2z M9.9,7.8l1-2h-2L9.9,7.8z M12.9,2l1-2h-2L12.9,2z
	 M15.9,7.8l1-2h-2L15.9,7.8z M18.9,2l1-2h-2L18.9,2z M21.9,7.8l1-2h-2L21.9,7.8z M24.8,2l1-2h-2L24.8,2z M27.8,7.8l1-2h-2L27.8,7.8z
	 M30.8,2l1-2h-2L30.8,2z M33.8,7.8l1-2h-2L33.8,7.8z M36.8,2l1-2h-2L36.8,2z M39.8,7.8l1-2h-2L39.8,7.8z M42.7,2l1-2h-2L42.7,2z
	 M45.7,7.8l1-2h-2L45.7,7.8z M48.7,2l1-2h-2L48.7,2z M51.7,7.8l1-2h-2L51.7,7.8z M54.7,2l1-2h-2L54.7,2z M57.6,7.8l1-2h-2L57.6,7.8z
	 M60.6,2l1-2h-2L60.6,2z M63.6,7.8l1-2h-2L63.6,7.8z M66.6,2l1-2h-2L66.6,2z M69.6,7.8l1-2h-2L69.6,7.8z M72.5,2l1-2h-2L72.5,2z
	 M75.5,7.8l1-2h-2L75.5,7.8z M78.5,2l1-2h-2L78.5,2z M81.5,7.8l1-2h-2L81.5,7.8z M84.5,2l1-2h-2L84.5,2z M87.5,7.8l1-2h-2L87.5,7.8z
	 M90.4,2l1-2h-2L90.4,2z M93.4,7.8l1-2h-2L93.4,7.8z M96.4,2l1-2h-2L96.4,2z M99.4,7.8l1-2h-2L99.4,7.8z M102.4,2l1-2h-2L102.4,2z
	 M105.3,7.8l1-2h-2L105.3,7.8z M108.3,2l1-2h-2L108.3,2z M111.3,7.8l1-2h-2L111.3,7.8z M114.3,2l1-2h-2L114.3,2z M117.3,7.8l1-2h-2
	L117.3,7.8z M120.2,2l1-2h-2L120.2,2z M123.2,7.8l1-2h-2L123.2,7.8z M126.2,2l1-2h-2L126.2,2z M129.2,7.8l1-2h-2L129.2,7.8z
	 M132.2,2l1-2h-2L132.2,2z M135.2,7.8l1-2h-2L135.2,7.8z M138.1,2l1-2h-2L138.1,2z M141.1,7.8l1-2h-2L141.1,7.8z M144.1,2l1-2h-2
	L144.1,2z M147.1,7.8l1-2h-2L147.1,7.8z M150.1,2l1-2h-2L150.1,2z M153,7.8l1-2h-2L153,7.8z M156,2l1-2h-2L156,2z M160,5.9h-2l1,2
	L160,5.9z M1,13.7l1-2H0L1,13.7z M4,19.5l1-2H3L4,19.5z M7,13.7l1-2H6L7,13.7z M9.9,19.5l1-2h-2L9.9,19.5z M12.9,13.7l1-2h-2
	L12.9,13.7z M15.9,19.5l1-2h-2L15.9,19.5z M18.9,13.7l1-2h-2L18.9,13.7z M21.9,19.5l1-2h-2L21.9,19.5z M24.8,13.7l1-2h-2L24.8,13.7z
	 M27.8,19.5l1-2h-2L27.8,19.5z M30.8,13.7l1-2h-2L30.8,13.7z M33.8,19.5l1-2h-2L33.8,19.5z M36.8,13.7l1-2h-2L36.8,13.7z M39.8,19.5
	l1-2h-2L39.8,19.5z M42.7,13.7l1-2h-2L42.7,13.7z M45.7,19.5l1-2h-2L45.7,19.5z M48.7,13.7l1-2h-2L48.7,13.7z M51.7,19.5l1-2h-2
	L51.7,19.5z M54.7,13.7l1-2h-2L54.7,13.7z M57.6,19.5l1-2h-2L57.6,19.5z M60.6,13.7l1-2h-2L60.6,13.7z M63.6,19.5l1-2h-2L63.6,19.5z
	 M66.6,13.7l1-2h-2L66.6,13.7z M69.6,19.5l1-2h-2L69.6,19.5z M72.5,13.7l1-2h-2L72.5,13.7z M75.5,19.5l1-2h-2L75.5,19.5z M78.5,13.7
	l1-2h-2L78.5,13.7z M81.5,19.5l1-2h-2L81.5,19.5z M84.5,13.7l1-2h-2L84.5,13.7z M87.5,19.5l1-2h-2L87.5,19.5z M90.4,13.7l1-2h-2
	L90.4,13.7z M93.4,19.5l1-2h-2L93.4,19.5z M96.4,13.7l1-2h-2L96.4,13.7z M99.4,19.5l1-2h-2L99.4,19.5z M102.4,13.7l1-2h-2
	L102.4,13.7z M105.3,19.5l1-2h-2L105.3,19.5z M108.3,13.7l1-2h-2L108.3,13.7z M111.3,19.5l1-2h-2L111.3,19.5z M114.3,13.7l1-2h-2
	L114.3,13.7z M117.3,19.5l1-2h-2L117.3,19.5z M120.2,13.7l1-2h-2L120.2,13.7z M123.2,19.5l1-2h-2L123.2,19.5z M126.2,13.7l1-2h-2
	L126.2,13.7z M129.2,19.5l1-2h-2L129.2,19.5z M132.2,13.7l1-2h-2L132.2,13.7z M135.2,19.5l1-2h-2L135.2,19.5z M138.1,13.7l1-2h-2
	L138.1,13.7z M141.1,19.5l1-2h-2L141.1,19.5z M144.1,13.7l1-2h-2L144.1,13.7z M147.1,19.5l1-2h-2L147.1,19.5z M150.1,13.7l1-2h-2
	L150.1,13.7z M153,19.5l1-2h-2L153,19.5z M156,13.7l1-2h-2L156,13.7z M159,19.5l1-2h-2L159,19.5z M1,25.4l1-2H0L1,25.4z M4,31.2l1-2
	H3L4,31.2z M7,25.4l1-2H6L7,25.4z M9.9,31.2l1-2h-2L9.9,31.2z M12.9,25.4l1-2h-2L12.9,25.4z M15.9,31.2l1-2h-2L15.9,31.2z
	 M18.9,25.4l1-2h-2L18.9,25.4z M21.9,31.2l1-2h-2L21.9,31.2z M24.8,25.4l1-2h-2L24.8,25.4z M27.8,31.2l1-2h-2L27.8,31.2z M30.8,25.4
	l1-2h-2L30.8,25.4z M33.8,31.2l1-2h-2L33.8,31.2z M36.8,25.4l1-2h-2L36.8,25.4z M39.8,31.2l1-2h-2L39.8,31.2z M42.7,25.4l1-2h-2
	L42.7,25.4z M45.7,31.2l1-2h-2L45.7,31.2z M48.7,25.4l1-2h-2L48.7,25.4z M51.7,31.2l1-2h-2L51.7,31.2z M54.7,25.4l1-2h-2L54.7,25.4z
	 M57.6,31.2l1-2h-2L57.6,31.2z M60.6,25.4l1-2h-2L60.6,25.4z M63.6,31.2l1-2h-2L63.6,31.2z M66.6,25.4l1-2h-2L66.6,25.4z M69.6,31.2
	l1-2h-2L69.6,31.2z M72.5,25.4l1-2h-2L72.5,25.4z M75.5,31.2l1-2h-2L75.5,31.2z M78.5,25.4l1-2h-2L78.5,25.4z M81.5,31.2l1-2h-2
	L81.5,31.2z M84.5,25.4l1-2h-2L84.5,25.4z M87.5,31.2l1-2h-2L87.5,31.2z M90.4,25.4l1-2h-2L90.4,25.4z M93.4,31.2l1-2h-2L93.4,31.2z
	 M96.4,25.4l1-2h-2L96.4,25.4z M99.4,31.2l1-2h-2L99.4,31.2z M102.4,25.4l1-2h-2L102.4,25.4z M105.3,31.2l1-2h-2L105.3,31.2z
	 M108.3,25.4l1-2h-2L108.3,25.4z M111.3,31.2l1-2h-2L111.3,31.2z M114.3,25.4l1-2h-2L114.3,25.4z M117.3,31.2l1-2h-2L117.3,31.2z
	 M120.2,25.4l1-2h-2L120.2,25.4z M123.2,31.2l1-2h-2L123.2,31.2z M126.2,25.4l1-2h-2L126.2,25.4z M129.2,31.2l1-2h-2L129.2,31.2z
	 M132.2,25.4l1-2h-2L132.2,25.4z M135.2,31.2l1-2h-2L135.2,31.2z M138.1,25.4l1-2h-2L138.1,25.4z M141.1,31.2l1-2h-2L141.1,31.2z
	 M144.1,25.4l1-2h-2L144.1,25.4z M147.1,31.2l1-2h-2L147.1,31.2z M150.1,25.4l1-2h-2L150.1,25.4z M153,31.2l1-2h-2L153,31.2z
	 M156,25.4l1-2h-2L156,25.4z M159,31.2l1-2h-2L159,31.2z M1,37.1l1-2H0L1,37.1z M4,42.9l1-2H3L4,42.9z M7,37.1l1-2H6L7,37.1z
	 M9.9,42.9l1-2h-2L9.9,42.9z M12.9,37.1l1-2h-2L12.9,37.1z M15.9,42.9l1-2h-2L15.9,42.9z M18.9,37.1l1-2h-2L18.9,37.1z M21.9,42.9
	l1-2h-2L21.9,42.9z M24.8,37.1l1-2h-2L24.8,37.1z M27.8,42.9l1-2h-2L27.8,42.9z M30.8,37.1l1-2h-2L30.8,37.1z M33.8,42.9l1-2h-2
	L33.8,42.9z M36.8,37.1l1-2h-2L36.8,37.1z M39.8,42.9l1-2h-2L39.8,42.9z M42.7,37.1l1-2h-2L42.7,37.1z M45.7,42.9l1-2h-2L45.7,42.9z
	 M48.7,37.1l1-2h-2L48.7,37.1z M51.7,42.9l1-2h-2L51.7,42.9z M54.7,37.1l1-2h-2L54.7,37.1z M57.6,42.9l1-2h-2L57.6,42.9z M60.6,37.1
	l1-2h-2L60.6,37.1z M63.6,42.9l1-2h-2L63.6,42.9z M66.6,37.1l1-2h-2L66.6,37.1z M69.6,42.9l1-2h-2L69.6,42.9z M72.5,37.1l1-2h-2
	L72.5,37.1z M75.5,42.9l1-2h-2L75.5,42.9z M78.5,37.1l1-2h-2L78.5,37.1z M81.5,42.9l1-2h-2L81.5,42.9z M84.5,37.1l1-2h-2L84.5,37.1z
	 M87.5,42.9l1-2h-2L87.5,42.9z M90.4,37.1l1-2h-2L90.4,37.1z M93.4,42.9l1-2h-2L93.4,42.9z M96.4,37.1l1-2h-2L96.4,37.1z M99.4,42.9
	l1-2h-2L99.4,42.9z M102.4,37.1l1-2h-2L102.4,37.1z M105.3,42.9l1-2h-2L105.3,42.9z M108.3,37.1l1-2h-2L108.3,37.1z M111.3,42.9l1-2
	h-2L111.3,42.9z M114.3,37.1l1-2h-2L114.3,37.1z M117.3,42.9l1-2h-2L117.3,42.9z M120.2,37.1l1-2h-2L120.2,37.1z M123.2,42.9l1-2h-2
	L123.2,42.9z M126.2,37.1l1-2h-2L126.2,37.1z M129.2,42.9l1-2h-2L129.2,42.9z M132.2,37.1l1-2h-2L132.2,37.1z M135.2,42.9l1-2h-2
	L135.2,42.9z M138.1,37.1l1-2h-2L138.1,37.1z M141.1,42.9l1-2h-2L141.1,42.9z M144.1,37.1l1-2h-2L144.1,37.1z M147.1,42.9l1-2h-2
	L147.1,42.9z M150.1,37.1l1-2h-2L150.1,37.1z M153,42.9l1-2h-2L153,42.9z M156,37.1l1-2h-2L156,37.1z M159,42.9l1-2h-2L159,42.9z
	 M1,48.8l1-2H0L1,48.8z M4,54.6l1-2H3L4,54.6z M7,48.8l1-2H6L7,48.8z M9.9,54.6l1-2h-2L9.9,54.6z M12.9,48.8l1-2h-2L12.9,48.8z
	 M15.9,54.6l1-2h-2L15.9,54.6z M18.9,48.8l1-2h-2L18.9,48.8z M21.9,54.6l1-2h-2L21.9,54.6z M24.8,48.8l1-2h-2L24.8,48.8z M27.8,54.6
	l1-2h-2L27.8,54.6z M30.8,48.8l1-2h-2L30.8,48.8z M33.8,54.6l1-2h-2L33.8,54.6z M36.8,48.8l1-2h-2L36.8,48.8z M39.8,54.6l1-2h-2
	L39.8,54.6z M42.7,48.8l1-2h-2L42.7,48.8z M45.7,54.6l1-2h-2L45.7,54.6z M48.7,48.8l1-2h-2L48.7,48.8z M51.7,54.6l1-2h-2L51.7,54.6z
	 M54.7,48.8l1-2h-2L54.7,48.8z M57.6,54.6l1-2h-2L57.6,54.6z M60.6,48.8l1-2h-2L60.6,48.8z M63.6,54.6l1-2h-2L63.6,54.6z M66.6,48.8
	l1-2h-2L66.6,48.8z M69.6,54.6l1-2h-2L69.6,54.6z M72.5,48.8l1-2h-2L72.5,48.8z M75.5,54.6l1-2h-2L75.5,54.6z M78.5,48.8l1-2h-2
	L78.5,48.8z M81.5,54.6l1-2h-2L81.5,54.6z M84.5,48.8l1-2h-2L84.5,48.8z M87.5,54.6l1-2h-2L87.5,54.6z M90.4,48.8l1-2h-2L90.4,48.8z
	 M93.4,54.6l1-2h-2L93.4,54.6z M96.4,48.8l1-2h-2L96.4,48.8z M99.4,54.6l1-2h-2L99.4,54.6z M102.4,48.8l1-2h-2L102.4,48.8z
	 M105.3,54.6l1-2h-2L105.3,54.6z M108.3,48.8l1-2h-2L108.3,48.8z M111.3,54.6l1-2h-2L111.3,54.6z M114.3,48.8l1-2h-2L114.3,48.8z
	 M117.3,54.6l1-2h-2L117.3,54.6z M120.2,48.8l1-2h-2L120.2,48.8z M123.2,54.6l1-2h-2L123.2,54.6z M126.2,48.8l1-2h-2L126.2,48.8z
	 M129.2,54.6l1-2h-2L129.2,54.6z M132.2,48.8l1-2h-2L132.2,48.8z M135.2,54.6l1-2h-2L135.2,54.6z M138.1,48.8l1-2h-2L138.1,48.8z
	 M141.1,54.6l1-2h-2L141.1,54.6z M144.1,48.8l1-2h-2L144.1,48.8z M147.1,54.6l1-2h-2L147.1,54.6z M150.1,48.8l1-2h-2L150.1,48.8z
	 M153,54.6l1-2h-2L153,54.6z M156,48.8l1-2h-2L156,48.8z M159,54.6l1-2h-2L159,54.6z M1,60.5l1-2H0L1,60.5z M4,66.3l1-2H3L4,66.3z
	 M7,60.5l1-2H6L7,60.5z M9.9,66.3l1-2h-2L9.9,66.3z M12.9,60.5l1-2h-2L12.9,60.5z M15.9,66.3l1-2h-2L15.9,66.3z M18.9,60.5l1-2h-2
	L18.9,60.5z M21.9,66.3l1-2h-2L21.9,66.3z M24.8,60.5l1-2h-2L24.8,60.5z M27.8,66.3l1-2h-2L27.8,66.3z M30.8,60.5l1-2h-2L30.8,60.5z
	 M33.8,66.3l1-2h-2L33.8,66.3z M36.8,60.5l1-2h-2L36.8,60.5z M39.8,66.3l1-2h-2L39.8,66.3z M42.7,60.5l1-2h-2L42.7,60.5z M45.7,66.3
	l1-2h-2L45.7,66.3z M48.7,60.5l1-2h-2L48.7,60.5z M51.7,66.3l1-2h-2L51.7,66.3z M54.7,60.5l1-2h-2L54.7,60.5z M57.6,66.3l1-2h-2
	L57.6,66.3z M60.6,60.5l1-2h-2L60.6,60.5z M63.6,66.3l1-2h-2L63.6,66.3z M66.6,60.5l1-2h-2L66.6,60.5z M69.6,66.3l1-2h-2L69.6,66.3z
	 M72.5,60.5l1-2h-2L72.5,60.5z M75.5,66.3l1-2h-2L75.5,66.3z M78.5,60.5l1-2h-2L78.5,60.5z M81.5,66.3l1-2h-2L81.5,66.3z M84.5,60.5
	l1-2h-2L84.5,60.5z M87.5,66.3l1-2h-2L87.5,66.3z M90.4,60.5l1-2h-2L90.4,60.5z M93.4,66.3l1-2h-2L93.4,66.3z M96.4,60.5l1-2h-2
	L96.4,60.5z M99.4,66.3l1-2h-2L99.4,66.3z M102.4,60.5l1-2h-2L102.4,60.5z M105.3,66.3l1-2h-2L105.3,66.3z M108.3,60.5l1-2h-2
	L108.3,60.5z M111.3,66.3l1-2h-2L111.3,66.3z M114.3,60.5l1-2h-2L114.3,60.5z M117.3,66.3l1-2h-2L117.3,66.3z M120.2,60.5l1-2h-2
	L120.2,60.5z M123.2,66.3l1-2h-2L123.2,66.3z M126.2,60.5l1-2h-2L126.2,60.5z M129.2,66.3l1-2h-2L129.2,66.3z M132.2,60.5l1-2h-2
	L132.2,60.5z M135.2,66.3l1-2h-2L135.2,66.3z M138.1,60.5l1-2h-2L138.1,60.5z M141.1,66.3l1-2h-2L141.1,66.3z M144.1,60.5l1-2h-2
	L144.1,60.5z M147.1,66.3l1-2h-2L147.1,66.3z M150.1,60.5l1-2h-2L150.1,60.5z M153,66.3l1-2h-2L153,66.3z M156,60.5l1-2h-2L156,60.5
	z M159,66.3l1-2h-2L159,66.3z M1,72.2l1-2H0L1,72.2z M4,78l1-2H3L4,78z M7,72.2l1-2H6L7,72.2z M9.9,78l1-2h-2L9.9,78z M12.9,72.2
	l1-2h-2L12.9,72.2z M15.9,78l1-2h-2L15.9,78z M18.9,72.2l1-2h-2L18.9,72.2z M21.9,78l1-2h-2L21.9,78z M24.8,72.2l1-2h-2L24.8,72.2z
	 M27.8,78l1-2h-2L27.8,78z M30.8,72.2l1-2h-2L30.8,72.2z M33.8,78l1-2h-2L33.8,78z M36.8,72.2l1-2h-2L36.8,72.2z M39.8,78l1-2h-2
	L39.8,78z M42.7,72.2l1-2h-2L42.7,72.2z M45.7,78l1-2h-2L45.7,78z M48.7,72.2l1-2h-2L48.7,72.2z M51.7,78l1-2h-2L51.7,78z
	 M54.7,72.2l1-2h-2L54.7,72.2z M57.6,78l1-2h-2L57.6,78z M60.6,72.2l1-2h-2L60.6,72.2z M63.6,78l1-2h-2L63.6,78z M66.6,72.2l1-2h-2
	L66.6,72.2z M69.6,78l1-2h-2L69.6,78z M72.5,72.2l1-2h-2L72.5,72.2z M75.5,78l1-2h-2L75.5,78z M78.5,72.2l1-2h-2L78.5,72.2z
	 M81.5,78l1-2h-2L81.5,78z M84.5,72.2l1-2h-2L84.5,72.2z M87.5,78l1-2h-2L87.5,78z M90.4,72.2l1-2h-2L90.4,72.2z M93.4,78l1-2h-2
	L93.4,78z M96.4,72.2l1-2h-2L96.4,72.2z M99.4,78l1-2h-2L99.4,78z M102.4,72.2l1-2h-2L102.4,72.2z M105.3,78l1-2h-2L105.3,78z
	 M108.3,72.2l1-2h-2L108.3,72.2z M111.3,78l1-2h-2L111.3,78z M114.3,72.2l1-2h-2L114.3,72.2z M117.3,78l1-2h-2L117.3,78z
	 M120.2,72.2l1-2h-2L120.2,72.2z M123.2,78l1-2h-2L123.2,78z M126.2,72.2l1-2h-2L126.2,72.2z M129.2,78l1-2h-2L129.2,78z
	 M132.2,72.2l1-2h-2L132.2,72.2z M135.2,78l1-2h-2L135.2,78z M138.1,72.2l1-2h-2L138.1,72.2z M141.1,78l1-2h-2L141.1,78z
	 M144.1,72.2l1-2h-2L144.1,72.2z M147.1,78l1-2h-2L147.1,78z M150.1,72.2l1-2h-2L150.1,72.2z M153,78l1-2h-2L153,78z M156,72.2l1-2
	h-2L156,72.2z M159,78l1-2h-2L159,78z M1,83.9l1-2H0L1,83.9z M4,89.8l1-2H3L4,89.8z M7,83.9l1-2H6L7,83.9z M9.9,89.8l1-2h-2
	L9.9,89.8z M12.9,83.9l1-2h-2L12.9,83.9z M15.9,89.8l1-2h-2L15.9,89.8z M18.9,83.9l1-2h-2L18.9,83.9z M21.9,89.8l1-2h-2L21.9,89.8z
	 M24.8,83.9l1-2h-2L24.8,83.9z M27.8,89.8l1-2h-2L27.8,89.8z M30.8,83.9l1-2h-2L30.8,83.9z M33.8,89.8l1-2h-2L33.8,89.8z M36.8,83.9
	l1-2h-2L36.8,83.9z M39.8,89.8l1-2h-2L39.8,89.8z M42.7,83.9l1-2h-2L42.7,83.9z M45.7,89.8l1-2h-2L45.7,89.8z M48.7,83.9l1-2h-2
	L48.7,83.9z M51.7,89.8l1-2h-2L51.7,89.8z M54.7,83.9l1-2h-2L54.7,83.9z M57.6,89.8l1-2h-2L57.6,89.8z M60.6,83.9l1-2h-2L60.6,83.9z
	 M63.6,89.8l1-2h-2L63.6,89.8z M66.6,83.9l1-2h-2L66.6,83.9z M69.6,89.8l1-2h-2L69.6,89.8z M72.5,83.9l1-2h-2L72.5,83.9z M75.5,89.8
	l1-2h-2L75.5,89.8z M78.5,83.9l1-2h-2L78.5,83.9z M81.5,89.8l1-2h-2L81.5,89.8z M84.5,83.9l1-2h-2L84.5,83.9z M87.5,89.8l1-2h-2
	L87.5,89.8z M90.4,83.9l1-2h-2L90.4,83.9z M93.4,89.8l1-2h-2L93.4,89.8z M96.4,83.9l1-2h-2L96.4,83.9z M99.4,89.8l1-2h-2L99.4,89.8z
	 M102.4,83.9l1-2h-2L102.4,83.9z M105.3,89.8l1-2h-2L105.3,89.8z M108.3,83.9l1-2h-2L108.3,83.9z M111.3,89.8l1-2h-2L111.3,89.8z
	 M114.3,83.9l1-2h-2L114.3,83.9z M117.3,89.8l1-2h-2L117.3,89.8z M120.2,83.9l1-2h-2L120.2,83.9z M123.2,89.8l1-2h-2L123.2,89.8z
	 M126.2,83.9l1-2h-2L126.2,83.9z M129.2,89.8l1-2h-2L129.2,89.8z M132.2,83.9l1-2h-2L132.2,83.9z M135.2,89.8l1-2h-2L135.2,89.8z
	 M138.1,83.9l1-2h-2L138.1,83.9z M141.1,89.8l1-2h-2L141.1,89.8z M144.1,83.9l1-2h-2L144.1,83.9z M147.1,89.8l1-2h-2L147.1,89.8z
	 M150.1,83.9l1-2h-2L150.1,83.9z M153,89.8l1-2h-2L153,89.8z M156,83.9l1-2h-2L156,83.9z M159,89.8l1-2h-2L159,89.8z M1,95.6l1-2H0
	L1,95.6z M4,101.5l1-2H3L4,101.5z M7,95.6l1-2H6L7,95.6z M9.9,101.5l1-2h-2L9.9,101.5z M12.9,95.6l1-2h-2L12.9,95.6z M15.9,101.5
	l1-2h-2L15.9,101.5z M18.9,95.6l1-2h-2L18.9,95.6z M21.9,101.5l1-2h-2L21.9,101.5z M24.8,95.6l1-2h-2L24.8,95.6z M27.8,101.5l1-2h-2
	L27.8,101.5z M30.8,95.6l1-2h-2L30.8,95.6z M33.8,101.5l1-2h-2L33.8,101.5z M36.8,95.6l1-2h-2L36.8,95.6z M39.8,101.5l1-2h-2
	L39.8,101.5z M42.7,95.6l1-2h-2L42.7,95.6z M45.7,101.5l1-2h-2L45.7,101.5z M48.7,95.6l1-2h-2L48.7,95.6z M51.7,101.5l1-2h-2
	L51.7,101.5z M54.7,95.6l1-2h-2L54.7,95.6z M57.6,101.5l1-2h-2L57.6,101.5z M60.6,95.6l1-2h-2L60.6,95.6z M63.6,101.5l1-2h-2
	L63.6,101.5z M66.6,95.6l1-2h-2L66.6,95.6z M69.6,101.5l1-2h-2L69.6,101.5z M72.5,95.6l1-2h-2L72.5,95.6z M75.5,101.5l1-2h-2
	L75.5,101.5z M78.5,95.6l1-2h-2L78.5,95.6z M81.5,101.5l1-2h-2L81.5,101.5z M84.5,95.6l1-2h-2L84.5,95.6z M87.5,101.5l1-2h-2
	L87.5,101.5z M90.4,95.6l1-2h-2L90.4,95.6z M93.4,101.5l1-2h-2L93.4,101.5z M96.4,95.6l1-2h-2L96.4,95.6z M99.4,101.5l1-2h-2
	L99.4,101.5z M102.4,95.6l1-2h-2L102.4,95.6z M105.3,101.5l1-2h-2L105.3,101.5z M108.3,95.6l1-2h-2L108.3,95.6z M111.3,101.5l1-2h-2
	L111.3,101.5z M114.3,95.6l1-2h-2L114.3,95.6z M117.3,101.5l1-2h-2L117.3,101.5z M120.2,95.6l1-2h-2L120.2,95.6z M123.2,101.5l1-2
	h-2L123.2,101.5z M126.2,95.6l1-2h-2L126.2,95.6z M129.2,101.5l1-2h-2L129.2,101.5z M132.2,95.6l1-2h-2L132.2,95.6z M135.2,101.5
	l1-2h-2L135.2,101.5z M138.1,95.6l1-2h-2L138.1,95.6z M141.1,101.5l1-2h-2L141.1,101.5z M144.1,95.6l1-2h-2L144.1,95.6z
	 M147.1,101.5l1-2h-2L147.1,101.5z M150.1,95.6l1-2h-2L150.1,95.6z M153,101.5l1-2h-2L153,101.5z M156,95.6l1-2h-2L156,95.6z
	 M159,101.5l1-2h-2L159,101.5z M1,107.3l1-2H0L1,107.3z M4,113.2l1-2H3L4,113.2z M7,107.3l1-2H6L7,107.3z M9.9,113.2l1-2h-2
	L9.9,113.2z M12.9,107.3l1-2h-2L12.9,107.3z M15.9,113.2l1-2h-2L15.9,113.2z M18.9,107.3l1-2h-2L18.9,107.3z M21.9,113.2l1-2h-2
	L21.9,113.2z M24.8,107.3l1-2h-2L24.8,107.3z M27.8,113.2l1-2h-2L27.8,113.2z M30.8,107.3l1-2h-2L30.8,107.3z M33.8,113.2l1-2h-2
	L33.8,113.2z M36.8,107.3l1-2h-2L36.8,107.3z M39.8,113.2l1-2h-2L39.8,113.2z M42.7,107.3l1-2h-2L42.7,107.3z M45.7,113.2l1-2h-2
	L45.7,113.2z M48.7,107.3l1-2h-2L48.7,107.3z M51.7,113.2l1-2h-2L51.7,113.2z M54.7,107.3l1-2h-2L54.7,107.3z M57.6,113.2l1-2h-2
	L57.6,113.2z M60.6,107.3l1-2h-2L60.6,107.3z M63.6,113.2l1-2h-2L63.6,113.2z M66.6,107.3l1-2h-2L66.6,107.3z M69.6,113.2l1-2h-2
	L69.6,113.2z M72.5,107.3l1-2h-2L72.5,107.3z M75.5,113.2l1-2h-2L75.5,113.2z M78.5,107.3l1-2h-2L78.5,107.3z M81.5,113.2l1-2h-2
	L81.5,113.2z M84.5,107.3l1-2h-2L84.5,107.3z M87.5,113.2l1-2h-2L87.5,113.2z M90.4,107.3l1-2h-2L90.4,107.3z M93.4,113.2l1-2h-2
	L93.4,113.2z M96.4,107.3l1-2h-2L96.4,107.3z M99.4,113.2l1-2h-2L99.4,113.2z M102.4,107.3l1-2h-2L102.4,107.3z M105.3,113.2l1-2h-2
	L105.3,113.2z M108.3,107.3l1-2h-2L108.3,107.3z M111.3,113.2l1-2h-2L111.3,113.2z M114.3,107.3l1-2h-2L114.3,107.3z M117.3,113.2
	l1-2h-2L117.3,113.2z M120.2,107.3l1-2h-2L120.2,107.3z M123.2,113.2l1-2h-2L123.2,113.2z M126.2,107.3l1-2h-2L126.2,107.3z
	 M129.2,113.2l1-2h-2L129.2,113.2z M132.2,107.3l1-2h-2L132.2,107.3z M135.2,113.2l1-2h-2L135.2,113.2z M138.1,107.3l1-2h-2
	L138.1,107.3z M141.1,113.2l1-2h-2L141.1,113.2z M144.1,107.3l1-2h-2L144.1,107.3z M147.1,113.2l1-2h-2L147.1,113.2z M150.1,107.3
	l1-2h-2L150.1,107.3z M153,113.2l1-2h-2L153,113.2z M156,107.3l1-2h-2L156,107.3z M159,113.2l1-2h-2L159,113.2z M1,119l1-2H0L1,119z
	 M4,124.9l1-2H3L4,124.9z M7,119l1-2H6L7,119z M9.9,124.9l1-2h-2L9.9,124.9z M12.9,119l1-2h-2L12.9,119z M15.9,124.9l1-2h-2
	L15.9,124.9z M18.9,119l1-2h-2L18.9,119z M21.9,124.9l1-2h-2L21.9,124.9z M24.8,119l1-2h-2L24.8,119z M27.8,124.9l1-2h-2L27.8,124.9
	z M30.8,119l1-2h-2L30.8,119z M33.8,124.9l1-2h-2L33.8,124.9z M36.8,119l1-2h-2L36.8,119z M39.8,124.9l1-2h-2L39.8,124.9z M42.7,119
	l1-2h-2L42.7,119z M45.7,124.9l1-2h-2L45.7,124.9z M48.7,119l1-2h-2L48.7,119z M51.7,124.9l1-2h-2L51.7,124.9z M54.7,119l1-2h-2
	L54.7,119z M57.6,124.9l1-2h-2L57.6,124.9z M60.6,119l1-2h-2L60.6,119z M63.6,124.9l1-2h-2L63.6,124.9z M66.6,119l1-2h-2L66.6,119z
	 M69.6,124.9l1-2h-2L69.6,124.9z M72.5,119l1-2h-2L72.5,119z M75.5,124.9l1-2h-2L75.5,124.9z M78.5,119l1-2h-2L78.5,119z
	 M81.5,124.9l1-2h-2L81.5,124.9z M84.5,119l1-2h-2L84.5,119z M87.5,124.9l1-2h-2L87.5,124.9z M90.4,119l1-2h-2L90.4,119z
	 M93.4,124.9l1-2h-2L93.4,124.9z M96.4,119l1-2h-2L96.4,119z M99.4,124.9l1-2h-2L99.4,124.9z M102.4,119l1-2h-2L102.4,119z
	 M105.3,124.9l1-2h-2L105.3,124.9z M108.3,119l1-2h-2L108.3,119z M111.3,124.9l1-2h-2L111.3,124.9z M114.3,119l1-2h-2L114.3,119z
	 M117.3,124.9l1-2h-2L117.3,124.9z M120.2,119l1-2h-2L120.2,119z M123.2,124.9l1-2h-2L123.2,124.9z M126.2,119l1-2h-2L126.2,119z
	 M129.2,124.9l1-2h-2L129.2,124.9z M132.2,119l1-2h-2L132.2,119z M135.2,124.9l1-2h-2L135.2,124.9z M138.1,119l1-2h-2L138.1,119z
	 M141.1,124.9l1-2h-2L141.1,124.9z M144.1,119l1-2h-2L144.1,119z M147.1,124.9l1-2h-2L147.1,124.9z M150.1,119l1-2h-2L150.1,119z
	 M153,124.9l1-2h-2L153,124.9z M156,119l1-2h-2L156,119z M159,124.9l1-2h-2L159,124.9z M1,130.7l1-2H0L1,130.7z M4,136.6l1-2H3
	L4,136.6z M7,130.7l1-2H6L7,130.7z M9.9,136.6l1-2h-2L9.9,136.6z M12.9,130.7l1-2h-2L12.9,130.7z M15.9,136.6l1-2h-2L15.9,136.6z
	 M18.9,130.7l1-2h-2L18.9,130.7z M21.9,136.6l1-2h-2L21.9,136.6z M24.8,130.7l1-2h-2L24.8,130.7z M27.8,136.6l1-2h-2L27.8,136.6z
	 M30.8,130.7l1-2h-2L30.8,130.7z M33.8,136.6l1-2h-2L33.8,136.6z M36.8,130.7l1-2h-2L36.8,130.7z M39.8,136.6l1-2h-2L39.8,136.6z
	 M42.7,130.7l1-2h-2L42.7,130.7z M45.7,136.6l1-2h-2L45.7,136.6z M48.7,130.7l1-2h-2L48.7,130.7z M51.7,136.6l1-2h-2L51.7,136.6z
	 M54.7,130.7l1-2h-2L54.7,130.7z M57.6,136.6l1-2h-2L57.6,136.6z M60.6,130.7l1-2h-2L60.6,130.7z M63.6,136.6l1-2h-2L63.6,136.6z
	 M66.6,130.7l1-2h-2L66.6,130.7z M69.6,136.6l1-2h-2L69.6,136.6z M72.5,130.7l1-2h-2L72.5,130.7z M75.5,136.6l1-2h-2L75.5,136.6z
	 M78.5,130.7l1-2h-2L78.5,130.7z M81.5,136.6l1-2h-2L81.5,136.6z M84.5,130.7l1-2h-2L84.5,130.7z M87.5,136.6l1-2h-2L87.5,136.6z
	 M90.4,130.7l1-2h-2L90.4,130.7z M93.4,136.6l1-2h-2L93.4,136.6z M96.4,130.7l1-2h-2L96.4,130.7z M99.4,136.6l1-2h-2L99.4,136.6z
	 M102.4,130.7l1-2h-2L102.4,130.7z M105.3,136.6l1-2h-2L105.3,136.6z M108.3,130.7l1-2h-2L108.3,130.7z M111.3,136.6l1-2h-2
	L111.3,136.6z M114.3,130.7l1-2h-2L114.3,130.7z M117.3,136.6l1-2h-2L117.3,136.6z M120.2,130.7l1-2h-2L120.2,130.7z M123.2,136.6
	l1-2h-2L123.2,136.6z M126.2,130.7l1-2h-2L126.2,130.7z M129.2,136.6l1-2h-2L129.2,136.6z M132.2,130.7l1-2h-2L132.2,130.7z
	 M135.2,136.6l1-2h-2L135.2,136.6z M138.1,130.7l1-2h-2L138.1,130.7z M141.1,136.6l1-2h-2L141.1,136.6z M144.1,130.7l1-2h-2
	L144.1,130.7z M147.1,136.6l1-2h-2L147.1,136.6z M150.1,130.7l1-2h-2L150.1,130.7z M153,136.6l1-2h-2L153,136.6z M156,130.7l1-2h-2
	L156,130.7z M159,136.6l1-2h-2L159,136.6z M1,142.4l1-2H0L1,142.4z M4,148.3l1-2H3L4,148.3z M7,142.4l1-2H6L7,142.4z M9.9,148.3l1-2
	h-2L9.9,148.3z M12.9,142.4l1-2h-2L12.9,142.4z M15.9,148.3l1-2h-2L15.9,148.3z M18.9,142.4l1-2h-2L18.9,142.4z M21.9,148.3l1-2h-2
	L21.9,148.3z M24.8,142.4l1-2h-2L24.8,142.4z M27.8,148.3l1-2h-2L27.8,148.3z M30.8,142.4l1-2h-2L30.8,142.4z M33.8,148.3l1-2h-2
	L33.8,148.3z M36.8,142.4l1-2h-2L36.8,142.4z M39.8,148.3l1-2h-2L39.8,148.3z M42.7,142.4l1-2h-2L42.7,142.4z M45.7,148.3l1-2h-2
	L45.7,148.3z M48.7,142.4l1-2h-2L48.7,142.4z M51.7,148.3l1-2h-2L51.7,148.3z M54.7,142.4l1-2h-2L54.7,142.4z M57.6,148.3l1-2h-2
	L57.6,148.3z M60.6,142.4l1-2h-2L60.6,142.4z M63.6,148.3l1-2h-2L63.6,148.3z M66.6,142.4l1-2h-2L66.6,142.4z M69.6,148.3l1-2h-2
	L69.6,148.3z M72.5,142.4l1-2h-2L72.5,142.4z M75.5,148.3l1-2h-2L75.5,148.3z M78.5,142.4l1-2h-2L78.5,142.4z M81.5,148.3l1-2h-2
	L81.5,148.3z M84.5,142.4l1-2h-2L84.5,142.4z M87.5,148.3l1-2h-2L87.5,148.3z M90.4,142.4l1-2h-2L90.4,142.4z M93.4,148.3l1-2h-2
	L93.4,148.3z M96.4,142.4l1-2h-2L96.4,142.4z M99.4,148.3l1-2h-2L99.4,148.3z M102.4,142.4l1-2h-2L102.4,142.4z M105.3,148.3l1-2h-2
	L105.3,148.3z M108.3,142.4l1-2h-2L108.3,142.4z M111.3,148.3l1-2h-2L111.3,148.3z M114.3,142.4l1-2h-2L114.3,142.4z M117.3,148.3
	l1-2h-2L117.3,148.3z M120.2,142.4l1-2h-2L120.2,142.4z M123.2,148.3l1-2h-2L123.2,148.3z M126.2,142.4l1-2h-2L126.2,142.4z
	 M129.2,148.3l1-2h-2L129.2,148.3z M132.2,142.4l1-2h-2L132.2,142.4z M135.2,148.3l1-2h-2L135.2,148.3z M138.1,142.4l1-2h-2
	L138.1,142.4z M141.1,148.3l1-2h-2L141.1,148.3z M144.1,142.4l1-2h-2L144.1,142.4z M147.1,148.3l1-2h-2L147.1,148.3z M150.1,142.4
	l1-2h-2L150.1,142.4z M153,148.3l1-2h-2L153,148.3z M156,142.4l1-2h-2L156,142.4z M159,148.3l1-2h-2L159,148.3z M1,154.1l1-2H0
	L1,154.1z M4,160l1-2H3L4,160z M7,154.1l1-2H6L7,154.1z M9.9,160l1-2h-2L9.9,160z M12.9,154.1l1-2h-2L12.9,154.1z M15.9,160l1-2h-2
	L15.9,160z M18.9,154.1l1-2h-2L18.9,154.1z M21.9,160l1-2h-2L21.9,160z M24.8,154.1l1-2h-2L24.8,154.1z M27.8,160l1-2h-2L27.8,160z
	 M30.8,154.1l1-2h-2L30.8,154.1z M33.8,160l1-2h-2L33.8,160z M36.8,154.1l1-2h-2L36.8,154.1z M39.8,160l1-2h-2L39.8,160z
	 M42.7,154.1l1-2h-2L42.7,154.1z M45.7,160l1-2h-2L45.7,160z M48.7,154.1l1-2h-2L48.7,154.1z M51.7,160l1-2h-2L51.7,160z
	 M54.7,154.1l1-2h-2L54.7,154.1z M57.6,160l1-2h-2L57.6,160z M60.6,154.1l1-2h-2L60.6,154.1z M63.6,160l1-2h-2L63.6,160z
	 M66.6,154.1l1-2h-2L66.6,154.1z M69.6,160l1-2h-2L69.6,160z M72.5,154.1l1-2h-2L72.5,154.1z M75.5,160l1-2h-2L75.5,160z
	 M78.5,154.1l1-2h-2L78.5,154.1z M81.5,160l1-2h-2L81.5,160z M84.5,154.1l1-2h-2L84.5,154.1z M87.5,160l1-2h-2L87.5,160z
	 M90.4,154.1l1-2h-2L90.4,154.1z M93.4,160l1-2h-2L93.4,160z M96.4,154.1l1-2h-2L96.4,154.1z M99.4,160l1-2h-2L99.4,160z
	 M102.4,154.1l1-2h-2L102.4,154.1z M105.3,160l1-2h-2L105.3,160z M108.3,154.1l1-2h-2L108.3,154.1z M111.3,160l1-2h-2L111.3,160z
	 M114.3,154.1l1-2h-2L114.3,154.1z M117.3,160l1-2h-2L117.3,160z M120.2,154.1l1-2h-2L120.2,154.1z M123.2,160l1-2h-2L123.2,160z
	 M126.2,154.1l1-2h-2L126.2,154.1z M129.2,160l1-2h-2L129.2,160z M132.2,154.1l1-2h-2L132.2,154.1z M135.2,160l1-2h-2L135.2,160z
	 M138.1,154.1l1-2h-2L138.1,154.1z M141.1,160l1-2h-2L141.1,160z M144.1,154.1l1-2h-2L144.1,154.1z M147.1,160l1-2h-2L147.1,160z
	 M150.1,154.1l1-2h-2L150.1,154.1z M153,160l1-2h-2L153,160z M156,154.1l1-2h-2L156,154.1z M159,160l1-2h-2L159,160z"/>
</svg>
