<?xml version="1.0" encoding="utf-8"?>
<!-- Generator: Adobe Illustrator 26.0.3, SVG Export Plug-In . SVG Version: 6.00 Build 0)  -->
<svg version="1.1" id="Layer_1" xmlns="http://www.w3.org/2000/svg" xmlns:xlink="http://www.w3.org/1999/xlink" x="0px" y="0px"
	 viewBox="0 0 144 144" style="enable-background:new 0 0 144 144;" xml:space="preserve">
<style type="text/css">
	.st0{fill-rule:evenodd;clip-rule:evenodd;}
</style>
<path d="M125.8,86.6c-4.4,0-8.5,1.6-11.6,4.2l-9,0v-9.2l-5.3-3.5h-20v-4.3h26.5l0-16.6l-32.7-6.9l-22.7,0l0,23.5h9.2v3.2l-7,4.6
	c0,0,0,6.7,0,6.7l-7,0L8,23.1c-1.2-2-3.8-2.7-5.9-1.5c-2,1.2-2.7,3.8-1.5,5.9L36,87.9c-2-0.8-4.2-1.3-6.5-1.3
	c-10.1,0-18.2,8.1-18.2,18.2c0,10.1,8.1,18.2,18.2,18.2c6.5,0,12.2-3.4,15.4-8.6h65.4c3.2,5.1,8.9,8.6,15.4,8.6
	c10,0,18.2-8.1,18.2-18.2C144,94.7,135.9,86.6,125.8,86.6z M29.5,113.7c-4.9,0-8.9-4-8.9-8.9c0-4.9,4-8.9,8.9-8.9
	c4.9,0,8.9,4,8.9,8.9C38.4,109.7,34.4,113.7,29.5,113.7z M125.8,113.7c-4.9,0-8.9-4-8.9-8.9c0-4.9,4-8.9,8.9-8.9
	c4.9,0,8.9,4,8.9,8.9C134.7,109.7,130.7,113.7,125.8,113.7z"/>
</svg>
