<?xml version="1.0" encoding="UTF-8"?>
<svg xmlns="http://www.w3.org/2000/svg" version="1.1" viewBox="0 0 144 144">
  <!-- Generator: Adobe Illustrator 28.7.1, SVG Export Plug-In . SVG Version: 1.2.0 Build 142)  -->
  <g>
    <g id="Layer_1">
      <path d="M56.3,86.5h-10.3l-9.7-4.3v-22.5l17.6-19.2,23.7-9.8,3.9,3.9-.8,32-24.3,19.9ZM96.4,87.5l-12.2-12.2-29,23.1v12.1l40.6,7.7.7-30.7ZM124.2,5.6h-32.1v29h20.4l11.6-29ZM33.9,5.6l22.4,22.4,29.5-10.8V5.6h-51.9ZM122.5,37.6l15.9,15.4V5.6h-6.7l-9.2,32ZM42.7,115.5v-12.1l-16.8-7.2-20.3,12.6v29.7h20.5l16.7-22.9ZM110.3,42.7l-18.1-.4v28.4l14.7,14.7v17s31.5,7.1,31.5,7.1v-38.7l-28.2-28.2ZM138.4,138.4v-19.3l-32.2-6.3v25.7h32.2ZM95.7,127.6l-40.3-8-13.5,18.8h53.8v-10.8ZM24.6,86.5v-24.2l-19.1.4v34l19.1-10.3ZM5.6,54.6h19.3l21.7-21.7L19.3,5.6H5.6v49Z"/>
    </g>
  </g>
</svg>