<?xml version="1.0" encoding="utf-8"?>
<!-- Generator: Adobe Illustrator 26.0.3, SVG Export Plug-In . SVG Version: 6.00 Build 0)  -->
<svg version="1.1" id="Layer_1" xmlns="http://www.w3.org/2000/svg" xmlns:xlink="http://www.w3.org/1999/xlink" x="0px" y="0px"
	 viewBox="0 0 144 144" style="enable-background:new 0 0 144 144;" xml:space="preserve">
<style type="text/css">
	.st0{fill-rule:evenodd;clip-rule:evenodd;}
</style>
<g>
	<path d="M38,70.6l61.8-3.4c4.9-0.2,8.8-5,8.6-11.3c-0.2-6.2-4.1-10.3-8.8-10.3l-29.5,0.7c3.5-2.1,7.3-3.7,10.4-4.8l29.9-2.2
		l15.9,20.3c2.6,3.1,7.2,3.5,10-1.7c7.8,0.5,8.9-7.7,6.9-10.4c-6.5-8.8-25.9-33.9-25.9-33.9c-1.3-1.7-2.8-2.2-4.3-2.3l-39.6-0.2
		c-4.6,0.2-8.9,1.2-8.9,1.2c-4.5,1.2-20.2,6.5-31.8,7l-19.5-1.2L0,51l25.7,15.1C30.5,69.5,34.3,70.6,38,70.6z"/>
	<path d="M77,85.5c0,0-14,12.3-21.3,33.4c-0.2-12.9,1-30.7,7-46.7c0,0-18,12.5-20.3,48.1c-5.7-19.4-19.8-32.5-19.8-32.5
		c5.9,10.4,9.1,34.6,10.2,44.8h31.9C67,118.9,71.2,95.6,77,85.5z"/>
	<path d="M125.5,85.5c0,0-13.5,10.8-20.8,30.7C100.2,90.7,83.4,75,83.4,75c6.3,14,7.3,46,7.5,57.8h22.4
		C115.4,118.9,119.7,95.6,125.5,85.5z"/>
	<path d="M139.1,102.2c0,0-15.7,11.2-19.6,30.6h12.9C133.1,122.8,134.8,108.6,139.1,102.2z"/>
	<path d="M83,107.1c0,0-11.7,9.5-15.4,25.6h11.5C79.1,124.2,79.7,112.6,83,107.1z"/>
	<path d="M8.9,105.1c4.1,6,6.4,18.6,7.6,27.7h11.2C22.8,115.8,8.9,105.1,8.9,105.1z"/>
</g>
</svg>
