<?xml version="1.0" encoding="UTF-8"?>
<svg id="Layer_1" xmlns="http://www.w3.org/2000/svg" version="1.1" viewBox="0 0 269.5 265.9">
  <!-- Generator: Adobe Illustrator 29.0.1, SVG Export Plug-In . SVG Version: 2.1.0 Build 192)  -->
  <defs>
    <style>
      .st0 {
        fill: #231f20;
      }
    </style>
  </defs>
  <path class="st0" d="M140.7,211.4c.1,4.8.8,9.4,1.9,13.9H21.9c-12.1,0-21.9-9.8-21.9-21.9V44.7c0-12.1,9.8-21.9,21.9-21.9h28.2V6.8c0-3.7,3.1-6.8,6.8-6.8h21.7c3.8,0,6.8,3,6.8,6.8v16h71.7V6.8c0-3.7,3.1-6.8,6.8-6.8h21.7c3.8,0,6.8,3,6.8,6.8v16h28.2c12,0,21.8,9.8,21.8,21.9v99.2c-4.4-2-9-3.7-13.9-4.8v-55.8H13.8v120.1c0,4.4,3.6,8,8,8h118.9ZM80.8,108c0-5.1-4.1-9.2-9.2-9.2h-25.5c-5.1,0-9.2,4.1-9.2,9.2v21.1c0,5,4.1,9.2,9.2,9.2h25.5c5.1,0,9.2-4.1,9.2-9.2v-21.1ZM71.7,156.3h-25.5c-5.1,0-9.2,4.1-9.2,9.2v21.1c0,5.1,4.1,9.2,9.2,9.2h25.5c5.1,0,9.2-4.1,9.2-9.2v-21.1c0-5.1-4.1-9.2-9.2-9.2ZM134,98.8h-25.5c-5.1,0-9.2,4.1-9.2,9.2v21.1c0,5,4.1,9.2,9.2,9.2h25.5c5.1,0,9.2-4.1,9.2-9.2v-21.1c0-5.1-4.1-9.2-9.2-9.2ZM134,156.3h-25.5c-5.1,0-9.2,4.1-9.2,9.2v21.1c0,5.1,4.1,9.2,9.2,9.2h25.5c5.1,0,9.2-4.1,9.2-9.2v-21.1c0-5.1-4.1-9.2-9.2-9.2ZM170.8,98.8c-5.1,0-9.2,4.1-9.2,9.2v21.1c0,5,4.1,9.2,9.2,9.2h25.5c5.1,0,9.2-4.1,9.2-9.2v-21.1c0-5.1-4.1-9.2-9.2-9.2h-25.5ZM269.5,208.4c0,31.7-25.8,57.5-57.5,57.5s-57.5-25.7-57.5-57.5,25.7-57.5,57.5-57.5,57.6,25.7,57.5,57.5ZM244,208.4c0-4.6-3.7-8.3-8.3-8.3h-15.3v-19.7c0-4.6-3.7-8.3-8.3-8.3s-8.3,3.7-8.3,8.3v28c0,4.6,3.7,8.3,8.3,8.3h23.5c4.6,0,8.4-3.7,8.4-8.3h0Z"/>
</svg>