<?xml version="1.0" encoding="UTF-8"?>
<svg id="Layer_1" xmlns="http://www.w3.org/2000/svg" width="1600" height="520" version="1.1" viewBox="0 0 1600 520">
  <!-- Generator: Adobe Illustrator 29.2.1, SVG Export Plug-In . SVG Version: 2.1.0 Build 116)  -->
  <defs>
    <style>
      .st0 {
        fill: #e7e4df;
      }

      .st1 {
        fill: #edeae6;
      }

      .st2 {
        fill: #e0dcd7;
      }
    </style>
  </defs>
  <rect class="st1" width="1600" height="520"/>
  <g>
    <path class="st0" d="M1238.5,207.8c112.2-79.7,260.2-108.8,361.5-110.2v-1.2c-10.7-5.2-60.3-26.6-142.7-20-93.7,7.5-118.2,17.9-118.2,17.9l25.5,21.9s-57-8.5-100.9,8.6c-43.8,17.1-111.4,74.1-122.2,106.7l41.3-9.4s-117.6,69.5-72.8,146.7c0,0,15.5-81,128.5-161.2Z"/>
    <path class="st0" d="M1600,238V107.9c-128.4,15-219.1,26.2-326.9,99.3-124.2,84.2-170.9,221.3-170.9,221.3,156.3-15,211.9-42.4,211.9-42.4,9.3-30.6-19.3-96.3-19.3-96.3,24.3,18.7,70.7,65.8,70.7,65.8,85.9-10,159.2-63,159.2-63l-59.7-54.6,109.6,19.2c9.4-6.4,17.9-12.8,25.5-19.2Z"/>
  </g>
  <g>
    <path class="st2" d="M1600,91.1c-78.5,59.4-132.4,97.1-173.5,183.3-44.4,93.1-24.4,190.7-24.4,190.7,87.5-63.3,110.9-98.9,110.9-98.9-5.1-21.4-45-50.4-45-50.4,20.9,2.7,64.8,14.4,64.8,14.4,34.6-26.1,57.3-63.5,67.1-81.8v-12.2l-49-10.4,49-18.3v-116.5Z"/>
    <path class="st2" d="M1378.2,314.7s-45.6,82.2,7.8,112.4c0,0-19-53.4,20.2-140.4,39.1-86.9,117.6-156.1,177.4-191.9,0,0-40.4.9-93.3,37.9-53,37-63.9,51.8-63.9,51.8l22.8,4.1s-36.8,14.8-56.8,40.2c-20.1,25.4-40.3,82.7-35.4,105.8l21.3-19.9Z"/>
  </g>
</svg>