<?xml version="1.0" encoding="UTF-8"?>
<svg id="Layer_1" xmlns="http://www.w3.org/2000/svg" width="1600" height="520" version="1.1" viewBox="0 0 1600 520">
  <!-- Generator: Adobe Illustrator 29.2.1, SVG Export Plug-In . SVG Version: 2.1.0 Build 116)  -->
  <defs>
    <style>
      .st0 {
        fill: #e7e4df;
      }

      .st1 {
        fill: #edeae6;
      }

      .st2 {
        fill: #e0dcd7;
      }
    </style>
  </defs>
  <rect class="st1" width="1600" height="520"/>
  <g>
    <path class="st0" d="M1311.9,218.6c90.3-98.2,178.8-146.2,288.1-189.7v169.3s-28.1,1.6-28.1,1.6l28.1,15.7v98.9c-32.2,25.2-74.2,52.4-121.8,69.6,0,0-75.1-47.2-112.6-64.2,0,0,57.6,77,54.9,119.8,0,0-40.1,33.1-155.7,80.4h-101.4c13.1-64.5,50.3-194.7,148.5-301.4Z"/>
    <path class="st0" d="M1600,8.4c-113.6,43.8-241.1,117.1-333.1,221.6-122.9,139.5-118.3,250.1-118.3,250.1-82.2-87,50-214,50-214l-51.1,24.9c4.1-46,74.8-141.2,126.7-177,52-35.9,129.1-42.3,129.1-42.3l-40.1-20.7S1387.8,33,1485.4,0h114.6v8.4Z"/>
  </g>
  <g>
    <path class="st2" d="M1289.8,384.1c53.4-11.6,117.3,8.7,117.3,8.7l-25.3-29.8s30.1-7.5,138.9,1.2c30.9,2.4,57.3,7.6,79.3,13.7v29.4c-108.2-4.3-241.1,11.4-354.2,67.2-29.8,14.7-54.8,30.2-75.8,45.6h-57.4c31.7-25.3,66.7-39.1,66.7-39.1l-49.1,3.1c18.4-35.5,106.3-88.4,159.7-99.9Z"/>
    <path class="st2" d="M1285.5,480.2c111.9-52.2,203.2-59.2,314.5-56.6v96.4h-383.7c21.1-14.6,44.1-28.2,69.2-39.8Z"/>
  </g>
</svg>