<?xml version="1.0" encoding="UTF-8"?>
<svg id="Layer_1" xmlns="http://www.w3.org/2000/svg" width="1600" height="860" version="1.1" viewBox="0 0 1600 860">
  <!-- Generator: Adobe Illustrator 29.3.1, SVG Export Plug-In . SVG Version: 2.1.0 Build 151)  -->
  <defs>
    <style>
      .st0 {
        fill: #e7e4df;
      }

      .st1 {
        fill: #edeae6;
      }

      .st2 {
        fill: #e0dcd7;
      }
    </style>
  </defs>
  <rect class="st1" width="1600" height="860"/>
  <g>
    <path class="st2" d="M463.4,656.9c-79.8-17.3-175.2,13-175.2,13l37.7-44.5s-45-11.2-207.5,1.7c-46.1,3.7-85.6,11.4-118.4,20.5v44c161.7-6.4,360.3,17,529.3,100.4,44.5,22,81.9,45.1,113.3,68.1h85.8c-47.3-37.9-99.7-58.5-99.7-58.5l73.4,4.7c-27.5-53-158.9-132-238.7-149.3Z"/>
    <path class="st2" d="M469.8,800.5c-167.2-78-303.5-88.5-469.8-84.5v144.1h573.2c-31.5-21.8-65.9-42.1-103.4-59.5Z"/>
  </g>
  <g>
    <path class="st0" d="M1206.3,182.2c122.2-86.7,283.4-118.5,393.7-120v-1.3c-11.7-5.7-65.7-28.9-155.4-21.7-102,8.2-128.8,19.5-128.8,19.5l27.8,23.8s-62.1-9.3-109.9,9.4c-47.7,18.6-121.3,80.7-133.1,116.2l45-10.2s-128.1,75.7-79.3,159.8c0,0,16.9-88.2,140-175.6Z"/>
    <path class="st0" d="M1600,215.1V73.5c-139.8,16.3-238.6,28.5-356,108.1-135.3,91.7-186.1,241-186.1,241,170.3-16.3,230.7-46.2,230.7-46.2,10.1-33.3-21.1-104.8-21.1-104.8,26.5,20.4,77,71.7,77,71.7,93.5-10.9,173.4-68.7,173.4-68.7l-65.1-59.4,119.4,20.9c10.3-6.9,19.5-13.9,27.7-20.9Z"/>
  </g>
  <g>
    <path class="st2" d="M1600,108.8c-85.5,64.7-144.2,105.8-188.9,199.6-48.4,101.4-26.6,207.7-26.6,207.7,95.3-68.9,120.8-107.7,120.8-107.7-5.6-23.3-49-54.9-49-54.9,22.8,2.9,70.6,15.7,70.6,15.7,37.7-28.4,62.4-69.1,73-89.1v-13.2l-53.3-11.4,53.3-19.9v-126.9Z"/>
    <path class="st2" d="M1358.5,352.3s-49.7,89.5,8.5,122.4c0,0-20.7-58.2,22-152.8,42.6-94.6,128.1-170,193.2-209,0,0-44,1-101.6,41.3-57.7,40.3-69.6,56.4-69.6,56.4l24.8,4.5s-40.1,16.1-61.9,43.8c-21.8,27.7-43.9,90-38.5,115.3l23.2-21.7Z"/>
  </g>
  <g>
    <path class="st0" d="M0,323.5c114.4,13.7,272.5,61.8,388,160.1,120.6,102.6,130.2,196.3,130.2,196.3,58.7-83.4-68.2-174.2-68.2-174.2l46.1,14.8c-9-38.3-80.2-109.8-128.4-133.6-48.2-23.9-113.9-19.9-113.9-19.9l31.2-22.3s-26.9-14.3-132.7-32.2c-75.4-12.7-128.1-2.5-152.2,4.4v6.7Z"/>
    <path class="st0" d="M348.7,479.4C236.9,388.5,137.5,365.2,0,336.6v169c.2.2.5.4.7.6l126.6-10.9-73.4,56.1s78.1,67.7,174.9,87.6c0,0,57.5-48.9,87-67.8,0,0-39.1,71.9-31.6,107.6,0,0,60.4,36.7,236.8,69.4,0,0-39.4-160.7-172.3-268.8Z"/>
  </g>
</svg>