<?xml version="1.0" encoding="UTF-8"?>
<svg id="Layer_1" xmlns="http://www.w3.org/2000/svg" width="1600" height="520" version="1.1" viewBox="0 0 1600 520">
  <!-- Generator: Adobe Illustrator 29.2.1, SVG Export Plug-In . SVG Version: 2.1.0 Build 116)  -->
  <defs>
    <style>
      .st0 {
        fill: #e7e4df;
      }

      .st1 {
        fill: #edeae6;
      }

      .st2 {
        fill: #e0dcd7;
      }
    </style>
  </defs>
  <rect class="st1" width="1600" height="520"/>
  <g>
    <path class="st0" d="M288.1,218.6C197.7,120.4,109.3,72.4,0,28.8v169.3l28.1,1.6L0,215.4v98.9c32.2,25.2,74.2,52.4,121.8,69.6,0,0,75.1-47.2,112.6-64.2,0,0-57.6,77-54.9,119.8,0,0,40.1,33.1,155.7,80.4h101.4c-13.1-64.5-50.3-194.7-148.5-301.4Z"/>
    <path class="st0" d="M0,8.4c113.6,43.8,241.1,117.1,333.1,221.6,122.9,139.5,118.3,250.1,118.3,250.1,82.2-87-50-214-50-214l51.1,24.9c-4.1-46-74.8-141.2-126.7-177-52-35.9-129.1-42.3-129.1-42.3l40.1-20.7S212.2,33,114.6,0H0v8.4Z"/>
  </g>
  <g>
    <path class="st2" d="M310.2,384.1c-53.4-11.6-117.3,8.7-117.3,8.7l25.3-29.8s-30.1-7.5-138.9,1.2c-30.9,2.4-57.3,7.6-79.3,13.7v29.4c108.2-4.3,241.1,11.4,354.2,67.2,29.8,14.7,54.8,30.2,75.8,45.6h57.4c-31.7-25.3-66.7-39.1-66.7-39.1l49.1,3.1c-18.4-35.5-106.3-88.4-159.7-99.9Z"/>
    <path class="st2" d="M314.5,480.2c-111.9-52.2-203.2-59.2-314.5-56.6v96.4h383.7c-21.1-14.6-44.1-28.2-69.2-39.8Z"/>
  </g>
  <g>
    <path class="st0" d="M1169,194.9c133.8-95,310.2-129.8,431-131.3v-1.4c-12.8-6.2-71.9-31.7-170.2-23.8-111.7,8.9-141,21.4-141,21.4l30.4,26.1s-68-10.1-120.3,10.3c-52.3,20.4-132.8,88.3-145.7,127.3l49.3-11.2s-140.2,82.9-86.8,174.9c0,0,18.5-96.6,153.2-192.2Z"/>
    <path class="st0" d="M1600,230.9V75.9c-153,17.9-261.2,31.2-389.7,118.3-148.1,100.3-203.7,263.8-203.7,263.8,186.4-17.9,252.6-50.6,252.6-50.6,11.1-36.5-23.1-114.8-23.1-114.8,29,22.3,84.3,78.5,84.3,78.5,102.4-11.9,189.8-75.2,189.8-75.2l-71.2-65.1,130.7,22.9c11.2-7.6,21.3-15.2,30.3-22.9Z"/>
  </g>
  <g>
    <path class="st2" d="M1600,55.8c-93.6,70.8-157.9,115.8-206.8,218.5-52.9,111-29.1,227.4-29.1,227.4,104.3-75.4,132.2-117.9,132.2-117.9-6.1-25.5-53.6-60.1-53.6-60.1,25,3.2,77.3,17.2,77.3,17.2,41.3-31.1,68.3-75.7,79.9-97.5v-14.5l-58.4-12.4,58.4-21.8V55.8Z"/>
    <path class="st2" d="M1335.6,322.3s-54.4,97.9,9.3,134c0,0-22.6-63.7,24-167.3,46.7-103.6,140.2-186.1,211.5-228.8,0,0-48.1,1.1-111.3,45.2-63.1,44.1-76.2,61.7-76.2,61.7l27.1,4.9s-43.9,17.6-67.8,47.9c-23.9,30.3-48.1,98.6-42.2,126.2l25.4-23.8Z"/>
  </g>
</svg>