<?xml version="1.0" encoding="UTF-8"?>
<svg id="Layer_1" xmlns="http://www.w3.org/2000/svg" width="1600" height="380" version="1.1" viewBox="0 0 1600 380">
  <!-- Generator: Adobe Illustrator 29.2.1, SVG Export Plug-In . SVG Version: 2.1.0 Build 116)  -->
  <defs>
    <style>
      .st0 {
        fill: #e7e4df;
      }

      .st1 {
        fill: #edeae6;
      }

      .st2 {
        fill: #e0dcd7;
      }
    </style>
  </defs>
  <rect class="st1" width="1600" height="380"/>
  <g>
    <path class="st0" d="M261.6,144.8C180.4,87.1,73.3,66,0,65.1v-.8c7.8-3.8,43.6-19.2,103.3-14.4,67.8,5.4,85.6,13,85.6,13l-18.5,15.8s41.3-6.1,73,6.3c31.7,12.4,80.6,53.6,88.4,77.3l-29.9-6.8s85.1,50.3,52.7,106.2c0,0-11.2-58.6-93-116.7h0Z"/>
    <path class="st0" d="M0,166.6v-94.1c92.9,10.9,158.5,18.9,236.5,71.8,89.9,60.9,123.6,160.1,123.6,160.1-113.1-10.9-153.3-30.7-153.3-30.7-6.7-22.2,14-69.7,14-69.7-17.6,13.5-51.2,47.6-51.2,47.6-62.1-7.2-115.2-45.6-115.2-45.6l43.2-39.5-79.3,13.9c-6.8-4.6-12.9-9.2-18.4-13.8Z"/>
  </g>
  <g>
    <path class="st2" d="M0,60.4c56.8,43,95.8,70.3,125.5,132.6,32.1,67.4,17.7,138,17.7,138-63.3-45.8-80.2-71.6-80.2-71.6,3.7-15.5,32.5-36.5,32.5-36.5-15.2,1.9-46.9,10.4-46.9,10.4C23.5,214.5,7,187.5,0,174.2v-8.8l35.4-7.5L0,144.7V60.4Z"/>
    <path class="st2" d="M160.5,222.1s33,59.4-5.6,81.3c0,0,13.7-38.7-14.6-101.5C111.9,139,55.1,89,11.8,63c0,0,29.2.7,67.6,27.4,38.3,26.8,46.2,37.4,46.2,37.4l-16.4,3s26.6,10.7,41.1,29.1c14.5,18.4,29.2,59.8,25.6,76.6l-15.4-14.4h0Z"/>
  </g>
</svg>