<?xml version="1.0" encoding="UTF-8"?>
<svg id="Layer_1" xmlns="http://www.w3.org/2000/svg" width="1600" height="520" version="1.1" viewBox="0 0 1600 520">
  <!-- Generator: Adobe Illustrator 29.2.1, SVG Export Plug-In . SVG Version: 2.1.0 Build 116)  -->
  <defs>
    <style>
      .st0 {
        fill: #e7e4df;
      }

      .st1 {
        fill: #edeae6;
      }

      .st2 {
        fill: #e0dcd7;
      }
    </style>
  </defs>
  <rect class="st1" width="1600" height="520"/>
  <g>
    <path class="st0" d="M431,194.9C297.2,99.9,120.7,65.1,0,63.6v-1.4c12.8-6.2,71.9-31.7,170.2-23.8,111.7,8.9,141,21.4,141,21.4l-30.4,26.1s68-10.1,120.3,10.3c52.3,20.4,132.8,88.3,145.7,127.3l-49.3-11.2s140.2,82.9,86.8,174.9c0,0-18.5-96.6-153.2-192.2Z"/>
    <path class="st0" d="M0,230.9V75.9c153,17.9,261.2,31.2,389.7,118.3,148.1,100.3,203.7,263.8,203.7,263.8-186.4-17.9-252.6-50.6-252.6-50.6-11.1-36.5,23.1-114.8,23.1-114.8-29,22.3-84.3,78.5-84.3,78.5-102.4-11.9-189.8-75.2-189.8-75.2l71.2-65.1-130.7,22.9C19.1,246.2,9,238.6,0,230.9Z"/>
  </g>
  <g>
    <path class="st2" d="M0,55.8c93.6,70.8,157.9,115.8,206.8,218.5,52.9,111,29.1,227.4,29.1,227.4-104.3-75.4-132.2-117.9-132.2-117.9,6.1-25.5,53.6-60.1,53.6-60.1-25,3.2-77.3,17.2-77.3,17.2C38.7,309.8,11.6,265.3,0,243.4v-14.5s58.4-12.4,58.4-12.4L0,194.7V55.8Z"/>
    <path class="st2" d="M264.4,322.3s54.4,97.9-9.3,134c0,0,22.6-63.7-24-167.3C184.4,185.4,90.8,102.9,19.5,60.2c0,0,48.1,1.1,111.3,45.2,63.1,44.1,76.2,61.7,76.2,61.7l-27.1,4.9s43.9,17.6,67.8,47.9c23.9,30.3,48.1,98.6,42.2,126.2l-25.4-23.8Z"/>
  </g>
</svg>