<svg id="Layer_1" data-name="Layer 1" xmlns="http://www.w3.org/2000/svg" viewBox="0 0 217.3116 66.8842" width="192.635" height="67.231"><defs><style>.cls-1{fill:#003d79;}.cls-2{fill:#008752;}</style></defs><path class="cls-1" d="M21.1216,51.0277l-.5652-.2422C19.7175,50.4271,0,43.1194,0,28.1279V9.2729l.254-.3682C.5021,8.5424,6.5436,0,21.1216,0c14.58,0,20.6174,8.5424,20.8675,8.9047l.254.3722v18.851c0,14.9915-19.7155,22.2992-20.5544,22.6576ZM2.8868,10.2083v17.92c0,11.7995,15.0958,18.2663,18.2348,19.7412,3.1388-1.4769,18.2327-7.96,18.2327-19.7412v-17.92c-1.2032-1.4867-6.66-7.3195-18.2327-7.3195-11.5651,0-17.0217,5.8249-18.2348,7.32"/><path class="cls-2" d="M10.6218,33.7545V20.0509l10.5-7.5085,10.5,7.5085V34.3532c1.2012.2461,1.7467.5238,2.9321.8467V18.2255L21.1216,8.7694l-13.43,9.4561V34.1838c1.1913-.1575,1.7388-.2973,2.93-.4293"/><rect class="cls-2" x="7.6923" y="33.6212" width="26.8618" height="2.4123"/><path class="cls-1" d="M24.1112,21.5847A2.9942,2.9942,0,1,1,21.116,18.59a2.9953,2.9953,0,0,1,2.9952,2.9951"/><path class="cls-1" d="M27.2446,31.7463a6.1484,6.1484,0,0,0-12.2563,0Z"/><polygon class="cls-2" points="0.384 55.464 2.072 55.464 5.896 62.441 5.922 62.441 5.922 55.464 7.162 55.464 7.162 64.128 5.573 64.128 1.65 57.004 1.625 57.004 1.625 64.128 0.384 64.128 0.384 55.464"/><path class="cls-2" d="M9.0478,58.2446a4.03,4.03,0,0,1,2.0854-.5967c1.8136,0,2.5462.894,2.5462,2.619v2.621a9.8941,9.8941,0,0,0,.0492,1.2406H12.6357v-.8192H12.61a2.347,2.347,0,0,1-1.9613.9689c-1.3647,0-2.32-.5967-2.32-1.9751,0-1.5892,1.7368-2.0854,2.942-2.0854.4588,0,.7817,0,1.2406.0256,0-1.0929-.3978-1.6521-1.5636-1.6521a2.9718,2.9718,0,0,0-1.8372.6459Zm3.4639,2.8671c-.2482,0-.4963-.0256-.7444-.0256-.6341,0-2.1976.1-2.1976,1.217a1.1159,1.1159,0,0,0,1.18,1.0318,1.599,1.599,0,0,0,1.7625-1.6639Z"/><path class="cls-2" d="M18.7678,58.7408H17.092v3.4638a1.0048,1.0048,0,0,0,.9806,1.13,1.4315,1.4315,0,0,0,.7936-.2244v.9924a3.6279,3.6279,0,0,1-.9924.1753c-1.2032,0-1.9495-.5711-1.9495-1.8373v-3.7H14.4966v-.9432h1.4277V56.3325L17.092,55.96v1.8373h1.6758Z"/><path class="cls-2" d="M21.6223,56.3831H20.3069V55.0677h1.3154ZM20.3818,57.797H21.55v6.3309H20.3818Z"/><path class="cls-2" d="M25.7439,57.6491A3.1227,3.1227,0,0,1,28.96,60.9632a3.2229,3.2229,0,1,1-6.4432,0,3.1256,3.1256,0,0,1,3.2276-3.3141m0,5.6851a2.1221,2.1221,0,0,0,1.9731-2.371,2.1612,2.1612,0,0,0-1.9731-2.3709,2.1623,2.1623,0,0,0-1.987,2.3709,2.1237,2.1237,0,0,0,1.987,2.371"/><path class="cls-2" d="M29.7778,57.7974h1.13v1.0062h.0236a2.2767,2.2767,0,0,1,2.0735-1.1559c1.6384,0,2.3709,1.0181,2.3709,2.7195v3.7611H34.21V60.8516c0-1.4769-.323-2.1976-1.341-2.2606-1.3292,0-1.9239,1.0692-1.9239,2.6072v2.93H29.7778Z"/><path class="cls-2" d="M37.4111,58.2446a4.03,4.03,0,0,1,2.0854-.5967c1.8136,0,2.5461.894,2.5461,2.619v2.621a9.8852,9.8852,0,0,0,.0493,1.2406H40.999v-.8192h-.0256a2.347,2.347,0,0,1-1.9614.9689c-1.3646,0-2.32-.5967-2.32-1.9751,0-1.5892,1.7369-2.0854,2.942-2.0854.4589,0,.7818,0,1.2406.0256,0-1.0929-.3978-1.6521-1.5635-1.6521a2.9723,2.9723,0,0,0-1.8373.6459Zm3.4638,2.8671c-.2481,0-.4962-.0256-.7443-.0256-.6341,0-2.1977.1-2.1977,1.217a1.1159,1.1159,0,0,0,1.18,1.0318,1.599,1.599,0,0,0,1.7624-1.6639Z"/><rect class="cls-2" x="43.6675" y="54.8176" width="1.1677" height="9.3103"/><path class="cls-2" d="M50.7065,55.4647h2.27c1.7762,0,3.2531.62,3.2531,2.5934,0,1.9239-1.5025,2.6072-3.066,2.6072h-1.217v3.4638H50.7065Zm1.2406,4.1077h1.2288a1.5592,1.5592,0,0,0,1.7388-1.5261c0-1.0929-1.1422-1.4907-1.9121-1.4907H51.9471Z"/><path class="cls-2" d="M61.9283,63.8676a4.85,4.85,0,0,1-1.9987.41c-2.2469,0-3.2787-1.3646-3.2787-3.4264a2.94,2.94,0,0,1,2.9676-3.2019c2.111,0,2.7923,1.54,2.7923,3.5741H57.8935a2.0717,2.0717,0,0,0,2.0853,2.111,3.7378,3.7378,0,0,0,1.95-.6341Zm-.7581-3.513a1.5974,1.5974,0,0,0-1.5773-1.7625,1.7511,1.7511,0,0,0-1.6994,1.7625Z"/><path class="cls-2" d="M63.5037,62.8871a3.1188,3.1188,0,0,0,1.4533.4471c.5336,0,1.1913-.2245,1.1913-.9059,0-1.1539-2.743-1.0555-2.743-2.8317,0-1.3154.9806-1.9475,2.233-1.9475a4.8291,4.8291,0,0,1,1.4533.2481l-.1,1.0181a3.3989,3.3989,0,0,0-1.2288-.323c-.5947,0-1.1166.2482-1.1166.77,0,1.29,2.7431.9176,2.7431,2.942A1.99,1.99,0,0,1,65.18,64.2774a3.6622,3.6622,0,0,1-1.7388-.3466Z"/><path class="cls-2" d="M72.5031,58.7408H70.8273v3.4638a1.0048,1.0048,0,0,0,.9807,1.13,1.4318,1.4318,0,0,0,.7936-.2244v.9924a3.628,3.628,0,0,1-.9925.1753c-1.2032,0-1.95-.5711-1.95-1.8373v-3.7H68.2319v-.9432H69.66V56.3325l1.1677-.3722v1.8373h1.6758Z"/><polygon class="cls-2" points="78.039 55.464 80.087 55.464 82.807 62.663 85.475 55.464 87.523 55.464 87.523 64.128 86.282 64.128 86.282 56.63 86.257 56.63 83.389 64.128 82.172 64.128 79.305 56.63 79.28 56.63 79.28 64.128 78.039 64.128 78.039 55.464"/><path class="cls-2" d="M89.4335,58.2446a4.03,4.03,0,0,1,2.0853-.5967c1.8136,0,2.5462.894,2.5462,2.619v2.621a9.8941,9.8941,0,0,0,.0492,1.2406H93.0213v-.8192h-.0256a2.3467,2.3467,0,0,1-1.9613.9689c-1.3647,0-2.32-.5967-2.32-1.9751,0-1.5892,1.7368-2.0854,2.942-2.0854.4588,0,.7817,0,1.2406.0256,0-1.0929-.3978-1.6521-1.5636-1.6521a2.9718,2.9718,0,0,0-1.8372.6459Zm3.4638,2.8671c-.2482,0-.4963-.0256-.7444-.0256-.6341,0-2.1976.1-2.1976,1.217a1.1159,1.1159,0,0,0,1.18,1.0318,1.599,1.599,0,0,0,1.7625-1.6639Z"/><path class="cls-2" d="M95.5413,57.7974h1.13v1.0062h.0236a2.2768,2.2768,0,0,1,2.0736-1.1559c1.6384,0,2.3709,1.0181,2.3709,2.7195v3.7611H99.9739V60.8516c0-1.4769-.3249-2.1976-1.341-2.2606-1.3292,0-1.9258,1.0692-1.9258,2.6072v2.93H95.5413Z"/><path class="cls-2" d="M103.1747,58.2446a4.03,4.03,0,0,1,2.0853-.5967c1.8137,0,2.5462.894,2.5462,2.619v2.621a9.8852,9.8852,0,0,0,.0493,1.2406h-1.093v-.8192h-.0256a2.35,2.35,0,0,1-1.9613.9689c-1.3646,0-2.32-.5967-2.32-1.9751,0-1.5892,1.7369-2.0854,2.942-2.0854.4588,0,.7818,0,1.2406.0256,0-1.0929-.3978-1.6521-1.5636-1.6521a2.9718,2.9718,0,0,0-1.8372.6459Zm3.4638,2.8671c-.2481,0-.4963-.0256-.7444-.0256-.6341,0-2.1976.1-2.1976,1.217a1.1159,1.1159,0,0,0,1.18,1.0318,1.599,1.599,0,0,0,1.7624-1.6639Z"/><path class="cls-2" d="M114.8817,63.8556c0,1.9239-.9945,3.0286-3.2649,3.0286a6.38,6.38,0,0,1-2.2725-.4352l.1241-1.0791a4.8232,4.8232,0,0,0,2.2842.5711,1.9142,1.9142,0,0,0,1.9614-2.172v-.62h-.0256a2.6417,2.6417,0,0,1-2.1228.9806c-1.8117,0-2.7057-1.4769-2.7057-3.1172,0-1.6266.92-3.3634,2.83-3.3634a2.0815,2.0815,0,0,1,2.0873,1.0929h.0237v-.9432h1.0811Zm-1.1677-2.8179c0-1.3154-.6086-2.4458-1.8491-2.4458-1.18,0-1.7644,1.2781-1.7644,2.3591,0,1.1914.6715,2.2331,1.7644,2.2331a1.9726,1.9726,0,0,0,1.8491-2.1464"/><path class="cls-2" d="M121.2245,63.8676a4.8506,4.8506,0,0,1-1.9987.41c-2.2469,0-3.2788-1.3646-3.2788-3.4264a2.9405,2.9405,0,0,1,2.9676-3.2019c2.111,0,2.7923,1.54,2.7923,3.5741H117.19a2.0717,2.0717,0,0,0,2.0854,2.111,3.7384,3.7384,0,0,0,1.95-.6341Zm-.7581-3.513a1.5974,1.5974,0,0,0-1.5774-1.7625,1.7525,1.7525,0,0,0-1.6994,1.7625Z"/><path class="cls-2" d="M123.011,57.7974h1.0928v.9176h.0237a2.1414,2.1414,0,0,1,2.0125-1.0673,1.8752,1.8752,0,0,1,1.8,1.2308,2.2545,2.2545,0,0,1,1.9613-1.2308c1.6128,0,2.1977,1.0437,2.1977,2.4221v4.0585H130.931V60.3554c0-.7838-.1871-1.7644-1.13-1.7644-1.1914,0-1.662,1.1677-1.662,2.3472v3.19H126.971V60.3554c0-.7838-.1871-1.7644-1.13-1.7644-1.1914,0-1.662,1.1677-1.662,2.3472v3.19H123.011Z"/><path class="cls-2" d="M138.4169,63.8676a4.85,4.85,0,0,1-1.9987.41c-2.2469,0-3.2787-1.3646-3.2787-3.4264a2.94,2.94,0,0,1,2.9675-3.2019c2.1111,0,2.7924,1.54,2.7924,3.5741h-4.5173a2.0717,2.0717,0,0,0,2.0853,2.111,3.7511,3.7511,0,0,0,1.95-.6341Zm-.7581-3.513a1.5974,1.5974,0,0,0-1.5774-1.7625,1.751,1.751,0,0,0-1.6993,1.7625Z"/><path class="cls-2" d="M140.2154,57.7974h1.13v1.0062h.0237a2.2766,2.2766,0,0,1,2.0735-1.1559c1.6384,0,2.371,1.0181,2.371,2.7195v3.7611H144.648V60.8516c0-1.4769-.323-2.1976-1.341-2.2606-1.3292,0-1.9239,1.0692-1.9239,2.6072v2.93h-1.1677Z"/><path class="cls-2" d="M150.9156,58.7408H149.24v3.4638a1.0048,1.0048,0,0,0,.9806,1.13,1.4315,1.4315,0,0,0,.7936-.2244v.9924a3.6279,3.6279,0,0,1-.9924.1753c-1.2032,0-1.95-.5711-1.95-1.8373v-3.7h-1.4258v-.9432h1.4258V56.3325L149.24,55.96v1.8373h1.6758Z"/><path class="cls-2" d="M159.4926,55.4647h1.3036l3.6627,8.6644H163.106l-.8822-2.1858h-4.2455l-.8822,2.1858h-1.3036Zm.6085,1.1657-1.725,4.2948h3.45Z"/><path class="cls-2" d="M165.1278,62.8871a3.1188,3.1188,0,0,0,1.4532.4471c.5337,0,1.1914-.2245,1.1914-.9059,0-1.1539-2.7451-1.0555-2.7451-2.8317,0-1.3154.9827-1.9475,2.2351-1.9475a4.83,4.83,0,0,1,1.4533.2481l-.1005,1.0181a3.3979,3.3979,0,0,0-1.2288-.323c-.5947,0-1.1165.2482-1.1165.77,0,1.29,2.7431.9176,2.7431,2.942a1.99,1.99,0,0,1-2.2094,1.9731,3.6668,3.6668,0,0,1-1.7388-.3466Z"/><path class="cls-2" d="M169.9565,62.8871a3.1188,3.1188,0,0,0,1.4532.4471c.5337,0,1.1914-.2245,1.1914-.9059,0-1.1539-2.7431-1.0555-2.7431-2.8317,0-1.3154.9807-1.9475,2.2331-1.9475a4.83,4.83,0,0,1,1.4533.2481l-.1,1.0181a3.3984,3.3984,0,0,0-1.2288-.323c-.5947,0-1.1165.2482-1.1165.77,0,1.29,2.7431.9176,2.7431,2.942a1.99,1.99,0,0,1-2.2094,1.9731,3.6668,3.6668,0,0,1-1.7388-.3466Z"/><path class="cls-2" d="M177.8142,57.6491a3.1227,3.1227,0,0,1,3.2156,3.3141,3.2229,3.2229,0,1,1-6.4432,0,3.1245,3.1245,0,0,1,3.2276-3.3141m0,5.6851a2.1221,2.1221,0,0,0,1.9731-2.371,2.0123,2.0123,0,1,0-3.96,0,2.1237,2.1237,0,0,0,1.987,2.371"/><path class="cls-2" d="M186.3662,58.8649a3.4056,3.4056,0,0,0-1.2662-.2737,2.1685,2.1685,0,0,0-2.0362,2.3709,2.144,2.144,0,0,0,2.111,2.3728,2.4539,2.4539,0,0,0,1.2543-.36l.0867,1.0417a3.5479,3.5479,0,0,1-1.4651.2619,3.2027,3.2027,0,0,1-3.2275-3.3161,3.1245,3.1245,0,0,1,3.2275-3.3142,4.4067,4.4067,0,0,1,1.4159.2481Z"/><path class="cls-2" d="M189.2459,56.3831h-1.3154V55.0677h1.3154Zm-1.2406,1.4139h1.1677v6.3309h-1.1677Z"/><path class="cls-2" d="M191.1074,58.2446a4.0192,4.0192,0,0,1,2.0854-.5967c1.8136,0,2.5461.894,2.5461,2.619v2.621a9.8852,9.8852,0,0,0,.0493,1.2406h-1.0929v-.8192H194.67a2.35,2.35,0,0,1-1.9614.9689c-1.3646,0-2.32-.5967-2.32-1.9751,0-1.5892,1.7369-2.0854,2.942-2.0854.4589,0,.7818,0,1.2406.0256,0-1.0929-.3978-1.6521-1.5635-1.6521a2.9721,2.9721,0,0,0-1.8373.6459Zm3.4638,2.8671c-.2481,0-.4962-.0256-.7444-.0256-.634,0-2.1976.1-2.1976,1.217a1.1159,1.1159,0,0,0,1.18,1.0318,1.599,1.599,0,0,0,1.7624-1.6639Z"/><path class="cls-2" d="M200.7034,58.7408h-1.6758v3.4638a1.0048,1.0048,0,0,0,.9807,1.13,1.4315,1.4315,0,0,0,.7936-.2244v.9924a3.628,3.628,0,0,1-.9925.1753c-1.2051,0-1.95-.5711-1.95-1.8373v-3.7h-1.4276v-.9432H197.86V56.3325l1.1677-.3722v1.8373h1.6758Z"/><path class="cls-2" d="M203.31,56.3831h-1.3154V55.0677H203.31Zm-1.2406,1.4139h1.1677v6.3309h-1.1677Z"/><path class="cls-2" d="M207.4312,57.6491a3.1228,3.1228,0,0,1,3.2157,3.3141,3.2229,3.2229,0,1,1-6.4432,0,3.1244,3.1244,0,0,1,3.2275-3.3141m0,5.6851a2.1221,2.1221,0,0,0,1.9731-2.371,2.0122,2.0122,0,1,0-3.96,0,2.1236,2.1236,0,0,0,1.9869,2.371"/><path class="cls-2" d="M211.7132,57.7974h1.13v1.0062h.0236a2.2767,2.2767,0,0,1,2.0736-1.1559c1.6383,0,2.3709,1.0181,2.3709,2.7195v3.7611h-1.1658V60.8516c0-1.4769-.3249-2.1976-1.341-2.2606-1.3292,0-1.9239,1.0692-1.9239,2.6072v2.93h-1.1677Z"/><polygon class="cls-1" points="83.705 8.295 83.705 45.633 75.244 45.633 58.775 25.335 58.718 25.335 58.718 45.633 48.654 45.633 48.654 8.295 57.06 8.295 73.584 28.651 73.643 28.651 73.643 8.295 83.705 8.295"/><path class="cls-1" d="M89.7684,45.6337V8.2958h20.8124c5.3168,0,9.1489,1.4868,11.7206,4.2889a11.4127,11.4127,0,0,1-.5711,16.1809c-2.46,2.3433-5.9469,3.7158-11.15,3.7158H99.7739V45.6337ZM99.7739,16.4148v7.9477h11.378a4.08,4.08,0,0,0,2.9734-1.03,4.2542,4.2542,0,0,0,1.2583-2.9144,4.2,4.2,0,0,0-1.2012-2.9164,4.13,4.13,0,0,0-3.0305-1.087Z"/><polygon class="cls-1" points="160.613 45.633 160.613 27.678 160.328 27.678 151.807 41.573 148.263 41.573 139.742 27.678 139.456 27.678 139.456 45.633 129.679 45.633 129.679 8.296 138.828 8.296 150.263 27.164 150.377 27.164 161.757 8.296 170.676 8.296 170.676 45.633 160.613 45.633"/><path class="cls-1" d="M172.5658,45.6341l17.325-37.3379h8.29L215.506,45.6341H204.5849l-2.4-5.7186H185.4877l-2.3453,5.7186ZM188.69,32.1392h10.293l-4.9762-11.951h-.3427Z"/></svg>