<svg id="Layer_1" data-name="Layer 1" xmlns="http://www.w3.org/2000/svg" viewBox="0 0 144 144"><path d="M125.802,86.5773a18.1232,18.1232,0,0,0-11.638,4.2117l-9.043.005V81.5562L99.7962,78.062H79.7793V73.78h26.52l.0317-16.5772-32.7263-6.896-22.663.0166L50.9735,73.78H60.142V76.939l-7.0366,4.6172c.0058,0,.0058,6.6686.0058,6.6686L46.16,88.25,7.9765,23.14A4.2821,4.2821,0,1,0,.5887,27.4723l35.4141,60.387a16.7562,16.7562,0,0,0-6.4846-1.282,18.2,18.2,0,1,0,15.43,27.8155H110.37A18.1921,18.1921,0,1,0,125.802,86.5773ZM29.519,113.6936a8.9175,8.9175,0,1,1,8.9142-8.9166A8.9189,8.9189,0,0,1,29.519,113.6936Zm96.2839,0a8.9175,8.9175,0,1,1,8.9141-8.9166A8.9189,8.9189,0,0,1,125.8029,113.6936Z"/></svg>