<svg id="Layer_1" data-name="Layer 1" xmlns="http://www.w3.org/2000/svg" viewBox="0 0 144 144"><path d="M138.402,15.7487A5.5974,5.5974,0,1,0,144,21.3467,5.5973,5.5973,0,0,0,138.402,15.7487Z"/><path d="M138.402,32.352A5.5974,5.5974,0,1,0,144,37.95,5.5973,5.5973,0,0,0,138.402,32.352Z"/><path d="M138.402,48.9552A5.5977,5.5977,0,1,0,144,54.5526,5.598,5.598,0,0,0,138.402,48.9552Z"/><path d="M122.1311,23.0843a5.5974,5.5974,0,1,0,5.5968,5.5968A5.5973,5.5973,0,0,0,122.1311,23.0843Z"/><path d="M122.1311,39.6869a5.5974,5.5974,0,1,0,5.5968,5.5975A5.5979,5.5979,0,0,0,122.1311,39.6869Z"/><path d="M108.9029,32.352A5.5974,5.5974,0,1,0,114.5,37.9493,5.5978,5.5978,0,0,0,108.9029,32.352Z"/><path d="M5.598,26.9435A5.5974,5.5974,0,1,0,0,21.3467,5.597,5.597,0,0,0,5.598,26.9435Z"/><path d="M5.598,43.5467A5.5974,5.5974,0,1,0,0,37.95,5.597,5.597,0,0,0,5.598,43.5467Z"/><path d="M11.1954,54.5526a5.5977,5.5977,0,1,0-5.5974,5.598A5.598,5.598,0,0,0,11.1954,54.5526Z"/><path d="M16.2721,28.6811a5.5977,5.5977,0,1,0,5.5968-5.5968A5.598,5.598,0,0,0,16.2721,28.6811Z"/><path d="M21.8689,50.8817a5.5974,5.5974,0,1,0-5.5968-5.5973A5.5977,5.5977,0,0,0,21.8689,50.8817Z"/><path d="M40.6958,37.9493a5.5977,5.5977,0,1,0-5.5986,5.5974A5.5977,5.5977,0,0,0,40.6958,37.9493Z"/><path d="M47.8522,16.8733a5.6327,5.6327,0,0,0-1.03,3.4059v8.7154a1.8661,1.8661,0,0,0,1.8664,1.8664H55.141V45.17H48.6882a1.8661,1.8661,0,0,0-1.8664,1.8664v55.3585c4.0791-3.5639,9.397-7.256,15.0145-9.0884a.9654.9654,0,0,1,1.1342,1.4071c-2.89,4.892-10.3162,18.0055-9.2634,25.7773.2741,2.0225,3.3356.82,5.2007-3.9855a.8184.8184,0,0,1,1.5456.1385c.8075,2.3,3.3319,12.2793,1.2425,20.2911H95.3113a1.8661,1.8661,0,0,0,1.8664-1.8664V47.0359A1.8661,1.8661,0,0,0,95.3113,45.17H88.8584V30.861h6.4529a1.8661,1.8661,0,0,0,1.8664-1.8664V20.2792a5.6681,5.6681,0,0,0-1.0511-3.4333C86.2945,3.7963,57.6581,3.8054,47.8522,16.8733Z"/><path d="M24.146,136.7905H54.8883a1.2724,1.2724,0,0,0,1.2971-1.2109,25.1686,25.1686,0,0,0-1.94-11.3254c-.1756-.3755-.6969-.1732-.802.2279a10.783,10.783,0,0,1-3.9594,5.6356.4994.4994,0,0,1-.7838-.161c-2.381-6.448,1.4308-17.3317,2.8118-20.8822a.4935.4935,0,0,0-.6671-.6355,20.9439,20.9439,0,0,0-4.0232,2.6975,36.208,36.208,0,0,0-7.4936,9.1893c-.0711.1385-.1471.2746-.2163.4143a33.89,33.89,0,0,0-3.3853,11.3929c-.0116.11-.178.07-.2011-.0377a34.63,34.63,0,0,1-.6653-8.7166,5.1624,5.1624,0,0,0-.4253-2.4144c-4.4381-9.5824-12.99-16.7952-15.92-19.0778-.2515-.1962-.6258.0371-.4939.3275,4.8951,10.78,5.1156,26.2913,4.9206,33.3583A1.1947,1.1947,0,0,0,24.146,136.7905Z"/></svg>