<svg id="Layer_1" data-name="Layer 1" xmlns="http://www.w3.org/2000/svg" viewBox="0 0 144 144"><path d="M113.2627,73.675c-.2193-.0031-.4373-.005-.6528-.005a43.4194,43.4194,0,0,0-27.1027,9.2622C78.8721,88.2414,74.8038,94.77,74.331,100.4647q-.0657.84-.0653,1.6712a22.4458,22.4458,0,0,0,.25,3.2457q.8357-.0912,1.7226-.2535c.5584-.1027,1.132-.2288,1.7151-.3708,6.95-1.6878,15.4967-5.9855,21.7091-9.4878,1.7626-.9938,3.34-1.9242,4.6362-2.7107.3606-.2174.6965-.4234,1.0122-.6173,1.774-1.0876,2.8229-1.7778,2.8267-1.78a.4666.4666,0,0,1,.6426.6509c-.0069.01-.5247.7757-1.5515,2.0274A62.56,62.56,0,0,1,80.2962,111.6c-.4614.1642-.93.322-1.4026.4766-.0957.0311-.19.0628-.2858.0939-.5584.1793-1.1256.35-1.7011.5171l.0209.0393a38.4588,38.4588,0,0,1-11.222,1.7626,29.6276,29.6276,0,0,1-4.0182-.2656,36.8586,36.8586,0,0,0,.99-8.4452,35.4033,35.4033,0,0,0-.372-5.1407,60.77,60.77,0,0,0-1.3493-6.7156c.465-.3365.9253-.682,1.3753-1.04,6.58-5.2395,11.3361-12.8468,11.3355-21.9177a28.7426,28.7426,0,0,0-1.8857-10.0455C67.8357,50.2667,60.6942,44.1886,53.4429,39.6811c-7.2645-4.5126-14.658-7.65-19.5958-12.336A43.3759,43.3759,0,0,1,22.9449,10.5a43.72,43.72,0,0,1-1.7406-6.15c-.1531-.7554-.2507-1.3512-.3078-1.7524-.0278-.2-.0469-.3511-.0589-.4487s-.0146-.13-.0146-.13A1.7474,1.7474,0,0,0,17.8638.9281C17.7219,1.0752,4.5911,13.8593.9763,36.4228a76.7113,76.7113,0,0,0-.9758,12.1c.0023,14.4339,4.2651,27.0045,10.9329,36.26,6.6627,9.2444,15.769,15.2217,25.4656,16.2313a29.0874,29.0874,0,0,0,2.9839.15,33.4362,33.4362,0,0,0,5.4766-.4766c-.0634-.5419-.1388-1.1212-.2263-1.7277-.0805-.5533-.1717-1.1313-.2757-1.73A50.5486,50.5486,0,0,0,38.841,81.0783a150.6591,150.6591,0,0,0-11.51-16.7142c-.038-.0482-.0742-.0939-.1109-.142-2.3286-2.9909-4.3288-5.4158-5.4924-6.8031-.6826-.8132-1.0794-1.2733-1.0819-1.2765a.4664.4664,0,0,1,.6477-.6661c.2269.1851.4456.367.6687.5508C38.29,69.4521,47.8294,80.1929,51.802,95.0553q.2272.8508.43,1.7195.2007.8565.3759,1.7308.3308,1.6371.5824,3.3445a.4613.4613,0,0,1-.0862.3359,26.2137,26.2137,0,0,1,.2478,3.593,27.6373,27.6373,0,0,1-4.6745,15.3523c-3.3885,5.0684-8.8793,9.8921-17.7771,13.4413a4.6618,4.6618,0,1,0,3.443,8.6646c10.4056-4.1228,17.613-10.1933,22.0933-16.9355.7-1.0508,1.3264-2.1641,1.8975-3.2358a38.1317,38.1317,0,0,0,7.3712.6512h.02A49.4766,49.4766,0,0,0,83.3137,120.29a21.6255,21.6255,0,0,0,13.2988,4.7252h.0063a20.6254,20.6254,0,0,0,8.2247-1.6789,19.2953,19.2953,0,0,0,8.19-6.1883c2.7056-3.6576,3.6684-7.7012,5.1191-11.5464a24.0024,24.0024,0,0,1,7.54-11.0653A27.5458,27.5458,0,0,1,142.08,88.5041c.0926,0,.1122.0032.1129.0026a1.7477,1.7477,0,0,0,1.4691-2.78C143.49,85.4505,134.8236,73.96,113.2627,73.675Z"/></svg>