<svg id="Layer_1" data-name="Layer 1" xmlns="http://www.w3.org/2000/svg" viewBox="0 0 144 144"><path d="M39.8924,111.3118A3.8848,3.8848,0,0,0,42.557,113.02l5.6795.8558a1.9654,1.9654,0,0,1,1.3385.85L68.7574,143.44a1.2586,1.2586,0,0,0,2.0359.08l25.2078-32.0115a2.1863,2.1863,0,0,1,1.3933-.8078l7.8272-1.1582a3.6926,3.6926,0,0,0,2.6121-1.7371l16.57-27.4a.9773.9773,0,0,0-.8363-1.4832H75.1039c.04,1.13.0389,2.25-.0146,3.353l-.06.987-.0384.5-.0418.4548c-.062.6659-.1314,1.3187-.2167,1.9547-.05.3905-.1128.7719-.1715,1.1562.2141.1532.4266.3115.6343.4788A10.9782,10.9782,0,0,1,77.02,89.6641a9.6453,9.6453,0,0,1,1.2742,2.205c.0987.2251.1078.3072.1958.5315.0745.1981.1253.3707.1817.5522.1084.3594.198.7177.2765,1.0727a48.2337,48.2337,0,0,1,.5716,8.067,46.8368,46.8368,0,0,0-3.6752-6.7161c-.1789-.2328-.3617-.456-.5507-.6653-.0937-.1016-.1925-.213-.28-.2923-.0689-.0553-.2274-.2469-.2991-.2937a4.8732,4.8732,0,0,0-1.1675-.7573c-.0469-.0218-.0965-.0353-.1439-.0556-.02.0914-.04.1845-.0593.276-1.05,4.787-2.1775,9.4453-2.7441,14.185a35.4258,35.4258,0,0,0,.8267,14.2691,36.6857,36.6857,0,0,1-3.3643-14.3447c-.2519-4.5848-.0014-9.1613.1972-13.6363.27-2.3193.5878-4.6362.9128-6.989.2632-1.9064.5355-3.8775.7807-5.8584.0953-.77.17-1.5329.2342-2.2916.009-.1075.0186-.215.027-.3219.24-.2029.4825-.4055.7339-.6151.7358-.6134,1.4971-1.2474,2.2523-1.9406q.7665-.7029,1.4855-1.4231a38.6942,38.6942,0,0,0,7.5445-10.3575,49.9177,49.9177,0,0,0,4.52-19.2247c4.3628-1.43,11.808-5.2526,11.975-14.7414.25-14.2172-12.5993-17.2014-7.18-30.298,0,0-17.6323,7.0953-21.0028,21.4782C68.4,30.623,71.1325,40.465,78.4129,44.27c-.3041,5.7569-1.268,11.321-3.7077,16.3266a28.095,28.095,0,0,1-3.4458,5.335c-.4616.5708-.942,1.137-1.4575,1.6951a30.5544,30.5544,0,0,0-.8814-3.656c-.15-.4827-.3158-.9438-.4921-1.389A19.8071,19.8071,0,0,0,65.7336,57.85c.89-3.5889,1.5643-9.181-.775-14.3967C61.1073,34.8685,46.4506,29.5393,34.1638,32.9c0,0,3.476,2.25,4.0972,13.7928.4365,8.1136,5.5165,18.3157,20.7526,16.1567a11.1068,11.1068,0,0,1,1.912,3.6052,22.43,22.43,0,0,1,.6857,2.9106c.0293.1733.0533.3519.08.5282a31.8872,31.8872,0,0,1,.32,5.1494c-.0181,1.2525-.0943,2.5529-.2254,3.8792H20.3912a.9364.9364,0,0,0-.7832,1.45Z"/></svg>