<svg id="Layer_1" data-name="Layer 1" xmlns="http://www.w3.org/2000/svg" viewBox="0 0 144 144"><path d="M138.212,58.16c-3.1807-5.9641-11.7314-9.4392-11.7314-9.4392a18.856,18.856,0,0,0-7.1264-13.1292c-4.4856-3.3641-3.6448.28-3.6448.28,1.2618,3.9256,2.3938,9.8615-1.4575,12.3077a23.444,23.444,0,0,0-6.9163,7.3193A12.3692,12.3692,0,0,1,98.9608,60.38c-5.6472.8242-6.1636.0926-21.8224-1.3463a53.2176,53.2176,0,0,0-11.0765,1.8213,51.7984,51.7984,0,0,0-6.605,2.3042A44.5023,44.5023,0,0,0,40.26,78.389c-4.71,6.7865-7.7395,15.1443-7.0464,23.2857.6211,8.253,5.164,15.5925,10.8069,22.01-5.864-6.2021-10.78-13.413-11.7569-21.9308C31.2377,93.3252,34.03,84.58,38.6985,77.2947c6.7708-10.4766,17.9708-17.5334,30.29-20.48C75.9537,46.78,80.7371,35.9717,72.3612,24.0211,61.1148,7.9732,41.0677,7.5426,25.2046,15.6029,13.8964,21.35.8732,31.5538.0074,45.2739c-.3438,5.4491,11.391.64,13.4358-.2518,5.7788-2.521,16.8814-9.05,21.2766-.76,2.639,4.9777-1.379,9.6149-4.1739,13.3744-6.6186,8.9047-12.75,18.8756-13.2233,30.2811-.9152,22.062,12.5954,44.9771,44.006,45.6063l.01.0148h50.8447c3.0486-3.976-.6557-8.579-7.7583-8.579H95.9315a6.3318,6.3318,0,0,1-2.3852-.2651s10.7358-7.82,12.8564-18.5556c.0415-.21.072-.4142.1057-.62a23.6392,23.6392,0,0,0,.046-2.5333,23.3637,23.3637,0,0,0-.5878-4.4993,20.4533,20.4533,0,0,0-1.19-3.592,17.8841,17.8841,0,0,0-1.6-2.9009c-4.32-6.5473-12.8081-8.9317-20.8611-9.1257,8.0155-.3988,17.0079,1.1543,22.4371,8.053a22.179,22.179,0,0,1,4.2377,9.3031,15.6653,15.6653,0,0,0,10.8949-.18c4.6389-1.7231,8.2178-7.6872,11.0007-7.0245s5.0346,3.59,9.0129.6624c4.885-3.5944,1.1018-9.6045-3.5369-10.5325s-6.6687.1949-10.2474.7247-4.0755-3.4386-2.42-4.8394c2.0856-1.7648,8.8965,1.0067,10.3655.1991,2.8062-1.5439,2.4848.0921,4.7-.2107,1.9523-.267,4.4885-.7177,5.1515-2.4409S141.3932,64.1241,138.212,58.16Z"/></svg>