<svg id="Layer_1" data-name="Layer 1" xmlns="http://www.w3.org/2000/svg" viewBox="0 0 144 144"><path d="M116.42,112.7327c-7.1859,2.9828-8.0151,7.3171-6.1988,10.1048-.3877.3306-.8531.745-1.4142,1.1786-1.02.8157-2.9228,1.4954-3.8064,2.651-1.02,1.4274-1.0876,2.7188-1.1555,4.4861a15.14,15.14,0,0,1-1.6972,6.019c-.6205-.1388-1.7643.1838-3.4008-.0375,0,0-3.4666-.6117-5.37,1.8354-1.6736,2.2315-2.8061,2.6153-3.4736,2.7171-.3312-.4964-1.7541-.97-2.8479-1.8335a5.2955,5.2955,0,0,0-4.826-.9516,20.0773,20.0773,0,0,1-2.8549.6117c-.3944.0822-.7185.1277-.99.1585-.4006-.36-.95-.7348-1.1168-1.11-.6118-1.6993-.4758-2.9908-2.311-4.1463a9.2157,9.2157,0,0,0-1.65-.5082c-.628.1926-1.3224.3558-1.9414.4986a12.0649,12.0649,0,0,0-1.4648.3888,2.3586,2.3586,0,0,1-.7507.2436c.4134,3.2928,4.9718,6.5119,8.2149,6.3819a5.1049,5.1049,0,0,0,2.1463,1.4239A18.0647,18.0647,0,0,0,85.9,144a5.0663,5.0663,0,0,0,3.599-1.1837c1.9883,1.6485,12.1987-1.1953,13.1161-4.3618,2.5-.0135,9.2967-10.4387,9.5132-14.6953a6.9217,6.9217,0,0,0,4.5632-.8306c1.4954-1.0876,4.894-4.2823,3.8064-7.1371.8157-1.5634,3.8745-3.8066,8.6327-2.3111C127.2955,111.2373,121.45,110.6936,116.42,112.7327Z"/><path d="M58.3035,56.5876c-3.8294-.9088-9.8749.3508-10.2366,1.2949a20.2574,20.2574,0,0,0-3.3579-3.1982c-2.9228-2.1752-4.826-3.9424-5.2339-3.1268a2.3661,2.3661,0,0,1-.2984.45,16.3152,16.3152,0,0,0-3.7187-2.5958c-2.7843-1.4818-4.9025-2.2441-5.12-1.4521-2.3683.1315-4.6507.9444-6.79,1.0179.0966.6041,2.395,1.2,4.8085,1.2267.5955-.0124,1.1427-.034,1.6331-.0684a5.2344,5.2344,0,0,0,1.1671.79c2.2291,1.2353,5.0876,1.5437,7.4458,2.2469.0023.5192.3826,1.18,1.62,2.1232,2.5284,1.9264,5.64,3.0021,8.1136,4.5445.3029.6659,1.0238,1.2014,2.83,1.0971,2.4429-.1382,5.7909-1.4941,8.69-2.4171C59.8889,57.5388,59.0207,56.2024,58.3035,56.5876Z"/><path d="M121.339,27.27a45.1267,45.1267,0,0,0-7.57-16.0678,17.3212,17.3212,0,0,0-5.7777-5.0979,30.34,30.34,0,0,0-6.2534-2.515,44.3577,44.3577,0,0,1,5.2587,3.9416c-1.08-.6474-2.1148-1.1779-3.0156-1.6147C100.99,4.5567,96.8439,3.1973,96.64,3.605c5.5737,2.9909,16.1094,8.6326,13.73,19.984-1.63,7.5589.0319,16.1218,3.3476,18.5241a19.2224,19.2224,0,0,0-6.7463,2.8511c-3.5777,2.2147-4.1716,4.4748-6.0919,6.15a6.1993,6.1993,0,0,0-1.1131-.1006,5.41,5.41,0,0,0-1.7685.2622c-.3668-.28-.7167-.55-1.0863-.806-1.1556-.9516-1.7673-2.0391-4.4862-3.1267-2.515-1.02-5.37-.34-6.7293-.34-1.1446-.0636-4.7867-3.2188-5.6413-1.2323a3.9781,3.9781,0,0,0-1.2087.4748,13.57,13.57,0,0,1-.3009,2.6239,10.7956,10.7956,0,0,1,2.2206,2.9883,20.8773,20.8773,0,0,0,1.3958-2.8836,4.4383,4.4383,0,0,0,.1456-.5059,5.3125,5.3125,0,0,1,.8059.71c1.2915,1.2914,3.3987,1.02,5.9816,2.0391C93.1656,52.834,97.76,54.0257,99.31,53.034c.1489.011.3.0189.4571.0189a4.9265,4.9265,0,0,0,1.897-.351c2.044-.171,5.136-1.4982,7.959-3.32,3.3122-2.05,5.5586-4.6262,5.9384-6.4758,1.138.1084,2.476-.6125,3.9856-2.4764.039-.0482.0719-.1.11-.1488.0315-.0379.0624-.0683.094-.1071C122.5381,36.7364,122.6954,32.07,121.339,27.27Z"/><path d="M116.2569,47.217a7.1034,7.1034,0,0,0-1.4279,2.1041,24.4138,24.4138,0,0,0-4.6885,1.8365,27.9762,27.9762,0,0,0-6.1166,3.9406c-.1628.1457-.3189.2693-.4691.3836a3.61,3.61,0,0,1-.2536-.6617c-.2039-.8835-2.515.2719-5.8456,1.6315a20.4915,20.4915,0,0,0-4.2085,2.301c-.03-.1214-.0577-.2336-.0737-.33-.068-.8157-7.341-3.0587-10.2639-1.5634-.231-.18-.4456,1.2378-.4412,1.8022,2.7892.9143,5.9121,2.1448,8.19,2.2761,1.5151.0858,2.2191-.2029,2.5227-.6249,2.654-.6773,5.6732-.9724,8.4209-2.0939,1.5168-.6191,2.042-1.1814,2.15-1.7006a9.307,9.307,0,0,1,1.034-.2922c2.6321-.64,5.535-.5694,8.3507-1.9559,2.6529-1.2585,2.8252-2.3646,2.8253-3.3643,1.1318-.1037,3.0352-1.3039,4.4127-2.9237,1.8333-2.2221,2.86-4.9888,2.2387-5.884C120.9073,44.0049,118.09,44.995,116.2569,47.217Z"/><path d="M84.201,62.773a5.0967,5.0967,0,0,0-1.5974-1.591c.0245.239.0461.4826.0722.7172.0825.75.1613,1.5069.17,2.25,2.6067,1.774,5.4509,3.9418,7.8809,4.81,1.5266.5274,2.4013.4724,2.9459.1768a63.5524,63.5524,0,0,0,8.8132,1.59c1.5635.0679,2.9229.68,3.3987.2039a1.7605,1.7605,0,0,0,.3249-1.1473,12.67,12.67,0,0,0,4.7051-.28c3.4666-.8836,5.9136-2.6509,5.5736-3.3985a1.8583,1.8583,0,0,1-.12-.453,6.4033,6.4033,0,0,0,.12-.9745c.204-2.447-.6116-4.5542-.4757-6.6613-.7477.2719-1.6313,2.6509-1.8353,5.098-.06.7024-.0861,1.3277-.08,1.87-.2239.0463-.4628.1-.7356.1692a57.8234,57.8234,0,0,0-7.3967,2.87c-.0545-.2053-.1081-.384-.1482-.4908-.136-.408-2.5829,0-6.6612-.204a26.8114,26.8114,0,0,0-4.3647.1349,1.2292,1.2292,0,0,1,.0823-.1349C95.4845,66.5114,89.8427,62.8409,84.201,62.773Z"/><path d="M63.8412,45.848c0-.3324.0174-.665.0425-.9966a3.0928,3.0928,0,0,0-1.094-.227,2.0122,2.0122,0,0,0-.63.1043c-1.8668-.8327-5.1166-.2086-5.9634-.3083a13.2444,13.2444,0,0,0-5.4377.068c-3.4225.7549-4.9076,2.18-6.6619,3.366a4.7782,4.7782,0,0,0-1.9706-.3752,5.8123,5.8123,0,0,0-1.13.11c-1.9673-1.6764-2.5478-3.9407-6.0754-6.16a19.3981,19.3981,0,0,0-4.35-2.1215,5.5933,5.5933,0,0,0,1.497-2.661c1.93-3.7312,2.5464-10.3271,1.1542-16.2528C30.5708,9.1109,40.9706,3.1973,46.4763.0707c-.2718-.408-4.35,1.0194-7.273,2.5147a30.3723,30.3723,0,0,0-4.1586,2.4175c1.5561-1.701,3.1146-3.185,4.2265-4.3366,0,0-6.6613,3.6706-8.7684,5.6418-1.6313,1.4954-2.583,3.7385-4.1463,6.5933a27.9756,27.9756,0,0,0-2.6333,7.18c-2.637,6.2371-3.2874,12.7168.39,17.0339a9.13,9.13,0,0,0,2.09,1.85c-.0445,1.7785,1.9606,4.3633,6.0667,6.9507,3.669,2.2931,7.3761,3.86,9.088,3.556a6.7647,6.7647,0,0,0,.768.0465c.1022,0,.1993-.0066.2984-.0107,1.3118,1.2408,5.16.445,9.2857-.4651,2.5829-.5437,5.7776-.9516,7.0012-2.0391a3.8021,3.8021,0,0,1,2.2557-.3447,3.722,3.722,0,0,0,.2592,1.2284,16.2825,16.2825,0,0,0,1.2708,2.4665,9.4242,9.4242,0,0,1,1.6082-1.7465A14.05,14.05,0,0,1,63.8412,45.848Z"/><path d="M86.4005,91.4157c2.3683,2.5867,4.4762,5.7769,7.4526,8.0624,2.055,1.5779,3.0362,1.7051,3.5933,1.3639a30.8491,30.8491,0,0,0,10.6129,4.4137,7.5081,7.5081,0,0,0,2.2587.3754c.6037.472,1.3072.9863,2.0916,1.5279,1.4274,1.02,2.1071,2.175,3.3306,2.7189a4.22,4.22,0,0,0,2.9229.2718c-.9517-.68-1.9033-1.5633-2.8549-2.379a42.384,42.384,0,0,0-4.4241-3.878c.1418-.948-2.713-2.0356-6.7914-3.1911a25.7747,25.7747,0,0,0-6.325-1.0348c.0234-.0416.0468-.0836.0715-.1208.5439-.7476-1.9712-3.1946-5.7776-6.1175A32.77,32.77,0,0,0,88.32,90.6024c1.1487-1.1985-1.8809-7.5511-4.411-10.2038a9.4979,9.4979,0,0,1,.107,2.8529,4.0267,4.0267,0,0,1-.5455,1.6064,9.7248,9.7248,0,0,1,1.0568,5.8527C85.2821,91.7432,85.7623,91.701,86.4005,91.4157Z"/><path d="M121.6537,91.3893c1.0877.6118,1.6315,1.2915,2.651,1.5635a3.7935,3.7935,0,0,0,2.719-.136c-2.0393-1.1555-3.8065-3.1268-6.1176-4.35a9.7315,9.7315,0,0,0-.8965-.4361c.2847-.8553-1.8224-.9233-6.3765-1.3311a49.966,49.966,0,0,0-6.5609-.2468c.1836-.3845.1375-.8571-.6442-1.4525-.8156-.7477-3.6025-1.6314-4.962-2.447A21.3644,21.3644,0,0,0,95.1094,79.68c.2391-.186-.1008-1.3414-.8485-2.2931-1.5633-1.9032-7.341-7.3409-10.6717-8.1567-.4575-.9828.1367,1.3455.3558,2.8872,2.3761,2.8906,4.8755,6.0286,6.9853,7.7165,2.0478,1.5725,2.95,1.5668,3.4359,1.1346,1.5625,1.979,5.0895,4.4037,8.3913,6.1385,2.564,1.641,3,1.27,3.3224.697,4.0644.7074,8.2179,2.53,11.1557,2.77a2.1286,2.1286,0,0,0,1.9284-.7306A24.8569,24.8569,0,0,0,121.6537,91.3893Z"/><path d="M58.2865,93.1764c-.8142-2.3717-.7319-4.7854.2887-8.0265l.0384-.1243a4.5362,4.5362,0,0,1-.318-.726,5.95,5.95,0,0,1-.1871-.7388c.0186.1849.0269.3669.0591.5554-2.6526,4.9968-2.8352,11.2057-1.1709,11.9081a33.4269,33.4269,0,0,0-2.2278,3.8616c-2.175,4.2143-3.3986,7.477-2.5829,7.9528.0466.0272.0941.0595.1423.0938a26.6229,26.6229,0,0,0-5.3082,3.6446c-3.1947,2.7869-5.3018,5.03-4.826,5.71.0188.0269.0358.0587.0534.0892a55.23,55.23,0,0,0-2.3645,5.3486c-.4759,1.2235-.9516,2.3791-1.4954,3.4666a4.6127,4.6127,0,0,0,2.515-1.5633c.8157-.9517,1.02-2.3791,1.8352-3.8744.4586-.8254.8565-1.579,1.19-2.2543a6.9705,6.9705,0,0,0,1.9367-1.28,31.6983,31.6983,0,0,0,7.7007-8.6152c.6463.0483,1.4743-.4951,2.631-2.7362,1.59-3.1306,2.1664-6.6573,3.0767-9.8435a.659.659,0,0,0,.3652-.1107c.04-.1773.0772-.3527.1249-.5352A4.7928,4.7928,0,0,1,58.2865,93.1764Z"/><path d="M47.5061,80.9568c.4744.4442,1.3584.4644,3.3884-1.1228,2.1749-1.7088,4.7264-4.9031,7.1359-7.8231a8.7621,8.7621,0,0,0-.1347-2.6446c-5.1659,1.4273-8.7684,6.1175-10.2639,8.0207-.8157.9517-1.0875,2.1071-.8836,2.2431a23.4569,23.4569,0,0,0-6.3215,2.9229c-1.3593.8156-4.1462,1.6993-5.03,2.447-.742.5936-.7937,1.065-.6229,1.4488a50.1866,50.1866,0,0,0-6.5142.25c-4.5542.4078-6.6612.4758-6.3894,1.2914-.2375.144-.529.2833-.8837.4758-2.3111,1.2235-4.0783,3.1948-6.1175,4.35a3.7,3.7,0,0,0,2.7189.136,14.0893,14.0893,0,0,0,2.6509-1.5635,22.3276,22.3276,0,0,0,2.4778-1.5582,2.1288,2.1288,0,0,0,1.9405.7426c2.9312-.2393,7.0729-2.0552,11.1286-2.7659.3511.5708.7908.9369,3.3495-.7007C42.3876,85.3688,45.912,82.938,47.5061,80.9568Z"/><path d="M24.6572,71.5414q.8252-.1887,1.4884-.3876a8.7307,8.7307,0,0,0,1.9781.0478A46.3,46.3,0,0,0,35.6144,69.92a1.7881,1.7881,0,0,0,.3942,1.01c.4757.4758,1.8352-.136,3.3306-.2039a62.906,62.906,0,0,0,8.8624-1.5873c.5583.2928,1.4435.3456,2.9648-.18,2.5206-.9166,5.5653-3.2834,8.3032-5.1045.02-.7262-1.4289-2.165-2.5256-1.217-4.69.2719-10.5357,3.8744-9.9919,4.69a1.2666,1.2666,0,0,1,.08.13,26.59,26.59,0,0,0-4.2941-.13c-4.0783.204-6.3214-.136-6.7971.68a2.0427,2.0427,0,0,0-.1921.4678,22.6354,22.6354,0,0,0-4.634-.196,27.2637,27.2637,0,0,0-4.0605.3986,3.989,3.989,0,0,0-1.5812.1452c-2.3791.5438-4.0784,1.9711-6.1855,2.515C19.7631,71.9492,22.3461,72.0852,24.6572,71.5414Z"/><path d="M80.8025,68.4827c-.1148-.2158-.2221-.4476-.3313-.6754a12.3379,12.3379,0,0,1-5.31,1.6788H67.2076c-1.1066,0-4.7142-.5473-5.924-2.2232-1.0935,2.8175-1.7952,5.0465-1.2128,7.1333a3.3643,3.3643,0,0,0,3.8065,2.6511,36.9319,36.9319,0,0,1,5.6417-.544c4.01-.1358,5.7776.2719,8.2925.204a4.9565,4.9565,0,0,1,1.2359.1149,2.58,2.58,0,0,0,3.149-2.3895A11.45,11.45,0,0,0,80.8025,68.4827Z"/><path d="M65.1688,111.3732c1.7672-.4078,9.3121,1.1556,13.1866.5438,0,0,3.0907-5.1671,1.92-8.5755a2.2312,2.2312,0,0,1-1.1753.2847c-.1288,0-.2577-.0051-.3792-.0106-.064-.0027-.1252-.0054-.1819-.0068a26.639,26.639,0,0,1-2.8546.1284c-1.9436,0-4.0982-.1266-5.9988-.2385-1.5087-.0886-2.8108-.1649-3.7355-.1649a5.34,5.34,0,0,0-.9375.0525,4.192,4.192,0,0,1-.8489.0882,3.8483,3.8483,0,0,1-1.663-.3787c-1.0249,2.8881-1.14,4.7384-.5268,6.5781A2.6484,2.6484,0,0,0,65.1688,111.3732Z"/><path d="M73.1215,132.9885a22.411,22.411,0,0,0,.6118-2.2431,11.2642,11.2642,0,0,0,.1818-5.1673c.153-.0172.2983-.0384.43-.0666a18.7474,18.7474,0,0,0,1.1269-3.38c-.44.04-.9369.0617-1.5125.0617-1.3049,0-2.7934-.1009-4.1065-.1905-1.0645-.0722-2.0706-.14-2.7733-.14a3.062,3.062,0,0,0-.72.047,2.58,2.58,0,0,1-.753.1183,2.3315,2.3315,0,0,1-.4307-.0478c.1845.7941.4055,1.5009.5366,2.1043a1.6131,1.6131,0,0,0,.9777,1.3488c-.28,2.5681-.0289,10.066,2.8288,8.5073C70.1307,133.6681,71.83,133.3963,73.1215,132.9885Z"/><path d="M80.7756,77.6166a3.5011,3.5011,0,0,1-1.1537.2062,3.5377,3.5377,0,0,1-.7821-.0881,3.972,3.972,0,0,0-.8782-.0937s-.53.01-.7273.01c-.8873,0-1.7051-.0516-2.5713-.106-1.0418-.0658-2.12-.1334-3.5372-.1334-.4852,0-1.007.0082-1.5744.0274a36.7623,36.7623,0,0,0-5.4908.5259,3.895,3.895,0,0,1-.8142.0863,3.7678,3.7678,0,0,1-1.9351-.5487c-1.097,2.5061-1.8328,4.43-1.2405,6.2064A3.1814,3.1814,0,0,0,63.8773,85.68c1.6993-.34,3.7385-.5437,5.6417-.7477,4.01-.2719,5.7776,0,8.2925-.2039a5.4562,5.4562,0,0,1,1.7872.1265,2.102,2.102,0,0,0,2.5576-1.817,7.955,7.955,0,0,0-1.3538-5.3786Z"/><path d="M66.0524,121.0254c1.1555-.4079,7.409.6118,10.1279.0679,0,0,2.6181-4.6253,2.2736-8.2455a15.3192,15.3192,0,0,1-2.307.149c-1.9829,0-4.2764-.2394-6.3-.4509-1.5077-.1572-2.9313-.3057-3.8268-.3057a3.078,3.078,0,0,0-.6415.0448,3.6547,3.6547,0,0,1-.9119.1156,3.4635,3.4635,0,0,1-1.408-.3065c-.5344,2.96.5158,5.4188.8181,7.2318C64.0812,120.3456,64.8968,121.3652,66.0524,121.0254Z"/><path d="M64.8289,102.4689c1.6993-.34,9.4481.68,13.6625.2039.4757,0,1.2914.1359,1.4954-.34.49-.8575,1.9088-3.8672.6446-6.7919a4.2557,4.2557,0,0,1-1.4481.3227c-.1873.0069-.3655.01-.5373.01a11.87,11.87,0,0,1-3.4988-.54,13.9761,13.9761,0,0,0-4.2645-.6c-.4011,0-.8379.0115-1.3149.0361a34.1732,34.1732,0,0,0-5.4725.7913,4.632,4.632,0,0,1-.9878.1092,4.23,4.23,0,0,1-1.4148-.2509,8.4491,8.4491,0,0,0-.1265,5.3495A2.7534,2.7534,0,0,0,64.8289,102.4689Z"/><path d="M63.8773,94.652a35.1913,35.1913,0,0,1,5.6417-.8157c5.6343-.2934,5.7955,1.2375,9.6289,1.0922a3.3441,3.3441,0,0,0,3.0412-2.26,8.478,8.478,0,0,0-.5642-7.2607,2.901,2.901,0,0,1-2.2552.3545,4.1887,4.1887,0,0,0-1.0307-.12c-.1434,0-.2933.006-.4514.0188-.9366.0758-1.7645.0863-2.4516.0863l-1.99-.01c-.9174,0-2.1857.0146-3.8634.1283l-.3975.0434c-1.7672.1883-3.5956.3829-5.1243.6886a4.2378,4.2378,0,0,1-1.018.1233A4.0305,4.0305,0,0,1,60.36,85.7118c-.9259,2.94-.958,4.9512-.2894,6.9011A3.2166,3.2166,0,0,0,63.8773,94.652Z"/><path d="M61.7021,59.0344c0,3.0588-1.02,5.9817.34,7.6809.8837,1.2235,3.9424,1.8353,5.1659,1.8353h7.9528c.9516,0,4.1462-.8156,4.894-1.6313,1.6993-1.6314.5438-4.35.5438-7.8849a8.9717,8.9717,0,0,0-.136-1.9032c-.421-3.4212-2.107-6.3859-4.0767-7.5533a10.7142,10.7142,0,0,0,.61-3.73c0-3.1947-1.3594-5.9815-2.7189-5.9815-.0679,2.7868-1.8352,3.67-1.8352,6.7971a10.9044,10.9044,0,0,0,.3553,3.0379c-.6635,1.8241-2.0541,1.7391-3.0906.5773a9.1966,9.1966,0,0,0,.56-3.6152c0-3.1267-1.7673-4.01-1.8352-6.7971-1.3594,0-2.7189,2.7868-2.7189,5.9815a10.9468,10.9468,0,0,0,.55,3.5729C63.7913,50.6319,61.7021,54.6616,61.7021,59.0344Z"/></svg>