<svg viewBox="0 0 144 144" xmlns="http://www.w3.org/2000/svg"><path d="m144 71.0028s-10.77 3.59-17.95 0c7.18-11.9668 12.3655-13.5628 17.95-16.7535-6.3823-6.3823-16.7535-4.3878-16.7535-4.3878s0-8.3767 4.7867-12.7645c8.3768-6.7812 12.3657-11.5679 11.169-19.5458-6.3823 3.1912-11.5678 4.3879-19.1468 4.7867 5.5845-5.9833 1.9945-14.759-2.3933-19.9446-2.7923 5.5845-11.5679 14.36-17.1524 19.5458a29.85 29.85 0 0 0 -4.3878-17.1524 13.2969 13.2969 0 0 1 -9.5734 9.5733c-7.9779 1.9945-12.7646 8.7756-12.7646 8.7756s-.7978-11.1689 3.1912-17.95c-15.5568-.3989-25.928 10.77-27.1247 15.9557-3.1911-5.5845-2.3933-11.5679 0-16.7535-3.59.7978-15.9557 5.5845-17.95 14.759-4.7868-11.169-19.5458-12.3656-24.7314-13.1634 1.5955 1.5955 4.7867 3.9889 6.3822 6.7811s1.5956 5.9834 3.59 8.7757l-13.9612-4.3879s11.169 13.1635 13.5624 18.3491c-3.1912-.3989-14.759.7978-20.7424 1.9944 1.1967.3989 22.7368 9.5735 25.13 19.1469-5.5845-1.5956-13.1634-.3989-19.5457 3.9889 7.9778.3989 12.7645 9.1745 17.95 13.5623-7.18-.7978-13.1634 3.9889-19.9446 9.5734 9.9723-1.1967 12.7646 1.9945 20.3435 5.5845-8.7756 3.1911-23.5346 12.7645-17.95 34.7036 3.59-7.18 11.5678-15.5568 19.1468-14.36-5.9834 5.1856-11.9668 18.7479-4.7867 31.9114 5.1856-12.3657 15.1579-19.1469 23.1357-21.1413 3.59 3.59 3.59 11.9667.7978 20.3435 11.5679-5.1856 12.3657-13.1635 18.349-19.1468 3.1912 5.5844 9.1746 9.5734 19.5458 15.5567-2.7923-7.18 2.3933-12.7645 5.1855-15.5567 1.5956 3.1911 9.1746 8.7756 19.9446 11.5678-1.1966-3.59.3989-8.7756 1.9945-12.7645 4.7867 9.9723 23.1357 15.5568 32.31 11.9667-3.1912-1.5955-11.169-3.9889-11.169-13.9612a24.6439 24.6439 0 0 0 -6.7812-15.9557s10.77-.3989 17.1524 3.1912c-.3989-5.1856-4.7867-11.169-9.9723-16.3546 10.7706-.0001 13.1639-18.3491 13.1639-18.3491zm-72.9972-23.5347c1.9944-8.3767 7.5789-11.1689 11.5678-13.5623-.3989 5.5842-1.1966 5.5842 2.3934 17.1524a26.1676 26.1676 0 0 1 -5.584-11.5682c-4.3878 3.59-7.9778 10.3712-7.18 16.3546a9.531 9.531 0 0 1 -1.1967-2.7923c-.7983-1.1963-.7983-3.5897-.0005-5.5842zm-15.9557.3989c-2.3934-3.9889-9.9723-6.7811-15.9557-11.1689.7978 11.5678 1.9945 14.759 3.9889 18.7479-6.7811-5.9834-7.18-19.1468-7.5789-25.928 9.9723 9.5734 18.3486 12.7645 19.5457 18.349zm-16.3546 14.759a6.7618 6.7618 0 0 1 3.9889 0c-1.5955.3989-7.5789 1.5956-11.5678 10.3712 5.5845-.3989 9.1745 1.9945 13.5623 3.59-1.9945.3988-5.1856-.3989-6.3823-.3989-5.9836-.7977-6.7811-.3983-12.3656 1.1967 2.3933-5.5845 4.7867-12.7645 12.7645-14.759zm20.3435 30.7147c-9.5734 21.54-36.698 1.5956-36.698 1.5956 10.3711.3989 17.95-17.95 33.5069-7.18a9.6 9.6 0 0 0 3.1911 2.3937 7.8683 7.8683 0 0 0 -2.7922.7978c-13.9612 7.18-25.13 4.7867-25.13 4.7867 10.7699 3.5896 22.3377-.0004 27.9222-2.3938zm1.5956 3.59v-3.9889a15.5928 15.5928 0 0 0 1.9944 1.5956c13.9613 6.7812 19.1469 17.1526 19.1469 17.1526-3.989-10.3712-13.5624-17.1524-19.1469-20.3435 23.1358-5.5845 23.5347 27.9224 23.5347 27.9224-5.5845-8.7758-24.7313-3.5902-25.5291-22.3382zm6.3823-7.18c-1.1967 0-2.7923-.3989-3.989-.3989a15.59 15.59 0 0 0 1.5956-1.9945c7.18-13.9612 17.5512-18.7479 17.5512-18.7479-10.3712 3.59-17.5512 13.5623-20.7423 18.7479-5.1856-23.1357 28.3213-23.1357 28.3213-23.1357-8.7756 5.5845-3.9889 25.1302-22.7368 25.5291zm26.7261-39.0914c.3989-.3989.3989-1.1967.7978-1.5956a12.9325 12.9325 0 0 1 4.7867-4.7867c9.5734-5.9834 7.18-1.9945 19.5457-11.5679l-1.5956 4.3879c-3.1911 9.9723.3989 15.5567-5.1855 22.3379 3.1911-7.18 0-10.77 1.1966-19.1468-6.7815 3.59-15.1583 4.7867-19.5457 10.3712zm5.5845 58.6371c4.7867-3.59 11.9668-1.9945 16.7535.3989-2.7923-7.18-8.7757-10.3712-14.759-12.7646a15.1372 15.1372 0 0 1 9.1745 2.3934c9.1745 5.5845 9.1745 11.5679 9.5734 16.7535-5.9838-4.3876-13.1639-9.1746-20.7428-6.7812zm11.169-25.5291c-3.59 3.1911-5.9834 4.3878-10.77 3.59 2.3933-.3989 1.5956 0 3.9889-.7978 3.59-1.1966 6.7812-7.9778 12.3657-9.5734-5.1856-4.3878-11.5679-7.5789-18.7479-7.18 8.3767-2.7923 19.1468 1.5956 23.5346 7.9778l1.9944 2.7923c-6.7816-1.1962-6.7816-1.5956-12.3661 3.1911z"/></svg>