<svg id="Layer_1" data-name="Layer 1" xmlns="http://www.w3.org/2000/svg" viewBox="0 0 144 144"><path d="M77.43,4.0187c.15.4.3068.7608.4635,1.0932.5149.007,1.0206.0139,1.5472.007a28.7362,28.7362,0,0,0,4.6462-.3605,7.7946,7.7946,0,0,0,1.4886-.3722c.3512-.1053.5523-.1709.5523-.1709s-.2083.04-.571.1054a8.3879,8.3879,0,0,1-1.5.1755A27.9552,27.9552,0,0,1,79.48,4.2809C78.78,4.2083,78.0946,4.11,77.43,4.0187Z"/><path d="M59.5848,4.7584a28.758,28.758,0,0,0,4.6462.3605c.5266.0069,1.0323,0,1.5471-.007.1568-.3324.3138-.6929.4657-1.0932-.667.0913-1.35.19-2.05.2622a27.9845,27.9845,0,0,1-4.5784.2153,8.4178,8.4178,0,0,1-1.5-.1755c-.36-.0657-.5688-.1054-.5688-.1054s.1992.0656.5525.1709A7.7208,7.7208,0,0,0,59.5848,4.7584Z"/><path d="M77.9587,2.0385C80.4375,1.0438,82.8273,0,82.8273,0s-2.5466.6505-5.0347,1.2123c-.41.0467-.8169.0937-1.2171.1381.0958.3535.192.6694.2878.99C77.2238,2.2422,77.5912,2.137,77.9587,2.0385Z"/><path d="M66.808,2.3405c.0959-.3207.192-.6366.2879-.99-.4-.0444-.8051-.0914-1.2171-.1381C63.3907.6505,60.8464,0,60.8464,0s2.3875,1.0438,4.8663,2.0385C66.0825,2.137,66.4475,2.2422,66.808,2.3405Z"/><path d="M77.0764,131.981a21.3959,21.3959,0,0,0-.0844-2.1511,18.3853,18.3853,0,0,1-4.3276.6039H72.66c-.2785,0-.55-.0071-.8238-.0186-.274.0115-.5479.0186-.8264.0186-.3114,0-.6342-.0656-.948-.0843-.0024.07-.0093.1428-.0093.2083,0,6.9212,5.37,13.4422,16.5226,13.4422,10.8254,0,20.5344-6.3173,24.9042-14.51-6.1,4.8171-14.0462,9.4633-22.6759,9.4633C82.8647,138.9538,77.0788,136.8753,77.0764,131.981Z"/><path d="M94.1091,49.8811a57.4386,57.4386,0,0,0,5.2851-6.79c1.2382-1.7813,4.3138-9.3111,5.2431-10.9049,1.7719-3.0337,4.7351-5.7675,4.7351-6.7106,0-1.6128-5.765,4.1031-6.5093,3.3562-.73-.7279.8051-2.3335,2.57-3.9322,2.357-2.1369,5.1215-4.26,3.408-4.26-2.8227,0-10.184,6.4742-10.184,5.72,0-.4073,1.6524-4.3443,8.1127-9.4842-.1266-.0048-.2529-.0117-.377-.0117-3.8948,0-10.9891,7.1949-10.8863,5.079.1124-2.3405,4.803-4.8566,6.51-8.1407-5.0043,1.8165-9.1776,4.9551-11.2187,8.946A22.2245,22.2245,0,0,0,89.66,25.508,95.0488,95.0488,0,0,1,91.841,39.1211C91.8575,39.1657,92.885,44.0482,94.1091,49.8811Z"/><path d="M34.299,25.4754c0,.9431,2.9634,3.6769,4.7351,6.7106.9292,1.5938,4.0048,9.1236,5.243,10.9049a58.3246,58.3246,0,0,0,5.28,6.79c1.2406-5.9172,2.2868-10.9191,2.3244-11.0946a92.282,92.282,0,0,1,2.1253-13.2924,22.56,22.56,0,0,0-1.1306-2.7456c-2.0433-3.9909-6.2166-7.1295-11.2209-8.946,1.7063,3.2841,6.3968,5.8,6.5093,8.1407.1028,2.1159-6.9915-5.079-10.8863-5.079-.1242,0-.2505.0069-.3768.0117,6.46,5.14,8.1125,9.0769,8.1125,9.4842,0,.7537-7.3613-5.72-10.1817-5.72-1.7156,0,1.0486,2.1229,3.408,4.26,1.7624,1.5987,3.2978,3.2043,2.5675,3.9322C40.064,29.5785,34.299,23.8626,34.299,25.4754Z"/><path d="M98.5892,110.143a49.76,49.76,0,0,0,7.0617-6.6639c.997-1.2592,3.4686-6.5866,4.2176-7.7076,1.4232-2.1511,3.8059-4.0774,3.8059-4.7445,0-1.1468-4.6368,2.8954-5.2337,2.3709-.5874-.5172.6484-1.65,2.0668-2.7783,1.8937-1.5143,4.1172-3.0147,2.7386-3.0147-2.27,0-8.1875,4.5736-8.1875,4.0446,0-.29,1.3295-3.0756,6.5234-6.7058-.1031-.0069-.2037-.0069-.3044-.0069-2.6473,0-7.1015,3.6-8.3725,3.8149A44.9671,44.9671,0,0,1,98.5892,110.143Z"/><path d="M107.76,82.7693a20.825,20.825,0,0,0-5.1306,2.4294c.0937.8264.2083,1.6457.26,2.4647C103.8578,86.2473,106.62,84.6956,107.76,82.7693Z"/><path d="M40.7874,87.2305c.0536-.7327.1917-1.4676.2806-2.2a20.6386,20.6386,0,0,0-4.8262-2.2609C37.2624,84.506,39.617,85.9338,40.7874,87.2305Z"/><path d="M32.7214,84.9368c-.1007,0-.2013,0-.302.0069,5.1939,3.63,6.521,6.4155,6.521,6.7058,0,.529-5.917-4.0446-8.1875-4.0446-1.3763,0,.8451,1.5,2.741,3.0147,1.416,1.1281,2.6542,2.2611,2.0643,2.7783-.5968.5245-5.2312-3.5177-5.2312-2.3709,0,.6671,2.3805,2.5934,3.8059,4.7445.7466,1.121,3.2184,6.4484,4.2155,7.7076a47.6825,47.6825,0,0,0,6.4788,6.1862,44.9926,44.9926,0,0,1-4.0588-21.0118C39.1793,88.0238,35.1767,84.9368,32.7214,84.9368Z"/><path d="M71.8358,127.0515a14.5386,14.5386,0,0,0,3.92-.3277c5.5427-1.1655,11.427-5.3343,15.9747-11.5672A41.9977,41.9977,0,0,0,99.5558,88.038a48.1092,48.1092,0,0,0-4.5877-17.7162s-1.9918-9.5146-3.7661-17.9761c-1.4185-6.7762-2.6986-12.8782-2.6986-12.8852-.2037-1.9848-.4168-3.7474-.639-5.3669C86.6214,25.0751,85.058,21.3,82.8273,17.44c-3.5063-6.081-6.3384-6.3643-8.5971-12.3865q-.27-.7269-.529-1.573c-.0235-.0726-.047-.1639-.07-.2363-.1124-.3722-.2248-.7469-.3324-1.1517a1.2876,1.2876,0,0,0-.1616-.3605c-.29-.5383-.6857-.192-1.3012-.4729-.6157.2809-1.0112-.0654-1.3015.4729a1.2911,1.2911,0,0,0-.1591.3605c-.11.4048-.2224.78-.3349,1.1517-.0232.0724-.0467.1637-.0678.2363-.1754.5642-.3511,1.0884-.5314,1.573-2.2585,6.0222-5.0884,6.3055-8.5947,12.3865-2.2328,3.86-3.7965,7.6352-5.0371,16.6537-.2222,1.6195-.4376,3.3821-.6411,5.3669,0,.007-1.28,6.109-2.6988,12.8852-1.772,8.4615-3.7637,17.9761-3.7637,17.9761a48.2183,48.2183,0,0,0-4.5715,17.309,42.0621,42.0621,0,0,0,7.4973,27.1c5.4254,7.6563,12.8734,12.314,19.35,12.3282C71.267,127.0587,71.5549,127.0726,71.8358,127.0515Zm7.1013-108.673c.85-.3931,2.268.8707,3.1762,2.83.906,1.9543.9575,3.86.11,4.2481-.8449.3933-2.2679-.873-3.1738-2.8321C78.1413,20.6724,78.0922,18.7718,78.9371,18.3785ZM64.3036,22.6244c-.906,1.9591-2.3266,3.2254-3.1739,2.8321-.8475-.3886-.7959-2.2938.11-4.2481.9081-1.9592,2.3266-3.223,3.1784-2.83C65.2609,18.7718,65.2117,20.6724,64.3036,22.6244Z"/></svg>