<svg id="Layer_1" data-name="Layer 1" xmlns="http://www.w3.org/2000/svg" viewBox="0 0 144 144"><path d="M131.8088,99.822c-8.9737-11.0535-19.8347-24.7644-28.6929-35.972a9.86,9.86,0,0,0,5.6616-7.3946c.3081-.9629,1.5791-5.0454,3.2737-11.7468a5.6231,5.6231,0,0,1,2.3878-3.8514,3.12,3.12,0,0,1,2.5034,0,1.7852,1.7852,0,0,0,1.4251-3.2737,6.8558,6.8558,0,0,0-5.469,0,8.82,8.82,0,0,0-4.2751,6.2393C106.7748,51.2175,105.35,55.377,105.35,55.377a1.3485,1.3485,0,0,0,0,.5392s0,2.8885-4.3135,4.9683l-11.169-13.75,8.1649-9.2434a1.81,1.81,0,0,0,.4622-1.1554V17.0941l4.8912-5.546a1.7716,1.7716,0,0,0,0-2.5034,1.81,1.81,0,0,0-2.5034.1926L95.5287,15.4a1.81,1.81,0,0,0-.4622,1.1554V36.0815L87.7874,44.285,86.94,43.2066l-.3466-.4622h0a17.5236,17.5236,0,0,0-6.1623-4.7757,6.47,6.47,0,0,0-1.04-12.7866V24.951A4.583,4.583,0,0,0,76.7724,21.1,55.3465,55.3465,0,0,0,90.9841,5.694l4.9683-2.3108A1.81,1.81,0,0,0,96.8.9953a1.7332,1.7332,0,0,0-2.3063-.83L94.45.1865l-5.43,2.58a2.1184,2.1184,0,0,0-.77.6548s-8.165,13.1717-16.2914,16.0988C63.87,16.5934,55.7823,3.5757,55.7053,3.4217a2.1179,2.1179,0,0,0-.77-.6548l-5.43-2.58a1.7332,1.7332,0,0,0-2.3284.7657l-.021.0431a1.81,1.81,0,0,0,.8088,2.3879l5.0068,2.3493A53.4965,53.4965,0,0,0,67.7216,21.3692,4.4292,4.4292,0,0,0,65.68,24.9125h0a6.6629,6.6629,0,0,0-6.8544,6.4657l-.0011.0431a6.6245,6.6245,0,0,0,5.97,6.47,17.4863,17.4863,0,0,0-6.0467,4.8913l-1.348-.27-1.2324,1.5791L48.85,35.8889V16.4009a1.7716,1.7716,0,0,0-.4236-1.1554L43.2268,9.3528A1.81,1.81,0,0,0,40.7234,9.16a1.7716,1.7716,0,0,0,0,2.5034l4.7372,5.43V36.7362a1.6173,1.6173,0,0,0,.4622,1.1554l8.1649,9.2434L43.1883,61.0385c-4.16-2.08-4.3136-4.8527-4.3136-4.9683a1.3485,1.3485,0,0,0,0-.5392S37.45,51.256,35.601,43.9768a8.82,8.82,0,0,0-4.5446-6.3548,6.8558,6.8558,0,0,0-5.469,0,1.81,1.81,0,0,0-.9243,2.3494,1.7715,1.7715,0,0,0,2.3108.9243,3.2352,3.2352,0,0,1,2.5419,0,5.7772,5.7772,0,0,1,2.3879,3.8514c1.6946,6.7014,2.9656,10.7839,3.2737,11.7468A9.8979,9.8979,0,0,0,40.8,63.8885C32.0963,75.0576,21.12,88.7685,12.1075,99.822c-18.6407,22.9158-7.7027,26.69-7.7027,26.69s7.7027,9.7055,24.11-22.6847c1.2324-2.4264,2.4649-4.7757,3.8514-7.0481a8.8571,8.8571,0,0,0,0,3.8514c1.3865,6.6629,1.8486,11.092,1.8486,11.1305v.2311a7.7028,7.7028,0,0,1-3.4662,7.7028A111.3841,111.3841,0,0,0,15.15,133.83a8.0878,8.0878,0,0,0-3.5047,9.1663,1.8486,1.8486,0,0,0,2.3878.8474,1.7716,1.7716,0,0,0,.8473-2.3494c-1.0013-2.1568,2.5034-4.8913,2.5034-4.93l.27-.2311a115.23,115.23,0,0,1,14.982-13.6339,11.1306,11.1306,0,0,0,5.0838-11.5542A114.6656,114.6656,0,0,0,35.7936,99.591a4.6216,4.6216,0,0,1,.5007-3.8514,5.7388,5.7388,0,0,1,3.4662-2.0028h.2311l15.8292-4.5446v3.3122c0,17.4853,9.0508,32.6213,17.0232,32.6213s16.06-15.8677,16.06-33.3531V89.3848l15.1745,4.352h.2311a5.7383,5.7383,0,0,1,3.4662,2.0028,4.6216,4.6216,0,0,1,.5007,3.8514c-1.3095,6.3547-1.8487,10.6683-1.9257,11.5541a11.0921,11.0921,0,0,0,5.0838,11.5542,115.23,115.23,0,0,1,14.982,13.6339l.231.2311s3.5433,2.773,2.542,4.93a1.7716,1.7716,0,0,0,.8473,2.3494,1.8516,1.8516,0,0,0,.77,0,1.7332,1.7332,0,0,0,1.579-1.0014c1.7717-3.8514-1.2709-7.4717-3.4662-9.1663a111.3723,111.3723,0,0,0-15.5982-14.1346,7.7028,7.7028,0,0,1-3.4662-7.7028.5013.5013,0,0,1,0-.2311s.4622-4.4676,1.8486-11.13a9.474,9.474,0,0,0,0-3.8514c1.194,2.2723,2.4264,4.6217,3.8514,7.048,16.5225,32.39,24.11,22.6847,24.11,22.6847S150.4881,122.7378,131.8088,99.822ZM55.59,55.9932a16.5991,16.5991,0,0,0,5.5075,9.4744,5.5458,5.5458,0,0,0-2.696,3.8514c-2.5034-1.5405-5.3535-3.2352-8.0494-4.7372Zm31.3888,12.44a6.3936,6.3936,0,0,0-2.58-3.1582,16.3683,16.3683,0,0,0,5.0453-7.51c1.1554,1.81,2.5419,4.0825,4.1595,6.7785C91.4077,65.7757,89.0969,67.1237,86.9786,68.4332ZM39.1443,90.7713a9.4358,9.4358,0,0,0-5.0068,2.58c5.546-10.4373,10.4758-19.257,14.4042-25.7658,3.8514,2.1182,8.1264,4.7757,11.092,6.6244A42.8285,42.8285,0,0,0,56.283,85.7644Zm65.4737,0-16.33-4.6987a43.2146,43.2146,0,0,0-3.2352-12.4015c2.85-1.81,6.7014-4.1595,10.1677-6.0852,3.8514,6.6629,8.8582,15.4056,14.4042,25.7658a9.551,9.551,0,0,0-4.8142-2.58Z"/></svg>