<svg id="Layer_1" data-name="Layer 1" xmlns="http://www.w3.org/2000/svg" viewBox="0 0 144 144"><path d="M89.8651,67.7045A25.2837,25.2837,0,1,0,75.171,100.3023l.02-.0076A25.27,25.27,0,0,0,89.8672,67.71ZM69.509,85.3079a9.2469,9.2469,0,1,1,5.3683-11.9244l.0011.003A9.2469,9.2469,0,0,1,69.509,85.3079ZM90.99,126.027l-2.841-11.133-3.4867-9.2027A34.3234,34.3234,0,0,0,98.344,88.9238l9.38,1.5258,23.3433,1.1861,1.4-8.6013-22.1675-6.2257L100.59,75.2182A34.3233,34.3233,0,0,0,92.92,54.981l6.0116-7.3574,12.6963-19.6221-6.7661-5.5189L88.3869,38.567,82.1509,46.2a34.3238,34.3238,0,0,0-21.3587-3.49l-3.3609-8.8765L46.7842,13.0284l-8.156,3.0925,5.6956,22.31L47.8105,47.63A34.3707,34.3707,0,0,0,34.1254,64.3979L24.7459,62.872,1.3992,61.6894l-1.4,8.6114,22.1675,6.2224,9.7193,1.5836a34.3231,34.3231,0,0,0,7.67,20.2372l-6.0116,7.3541L20.8514,125.3235l6.7559,5.519,16.4752-16.0878,6.2326-7.6293a34.3237,34.3237,0,0,0,21.3587,3.4867l3.3643,8.8765,3.259,6.3651c-6.9836.34-12.0641,1.3219-12.0641,2.5012,0,1.4409,7.6429,2.6133,17.0733,2.6133s17.0733-1.1724,17.0733-2.6133C100.38,127.3388,96.5531,126.4552,90.99,126.027ZM75.6974,101.6a14.9045,14.9045,0,1,0-.017,0Zm51.8792,14.912c0-.9345-4.9412-1.6992-11.0344-1.6992s-11.0311.7545-11.0311,1.6992,4.9378,1.6992,11.0311,1.6992,11.0174-.768,11.0174-1.6992Zm-59.5391,0c0-.9345-4.9412-1.6992-11.0344-1.6992s-11.0345.7545-11.0345,1.6992,4.9412,1.6992,11.0345,1.6992,11.0174-.768,11.0174-1.6992Zm58.9648,8.9343c-8.676,0-15.7072,1.237-15.7072,2.7628s7.0312,2.7629,15.7072,2.7629,15.7072-1.237,15.7072-2.7629S135.6783,125.4459,127.0023,125.4459Zm6.4059-20.39c-5.8486,0-10.5926.836-10.5926,1.8623s4.7576,1.8623,10.5926,1.8623,10.5927-.8326,10.5927-1.8623-4.7407-1.8759-10.5927-1.8759Zm-44.3417,1.8623c0,1.02,4.7407,1.8623,10.5927,1.8623s10.5926-.8326,10.5926-1.8623-4.7576-1.8623-10.5926-1.8623-10.5927.8224-10.5927,1.8487Z"/></svg>