<svg id="Layer_1" data-name="Layer 1" xmlns="http://www.w3.org/2000/svg" viewBox="0 0 144 144"><path d="M128.3272,62.0913a40.7915,40.7915,0,0,0,1.8668-6.3472c3.36-11.9475,1.12-22.4016-7.4672-31.7357a36.9976,36.9976,0,0,0-16.8012-10.0807c-5.9738-1.8668-12.321-1.4934-19.4148-.7467-.7467-.7467-1.12-1.8668-1.8668-2.6135C73.4431.1133,60.7489-2.5,46.1878,2.3535,35.7337,6.0871,29.0132,13.5543,26.0263,24.0084a41.5839,41.5839,0,0,0-.7467,6.3472c-.3734,2.24-.7467,4.48-2.6135,5.9738-.7468.3733-1.12,1.12-1.8668,1.8668-3.7336,4.8537-5.9738,10.0807-5.6,16.0545a11.8368,11.8368,0,0,1-2.9868,9.334c-2.6136,3.36-4.107,7.0939-5.6,10.8275A38.6817,38.6817,0,0,0,5.1181,90.4667a41.3124,41.3124,0,0,0,32.4824,34.3492c6.3471,1.4935,13.0676,2.24,19.4148-.3734.3733-.3733.3733-.3733.3733-.7467,1.4935-6.3471.3734-7.4672-5.6-6.7205a35.0441,35.0441,0,0,1-28.0021-8.9606C11.0919,96.4405,9.9718,78.1458,21.546,65.4515c1.12-1.12,2.24-2.6135,3.36-3.7336-1.12-4.48-2.24-8.9606-.3733-13.441,1.8668-4.8537,5.6-7.4672,9.334-10.0807,0-1.8668-.3734-3.36-.3734-4.48,0-9.7074,3.7336-17.1746,12.6943-21.6549,11.5742-5.6,25.0152-4.48,33.9758,7.4672a28.4932,28.4932,0,0,1,2.9869,4.107c1.4935-.3734,2.9869-.3734,4.107-.7467,3.7336-1.12,7.4672-1.12,11.5742-1.12,16.0545.7467,32.109,19.4147,20.1615,38.0828a40.7215,40.7215,0,0,0-2.24,4.107,67.0828,67.0828,0,0,1,7.4672,7.0938c8.5873,9.7074,8.5873,22.775,0,32.8558a26.1624,26.1624,0,0,1-9.7073,7.0938,32.9919,32.9919,0,0,1-19.0415,2.24c-1.12-.3734-2.24-1.12-4.1069.3734v3.36c0,1.12.3733,2.6135.3733,3.7336,14.1877,5.2271,31.7357-.3733,40.6964-12.3209a33.0624,33.0624,0,0,0,6.72-20.5348C139.528,77.3991,134.6743,69.5585,128.3272,62.0913ZM84.644,108.388c.3733-16.0545,5.227-30.9889,14.9344-43.6832a32.8389,32.8389,0,0,0,2.24-3.7336,17.4472,17.4472,0,0,0-5.2271-5.2271c-1.8668,2.24-3.36,3.7336-4.8537,5.6A121.6126,121.6126,0,0,0,77.55,84.12c-.7467,1.12-1.4934,2.24-2.6135,4.1069-1.4934-2.6135-2.24-4.48-3.36-6.3471A243.6385,243.6385,0,0,0,54.4017,53.1306c-1.12-1.4934-2.24-3.7336-4.8536-4.48-1.8669,1.4934-4.107,2.24-5.2271,4.8537,1.12,1.8668,2.24,3.36,3.36,5.227A189.4017,189.4017,0,0,1,59.6288,81.506a79.6626,79.6626,0,0,1,5.6,18.2947c.3734,1.4935.7467,2.9869-.7467,4.107a34.9538,34.9538,0,0,1-5.9738-1.4935c-1.8668,1.8668-2.24,3.36-1.4934,5.6005,2.6135,2.24,5.6,4.1069,8.9606,6.72a42.88,42.88,0,0,1-.3733,7.0939c-.7468,5.2271-2.24,10.4541-2.9869,15.6812a21.2865,21.2865,0,0,0-.3734,4.8537c7.8406,2.24,19.7882,2.24,26.1353-.3734-1.12-1.8668-1.12-3.7336-1.4935-5.6A118.2116,118.2116,0,0,1,84.644,108.388Z"/></svg>