<svg id="Layer_1" data-name="Layer 1" xmlns="http://www.w3.org/2000/svg" viewBox="0 0 144 144"><path d="M117.1194,50.882s3.3589,6.9469,13.7859,1.9022A25.5688,25.5688,0,0,0,144,37.8712a25.58,25.58,0,0,0-19.8189,1.0157C113.7541,43.93,117.1194,50.882,117.1194,50.882Z"/><path d="M26.8806,50.882s-3.3589,6.9469-13.7859,1.9022A25.5688,25.5688,0,0,1,0,37.8712a25.58,25.58,0,0,1,19.8188,1.0157C30.2458,43.93,26.8806,50.882,26.8806,50.882Z"/><path d="M27.69,105.2309a24.6245,24.6245,0,0,0,17.7179-7.1845c7.8876-7.8909,2.6284-13.15,2.6284-13.15s-5.2594-5.2662-13.15,2.6294A24.6015,24.6015,0,0,0,27.69,105.2309Z"/><path d="M35.2462,51.26A25.5279,25.5279,0,0,0,42.711,69.6438c8.1858,8.1922,13.6449,2.7331,13.6449,2.7331s5.4662-5.4562-2.7263-13.6483A25.56,25.56,0,0,0,35.2462,51.26Z"/><path d="M47.2265,43.1371S52.6924,37.6813,44.5,29.4887A25.5512,25.5512,0,0,0,26.1168,22.021a25.5621,25.5621,0,0,0,7.4648,18.3833C41.7738,48.5965,47.2265,43.1371,47.2265,43.1371Z"/><path d="M35.5281,70.2535s.0067-7.3238-10.984-7.3238A24.2475,24.2475,0,0,0,7.2027,70.2535a24.2475,24.2475,0,0,0,17.3414,7.3238C35.5348,77.5773,35.5281,70.2535,35.5281,70.2535Z"/><path d="M81.3064,120.7144V107.3611c0-25.0062,14.7067-29.7838,14.7067-29.7838a34.3535,34.3535,0,0,0-14.7067,7.6812V75.7422c0-25.0092,14.7067-29.7869,14.7067-29.7869a34.2975,34.2975,0,0,0-14.5953,7.5762C82.5449,31.16,96.0131,26.72,96.0131,26.72S72,31.3863,72,56.5069c0-25.1206-24.02-29.7868-24.02-29.7868S61.455,31.16,62.5822,53.5315a34.3008,34.3008,0,0,0-14.6017-7.5762S62.6872,50.733,62.6872,75.7422v9.5163a34.3191,34.3191,0,0,0-14.7067-7.6812s14.7067,4.7776,14.7067,29.7838v13.3533c0,17.3411-23.4035,19.9628-23.4035,19.9628h65.433S81.3064,138.0555,81.3064,120.7144Z"/><path d="M98.5985,98.0464a24.5992,24.5992,0,0,0,17.7052,7.1845,24.5533,24.5533,0,0,0-7.1963-17.7051c-7.8905-7.8956-13.14-2.6294-13.14-2.6294S90.6979,90.1555,98.5985,98.0464Z"/><path d="M90.37,58.7286c-8.1922,8.1921-2.7264,13.6483-2.7264,13.6483s5.4528,5.4591,13.645-2.7331A25.5616,25.5616,0,0,0,108.7537,51.26,25.5523,25.5523,0,0,0,90.37,58.7286Z"/><path d="M96.7667,43.1371s5.4528,5.4594,13.645-2.7328a25.5277,25.5277,0,0,0,7.4647-18.3833A25.54,25.54,0,0,0,99.5,29.4887C91.3009,37.6813,96.7667,43.1371,96.7667,43.1371Z"/><path d="M78.2327,24.9s5.5706,5.5756,13.93-2.7922A26.0815,26.0815,0,0,0,99.788,3.3394a26.0882,26.0882,0,0,0-18.7668,7.6268C72.6521,19.3255,78.2327,24.9,78.2327,24.9Z"/><path d="M65.7739,24.8947s5.5773-5.5709-2.7918-13.93a26.0854,26.0854,0,0,0-18.77-7.6251A26.088,26.088,0,0,0,51.84,22.1062C60.2,30.4753,65.7739,24.8947,65.7739,24.8947Z"/><path d="M119.4559,62.93c-10.9908,0-10.9841,7.3238-10.9841,7.3238s-.0067,7.3238,10.9841,7.3238a24.2475,24.2475,0,0,0,17.3414-7.3238A24.2475,24.2475,0,0,0,119.4559,62.93Z"/></svg>