<svg id="Layer_1" data-name="Layer 1" xmlns="http://www.w3.org/2000/svg" viewBox="0 0 144 144"><path d="M143.6913,133.33a85.9423,85.9423,0,0,0-19.095-30.9584c-7.37-7.5192-15.3322-12.2418-22.8748-13.6615a308.8393,308.8393,0,0,0-.1081-46.4664c-.7552-9.3484-1.381-14.2893-1.4216-20.1841H93.7927V17.1147h6.4957c.12-2.7178.3534-5.8062.734-9.6363a3.5555,3.5555,0,0,0-1.1686-2.7331,4.1839,4.1839,0,0,0-2.8354-1.2846c-33.1758-.0037-58.3085-.0037-91.4841,0A4.193,4.193,0,0,0,2.6949,4.7453,3.5525,3.5525,0,0,0,1.5321,7.4784c.3805,3.83.6124,6.9185.7322,9.6363H8.7561v4.9447H2.3589C2.3163,27.9505,1.6905,32.8912.9374,42.234a334.357,334.357,0,0,0,0,50.04c1.2533,15.5524,2.1689,18.8843.5947,34.7555A3.5489,3.5489,0,0,0,2.6949,129.76a4.1988,4.1988,0,0,0,2.8394,1.2883c16.5666.0018,31.1283.0018,45.6879,0-.2917.7609-.6046,1.4929-.8807,2.2714a5.4087,5.4087,0,0,0,5.0934,7.222H138.59a5.4084,5.4084,0,0,0,5.1012-7.2123ZM69.4961,17.1147H81.6434v4.9447H69.4961Zm-24.2963,0H57.3471v4.9447H45.2Zm-24.2965,0H33.0506v4.9447H20.9033ZM57.318,51.4086S47.01,61.7249,45.3774,92.262A54.8407,54.8407,0,0,0,28.9558,65.9259c3.324,6.1557,5.24,14.93,6.43,22.7435a26.92,26.92,0,1,1,29.0578,1.7692,92.0151,92.0151,0,0,1,9.1514-25.5248s-8.1916,2.055-18.1582,20.8236C54.2624,79.8966,54.102,65.866,57.318,51.4086Zm.29,82.211C66.73,109.8118,84.9271,95.1708,97.0106,95.1708c6.9882,0,15.0291,4.2784,22.6431,12.0468a78.6511,78.6511,0,0,1,16.7655,26.402Z"/><path d="M106.2682,107.8648a3.84,3.84,0,1,0,3.8381,3.8358A3.8384,3.8384,0,0,0,106.2682,107.8648Z"/><path d="M113.7143,119.3186a3.8389,3.8389,0,1,0,3.84,3.8379A3.8386,3.8386,0,0,0,113.7143,119.3186Z"/><path d="M98.8224,119.3186a3.8389,3.8389,0,1,0,3.8418,3.8379A3.8392,3.8392,0,0,0,98.8224,119.3186Z"/></svg>