<svg id="Layer_1" data-name="Layer 1" xmlns="http://www.w3.org/2000/svg" viewBox="0 0 144 144"><path d="M87.6038,129.3053c-1.39-.741-2.9514-1.6889-4.6511-2.654-.7951-.5471-1.6179-1.12-2.4537-1.7a15.2112,15.2112,0,0,1-2.3139-1.9669c-.36-.3553-.76-.6763-1.0791-1.0555l-.86-1.2065-.8509-1.1762c-.1961-.4458-.3922-.8811-.5859-1.31-.2133-.4935-.4374-.9695-.6335-1.4478a5.4086,5.4086,0,0,1-.7948.392,5.6544,5.6544,0,0,1-.6938.2178l-.3684.09-.3554.0841-.3554-.0841-.3662-.09c-.084-.0172-.1464-.0713-.2283-.09a5.7849,5.7849,0,0,1-1.26-.5237c-.2005.4763-.4222.9524-.6377,1.4522-.1917.4286-.3878.8639-.5881,1.31l-.8467,1.1762-.8594,1.2065c-.3232.3792-.7218.7-1.0794,1.0555a15.43,15.43,0,0,1-2.3136,1.9669c-.8358.5795-1.6589,1.1526-2.4559,1.7-1.6975.9651-3.2594,1.913-4.6511,2.654-2.7919,1.4478-4.6555,2.4129-4.6555,2.4129a.1953.1953,0,0,0-.0947.2541.2016.2016,0,0,0,.2628.1035s1.9194-.8639,4.8-2.1477c1.437-.6464,3.0807-1.5017,4.8644-2.3655.86-.5127,1.745-1.0428,2.6477-1.5857a16.302,16.302,0,0,0,2.5849-1.9194c.4094-.3554.86-.6677,1.2389-1.06l1.04-1.2669,1.0256-1.2559c.25-.4632.4977-.9221.7432-1.3809.0926-.1745.1853-.349.28-.5257l.8961,25.1728a.2684.2684,0,0,0,.5365,0l.8164-24.3456c.1939.3556.3834.7174.5817,1.0794l1.0254,1.2559,1.04,1.2669c.3812.392.8295.7043,1.2409,1.06a16.2048,16.2048,0,0,0,2.5852,1.9194c.9005.5429,1.7879,1.073,2.6432,1.5857,1.7859.8638,3.43,1.7127,4.8686,2.3655,2.88,1.2838,4.7976,2.1477,4.7976,2.1477a.2081.2081,0,0,0,.2607-.09.1991.1991,0,0,0-.09-.2671S90.3979,130.7531,87.6038,129.3053Z"/><path d="M83.6074,48.9789a6.0438,6.0438,0,0,0,.9695-.4761c.6592-.3748,1.3658-.7734,2.0681-1.1718.59-.5127,1.1827-1.0255,1.7364-1.508a4.6549,4.6549,0,0,0,.754-.7238c.2067-.2651.4028-.5129.5795-.7412.713-.9113,1.1848-1.5208,1.1848-1.5208a.51.51,0,0,0-.78-.6571l-.0646.0668s-.4913.53-1.2237,1.3269c-.1831.1983-.3792.4158-.5881.64a4.3289,4.3289,0,0,1-.7476.61c-.5363.392-1.1094.8142-1.68,1.2364-.62.2888-1.2431.5731-1.8226.8445a3.9739,3.9739,0,0,1-.8616.3554c-.0214.0066-.043.0066-.0625.0108.1357.5623.265,1.1526.3879,1.7557C83.5084,49.0091,83.5536,48.9963,83.6074,48.9789Z"/><path d="M92.2332,56.7774l-.0516.0131s-.6355.1809-1.5921.4522a11.2921,11.2921,0,0,1-1.6544.3426,12.71,12.71,0,0,1-1.9067.2413,23.9884,23.9884,0,0,1-2.91.086c-.0194.5732-.043,1.1463-.0732,1.7236a27.5785,27.5785,0,0,0,3.1558-.392,15.1293,15.1293,0,0,0,2.0015-.4569,12.7217,12.7217,0,0,0,1.7019-.5254l1.6157-.6336a.4495.4495,0,0,0-.2866-.8509Z"/><path d="M83.7259,71.3984a11.8908,11.8908,0,0,1,1.7451,1.2259A13.0439,13.0439,0,0,1,86.9466,74.21a10.3448,10.3448,0,0,1,1.0728,1.5685,14.5028,14.5028,0,0,1,.8252,1.6781.6295.6295,0,0,0,1.1868-.4178,14.7346,14.7346,0,0,0-.78-1.9109,12.7364,12.7364,0,0,0-1.0772-1.8289,16.0729,16.0729,0,0,0-1.5466-1.9A14.0549,14.0549,0,0,0,84.7,69.8432a7.98,7.98,0,0,0-1.536-.8619c-.0949.7413-.1853,1.3982-.2672,1.9777A5.57,5.57,0,0,1,83.7259,71.3984Z"/><path d="M60.7959,47.26a4.0383,4.0383,0,0,1-.8639-.3554c-.58-.2714-1.2-.5557-1.82-.8445-.5709-.4222-1.1438-.8444-1.68-1.2364a4.2441,4.2441,0,0,1-.7477-.61c-.2089-.2242-.405-.4417-.5881-.64-.7346-.797-1.2256-1.3269-1.2256-1.3269l-.0669-.0732a.5117.5117,0,0,0-.7776.6635s.4739.6095,1.1849,1.5208c.1786.2283.3748.4761.58.7412a4.7213,4.7213,0,0,0,.754.7238c.5557.4825,1.146.9953,1.7383,1.508.7024.3984,1.4067.797,2.0681,1.1718a5.9549,5.9549,0,0,0,.9673.4761c.056.0174.0971.03.1487.0474.1229-.6031.2563-1.1934.39-1.7557A.4567.4567,0,0,1,60.7959,47.26Z"/><path d="M54.7208,58.7873a15.1561,15.1561,0,0,0,2.0035.4569,27.58,27.58,0,0,0,3.1561.392c-.03-.5773-.0561-1.15-.0711-1.7236a24.048,24.048,0,0,1-2.9147-.086,12.641,12.641,0,0,1-1.9044-.2413,11.2635,11.2635,0,0,1-1.6567-.3426c-.9565-.2713-1.592-.4522-1.592-.4522l-.0539-.0131a.4492.4492,0,0,0-.2843.8509s.6483.2543,1.6156.6269A11.7842,11.7842,0,0,0,54.7208,58.7873Z"/><path d="M57.2974,71.3984a15.8822,15.8822,0,0,0-1.549,1.9,12.3277,12.3277,0,0,0-1.0728,1.8289,15.4068,15.4068,0,0,0-.782,1.9109.6307.6307,0,0,0,1.1892.4178,13.7006,13.7006,0,0,1,.8229-1.6781A10.4848,10.4848,0,0,1,56.9764,74.21a13.3691,13.3691,0,0,1,1.4756-1.5854,12.1342,12.1342,0,0,1,1.745-1.2259,5.6,5.6,0,0,1,.8338-.4394c-.0818-.58-.1725-1.2364-.2694-1.9777a8.1259,8.1259,0,0,0-1.5382.8619A13.9127,13.9127,0,0,0,57.2974,71.3984Z"/><path d="M82.1188,29.0541l.0152-.03a.4769.4769,0,0,0-.1917-.6139.4721.4721,0,0,0-.6441.1745s-.2716.4655-.6075,1.17c-.3254.7066-.6786,1.6717-1.09,2.527a5.5729,5.5729,0,0,1-.698,1.1288,2.1551,2.1551,0,0,1-.6871.6205c-.0151.03-.0755.03-.1057.0561a7.9361,7.9361,0,0,1,.9825,1.0555c.1313-.09.2628-.1809.3962-.2909.1811-.1917.3254-.4093.4977-.6268a6.8085,6.8085,0,0,0,.75-1.4347c.3878-.9954.655-1.95.9155-2.6368C81.9121,29.4763,82.1188,29.0541,82.1188,29.0541Z"/><path d="M63.9411,34.2244c.1681.2175.3168.4351.4977.6268.1315.11.2628.2.3942.2909a7.3161,7.3161,0,0,1,.9845-1.0555c-.03-.0261-.09-.0261-.1056-.0561a2.1628,2.1628,0,0,1-.6894-.6205,5.5908,5.5908,0,0,1-.698-1.1288c-.4114-.8553-.7668-1.82-1.0921-2.527-.336-.7043-.6076-1.17-.6076-1.17a.4706.4706,0,0,0-.8314.4394l.0128.03s.2047.4222.4674,1.0988c.2586.6871.5279,1.6414.9157,2.6368A6.9311,6.9311,0,0,0,63.9411,34.2244Z"/><path d="M115.9755,1.6883s-.9629-.2542-2.6454-.6936a16.2913,16.2913,0,0,0-3.07-.6333A23.4438,23.4438,0,0,0,106.1907.03a21.6623,21.6623,0,0,0-4.8212.433,26.1443,26.1443,0,0,0-5.2112,1.5208A29.7532,29.7532,0,0,0,91.13,4.896,31.8656,31.8656,0,0,0,86.5826,8.8a42.4738,42.4738,0,0,0-3.826,4.6078,55.2575,55.2575,0,0,0-3.1561,4.8558,72.5493,72.5493,0,0,0-4.4076,9.2528c-.6807,1.6953-1.2366,3.2335-1.6847,4.567a9.0437,9.0437,0,0,1,1.9755.4458c.3922-1.273.8638-2.7144,1.465-4.3429a71.1828,71.1828,0,0,1,4.0435-9.1449,54.7487,54.7487,0,0,1,2.932-4.8063,41.7913,41.7913,0,0,1,3.5783-4.5671,30.8565,30.8565,0,0,1,4.2761-3.89A28.4265,28.4265,0,0,1,96.54,2.8409a25.2936,25.2936,0,0,1,4.9829-1.6115,21.4582,21.4582,0,0,1,4.6749-.5557,22.5034,22.5034,0,0,1,3.99.2176,15.5944,15.5944,0,0,1,3.0438.5364c1.6739.3984,2.63.629,2.63.629l.0238.0044a.1928.1928,0,0,0,.2284-.1379A.19.19,0,0,0,115.9755,1.6883Z"/><path d="M56.4982,9.6677a41.8439,41.8439,0,0,1,3.5761,4.5671,54.8442,54.8442,0,0,1,2.9319,4.8063A70.9071,70.9071,0,0,1,67.05,28.186c.5967,1.6221,1.0706,3.059,1.4606,4.3257a9.1639,9.1639,0,0,1,1.9776-.4352c-.4482-1.3335-1.0017-2.8715-1.6825-4.56A72.8018,72.8018,0,0,0,64.4,18.2633a55.3775,55.3775,0,0,0-3.1581-4.8558A42.7316,42.7316,0,0,0,57.4181,8.8a32.0046,32.0046,0,0,0-4.55-3.9037,29.8033,29.8033,0,0,0-5.0261-2.9126A26.2049,26.2049,0,0,0,42.629.4626,21.663,21.663,0,0,0,37.8076.03a23.462,23.462,0,0,0-4.0694.3318,16.3207,16.3207,0,0,0-3.07.6333c-1.6825.4394-2.6454.6936-2.6454.6936a.189.189,0,0,0-.1379.2285.192.192,0,0,0,.2326.1443l.0193-.0044s.9566-.2306,2.63-.629a15.6258,15.6258,0,0,1,3.044-.5364,22.5129,22.5129,0,0,1,3.99-.2176,21.4557,21.4557,0,0,1,4.6747.5557,25.2885,25.2885,0,0,1,4.9828,1.6115A28.4152,28.4152,0,0,1,52.22,5.7773,30.8973,30.8973,0,0,1,56.4982,9.6677Z"/><path d="M65.9424,39.3277a4.6711,4.6711,0,0,0,.5795,2.7383c.3016-.0238.6011-.0432.8963-.06,2.4279-.1443,4.524-.1207,4.5712-.1207.0261,0,2.1069-.0172,4.524.1207.293.0172.5882.043.8877.06a4.6587,4.6587,0,0,0,.5859-2.6972,4.9935,4.9935,0,0,0-3.2487-4.27,6.76,6.76,0,0,0-2.0637-.405c-.1423-.0108-.2716-.0346-.418-.0346h-.5881c-.1249,0-.2262.0238-.3468.03a6.54,6.54,0,0,0-2.0659.3856A4.9891,4.9891,0,0,0,65.9424,39.3277Z"/><path d="M80.96,59.4143c.0238-.4589.0518-.9113.0668-1.3572a46.0686,46.0686,0,0,0-.0452-4.7351c-3.04-.3382-7.3741-.4827-8.992-.4588a89.89,89.89,0,0,0-9.0436.4588,46.6159,46.6159,0,0,0-.0494,4.6985c.015.4653.0452.9285.071,1.4.0258.5129.0474,1.0256.08,1.5427a80.4,80.4,0,0,1,8.9423-.4763,73.2165,73.2165,0,0,1,8.8866.4719C80.9126,60.44,80.9318,59.9269,80.96,59.4143Z"/><path d="M79.4734,72.829a63.5041,63.5041,0,0,0-7.484-.4094,67.5474,67.5474,0,0,0-7.5356.4094c.4072,2.2684.8769,4.1792,1.2473,6.0792a35.3084,35.3084,0,0,1,6.2883-.5126,34.8659,34.8659,0,0,1,6.2346.5085C78.5946,77.0038,79.0662,75.0974,79.4734,72.829Z"/><path d="M77.3579,88.5358a39.2279,39.2279,0,0,0-10.7908,0c.1293,2.4257.265,4.6144.4309,6.6415A37.6573,37.6573,0,0,1,71.9894,94.9a38.3417,38.3417,0,0,1,4.9355.2777C77.0907,93.15,77.2266,90.9615,77.3579,88.5358Z"/><path d="M77.6056,83.6628c.0452-.9241.1423-1.7924.263-2.6432a33.2891,33.2891,0,0,0-5.8792-.4633,34.2321,34.2321,0,0,0-5.9305.47c.12.8444.2153,1.7127.2605,2.6368.0452.9587.09,1.82.1357,2.7078a39.2807,39.2807,0,0,1,5.5387-.3684,37.15,37.15,0,0,1,5.4761.3684C77.5152,85.4832,77.56,84.6215,77.6056,83.6628Z"/><path d="M79.9042,70.0369c.0819-.5729.1637-1.1826.2436-1.84.2-1.5512.39-3.27.5537-5.0733a79.9105,79.9105,0,0,0-8.7121-.4762,79.03,79.03,0,0,0-8.7634.4826c.1636,1.7966.3531,3.5157.5515,5.0711.0818.6528.1636,1.2495.2413,1.829.03.2175.0646.4525.0946.6572a62.3436,62.3436,0,0,1,7.876-.4289,64.69,64.69,0,0,1,7.8244.4289C79.844,70.4894,79.8743,70.2524,79.9042,70.0369Z"/><path d="M68.562,106.6855c.2607,1.3529.5473,2.74.8919,4.2418a5.6461,5.6461,0,0,0,1.2494,2.6951,1.8778,1.8778,0,0,0,.1853.1636c.0281.0237.0561.0475.0819.0733a2.5723,2.5723,0,0,0,.9931.5363,2.5732,2.5732,0,0,0,.989-.5363,2.4527,2.4527,0,0,0,.2713-.2369,3.44,3.44,0,0,0,.2887-.3856,6.3659,6.3659,0,0,0,.9566-2.3095c.3446-1.4972.6311-2.8845.8938-4.2288-1.1976-.1077-2.4385-.1637-3.3736-.1509A32.2547,32.2547,0,0,0,68.562,106.6855Z"/><path d="M76.7223,97.3425a35.7328,35.7328,0,0,0-4.7329-.2824,34.5041,34.5041,0,0,0-4.7889.2758c.2413,2.4559.5429,4.7783.9587,7.1974,2.0012-.1809,3.8-.1443,3.83-.1443.0152,0,1.7924-.03,3.7764.1443C76.18,102.1206,76.4812,99.7918,76.7223,97.3425Z"/><path d="M71.9894,44.0435c-.7474-.0042-1.85.026-3.0482.08-1.2753.0538-2.6412.1443-3.869.2713-.0217.0411-.0517.0777-.0733.1207a16.8631,16.8631,0,0,0-1.1784,3.6c-.1185.5085-.2392,1.0816-.3532,1.6545-.0841.4222-.1681.8014-.2566,1.2669-.0019.0172-.0064.0472-.0086.071,3.9209-.4286,8.7077-.3986,8.7873-.4028.0433,0,4.817-.03,8.7313.4028a.5351.5351,0,0,0-.0086-.071c-.0839-.4588-.1679-.84-.252-1.2625-.1184-.5773-.2369-1.15-.3575-1.6589a16.91,16.91,0,0,0-1.1763-3.6.6814.6814,0,0,0-.0754-.1207c-1.2237-.127-2.5938-.2175-3.8605-.2779C73.8056,44.0629,72.7176,44.0393,71.9894,44.0435Z"/></svg>