<svg id="Layer_1" data-name="Layer 1" xmlns="http://www.w3.org/2000/svg" viewBox="0 0 144 144"><path d="M18.3866,26.282a2.5264,2.5264,0,0,0,.2494,1.8143,103.4467,103.4467,0,0,0,7.81,10.6309A25.0172,25.0172,0,0,1,30.0173,33.76c-.79-.1994-3.8172-3.7915-4.9106-5.7794-2.42-4.3787-3.46-6.5709-4.3831-5.437a4.3,4.3,0,0,0-1.3944-.9183C16.6715,20.47,9.854,21.0475,7.4274,20.1233,6.6186,21.6254,8.583,23.59,9.3917,24.3986,9.9005,25.67,15.19,26.8107,18.3866,26.282Z"/><path d="M26.7042,113.4913c-1.2213-1.9377-2.3984-4.0109-3.5006-6.2212q-.2109.4525-.4078.9029c-1.6651,2.8918-.9371,3.4576.066,3.9653.2158,4.8825-1.1382,9.6935-.5281,13.2518a3.6191,3.6191,0,0,0,.9527,1.8168c-2.546,1.4508-5.5675,5.7234-5.2283,7.0806-.1155,1.3866-.2312,4.2755,1.2711,5.2,1.1556-2.311,6.1242-6.0087,7.28-8.6663a5.4457,5.4457,0,0,0,.4694-1.6171c1.26.4475.8-2.093-.1228-7.627C26.5354,118.9516,26.2072,113.8244,26.7042,113.4913Z"/><path d="M14.7072,62.1837c-2.5908,1.7272-2.0833,2.5509-1.2757,3.4356-1.4153,4.2769-4.4659,7.7352-5.08,11.0083a3.4056,3.4056,0,0,0,.31,1.9994C5.619,78.7,1.1573,80.9288,1.0722,82.29.4945,83.33-.6611,85.7561.4945,87.2584c1.8488-1.5023,8.204-2.3112,10.1684-4.0443a4.31,4.31,0,0,0,1.0341-1.1608c1.1614,1.0452,1.508-1.3814,2.5481-6.5812a65.9918,65.9918,0,0,0,1.0212-7.5731,2.0368,2.0368,0,0,0,1.4793.6737,77.5649,77.5649,0,0,1,1.55-8.9A27.159,27.159,0,0,0,14.7072,62.1837Z"/><path d="M124.2568,25.3229a2.9723,2.9723,0,0,0-.1173-1.9172c3.1282-.25,7.9506-2.73,8.2058-4.0913.6933-1.04,2.08-3.4666,1.04-4.8532-2.08,1.5022-8.5507,2.6576-10.8617,4.5065a5.45,5.45,0,0,0-1.1093,1.1961c-1.0861-.9649-1.7794,1.4616-3.2815,6.5458a52.6329,52.6329,0,0,0-1.9055,7.5975c-.2954-.32,1.3365,1.7817,1.578,2.1339C119.7926,32.2379,123.2366,28.689,124.2568,25.3229Z"/><path d="M122.7486,129.79a2.8225,2.8225,0,0,0,.93-1.7425c.7136-3.4665-.4562-8.5511-.1078-13.43.9536-.3307,1.7028-.7978.2233-4.0177-.4917-1.3215-1.0668-2.6737-1.6981-3.9714q-1.5533,3.2083-3.44,6.2823a7.5687,7.5687,0,0,0,.6322,1.8489,1.7008,1.7008,0,0,0,1.9261.9053,55.6838,55.6838,0,0,0-1.9261,7.761c-1.04,5.431-1.6178,7.9731-.3468,7.7419a10.2408,10.2408,0,0,0,.4623,1.7333c1.04,2.8888,5.893,7.5107,6.933,10.053,1.5022-.5778,1.3867-3.6977,1.3867-4.9687C128.064,136.622,125.2025,131.7511,122.7486,129.79Z"/><path d="M142.7448,80.9029c-.2542-1.3554-4.9743-3.1376-8.1616-2.9947a2.876,2.876,0,0,0,.1886-1.9739c-.8188-3.071-4.6439-11.8175-7.3692-13.2731A80.9538,80.9538,0,0,1,128.81,75.9725c1.1558,4.4117,1.7341,6.5011,2.7268,5.5083a5.1738,5.1738,0,0,0,1.1556,1.04c2.1955,1.5022,8.7819,1.7333,10.8618,3.0044C144.7093,84.1383,143.3226,81.8274,142.7448,80.9029Z"/><path d="M19.4176,78.7075C19.6488,98.12,29.124,114.6439,40.91,125.8523c8.6663,8.32,18.0259,14.2127,28.7721,14.2127.5778,0,.9244-.9244,1.2711-2.08V37.2024c-.9021.0024-1.8088.0044-2.6763.0121-2.3192.0186-4.46.05-6.4768.0792-2.6439.0388-5.0772.0745-7.2892.0745-6.5261,0-14.4045-.0133-16.5117-4.3414-4.9517.7569-7.7661,4.0438-12.5731,15.06A73.9305,73.9305,0,0,0,19.4176,78.7075Zm26.5767,1.9644c1.9645-2.3111,6.3554-1.6176,9.5908,1.3866,3.351,3.0043,4.5066,7.28,2.5421,9.5908-1.9644,2.1954-6.24,1.5021-9.5908-1.5023S44.03,82.8673,45.9943,80.6719ZM36.03,105.8276c1.8488-1.6177,4.9685.3467,8.32,4.2755,3.2354,3.8131,5.4309,8.204,3.4665,9.8217s-6.1242-.231-9.36-4.16C35.2211,111.9519,34.0657,107.4454,36.03,105.8276ZM32.59,53.1709c2.7733,0,2.8888,4.16,1.7334,8.6661s-3.351,7.7421-6.1243,7.7421-3.9286-3.6978-2.7732-8.2042C26.6974,56.7529,29.8173,53.1709,32.59,53.1709Z"/><path d="M104.1723,36.5139c-.1779.0326-.6229.1351-.6229.1351-.3441.0808-.6991.1631-1.0812.233l-.3518.056a60.4029,60.4029,0,0,1-9.5159.5452c-2.6043,0-5.49-.059-8.6189-.1243-2.63-.0559-5.4313-.1134-8.3812-.1429-.4816-.0046-.9817-.0046-1.47-.0078q-.1609,50.3885.0043,100.777c.231,1.1554.5777,2.08,1.1555,2.08,10.7462,0,20.1059-5.8931,28.7723-14.2127C115.9641,114.6439,125.4392,98.12,125.67,78.7075a75.8248,75.8248,0,0,0-6.0087-30.6211c-4.2264-9.6853-6.9806-13.3252-10.9133-14.6148a6.9128,6.9128,0,0,1-4.3672,2.9739Zm-18.02,55.1354c-1.9643-2.311-.9243-6.5865,2.4266-9.5908s7.6264-3.6977,9.5907-1.3866c2.08,2.1954.9244,6.4709-2.4265,9.4751S88.1164,93.8447,86.1519,91.6493Zm26.23-39.4029c2.6577,0,5.7776,3.6975,6.933,8.2042,1.2711,4.5065,0,8.204-2.6576,8.204-2.7732,0-5.6619-4.0442-6.8175-8.5508S109.6088,52.2464,112.382,52.2464Zm-4.1327,53.5812c1.9644,1.6178.8088,6.1243-2.4267,9.9374-3.2354,3.9288-7.5107,5.7776-9.3595,4.16-1.9644-1.6177.4621-5.7775,3.6976-9.7062C103.3961,106.4054,106.2849,104.21,108.2493,105.8276Z"/><path d="M39.0343,30.5228c0,6.2784,10.5474,5.2555,29.17,5.1011,1.2968-.0107,2.57-.017,3.8777-.017,1.202,0,2.3761.0079,3.534.0186,11.4135.1116,20.6155.6653,26.2049-.2517.1215-.0192.2468-.0374.3649-.0579.3524-.0637.6794-.1387,1.0007-.2158.2441-.0566.4973-.11.7231-.1745,2.5022-.7182,3.8776-1.9265,3.8776-3.9406,0-4.6514-7.0226-12.2443-18.3828-16.46a70.6162,70.6162,0,0,0,13.183-7.9209c.5777-.4621.4623-3.3509-1.6177-2.1954-1.6177,1.04-3.4665,2.1954-4.7376,3.12-3.36,2.1679-5.7323,4.13-10.2071,5.8911a50.0617,50.0617,0,0,0-11.4266-1.8681c-.9187-.0615-1.7483-.0944-2.4009-.0944-.03,0-.0666.0006-.0978.0007-.9229.0027-2.0447.031-3.2666.1182a46.4522,46.4522,0,0,0-9.867,1.6712,31.79,31.79,0,0,1-9.9942-7.9143c-.5778-.6933-1.5022-1.7332-2.08-2.542-.3466-.6935-.4621-1.2712-1.271-1.6178-.6933-.4623-3.5822.3466-1.8488,2.311,3.8413,4.39,7.13,8.0414,11.9909,10.8117C44.97,18.3465,39.0343,25.8208,39.0343,30.5228Z"/></svg>