<svg id="Layer_1" data-name="Layer 1" xmlns="http://www.w3.org/2000/svg" viewBox="0 0 144 144"><path d="M47.08,12.8661,49.1182,31.66a1.46,1.46,0,0,0,.5051.9469l.0343.0291L64.6844,45.3553a21.4866,21.4866,0,0,1,.7547-3.42A7.7267,7.7267,0,0,1,64.77,40.846L52.0164,30.6767l-2.57-18.5891-.007-.0374a1.1738,1.1738,0,0,0-.4471-.77L34.5592.232A.9591.9591,0,0,0,33.371,1.7376Z"/><path d="M94.4344,32.6223l.0375-.03a1.444,1.444,0,0,0,.502-.9473l2.0242-18.8009L110.7,1.7033A.9588.9588,0,0,0,109.5126.1981L95.0864,11.26a1.1893,1.1893,0,0,0-.4506.7732l-.0035.0342L92.0756,30.6631l-12.74,10.1728a7.5638,7.5638,0,0,1-.6691,1.0923,21.4074,21.4074,0,0,1,.7579,3.4187Z"/><path d="M43.67,92.5182l-.0035-.05-.5938-13.7942c-1.0889.7235-2.1883,1.4216-3.3111,2.077l.86,11.2512L20.6965,112.63a1.0177,1.0177,0,0,0,1.4405,1.4374L43.23,93.6207A1.4647,1.4647,0,0,0,43.67,92.5182Z"/><path d="M103.518,91.9788l.7681-10.14c-1.1264-.6281-2.2121-1.3038-3.2772-2.0071L100.473,92.45l-.0035.0546A1.4491,1.4491,0,0,0,100.91,93.6l21.1167,20.4187a1.0151,1.0151,0,0,0,1.4339-1.437Z"/><path d="M89.8944,105.49l1.8943-33.153c-1.2287-1.19-2.3963-2.4067-3.5228-3.6288l-1.2186,37.0244-.0035.0409a1.3365,1.3365,0,0,0,.1709.6928L107.69,143.5077a.9.9,0,0,0,1.5839-.8532Z"/><path d="M52.29,71.5294l1.97,33.9759L34.9108,142.6835a.9017.9017,0,0,0,1.59.85L56.9389,106.48a1.3562,1.3562,0,0,0,.1675-.7v-.0343L55.84,68.1107Q54.15,69.8416,52.29,71.5294Z"/><path d="M136.6032,77.9214c-5.3765-7.7574-25.77-29.2565-60.94-31.5146a16.4625,16.4625,0,0,0-2.0484-6.5406c1.8638-.2527,3.6322-6.5472-.2458-7.8241-.0953-3.864-1.3143-15.1907-1.3143-15.1907S71.0033,28.1781,70.911,32.0421c-4.1817,1.4747-2.0208,7.7626-.4,7.8311a16.4036,16.4036,0,0,0-2.0445,6.5217c-35.2529,2.212-55.69,23.759-61.07,31.5265C5.7138,80.3519,16.31,82.83,18.9518,82.83c26.128,0,43.4933-26.2167,49.4228-34.9078-.0171.3825-.0681.7306-.0681,1.1333.0032,4.3695.31,3.9461,1.386,8.3226-5.875,11.4151-3.5606,37.8161,2.4,52.44,5.9466-14.6307,8.2439-41.0321,2.3553-52.4472,1.0717-4.3695,1.379-3.9461,1.379-8.3156,0-.3275-.0444-.6058-.058-.92C81.8245,57.02,99.1143,82.83,125.0444,82.83,127.6868,82.83,138.286,80.3519,136.6032,77.9214Z"/></svg>