<svg id="Layer_1" data-name="Layer 1" xmlns="http://www.w3.org/2000/svg" viewBox="0 0 144 144"><path d="M131.7447,95.17s-21.83,16.0851-27.5745,44.4256h17.2341A114.7109,114.7109,0,0,1,131.7447,95.17Z"/><path d="M22.2128,113.17a78.4646,78.4646,0,0,1,7.6595,26.0426H42.1277C36.383,122.7447,22.2128,113.17,22.2128,113.17Z"/><path d="M119.1064,54.1915a24.8937,24.8937,0,0,0,0-49.7873A25.3751,25.3751,0,0,0,105.3191,8.617l10.34,18L98.8085,15.5106a24.7666,24.7666,0,0,0-4.2128,14.17A24.0578,24.0578,0,0,0,99.9574,45a157.1506,157.1506,0,0,0-26.0425,63.5745C71.617,97.8511,67.0213,85.9787,59.7447,73.34c1.1489-1.1489-.766-5.7447-4.9787-11.4893,6.8936,1.5319,11.8723,1.9149,12.6383,0,.7659-1.532-2.6809-4.9788-8.8086-8.4256,6.8937-1.1489,11.4894-2.6808,11.4894-4.5957S65.4894,45.383,58.5957,44.234c6.1277-3.83,9.5745-6.8936,8.8086-8.8085-.766-1.5319-5.3617-1.5319-12.2554,0,4.2128-5.7447,6.1277-9.9574,4.9788-11.4893-1.149-1.149-5.7447.7659-11.4894,4.9787,1.5319-6.8936,1.9149-11.8724,0-12.6383-1.5319-.766-4.9787,2.6808-8.4255,8.8085-1.149-6.8936-2.6809-11.4894-4.5958-11.4894S32.17,18.1915,31.0213,25.0851c-4.5958-6.1277-8.0426-9.5745-9.5745-8.8085s-1.5319,5.3617,0,12.2553c-5.7447-4.2128-9.9574-6.1277-11.1064-4.9787-1.5319,1.5319.383,5.7447,4.5958,11.4893-6.8936-1.5319-11.4894-1.5319-12.2553,0s2.6808,4.9788,8.8085,8.4256C4.5957,44.617,0,46.1489,0,48.0638S4.5957,51.5106,11.4894,52.66c-6.1277,3.83-9.5745,6.8936-8.8085,8.8085C3.4468,63,8.0426,63,14.9362,61.4681c-4.2128,5.7447-6.1277,9.9574-4.9788,11.4893,1.149,1.149,5.7447-.7659,11.4894-4.9787-1.5319,6.8936-1.9149,11.8724,0,12.6383,1.5319.383,4.9787-3.0638,8.8085-9.1915,1.149,6.8936,2.6809,11.4894,4.5958,11.4894s3.4468-4.5958,4.5957-11.4894c3.4468,5.7447,6.5106,9.1915,8.4255,9.1915a118.5914,118.5914,0,0,1,14.17,40.9787C49.0213,97.8511,25.66,88.2766,25.66,88.2766c11.1064,10.34,21.4468,37.1489,26.4255,51.3191H97.2766c3.4468-18,9.9575-45.5744,18.383-58.2127,0,0-19.9149,14.5531-30.2553,41.7446,1.1489-16.851,6.5106-43.2766,25.2766-70.4681A29.8743,29.8743,0,0,0,119.1064,54.1915Z"/></svg>