<svg id="Layer_1" data-name="Layer 1" xmlns="http://www.w3.org/2000/svg" viewBox="0 0 144 144"><path d="M38.7743,30.4616l7.5064,20.5335.1857.5083.5318.3731L58.7746,60.126c-.0017-.277-.0117-.54-.0117-.82a10.6143,10.6143,0,0,1,.844-4.0708L49.5393,49,40.9845,29.1649l-.1809-.4221-.3374-.1909-5.234-2.9747a1.092,1.092,0,0,0-1.1311,1.8672Z"/><path d="M51.0469,2.5479a6.3006,6.3006,0,0,1,.1691,1.6562,18.6366,18.6366,0,0,1-.0069,2.232c-.037.8392-.0761,1.7493-.1183,2.71A25.2524,25.2524,0,0,0,51.1282,12.3a9.6208,9.6208,0,0,0,.9892,3.4155c.5166,1.0588,1.0923,2.0481,1.6815,3.0086,1.8724,3.0864,3.7161,6.0967,5.2492,8.68a10.8765,10.8765,0,0,1,1.58-1.8219c-1.5228-2.4176-3.3125-5.1883-5.0683-7.9352-1.2189-1.9128-2.362-3.6873-2.536-5.5514a23.0253,23.0253,0,0,1-.0995-2.9073c.0186-.9675.0373-1.8824.0539-2.7268a20.0553,20.0553,0,0,0-.0522-2.3585,7.4766,7.4766,0,0,0-.2348-1.8537c-.2344-1.03-.3679-1.6175-.3679-1.6175a.8114.8114,0,0,0-1.5871.3378l.0339.1753S50.8716,1.6547,51.0469,2.5479Z"/><path d="M84.3921,55.2347a10.6143,10.6143,0,0,1,.844,4.0708c0,.28-.01.5435-.0135.82l11.7782-8.2495.5318-.3731.1856-.5083,7.5065-20.5335,4.6735-3.0172a1.0921,1.0921,0,0,0-1.1314-1.8672l-5.234,2.9747-.3375.1909-.1808.4221L94.46,49Z"/><path d="M84.9491,27.4056c1.5332-2.5832,3.3786-5.5953,5.251-8.6817.5892-.96,1.1649-1.9515,1.6815-3.0086a9.6315,9.6315,0,0,0,.9892-3.4173,25.1631,25.1631,0,0,0,.0374-3.1521c-.0422-.96-.0809-1.8706-.1182-2.71a18.1979,18.1979,0,0,1-.0053-2.232,6.2422,6.2422,0,0,1,.1708-1.6562c.1753-.8932.2767-1.4032.2767-1.4032l.0338-.177A.8112.8112,0,0,0,91.6789.6316s-.1334.5874-.3679,1.6158a7.4129,7.4129,0,0,0-.2365,1.8537,19.87,19.87,0,0,0-.0522,2.36c.0152.8444.0336,1.7593.0522,2.7268a23.0156,23.0156,0,0,1-.1,2.9073c-.1739,1.8623-1.317,3.6386-2.5359,5.5514-1.7576,2.7469-3.5456,5.5176-5.07,7.9352A10.709,10.709,0,0,1,84.9491,27.4056Z"/><path d="M104.8229,118.4756l-4.69-30.4362-.1026-.667-.5944-.4879L85.2226,75.23a44.7713,44.7713,0,0,0,1.4488,6.8986L96.5768,89.46l6.09,29.6136.0539.26.1214.1705c1.9232,2.6828,3.8747,5.347,5.7744,8.0451a.8655.8655,0,0,0,1.4315-.9727C108.2824,123.8918,106.5653,121.175,104.8229,118.4756Z"/><path d="M122.35,91.2793l-6.4933-1.9128L98.7736,67.0719l-.5709-.743-1.045.0051-12.0986.064c-.0643,1.6919-.1166,3.2486-.1182,4.6683l11.4133-.6888L114.19,91.1832l.28.3257.353.083,7.0064,1.6528a1.0169,1.0169,0,0,0,.52-1.9654Z"/><path d="M57.3327,82.1253a44.5763,44.5763,0,0,0,1.45-6.9021L44.5636,86.8845l-.594.4879-.1031.667L39.183,118.4738c-1.7441,2.7-3.4647,5.418-5.2323,8.1a.8666.8666,0,0,0,1.4319.9761c1.9011-2.7,3.8543-5.364,5.7807-8.0468l.1217-.1705.0539-.26,6.085-29.6153Z"/><path d="M59.06,71.0663c-.0017-1.42-.054-2.9764-.12-4.6683l-12.099-.064-1.0449-.0051-.5709.743L28.1427,89.3665l-6.4933,1.9128a1.0169,1.0169,0,0,0,.52,1.9654l7.0064-1.6528.3531-.083.28-.3257L47.6452,70.3775Z"/><path d="M89.0452,106.37c-.601-11.643-6.9086-18.7746-8.2931-31.6533C80.32,70.6849,80.9,65.39,80.9,59.3055c0-2.4938-1.4958-4.687-3.5421-6.4245,2.48-4.8706,5.6562-8.3571,5.6562-13.0389,0-3.9677-.0526-9.7588-4.7831-12.42a8.6925,8.6925,0,0,0,.9014-2.472A6.31,6.31,0,0,0,79.2,23.3822a3.8042,3.8042,0,0,0-.6363-1.7946,2.5623,2.5623,0,0,0-1.72-1.0217,2.891,2.891,0,0,0-1.45.2213,4.3131,4.3131,0,0,0-1.4945,1.0805,3.3037,3.3037,0,0,0-.42.537s.2417-.0152.6635-.0422a9.0842,9.0842,0,0,1,1.55,0,1.4589,1.4589,0,0,1,.6971.1974.4534.4534,0,0,1,.2113.314,2.6961,2.6961,0,0,1,.1318.6452,7.3308,7.3308,0,0,1-.0018,1.0923,13.441,13.441,0,0,1-.5,2.2555l-.0014.0052a22.7879,22.7879,0,0,0-4.23,1.3A22.7569,22.7569,0,0,0,67.772,26.87l-.0017-.0052a13.4771,13.4771,0,0,1-.5017-2.2555,7.2821,7.2821,0,0,1-.0014-1.0923,2.7047,2.7047,0,0,1,.1331-.6435.4507.4507,0,0,1,.213-.314,1.468,1.468,0,0,1,.6988-.1974,9.0792,9.0792,0,0,1,1.55,0c.4239.027.6653.0422.6653.0422a3.2582,3.2582,0,0,0-.42-.537,4.3335,4.3335,0,0,0-1.4958-1.0805,2.9018,2.9018,0,0,0-1.4485-.2227A2.5616,2.5616,0,0,0,65.44,21.5824a3.8037,3.8037,0,0,0-.6414,1.7981,6.264,6.264,0,0,0,.0674,1.57,8.6022,8.6022,0,0,0,.9036,2.47c-4.7327,2.6607-4.7849,8.4535-4.7849,12.4212,0,4.6818,3.1773,8.1683,5.6593,13.0375-2.0445,1.7372-3.5389,3.9321-3.5389,6.4259,0,6.0846.5742,11.3794.142,15.4112-1.3845,12.8787-7.689,20.01-8.2934,31.6533C53.9,126.7112,64.9018,143.98,72,144,79.0973,143.98,90.0987,126.7112,89.0452,106.37Z"/></svg>