<svg id="Layer_1" data-name="Layer 1" xmlns="http://www.w3.org/2000/svg" viewBox="0 0 144 144"><path d="M19.43,33.8319c2.2476,2.0974,4.1969,4.5148,6.3021,6.7551l6.1912,6.8341.2537.2783.515.2706a102.3,102.3,0,0,0,9.5347,4.4771c.2672.1162.5547.2105.8307.3195a63.6694,63.6694,0,0,1,3.8759-5.7855c-.0828-.0223-.1636-.0412-.2445-.06-.7783-.1917-1.56-.3572-2.3438-.6051-3.0448-.8457-6.1385-1.9435-9.099-3.0937l-6.503-5.7516c-2.3007-2.1086-4.7554-4.0333-6.911-6.2851a.63.63,0,0,0-.0716-.0678,1.7868,1.7868,0,1,0-2.4378,2.6129Z"/><path d="M87.2872,3.44l.1521.06c1.0432.4362,2.1183.8045,3.1426,1.2857,1.0227.4889,2.062.9473,3.0413,1.5224a40.053,40.053,0,0,1,5.61,3.8458,35.7914,35.7914,0,0,1,4.8643,4.7512c.7422.8534,1.4358,1.748,2.1014,2.6541.5262.7441,1.0412,1.5336,1.4789,2.2819-.2576,2.03-1.7515,4.2627-3.3982,6.2062a47.69,47.69,0,0,1-6.0784,5.8263,97.3159,97.3159,0,0,1-9.0482,6.4657,55.0288,55.0288,0,0,1,4.4282,4.3871c2.7011-2.3231,5.3663-4.7027,7.915-7.229a62.1865,62.1865,0,0,0,6.0615-6.8714c1.7572-2.5263,3.6537-5.3,3.7365-9.146l.0092-.4584-.2179-.3761a32.0525,32.0525,0,0,0-2.1332-3.1349c-.7595-.9661-1.5413-1.9135-2.372-2.8119a51.8331,51.8331,0,0,0-5.3286-5.0145,46.2444,46.2444,0,0,0-5.9995-4.18c-1.0243-.669-2.1163-1.2141-3.1972-1.793-1.0805-.5713-2.22-1.0262-3.33-1.5413-.0208-.0111-.0489-.0223-.07-.0339A1.7882,1.7882,0,0,0,87.2872,3.44Z"/><path d="M99.6582,46.3121c-.7838.2517-1.5636.4172-2.3435.6089-.0809.0189-.1636.0378-.2444.06a63.7478,63.7478,0,0,1,3.8754,5.7855c.2764-.109.5659-.1994.8326-.3195a102.2493,102.2493,0,0,0,9.5332-4.4771l.5151-.2706.2536-.2783,6.1912-6.8341c2.1052-2.24,4.0541-4.6577,6.3021-6.7551l.1128-.1051c.0227-.0227.045-.0416.0658-.0639a1.7886,1.7886,0,0,0-2.5805-2.4774c-2.156,2.2518-4.6127,4.1765-6.9111,6.2851l-6.5053,5.7516C105.797,44.3724,102.7033,45.47,99.6582,46.3121Z"/><path d="M36.4437,28.63a62.4507,62.4507,0,0,0,6.0615,6.8676c2.5487,2.5263,5.2139,4.9059,7.9165,7.2251A55.93,55.93,0,0,1,54.848,38.339,98.32,98.32,0,0,1,45.8,31.8733a47.716,47.716,0,0,1-6.0784-5.8263c-1.6463-1.9435-3.1406-4.1765-3.3982-6.2062.4381-.7483.9532-1.5378,1.4793-2.2819.6656-.9061,1.3588-1.8007,2.1014-2.6541a35.7684,35.7684,0,0,1,4.8643-4.7512,40.053,40.053,0,0,1,5.61-3.8458c.9793-.5751,2.0186-1.0335,3.0409-1.5224,1.0243-.4812,2.0995-.8495,3.1426-1.2857l.16-.0639c.0207-.0073.0415-.0184.0623-.0261a1.7869,1.7869,0,1,0-1.5074-3.24c-1.1109.5151-2.25.97-3.3307,1.5413-1.0806.5789-2.1726,1.124-3.1969,1.793a46.2171,46.2171,0,0,0-6,4.18,51.792,51.792,0,0,0-5.3286,5.0145c-.8307.8984-1.6129,1.8458-2.372,2.8119a32,32,0,0,0-2.1333,3.1349l-.2182.3761.01.4584C32.79,23.3252,34.6861,26.0994,36.4437,28.63Z"/><path d="M142.0174,42.8423a1.7561,1.7561,0,0,0-2.402-.6313l-.4565.2706-2.5525,1.4924c-.8626.4885-1.6428,1.0112-2.5582,1.4774l-5.5746,2.7665c-3.5937,1.7445-7.2551,3.4358-10.9,5.0787-3.7249.6279-7.533,1.1691-11.27,1.5448-1.3626.1616-2.6914.2255-4.0221.301a72.54,72.54,0,0,1,3.1688,6.6158c.5978-.0978,1.2256-.169,1.8157-.29,3.9921-.7479,7.8583-1.6352,11.7734-2.6464l.4473-.1166.2067-.1128c3.6992-2.0559,7.3434-4.1311,10.9821-6.2963l5.4264-3.2931c.9061-.56,1.8268-1.27,2.7291-1.9019l2.6992-1.9509A1.7586,1.7586,0,0,0,142.0174,42.8423Z"/><path d="M126.7518,85.8841c-.0658-.3573-.0939-.395-.1428-.609l-.0338-.1278-.1317-.3872-.1143-.2783a30.5088,30.5088,0,0,0-2.03-4.3116c-3.21-5.5334-8.097-9.1421-12.1307-11.5179-1.8777-1.0825-3.5937-1.9659-5.1462-2.7292a75.0129,75.0129,0,0,1,2.74,10.1121,24.5005,24.5005,0,0,1,8.6744,7.7213,23.7579,23.7579,0,0,1,1.699,3.1988l.1013.2106.0077.015a2.227,2.227,0,0,1,.1109.4022c-.0077.0751.0338.139.06.4924a16.2332,16.2332,0,0,1,.1,1.8419,67.7354,67.7354,0,0,1-.547,8.3452,117.6917,117.6917,0,0,1-7.7775,30.5389,51.4664,51.4664,0,0,1-4.8324,9.0031,28.4438,28.4438,0,0,1-2.34,2.9771,1.9043,1.9043,0,0,0,2.6933,2.6914l.062-.06a31.9968,31.9968,0,0,0,2.8158-3.2441,55.7493,55.7493,0,0,0,5.7043-9.4917,122.9165,122.9165,0,0,0,9.6609-31.5538,73.9256,73.9256,0,0,0,1.0243-9.1271,22.8878,22.8878,0,0,0-.0188-2.4771A10.831,10.831,0,0,0,126.7518,85.8841Z"/><path d="M36.6427,137.8046a51.6043,51.6043,0,0,1-4.832-9.0031,117.8282,117.8282,0,0,1-7.7775-30.5389,68.0184,68.0184,0,0,1-.547-8.3414,17.1891,17.1891,0,0,1,.0993-1.8457c.0285-.3534.07-.4173.0605-.4924a2.3892,2.3892,0,0,1,.1127-.4022l.0074-.015.1016-.2106a23.6567,23.6567,0,0,1,1.6991-3.1988,24.4656,24.4656,0,0,1,8.674-7.7213,75.2078,75.2078,0,0,1,2.7384-10.1121c-1.5525.7633-3.2666,1.6467-5.1462,2.7292-4.0313,2.3758-8.92,5.9845-12.13,11.5179a30.5659,30.5659,0,0,0-2.03,4.3154l-.1128.2783-.1316.38-.0339.1316c-.0485.214-.077.2517-.1428.609a10.8809,10.8809,0,0,0-.2086,1.6351,23.295,23.295,0,0,0-.02,2.4771,73.7079,73.7079,0,0,0,1.0262,9.1271,122.7637,122.7637,0,0,0,9.6606,31.5538,55.7516,55.7516,0,0,0,5.7027,9.4917,32.0325,32.0325,0,0,0,2.8154,3.2441l.0658.0639a1.9044,1.9044,0,0,0,2.69-2.6952A28.4438,28.4438,0,0,1,36.6427,137.8046Z"/><path d="M24.5144,58.7057l.4472.1166c3.9152,1.0112,7.7814,1.8985,11.7735,2.6464.59.12,1.2179.1917,1.8173.2933a71.1537,71.1537,0,0,1,3.1691-6.62c-1.3307-.0755-2.6614-.1394-4.0225-.301-3.7381-.3757-7.5481-.9169-11.2715-1.5448-3.6446-1.6429-7.3056-3.3342-10.8993-5.0787L9.9551,45.4514c-.9172-.4662-1.6971-.9889-2.56-1.4774L4.8429,42.4778l-.4623-.2706a1.7581,1.7581,0,0,0-1.91,2.947L5.17,47.1016c.9019.6316,1.823,1.3418,2.7287,1.9019l5.4264,3.2931c3.6387,2.1652,7.2833,4.24,10.9821,6.2963Z"/><path d="M85.5485,40.057A19.1994,19.1994,0,0,1,74.86,43.8162c-.4777-.03-.957-.0716-1.4285-.1278-.4739.0562-.9512.0978-1.43.1278-.4773-.03-.955-.0716-1.4285-.1278-.4738.0562-.9511.0978-1.43.1278A19.19,19.19,0,0,1,58.4548,40.057C44.4391,51.7176,36.483,71.4792,36.483,89.35c0,23.72,10.7268,44,35.5179,44s35.5175-20.28,35.5175-44C107.5184,71.4792,99.5642,51.7176,85.5485,40.057Z"/><path d="M71.7657,41.1771c.0793,0,.16,0,.2352-.0035.077.0035.1578.0035.2387.0035,4.9074,0,10.7545-2.4847,10.7545-5.5407a2.5014,2.5014,0,0,0-1.0616-2.1729,5.7572,5.7572,0,0,0,.3364-1.808c0-4.8906-3.233-14.01-8.0335-15.3033.1394,4.2215,2.3084,10.3111.9589,16.2429-1.079.0677-2.1633.1655-3.1934.3045-1.03-.139-2.1144-.2368-3.1934-.3045-1.35-5.9318.8215-12.0214.96-16.2429-4.8024,1.293-8.0331,10.4127-8.0331,15.3033a5.7663,5.7663,0,0,0,.3364,1.808,2.4976,2.4976,0,0,0-1.0639,2.1729C61.0073,38.6924,66.8567,41.1771,71.7657,41.1771Z"/></svg>