<svg id="Layer_1" data-name="Layer 1" xmlns="http://www.w3.org/2000/svg" viewBox="0 0 144 144"><path d="M82.975,36.3232c.6954-1.1708,1.4767-2.29,2.2056-3.4455.9153-1.501,2.1254-2.7707,3.1771-4.1767,1.1077-1.3571,2.3736-2.5878,3.5539-3.893l3.8708-3.649c2.67-2.3568,5.3994-4.6781,8.1515-6.9826l.2741-.2291.03-.3207c.31-3.276.5632-6.5576.9661-9.8225l.0015-.013a.672.672,0,1,0-1.3368-.14c-.33,3.1545-.7962,6.2926-1.2193,9.4364-2.778,2.0994-5.5449,4.2191-8.2878,6.4063l-4.145,3.5352c-1.2937,1.2884-2.668,2.5023-3.8983,3.8632-1.175,1.406-2.5153,2.6963-3.5539,4.2119-1.0181,1.4415-2.1537,2.8062-3.0541,4.3371C80.6854,35.6557,81.81,35.9467,82.975,36.3232Z"/><path d="M39.39,13.9473l.2742.2291c2.752,2.3045,5.4815,4.6258,8.1515,6.9826l3.8689,3.649c1.1822,1.3052,2.4481,2.5359,3.5558,3.893,1.05,1.406,2.2617,2.6757,3.177,4.1767.7516,1.1933,1.5645,2.3473,2.2728,3.5612,1.1544-.3861,2.2637-.6881,3.2538-.9138-.91-1.5679-2.0734-2.9513-3.11-4.4207-1.0382-1.5156-2.3808-2.8059-3.5535-4.2119-1.2307-1.3609-2.605-2.5748-3.8987-3.8632l-4.1451-3.5352c-2.7424-2.1872-5.51-4.3069-8.2877-6.4063-.4231-3.1438-.8932-6.2819-1.225-9.4364l-.0019-.013a.6717.6717,0,1,0-1.3331.1657c.4048,3.2649.66,6.5465.9715,9.8225Z"/><path d="M31.928,38.7006l1.5866,8.6456a1.8194,1.8194,0,0,0,.8653,1.2345l.1008.06,9.8782,5.7744a27.3267,27.3267,0,0,1,4.0774-3.0484L37.0724,45.6141l-1.9375-7.857-.026-.1024a1.3618,1.3618,0,0,0-.1993-.4456l-3.2687-4.7808a1.4881,1.4881,0,0,0-2.5057,1.6034Z"/><path d="M99.6418,54.4147,109.52,48.64l.1065-.0634a1.8016,1.8016,0,0,0,.86-1.2307l1.5866-8.6456,2.7929-4.6689a1.4881,1.4881,0,0,0-2.5058-1.6034l-3.2686,4.7808a1.4282,1.4282,0,0,0-.2012.451l-.0245.097-1.9371,7.857L95.5625,51.3663A27.43,27.43,0,0,1,99.6418,54.4147Z"/><path d="M122.2082,87.29l-.12-.08L108.694,78.2282c.1883,2.3717.3078,4.7847.3525,7.2159l8.9384,5.3082-3.686,34.4283-.01.1008a1.3883,1.3883,0,0,0,.36,1.0891l5.9291,6.4846a1.2135,1.2135,0,0,0,1.8459-1.5736l-5.0138-6.3113,5.8527-35.2379A2.4578,2.4578,0,0,0,122.2082,87.29Z"/><path d="M142.2666,62.7773l-6.9753,2.5355-18.8464-7.8811a2.1956,2.1956,0,0,0-1.7489.0279l-.23.1042-9.2328,4.21a26.555,26.555,0,0,1,1.9948,5.763l8.6982-5.0974,18.8541,5.7129.0932.0279a1.3289,1.3289,0,0,0,.8855-.0374l7.4244-2.95a1.2924,1.2924,0,0,0-.9173-2.4163Z"/><path d="M36.7722,67.5371a26.4385,26.4385,0,0,1,1.9948-5.763l-9.2332-4.21-.2367-.108a2.18,2.18,0,0,0-1.7413-.0241L8.709,65.3128,1.7341,62.7773a1.2925,1.2925,0,0,0-.9176,2.4163l7.4248,2.95a1.3413,1.3413,0,0,0,.8855.0374l.0931-.0279L28.074,62.44Z"/><path d="M26.012,90.7523l8.9422-5.3082c.0447-2.4332.1638-4.8442.3525-7.2159L21.91,87.21l-.1233.0821a2.4585,2.4585,0,0,0-1.0517,2.44L26.5882,124.97l-5.0137,6.3113a1.2135,1.2135,0,0,0,1.8458,1.5736l5.9291-6.4846a1.4058,1.4058,0,0,0,.36-1.0948l-.0092-.0951Z"/><path d="M71.79,56.24l16.1054-5.4853c.5446-2.1739.593-4.8755-.3895-6.4025-1.7282-2.6982-8.31-4.4544-11.5526-4.7828l-.2108-1.1933c0-1.2994-2.34-2.9273-3.7437-3.08-1.4021.1527-3.7421,1.7806-3.7421,3.08l-.207,1.1933c-3.2461.3284-9.8281,2.0846-11.5564,4.7828-1.0272,1.5995-.9153,4.4634-.2963,6.6858Z"/><path d="M103.2721,69.3814c-2.7765-10.2382-9.61-14.2973-13.4172-15.8076l-17.5282,5.97a1.664,1.664,0,0,1-1.0536.0038L53.7915,53.7155c-3.8652,1.6221-10.3742,5.7465-13.0629,15.6659-4.4787,16.5343-1.7,39.1065,8.9125,56.0046,4.32,6.8837,15.1978,10.5194,17.4519,12.3206a32.87,32.87,0,0,0,4.5662,3.2442,32.6725,32.6725,0,0,0,4.5662-3.2442C78.48,135.9054,90.0378,132.27,94.36,125.386,104.9706,108.4879,107.7524,85.9157,103.2721,69.3814Z"/></svg>