<svg id="Layer_1" data-name="Layer 1" xmlns="http://www.w3.org/2000/svg" viewBox="0 0 144 144"><path d="M37.9661,70.5737l61.8322-3.35c4.9138-.2416,8.7841-4.9664,8.6175-11.3076-.1645-6.1849-4.0611-10.3333-8.8042-10.3333l-29.4786.6924A58.23,58.23,0,0,1,80.4844,41.497L110.43,39.3428,126.3,59.6659c2.6113,3.0741,7.198,3.5147,9.9555-1.6975,7.7626.52,8.851-7.7322,6.9-10.3759-6.54-8.8448-25.9355-33.9071-25.9355-33.9071a5.2515,5.2515,0,0,0-4.3492-2.2518l-39.5966-.1827a55.316,55.316,0,0,0-8.8955,1.1656c-4.4834,1.2263-20.1586,6.5483-31.7852,7.0192L13.0885,18.2013,0,50.9733,25.6856,66.1085C30.4734,69.469,34.3233,70.5737,37.9661,70.5737Z"/><path d="M76.9878,85.53a85.363,85.363,0,0,0-21.2592,33.3791c-.1969-12.9261.9667-30.7048,7.0216-46.6807,0,0-18.01,12.4936-20.2784,48.1428-5.7443-19.4257-19.7832-32.4532-19.7832-32.4532,5.8742,10.388,9.1068,34.6177,10.2479,44.831h31.895C66.9735,118.8566,71.2294,95.63,76.9878,85.53Z"/><path d="M125.46,85.53a75.4731,75.4731,0,0,0-20.794,30.7335,80.2146,80.2146,0,0,0-21.2736-41.27c6.319,14.0347,7.3159,45.9642,7.4642,57.7552h22.447C115.4473,118.8566,119.7033,95.63,125.46,85.53Z"/><path d="M139.08,102.174s-15.6733,11.19-19.6083,30.5751h12.8916C133.0639,122.8038,134.7959,108.5741,139.08,102.174Z"/><path d="M82.9982,107.1488a49.9788,49.9788,0,0,0-15.3972,25.6H79.0955C79.0712,124.2171,79.7047,112.5539,82.9982,107.1488Z"/><path d="M8.9015,105.0858c4.0957,5.9615,6.4348,18.5932,7.647,27.6633H27.775C22.76,115.7519,8.9015,105.0858,8.9015,105.0858Z"/></svg>