<svg id="Layer_1" data-name="Layer 1" xmlns="http://www.w3.org/2000/svg" viewBox="0 0 144 144"><path d="M139.2884,112.8956S99.1272,59.4364,78.1163,57.5789a17.6613,17.6613,0,0,0-2.0084-8.5929,5.3839,5.3839,0,0,0-1.7192-1.6815c2.5521-7.9109,10.2367-24.32,32.1874-37.3357,0,0,.7952-2.6589-3.4573,0-4.0042,2.5144-24.0156,12.0754-29.1356,37.122a4.9093,4.9093,0,0,0-3.869-.0409C64.9817,22.0317,44.9891,12.4769,40.9881,9.9626c-4.2557-2.659-3.4573,0-3.4573,0,21.9066,12.99,29.6038,29.3587,32.1717,37.2853C65.6889,49.5014,65.8837,57.57,65.8837,57.57,44.8728,59.43,4.7116,112.8862,4.7116,112.8862s-12.7637,14.6275,3.7245,20.2849,36.9679-2.2,36.9679-2.2l9.0424,1.8607c9.0424,1.8606,8.7784-4.52,8.7784-4.52,0-7.7129,2.1278-26.332,2.1278-26.332,0,25.2666,6.6474,22.5824,6.6474,22.5824s6.6506,2.6842,6.6506-22.5824c0,0,2.1278,18.6191,2.1278,26.332,0,0-.2672,6.38,8.7752,4.52l9.0424-1.8607s20.48,7.8575,36.9679,2.2S139.2884,112.8956,139.2884,112.8956Z"/></svg>