<svg id="Layer_1" data-name="Layer 1" xmlns="http://www.w3.org/2000/svg" viewBox="0 0 144 144"><path d="M42.7689,1.517c.695,2.2575,1.3629,4.547,1.8928,6.8453.2642,1.1245.552,2.3408.724,3.3851a11.6921,11.6921,0,0,1,.2317,1.6663l.0359.4446c.005.0359.0185.2369.0137.1364l-.0087.2229-.0308.8946c-.136,4.7975-.3848,9.4928-.6217,14.1437l-.0443.84.5366.6371C48.723,34.573,51.9927,38.4692,55.1,42.35c1.5537,1.9543,3.1364,3.8572,4.6663,5.847l.6183.828a24.2667,24.2667,0,0,1,1.5418-5.8282q-1.64-1.8882-3.2759-3.7769c-3.22-3.6953-6.4534-7.2406-9.7261-10.8252-.1483-4.5589-.305-9.0856-.5625-13.5115l-.0457-.8964-.0411-.5331-.0527-.4445a15.1685,15.1685,0,0,0-.32-1.8674c-.2659-1.3014-.5775-2.3987-.8995-3.5861L44.9733.8321,44.97.815a1.1553,1.1553,0,0,0-2.2079.6814Z"/><path d="M83.6139,49.0286l.62-.8315c1.53-1.99,3.1126-3.8927,4.6663-5.847,3.1073-3.8809,6.3766-7.7771,9.6016-11.6172l.5366-.6371-.044-.84c-.2369-4.6509-.4857-9.3462-.6221-14.1437l-.0307-.8946-.0084-.2229c-.0052.1005.0084-.1005.0137-.1364l.0359-.4446a11.6921,11.6921,0,0,1,.2317-1.6663c.172-1.0443.46-2.2606.7239-3.3851.53-2.2983,1.1975-4.5878,1.8929-6.8453L101.24,1.49l.0034-.0087a1.1548,1.1548,0,1,0-2.2166-.649L96.998,7.7558c-.322,1.1874-.6339,2.2847-.9,3.5861a15.1685,15.1685,0,0,0-.32,1.8674l-.053.4445-.0408.5331-.0461.8964c-.2571,4.4259-.4138,8.9526-.5621,13.5115C91.8035,32.1794,88.57,35.7247,85.35,39.42q-1.6356,1.8883-3.2777,3.7787A24.1564,24.1564,0,0,1,83.6139,49.0286Z"/><path d="M32.5982,72.2715l.4037-.4243c1.8859-1.9828,3.748-3.9626,5.7891-5.8571,1.7819-1.7345,3.6475-3.4141,5.4943-5.0836l5.9813.0254c1.6015-1.5571,3.3035-3.1178,5.1248-4.6882l-11.9445.6147L42.6,56.901l-.4958.5112c-1.9745,2.0275-3.9252,4.0239-5.8215,6.1212-1.8178,1.9148-3.5453,3.9831-5.2644,6.0445L17.2634,73.03a1.132,1.132,0,0,0,.4975,2.2079l14.4166-2.8809Z"/><path d="M53.8649,115.2225c1.0614,5.9694,2.0561,11.5712,2.8876,16.2493a26.9361,26.9361,0,0,1-2.0579,4.2386c-.8126,1.4141-1.5216,2.6475-2.1056,3.6628-1.186,2.0376-1.8639,3.203-1.8639,3.203a.9577.9577,0,0,0,.32,1.2812.9467.9467,0,0,0,1.3049-.3067l1.98-3.1144c.6287-1.0017,1.3918-2.218,2.2658-3.6115.426-.7156.8894-1.4585,1.3458-2.2965a7.5526,7.5526,0,0,0,1.2079-3.3632c-.7477-5.4175-1.6643-12.0652-2.6339-19.0978A33.44,33.44,0,0,1,53.8649,115.2225Z"/><path d="M126.7369,73.03l-13.7554-3.4517c-1.7187-2.0614-3.4465-4.13-5.264-6.0445-1.8963-2.0973-3.847-4.0937-5.8215-6.1212L101.4,56.901l-.8468-.0426-11.9442-.6147c1.8213,1.57,3.5233,3.1311,5.1244,4.6882l5.9817-.0254c1.8468,1.6695,3.7124,3.3491,5.4943,5.0836,2.0411,1.8945,3.9032,3.8743,5.7891,5.8571l.4037.4243.4207.0851,14.4162,2.8809a1.132,1.132,0,0,0,.4976-2.2079Z"/><path d="M91.4116,139.3732c-.5844-1.0153-1.293-2.2487-2.1056-3.6628a26.89,26.89,0,0,1-2.0578-4.2386c.831-4.6781,1.8261-10.28,2.8875-16.2493a33.4871,33.4871,0,0,1-2.651-3.1552c-.9693,7.0326-1.8859,13.68-2.6339,19.0978a7.56,7.56,0,0,0,1.2079,3.3632c.4567.838.92,1.5809,1.3461,2.2965.874,1.3935,1.6371,2.61,2.2658,3.6115l1.98,3.1144a.9582.9582,0,0,0,1.2826.32.9486.9486,0,0,0,.3426-1.2948S92.5976,141.4108,91.4116,139.3732Z"/><path d="M81.309,94.908c-1.7138-15.3227-2.8213-24.8392-3.3921-30.94a18.8262,18.8262,0,0,0-5.9185-2.3168,18.8416,18.8416,0,0,0-5.9133,2.3151c-.5722,6.101-1.68,15.6157-3.3935,30.9419l-.1772,1.5809a31.84,31.84,0,0,1-1.1926,5.8369c2.5418,8.0856,6.3274,14.6377,10.6783,14.6377s8.1352-6.5521,10.6787-14.6412a31.66,31.66,0,0,1-1.1926-5.8334Z"/><path d="M80.89,54.02c-1.2575-.9759,3.5146,40.5334,3.68,42.1554,2.0223,19.6363,22.132,27.04,24.9515,25.7184,5.5745-2.6168,5.2423-19.684,2.7414-26.6283C107.1739,81.1526,99.4836,68.4691,80.89,54.02Z"/><path d="M63.1107,54.02C44.517,68.4691,36.8267,81.1526,31.7378,95.2656c-2.5009,6.9443-2.8331,24.0115,2.7411,26.6283,2.8195,1.322,22.9295-6.0821,24.9518-25.7184C59.5961,94.5535,64.3678,53.0442,63.1107,54.02Z"/><path d="M67.218,39.5086a10.3464,10.3464,0,0,1,1.8178,1.143c-3.3509.5893-4.8739,5.6935-5.3459,10.1676.2588.0307.4839.06,1.1293.1395,1.4089,1.8161,2.0035,2.6511,1.6116,8.7482a14.39,14.39,0,0,1,11.1711.484c-.4568-6.5473.1329-7.3683,1.5791-9.2322l1.128-.1395c-.4616-4.3736-1.927-9.3532-5.1247-10.1267a10.6816,10.6816,0,0,1,1.874-1.1839c5.5539-2.5386,6.6767-3.8282,6.6767-9.13,0,0,2.3017-3.4535-6.4158-5.5846-5.1673-1.2624-2.9371-4.06-4.6272-3.92a1.3506,1.3506,0,0,0-.5537.0837,1.3506,1.3506,0,0,0-.5537-.0837c-1.69-.14.54,2.6579-4.6272,3.92-8.7175,2.1311-6.4158,5.5846-6.4158,5.5846C60.5416,35.68,61.6641,36.97,67.218,39.5086Z"/></svg>