<svg id="Layer_1" data-name="Layer 1" xmlns="http://www.w3.org/2000/svg" viewBox="0 0 144 144"><path d="M110.0647,96.9248c2.5248-16.4334,7.5813-43.91,14.3838-55.86a100.8517,100.8517,0,0,0-24.2708,37.08c.2259-18.1121,2.1069-43.0267,9.5128-62.5782,0,0-23.1246,22.7033-26.0371,66.8458a94.6444,94.6444,0,0,0-23.4416-38.53c6.9509,12.2905,10.787,40.9537,12.1354,53.0351Zm8.0734-19.1335q-.8629,4.3182-1.6854,9.0274a9.0344,9.0344,0,0,1,4.9384,7.0115c0,7.4667-15.1221,13.5209-33.7769,13.5209s-33.78-6.0677-33.78-13.5209c0-4.1563,4.6991-7.8711,12.0713-10.3521-.6506-4.3081-1.3483-8.3735-2.0967-12.1557C27.8979,72.9439,0,85.0624,0,99.78c0,15.8232,32.2363,28.653,72,28.653s72-12.8265,72-28.653C144,90.9447,133.9411,83.0466,118.1381,77.7913Z"/></svg>