<svg id="Bats" xmlns="http://www.w3.org/2000/svg" viewBox="0 0 27.86 27.8"><path class="cls-1" d="M5.31,22.79v.78s.07.29-.29.39l-.36.16s.63,2.45-2.79,3.68a5.11,5.11,0,0,0,4-3.68.89.89,0,0,1,.55-.59l.53-.28-1.3-.77Zm-1.64.34.15-.36c.1-.36.39-.29.39-.29H5l.32-.34-.79-1.29-.27.53a.89.89,0,0,1-.59.55,5.11,5.11,0,0,0-3.66,4C1.21,22.51,3.67,23.13,3.67,23.13ZM11,17s.58-.62.54-.77-.64.42-.64.42-.95.91-.59-1.71c0,0-1.91,0-5.6,5.11l1,1.93,1.89,1.1s5-3.45,5.21-5.65C12.86,17.45,10.43,17.79,11,17Zm3.46-5.55a1,1,0,0,0-.23,1.14s.73,1,1.22,1,.71-.23,1.05-.58a.89.89,0,0,0,.16-.86l-1.09-1.08A1.14,1.14,0,0,0,14.47,11.47Zm2.66.59s1-.21,1-.83-.79-1.29-.79-1.29-.75-.59-1.19-.13a2.19,2.19,0,0,0-.53.86,4.78,4.78,0,0,1,.73.57c.27.28.57.56.57.56S17.13,12,17.13,12.06Zm-3.54.09s-3,1-2.81,4c0,0,.75-.6,1.19-.37,0,0,.44.23-.36,1.27,0,0,2.59.5,4-2.88C15.65,14.15,14.11,14.26,13.59,12.15Zm5.46,1.53a.23.23,0,0,0,.11,0L21,12.79a.27.27,0,0,0,.13-.35.26.26,0,0,0-.34-.13L19,13.15l-1.73-.23a1.15,1.15,0,0,1-.25.49l2,.26ZM14.31,10.8a1.8,1.8,0,0,1,.5-.25l-.15-1.89.78-1.61A.26.26,0,0,0,15,6.82l-.81,1.67a.23.23,0,0,0,0,.14l.17,2.15ZM16.16,4a4,4,0,0,0,0,1.87L16.76,9a2.12,2.12,0,0,1,1,.44h0l.07.06.39-.12a.26.26,0,1,0-.15-.49l-.78.22-.62-3.39v0a3.44,3.44,0,0,1,0-1.61c.24-1-.66-3.63-.76-3.93A.27.27,0,0,0,15.58,0a.26.26,0,0,0-.16.33s.24.72.46,1.53A5,5,0,0,1,16.16,4ZM27.68,11.9c-.3-.1-3-1-3.94-.72a3.6,3.6,0,0,1-1.62,0h0l-3.39-.59.22-.79a.26.26,0,1,0-.5-.14l-.11.38a2,2,0,0,1,.47,1.09l3.21.56a4,4,0,0,0,1.88,0A5.06,5.06,0,0,1,26,12c.81.21,1.53.44,1.53.45h.09a.26.26,0,0,0,.24-.18A.26.26,0,0,0,27.68,11.9ZM10.24,7.13,11,9.29a.09.09,0,0,0,0,.06l1.71,2.49c.2-.11.37-.18.48-.23L11.49,9.08,10.72,6.9a.24.24,0,0,0-.06-.08L9.3,5.33a.27.27,0,0,0-.37,0,.26.26,0,0,0,0,.37Zm11,10.17-.07-.05-2.51-1-2.46-1.73h0c-.08.17-.15.32-.23.47l2.41,1.71.06,0,2.49,1,1.2,1.06a.23.23,0,0,0,.17.07.28.28,0,0,0,.2-.09.25.25,0,0,0,0-.36ZM14.29,17v-.07a6.08,6.08,0,0,1-.57.34l-.37,2.2v.07l.42,4.63a.26.26,0,0,0,.26.24h0a.27.27,0,0,0,.24-.29l-.42-4.6ZM3.48,14l4.87.56h.08l2.1-.44a4,4,0,0,1,.33-.57h-.11L8.36,14l-4.82-.55a.26.26,0,0,0-.29.22A.25.25,0,0,0,3.48,14Z"/></svg>