<svg id="Layer_1" data-name="Layer 1" xmlns="http://www.w3.org/2000/svg" viewBox="0 0 144 144"><path d="M49.8176,11.0418a.827.827,0,0,1,1.031-.5466l.019.0062s.4363.1457,1.1989.398c.3832.1247.8467.2766,1.3789.4491a5.7634,5.7634,0,0,1,1.718.7305c.5947.3466,1.24.7224,1.9225,1.12a13.6688,13.6688,0,0,1,1.9308,1.5278,11.6476,11.6476,0,0,1,1.8843,1.83c.57.6841,1.1776,1.3665,1.734,2.081A43.5988,43.5988,0,0,1,65.3886,23.13c.8244,1.4607,1.4493,2.8815,2.007,4.0945-.2458.0992-.5289.1535-.7574.275a4.5843,4.5843,0,0,0-1.5118.5371c-.4729-1.1669-.9989-2.5222-1.699-3.906a41.9716,41.9716,0,0,0-2.405-4.3711c-.5083-.6681-1.015-1.3361-1.5151-1.9943a10.3053,10.3053,0,0,0-1.6509-1.755,9.5484,9.5484,0,0,0-1.7085-1.4558c-.612-.3659-1.19-.71-1.7242-1.029A11.6456,11.6456,0,0,0,51.63,12.4577c-.6923-.2111-1.0886-.3325-1.0886-.3325l-.1758-.0527A.8274.8274,0,0,1,49.8176,11.0418Z"/><path d="M77.2594,27.5a4.6377,4.6377,0,0,1,1.5118.5371c.4733-1.1685.999-2.5235,1.7007-3.9077a41.6344,41.6344,0,0,1,2.405-4.3708c.5083-.668,1.0166-1.336,1.5167-1.9945a10.2884,10.2884,0,0,1,1.6509-1.7547,9.5377,9.5377,0,0,1,1.71-1.4561c.612-.3643,1.19-.71,1.7242-1.0274a11.6706,11.6706,0,0,1,2.7935-1.0677c.6935-.2111,1.09-.3325,1.09-.3325l.179-.0544.0161-.0045a.8247.8247,0,1,0-.5211-1.5649s-.4363.1457-1.2.398c-.382.1247-.8454.2766-1.3776.4491a5.7778,5.7778,0,0,0-1.72.7305c-.5944.3466-1.24.7207-1.9226,1.1187a13.8082,13.8082,0,0,0-1.93,1.5279A11.6571,11.6571,0,0,0,83,16.5552c-.5722.684-1.1777,1.3665-1.7354,2.0793a44.0206,44.0206,0,0,0-2.7552,4.4939c-.8248,1.4607-1.4512,2.8848-2.0073,4.0961A7.5954,7.5954,0,0,1,77.2594,27.5Z"/><path d="M36.52,24.124l4.446,2.3415,7.1915,16.3762a1.8212,1.8212,0,0,0,.6186.7528l.1165.0831,6.4246,4.4955a10.0316,10.0316,0,0,1,3.6759-3.2171l-7.39-4.5085-8.3154-15.59-.0478-.09a1.245,1.245,0,0,0-.5963-.5544l-5.082-2.244A1.1972,1.1972,0,0,0,36.52,24.124Z"/><path d="M84.9035,44.956a10.0372,10.0372,0,0,1,3.6773,3.2171l6.4246-4.4955.123-.0864a1.7858,1.7858,0,0,0,.6121-.7495l7.1917-16.3762,4.449-2.3415a1.1972,1.1972,0,0,0-1.0418-2.1543l-5.0852,2.244a1.2529,1.2529,0,0,0-.5977.5544l-.0465.09-8.315,15.59Z"/><path d="M103.3525,103.0326l.0432-18.7972a1.8548,1.8548,0,0,0-.6474-1.4048l-.0877-.0753L84.35,67.1542c-.6039.8264-1.2208,1.6542-1.7468,2.4914.6808.796,1.4319,1.5936,2.2057,2.4135A54.3578,54.3578,0,0,1,89.5126,77.55l9.9565,7.7828L100.8,103.7664l.0049.0844a1.218,1.218,0,0,0,.596.9541l4.8552,2.8688a1.1444,1.1444,0,0,0,1.2081-1.9432Z"/><path d="M54.39,77.5453a54.2617,54.2617,0,0,1,4.6987-5.4862c.77-.82,1.5213-1.6175,2.2054-2.4135-.529-.8389-1.1443-1.6682-1.7469-2.4947L41.2358,82.7553l-.0927.08a1.8419,1.8419,0,0,0-.6408,1.4l.0429,18.7972-4.11,2.6992a1.144,1.144,0,0,0,1.2114,1.94l4.85-2.8672a1.2293,1.2293,0,0,0,.5964-.96l.0045-.0782,1.3315-18.4333Z"/><path d="M118.31,88.2851l-3.348-1.2372L108.7,73.7961A137.6361,137.6361,0,0,1,87.4653,62.609c-.1168.1888-.2127.3852-.3341.5724l18.2381,12.7945,7.5351,12.69.0544.091a1.1735,1.1735,0,0,0,.6713.521l3.957,1.178a1.1443,1.1443,0,0,0,.7224-2.17Z"/><path d="M35.1787,73.8442,28.9365,87.0479l-3.3483,1.2372a1.1442,1.1442,0,0,0,.7223,2.17l3.9571-1.178a1.1666,1.1666,0,0,0,.6713-.5227l.0527-.0893,7.54-12.69L56.7649,63.1814c-.112-.1711-.1981-.3518-.3067-.5243A136.5031,136.5031,0,0,1,35.1787,73.8442Z"/><path d="M84.8571,80.0737H59.14a27.22,27.22,0,0,0-2.03,6.4806H86.9187A28.5114,28.5114,0,0,0,84.8571,80.0737Z"/><path d="M72.0145,133.538c.9717.09,3.3878-1.8267,6.0665-5.39H65.9159C68.5974,131.7113,71.0427,133.6276,72.0145,133.538Z"/><path d="M66.0661,70.0276c-1.1508,1.6509-2.298,3.0638-3.3882,4.5085h18.644c-1.09-1.4447-2.2374-2.8576-3.3879-4.5085,2.2086-4.77,6.6609-8.66,7.8372-12.8426,2.3955-8.5246-3.722-9.9739-11.08-10.9633.0272-.035.0878-.0736.0878-.1087,0-4.9988,7.5593-1.9736,9.1189-10.4088.3132-1.6954-1.3135-3.5509-5.5838-3.5509-1.9464,0-.4572-.903-2.3333-.8166-1.3681-1.1858-3.8579-.887-4.03-.8968-.1761.01-2.6658-.289-4.034.8968-1.8728-.0864-.3865.8166-2.3333.8166-4.27,0-5.897,1.8555-5.58,3.5509,1.5534,8.4352,9.1157,5.41,9.1157,10.4088,0,.04.0638.0832.0992.1231C61.89,47.2255,55.8458,48.702,58.2289,57.185,59.4049,61.3675,63.8575,65.2572,66.0661,70.0276Z"/><path d="M57.6983,110.59h28.6a51.4812,51.4812,0,0,0,1.18-6.479H56.522A52.0161,52.0161,0,0,0,57.6983,110.59Z"/><path d="M62.3519,122.61h19.296a49.8107,49.8107,0,0,0,2.9153-6.4821H59.437A49.3993,49.3993,0,0,0,62.3519,122.61Z"/><path d="M87.6251,92.0919h-31.25c-.1185,1.7674-.2079,3.741-.2079,5.9513v.5289H87.8329v-.5289C87.8329,95.8329,87.772,93.8593,87.6251,92.0919Z"/><path d="M123.1807,66.8171c-9.5938,0-27.06-5.301-37.2416-8.6876C97.18,65.684,111.45,72.5432,114.9949,72.5432c4.7547,0,13.4485-2.5025,15.5723-6.73A28.8107,28.8107,0,0,1,123.1807,66.8171Z"/><path d="M85.5617,53.3048c-2.1045-.0943-4.2748-.179-6.5378-.2605,1.9848,1.63,4.2605,3.289,6.6753,4.9206A9.9346,9.9346,0,0,0,85.5617,53.3048Z"/><path d="M79.0239,52.6208c2.6112-.95,32.9474-10.4056,45.56-10.4056,33.4236,0,17.4389,21.6565-1.4031,21.6565C109.7689,63.8717,79.0239,52.6208,79.0239,52.6208Z"/><path d="M58.2351,53.3143a9.7283,9.7283,0,0,0,.291,4.4955c2.3284-1.5822,4.5292-3.1883,6.45-4.7655C62.64,53.1291,60.4054,53.2184,58.2351,53.3143Z"/><path d="M20.8194,66.8171a28.8148,28.8148,0,0,1-7.3868-1.0038c2.1241,4.2274,10.8179,6.73,15.5726,6.73,3.5447,0,17.8143-6.8592,29.0541-14.4137C47.8744,61.5174,30.41,66.8171,20.8194,66.8171Z"/><path d="M64.9762,52.6208c-2.6145-.95-32.9474-10.4056-45.56-10.4056-33.4236,0-17.4393,21.6565,1.4031,21.6565C34.2309,63.8717,64.9762,52.6208,64.9762,52.6208Z"/></svg>