<svg id="Layer_1" data-name="Layer 1" xmlns="http://www.w3.org/2000/svg" viewBox="0 0 144 144"><path d="M70.2673,44.1943c-3.7143-.2655-7.3759-1.0677-9.3779-3.215C44.7853,60.53,50.33,124.364,69.1622,128.8954c.3046.0745.4959-1.9694,1.1051-4.9612Z"/><path d="M54.6928,41.0351c.5482.2606,1.1373.4485,1.6464.7566l.0932.054a25.7935,25.7935,0,0,1,3.0306-3.9849,6.3353,6.3353,0,0,1-.1521-.9832c0-.0627.0149-.132.0166-.1944l-.6616-.2776c-.7208-.3029-1.4755-.4585-2.21-.6872a18,18,0,0,0-2.2269-.506,20.9781,20.9781,0,0,0-2.247-.3281c-.2149-.0271-.4249-.0388-.6345-.0558l-1.4892-5.1626c-.6262-2.3776-1.52-4.6433-2.3028-6.9413l-.01-.0354a1.251,1.251,0,0,0-.46-.665c-1.1557-.8546-2.2387-1.7719-3.4773-2.5533l-3.621-2.4183a1.3635,1.3635,0,0,0-1.53,2.2575l.1726.1185,3.374,2.3215c1.0053.6463,1.951,1.433,2.9138,2.1829.4383,2.2065.9561,4.396,1.22,6.6076l1.022,6.9681A2.3525,2.3525,0,0,0,49.0818,39.48l.3587.061c.4855.088,1.1557.1861,1.7379.3483a16.3159,16.3159,0,0,1,1.7868.5076A13.2949,13.2949,0,0,1,54.6928,41.0351Zm-9.8565-17.493-.0018-.0035h.0018Z"/><path d="M41.98,59.3322a2.3227,2.3227,0,0,0-1.77,1.687l-2.2757,8.7534c-.7649,2.919-1.6347,5.7836-2.45,8.6842-.19.7544-.4672,1.35-.6956,2.037l-.7177,2.0068-.2807.7988-.0474.0035a10.2278,10.2278,0,0,1-2.0069-.0541,46.9831,46.9831,0,0,1-8.73-1.7667l-.0288-.01c-.017-.0035-.0322-.01-.0492-.0135a1,1,0,0,0-.4873,1.9389c2.9918.7548,5.8581,1.6721,8.9583,2.2609a12.5794,12.5794,0,0,0,2.5111.2606l.3687-.0135a2.8892,2.8892,0,0,0,.68-.1695,2.64,2.64,0,0,0,.5566-.2741l.1167-.0811L35.69,85.34l.0152-.01c.12-.1355-.2589.2977.2724-.3081l.0035-.0069.0169-.0336.52-1.08,1.0355-2.1725c.3251-.7243.7378-1.4822.98-2.1829,1.09-2.8393,2.2474-5.6806,3.2863-8.5368l2.54-7.0308,5.3673-.5988q.3987-3.0639.9731-5.8515l-8.6772,1.7968Z"/><path d="M50.652,136.7472l-.0034-.024-.0032-.0471-.02-.1864-.0371-.3757-.3081-3.0018c-.2166-1.9933-.3909-4.0643-.6938-5.963l-.8223-5.804C47.713,113.822,46.542,106.34,45.3828,98.8366a.3955.3955,0,0,1,.0627-.0846,4.7724,4.7724,0,0,1,.5718-.6733A19.2749,19.2749,0,0,1,47.86,96.4506c.5784-.4533,1.1911-.8969,1.8087-1.34-.2624-2.386-.4637-4.782-.6041-7.1576-.1067.0776-.2148.149-.3216.23-1.5684,1.181-3.13,2.4029-4.68,3.7767a23.99,23.99,0,0,0-2.3215,2.3419,9.534,9.534,0,0,0-1.1506,1.6212,5.6558,5.6558,0,0,0-.7919,2.7647,2.4469,2.4469,0,0,0,.0489.5147c1.6516,7.6008,3.3251,15.2255,4.8635,22.8437l1.1692,5.716c.4263,1.9323.6785,3.74,1.0067,5.6078l.4772,2.7883.0576.3386c-.0829.1625-.166.2776-.2218.2641-.0946.061-.0981.0745-.2166.22l-.46.5281c-1.2455,1.4112-2.6026,2.8192-3.9493,4.1933a1.3624,1.3624,0,0,0-.0475,1.8543,1.3447,1.3447,0,0,0,1.9019.095c1.4655-1.3235,2.9-2.64,4.3252-4.0647l.533-.5447a8.4286,8.4286,0,0,0,.7257-.8969,8.3394,8.3394,0,0,0,.5077-.7988l.0457-.0776.007-.01C50.7335,136.2564,50.6167,136.9738,50.652,136.7472Z"/><path d="M128.4915,39.5765a42.7513,42.7513,0,0,0-.7814-5.33,58.9981,58.9981,0,0,0-3.1425-10.8685,50.8611,50.8611,0,0,0-5.7364-10.256,39.19,39.19,0,0,0-8.4-8.3692A24.581,24.581,0,0,0,99.56.1636,18.7988,18.7988,0,0,0,88.6437,2.1313a27.6231,27.6231,0,0,0-7.8025,5.9953,42.0032,42.0032,0,0,0-7.77,12.1936c-.447,1.0712-.8074,2.0357-1.0711,2.8157-.2641-.78-.6245-1.7445-1.07-2.8157A42.0637,42.0637,0,0,0,63.16,8.1266,27.65,27.65,0,0,0,55.3561,2.13,18.8089,18.8089,0,0,0,44.44.1636a24.5893,24.5893,0,0,0-10.8719,4.589,39.2375,39.2375,0,0,0-8.4,8.3692,50.917,50.917,0,0,0-5.7364,10.256A58.9653,58.9653,0,0,0,16.29,34.2463a42.6788,42.6788,0,0,0-.7818,5.33,42.2639,42.2639,0,0,0-.3487,5.1372,91.0855,91.0855,0,0,0,.2371,9.3814c.3756,2.8885.6834,5.5874,1.1928,7.8972.587,2.2979.9478,4.34,1.496,5.9544,1.12,3.22,1.7615,5.0613,1.7615,5.0613a.77.77,0,0,0,1.4535-.506l-.0288-.08s-.621-1.7916-1.7109-4.9255c-.5313-1.57-.8917-3.567-1.4517-5.8109-.4706-2.2657-.73-4.843-1.0712-7.667a76.5975,76.5975,0,0,1-.0828-9.2254,40.4367,40.4367,0,0,1,.4585-4.99,41.0533,41.0533,0,0,1,.8833-5.1473,56.9637,56.9637,0,0,1,3.2694-10.3746,48.4264,48.4264,0,0,1,5.6719-9.5907,36.4747,36.4747,0,0,1,7.9665-7.5724,21.8915,21.8915,0,0,1,9.4725-3.819C51.4456,2.4869,57.0957,6.38,60.722,10.3875a38.74,38.74,0,0,1,7.0443,11.2493,33.8353,33.8353,0,0,1,1.2472,3.506c.0336.1168.0471.1639.0776.2655a14.5948,14.5948,0,0,1,5.811.0239c.0322-.11.0471-.1626.0845-.2894a33.693,33.693,0,0,1,1.2472-3.506,38.7334,38.7334,0,0,1,7.0443-11.2493C86.9044,6.38,92.5542,2.4869,99.3229,3.2992a21.883,21.883,0,0,1,9.474,3.819,36.4969,36.4969,0,0,1,7.965,7.5724,48.4462,48.4462,0,0,1,5.672,9.5907,57.0179,57.0179,0,0,1,3.2693,10.3746,41.1291,41.1291,0,0,1,.883,5.1459,40.5131,40.5131,0,0,1,.4588,4.9917,76.6159,76.6159,0,0,1-.0831,9.2254c-.34,2.824-.6006,5.4013-1.07,7.667-.56,2.2439-.92,4.24-1.4517,5.8109-1.09,3.1339-1.7123,4.9255-1.7123,4.9255l-.0273.08a.77.77,0,0,0,1.4555.506s.6393-1.8412,1.76-5.0613c.5483-1.6143.9087-3.6565,1.494-5.9544.5094-2.31.8175-5.0087,1.1949-7.8972a91.5131,91.5131,0,0,0,.235-9.3814A42.1836,42.1836,0,0,0,128.4915,39.5765Z"/><path d="M121.0193,81.4752l-.0253.0069a46.9593,46.9593,0,0,1-8.73,1.7667,10.2271,10.2271,0,0,1-2.0069.0541l-.044-.0035-.2824-.7988-.7174-2.01c-.2287-.6838-.5059-1.2795-.6955-2.0339-.8158-2.9038-1.6856-5.7652-2.45-8.6859l-2.2758-8.7517a2.3235,2.3235,0,0,0-1.7733-1.687l-.0388-.007L93.302,57.5284c.3791,1.8613.7073,3.8106.9731,5.8532l5.3691.5971,2.5381,7.0308c1.0393,2.8562,2.1964,5.6975,3.2846,8.5368.2436.6973.6567,1.4586.98,2.18l1.0372,2.1759.5195,1.08.0169.0336.0035.0069c.5313.6058.15.1726.2707.3081l.0152.01.0593.0406.115.0811a2.6553,2.6553,0,0,0,.5552.2741,2.8846,2.8846,0,0,0,.6834.1695l.3673.0135a12.6013,12.6013,0,0,0,2.5129-.2606c3.0981-.5888,5.9647-1.5061,8.9565-2.2609.0166-.0031.0353-.01.0523-.0135a.9993.9993,0,1,0-.5922-1.9088Z"/><path d="M102.26,94.3016A23.9771,23.9771,0,0,0,99.937,91.96c-1.55-1.3738-3.11-2.5957-4.6787-3.7767-.1286-.0946-.2572-.1827-.3857-.2776-.1574,2.3624-.3774,4.7449-.66,7.117.6619.4707,1.3131.9479,1.9292,1.4282a19.3058,19.3058,0,0,1,1.8426,1.6281,4.7809,4.7809,0,0,1,.5722.6733.33.33,0,0,1,.0624.0846c-1.1589,7.5031-2.3316,14.9854-3.381,22.5086l-.8241,5.804c-.3011,1.8987-.4768,3.97-.6934,5.963l-.3081,3.0018-.0374.3757-.0184.1864-.0052.0471-.0034.024c.0357.2266-.0811-.4908.08.5076l.0065.01.0458.0811a9.1925,9.1925,0,0,0,1.2337,1.6957l.533.5447c1.4247,1.4247,2.86,2.7412,4.3249,4.0647a1.3621,1.3621,0,0,0,1.8565-.0475,1.3447,1.3447,0,0,0-.0018-1.9018c-1.347-1.3741-2.7041-2.7821-3.95-4.1933l-.46-.5281c-.1185-.1452-.1216-.1587-.2166-.22-.0558.0135-.1386-.1016-.2214-.2641l.0575-.3386.4772-2.7883c.3282-1.8682.58-3.6755,1.0067-5.6078l1.1693-5.716c1.538-7.6182,3.2132-15.2429,4.8648-22.8437a2.473,2.473,0,0,0,.0492-.5147,5.6545,5.6545,0,0,0-.7922-2.7647A9.5284,9.5284,0,0,0,102.26,94.3016Z"/><path d="M73.7328,44.2622V124.1h-.078c.5722,2.8428.8529,4.8832,1.1405,4.8157C93.6728,124.425,99.23,60.3645,83.0376,40.9014,80.9344,43.1553,77.1591,44.1624,73.7328,44.2622Z"/><path d="M81.44,36.8776c0-4.1645-4.4164-8.8581-9.44-8.4946-.11-.0083-.2135-.0118-.3147-.0118A9.2433,9.2433,0,0,0,62.56,36.8776c0,2.4484,7.4823,3.7431,9.44,3.7431C73.9525,40.6207,81.44,39.326,81.44,36.8776Z"/><path d="M94.9214,39.48A2.3482,2.3482,0,0,0,96.84,37.5087l1.0223-6.9681c.2637-2.2116.7814-4.4011,1.22-6.6076.9627-.75,1.9088-1.5366,2.9138-2.1829l3.3743-2.3215.1744-.1185a1.364,1.364,0,0,0-1.5314-2.2575l-3.6215,2.4183c-1.2385.7814-2.3215,1.6987-3.4772,2.5533a1.2485,1.2485,0,0,0-.46.6668l-.01.0336c-.7835,2.298-1.6769,4.5637-2.3031,6.9413l-1.4892,5.1626c-.21.017-.4193.0287-.6345.0558a21.004,21.004,0,0,0-2.247.3281,18.0954,18.0954,0,0,0-2.2269.506c-.7326.2287-1.4891.3843-2.21.6872l-.6615.2776c.0017.0624.017.1317.017.1944a5.6568,5.6568,0,0,1-.1525.9814,25.867,25.867,0,0,1,3.0323,3.9867l.0915-.054c.5094-.3081,1.0982-.496,1.6464-.7566a13.3819,13.3819,0,0,1,1.7276-.638,16.4162,16.4162,0,0,1,1.7871-.5076c.5819-.1622,1.2521-.26,1.7376-.3483Zm4.2425-15.9416h.0014l-.0014.0035Z"/></svg>