<svg id="Layer_1" data-name="Layer 1" xmlns="http://www.w3.org/2000/svg" viewBox="0 0 144 144"><path d="M142.006,80.1423,93.3986,52.14a28.4339,28.4339,0,0,0,.15-2.9047C93.5481,36.6727,86.05,22.16,76.8,16.8191c-4.19-2.4188-8.02-2.5413-10.9573-.7821L5.7893,50.7073c.0582-.0348.1186-.0641.1773-.0972C2.3194,52.6766,0,57.5832,0,64.5665,0,77.129,7.4979,91.6423,16.7475,96.9821a14.6676,14.6676,0,0,0,4.7029,1.8l51.8061,29.8439a3.9991,3.9991,0,0,0,3.9868-.0017l64.7638-37.3919A3.9954,3.9954,0,0,0,144,87.78V83.5926A3.9915,3.9915,0,0,0,142.006,80.1423ZM18.6215,88.3616a9.3616,9.3616,0,0,1-1.8743-.836c-5.4028-3.12-9.785-11.5989-9.785-18.9384s4.3822-10.7618,9.785-7.6412c5.3763,3.1031,9.7344,11.5073,9.7819,18.8187,0,.04.0045.0815.0045.1214C26.5336,86.3558,23.13,89.7769,18.6215,88.3616Z"/><path d="M16.7477,69.2468c-2.0282-1.1715-3.6734.1129-3.6734,2.8688s1.6452,5.9382,3.6734,7.1092c2.03,1.172,3.6737-.1124,3.6737-2.8678S18.7774,70.4177,16.7477,69.2468Z"/></svg>