<svg id="Layer_1" data-name="Layer 1" xmlns="http://www.w3.org/2000/svg" viewBox="0 0 144 144"><path d="M64.0878,33.4575a1.3834,1.3834,0,0,0,.0615.3852c-.0189.0145-.0389.0283-.0576.0429-.845.1694-2.25,1.7776-2.461,3.5222-.173,1.428-.162,3.0412.2647,3.7014A3.3757,3.3757,0,0,0,63.79,43.2675a24.1287,24.1287,0,0,0,3.84.6582,28.729,28.729,0,0,0,3.1419.2442c.2059.0082.4106.0149.6128.0193.4168.0193.9276.0077,1.4644-.0216a18.8253,18.8253,0,0,0,3.5243-.4393h.0744c.4709-.1448,1.9508-.27,2.2337-.395a4.1912,4.1912,0,0,0,2.0518-2.3139c.5168-.536.6012-2.1083.48-3.6116A4.639,4.639,0,0,0,78.847,33.92c-.1317-.1034-.2667-.2048-.4075-.3025a1.3547,1.3547,0,0,0,.0186-.1595,4.5018,4.5018,0,0,0-.9679-1.9751,2.4576,2.4576,0,0,0-.2785-.2187C79.0112,23.7555,86.511,11.1983,88.8077,0H88.361c-2.26,10.9613-10.1166,22.6214-12.2136,30.7548-.1691-.0491-.3445-.0942-.5315-.1294.68-.7626,1.4564-2.3023.6086-3.1592-.968-2.1726-1.5637-3.8186-2.5316-5.86,0-.1317-.2234-.0658-.2234-.1975-.1184-.3665-.4248-2.4777-.62-3.5273-.05-.2913-.05-.4888-.1242-.5547-.2977-1.0534-1.0424-.5925-1.1913-.1317-.0745.0659,0,.3951.0745.79a18.0266,18.0266,0,0,0,1.1168,3.3577.837.837,0,0,1,.0745.7244,48.1463,48.1463,0,0,0,2.7549,5.4645,17.0584,17.0584,0,0,0-.7644,2.98c-.0641-.006-.13-.0111-.1954-.0163a2.3087,2.3087,0,0,0-.2315-.594c-.5212-.9875-1.6381-.9216-3.0528-.9216a6.12,6.12,0,0,0-2.5315.4608,1.8846,1.8846,0,0,0-.842,1.0222,12.3715,12.3715,0,0,0-.7961-2.0756,26.1568,26.1568,0,0,0,2.755-4.1478.6675.6675,0,0,1,.0744-.5268,8.9324,8.9324,0,0,0,1.2657-3.16c-.2233-.395-.9679-.7242-1.2657.0658a1.5371,1.5371,0,0,1-.0473.2146c-.1506.6918-.5577,2.5919-.6228,2.88-.0745.1317-.2234.0659-.2978.1317-.8936,1.58-1.5637,2.8311-2.4572,4.477-.8639.7094-.0918,1.8617.622,2.426-.1964.0378-.3794.08-.55.1256-2.13-7.3458-11.371-19.7741-17.42-29.4252l-.3723.1975c6.0188,9.5451,14.6809,22.0048,16.6947,29.6283A2.2955,2.2955,0,0,0,64.0878,33.4575Z"/><path d="M101.6889,27.4a10.08,10.08,0,0,1,.9679-1.8435,4.84,4.84,0,0,0-1.8614,1.7776,2.7986,2.7986,0,0,1-.3517.5383c-.0318-.0257-.0606-.0546-.095-.0774a6.3494,6.3494,0,0,0-1.4123.9887c-.0258-.0208-.0509-.0486-.0769-.0669-.5957.2634-3.2017,2.436-3.7229,2.7652a7.2721,7.2721,0,0,0-1.7574,1.7033l-.1785-.0573c-.8934,0-2.3826,2.4359-2.8294,3.0285-.5211.7242-1.4146,2.37-1.8614,3.16a25.2237,25.2237,0,0,0-1.2431,2.5486,1.187,1.187,0,0,0-.4695-.1125c-.2245.1985-2.0977,3.2757-3.1028,5.09A33.388,33.388,0,0,1,85.06,51.9941a25.167,25.167,0,0,0,2.035-3.9863c.8935-1.7118,2.3826-4.082,2.3826-5.2013-.0474-.0157-.1131-.0426-.1742-.0665.3426-.4247.5638-1.9268.9188-2.3036a18.9232,18.9232,0,0,0,2.1593-2.5677c.819-1.2509,2.0848-2.6994,2.0848-3.687a1.4445,1.4445,0,0,0,.028-.3153c.6576-.3382,1.321-.9345,1.9079-1.2648.4467-.2634,2.8293-2.5677,3.35-2.7652-.0148-.0327-.0407-.0738-.06-.11a4.4664,4.4664,0,0,0,1.251-.5485c.0595-.0351.0851-.1238.0825-.2395a2.5494,2.5494,0,0,0,1.1832-1.0114c.4468,0,1.2658-.395,1.9359-.395C104.5183,26.94,102.1356,27.4662,101.6889,27.4Z"/><path d="M47.023,58.4866c-.1236.5181.6271,1.1807.982,1.3063a29.1379,29.1379,0,0,0,3.6485.2633c1.1168.1317,2.68.79,3.8718.7242.1894-.0076.3732-.0049.5517.002a.404.404,0,0,0,.0439.13,1.64,1.64,0,0,0,.2692.0323,8.6521,8.6521,0,0,1,.914-2.8883,5.6689,5.6689,0,0,0-1.3321.2884l0,.1523c-.2423-.05-.4911-.1006-.7448-.1523-.8935-.1977-2.7549-.5926-3.6483-.7243-.6927-.0612-3.23-.397-4.0033.0321-.304-.633-.79-.8509-1.2832-1.3489a12.8094,12.8094,0,0,0-1.4148-1.1851c-.5216-.3774-1.0728-.8854-1.4818-.7474a3.7686,3.7686,0,0,0-.6774-.8985c-.05-.0659-.1507-.0534-.2666.0076a2.9325,2.9325,0,0,0-.85-.5343,8.1081,8.1081,0,0,1-.7446-1.5143c-.5212-.1317.3723,1.7118.4468,2.1727a9.5218,9.5218,0,0,1-1.4891-.3293,4.0906,4.0906,0,0,0,1.638,1.0535,2.15,2.15,0,0,1,.5461.1634c.2766.2559.61.5068.9.7369-.0105.0509-.0223.0968-.0317.153.298.3294,2.5316,1.9752,2.904,2.2386A3.87,3.87,0,0,0,47.023,58.4866Z"/><path d="M53.5149,127.6721c.3723-.8559.1489-2.6993.2979-3.6211a19.733,19.733,0,0,0,.2809-3.7116c1.0856.4153,2.1228.7912,3.2185,1.2756a11.5143,11.5143,0,0,0-3.251-2.1158q-.0474-.8525-.1592-1.7094c.86.2956,1.6666.6094,2.5912.9941a8.815,8.815,0,0,0-2.705-1.8c-.0982-.6126-.2219-1.2306-.361-1.853.7258.2768,1.4215.5562,2.1726.8882a7.8136,7.8136,0,0,0-2.3548-1.679c-.1341-.5435-.285-1.0944-.4448-1.65.9037.268,1.7568.5782,2.7251.9587A9.4837,9.4837,0,0,0,52.5389,111.8c-.1749-.5721-.3635-1.1546-.56-1.7437a27.079,27.079,0,0,1,2.8017.9584,9.0675,9.0675,0,0,0-3.1126-1.8811q-.2448-.7113-.5058-1.4433c.8816.26,1.7285.5318,2.6505.8884a8.8274,8.8274,0,0,0-2.9557-1.7407q-.2533-.7023-.5172-1.4256c.8728.2729,1.6765.52,2.5794.862a8.4642,8.4642,0,0,0-2.8708-1.6613c-.1035-.283-.2061-.5641-.3112-.8524a1.814,1.814,0,0,0,.5534-1.0808,1.6377,1.6377,0,0,0,.3777-.1454.9519.9519,0,0,0,.5383-.9347,8.6348,8.6348,0,0,1,.5957-3.4236c1.0626-1.1745,3.2566-3.4473,5.3778-6.2285-.2778-1.1148-.54-2.2576-.7694-3.4477l-.0481-.247c-.3093-1.6312-.5645-3.3048-.76-4.975l-.015-.1221-.009-.07c-.1692-1.4843-.2933-3.0013-.3673-4.5086l-.0751-2.9986q.0015-1.1722.052-2.318c0-.0469.006-.2381.006-.2381l.0091-.1956c.02-.3776.0492-.7417.0772-1.1078a40.9324,40.9324,0,0,0-4.8932,13.6842c-.2331,1.6488-.6957,5.1108-1.4919,8.3373-.1035.3969-.2106.8188-.3249,1.2346-.0184.0652-.0377.1288-.0564.1935-.1108.3914-.2264.7783-.3606,1.1638-.7445,2.1726-2.3825,2.8311-2.3825,4.2137a1.511,1.511,0,0,0,.6649,1.1311.623.623,0,0,0-.0077.7289,1.0278,1.0278,0,0,0,.46,1.3c.1113.319.2336.67.3626,1.0422a8.0137,8.0137,0,0,0-1.8518,2.6447c.7282-.7428,1.3721-1.3368,2.09-1.95q.2157.6292.4486,1.3264a9.8921,9.8921,0,0,0-2.1664,3.0594c.809-.8177,1.5763-1.5178,2.435-2.2514q.2091.6368.4235,1.31a11.559,11.559,0,0,0-2.6352,3.64c1.0031-.9978,1.9081-1.8147,2.9223-2.7143q.2443.7916.4838,1.6131a12.6883,12.6883,0,0,0-2.81,3.8006,30.6434,30.6434,0,0,1,3.0889-2.8342c.1428.5093.2833,1.0221.4177,1.5384a10.6769,10.6769,0,0,0-2.2408,3.4684,25.6416,25.6416,0,0,1,2.4658-2.5622q.2364.9569.44,1.9061a11.12,11.12,0,0,0-2.31,3.4871A31.4952,31.4952,0,0,1,50.9571,117.7q.2031,1.0462.3434,2.0491a10.8669,10.8669,0,0,0-2.253,3.4464c.8463-.8981,1.5656-1.6829,2.3821-2.4686.28,2.5509.1795,4.7653-.5951,6.1555-1.0425,1.4484-1.0425,4.082-3.2763,4.5428,2.4572.8559,2.83-.8559,3.7974-1.2509.2235.9875,2.5316,2.5677,2.755,2.9626C53.366,130.7665,53.2171,128.4622,53.5149,127.6721Z"/><path d="M41.9741,24.8986a4.1259,4.1259,0,0,0,.8937.8644c-.019.1548.0016.2779.0741.3207a5.2492,5.2492,0,0,0,1.27.54c-.0257.0392-.0544.0833-.0783.1186A23.3908,23.3908,0,0,1,48.08,30.0339c.4023.3557.7224.7087.9636.9363a1.3027,1.3027,0,0,0-.219.578c-.2978,1.1193.5212,2.7652,1.0424,4.1478a14.8776,14.8776,0,0,0,.968,2.6994c.2978.4609.5956,1.5143.8934,1.9093a1.2419,1.2419,0,0,0,.1848.2207c-.1966.0966-.37.1835-.4826.24a19.394,19.394,0,0,0,3.0527,4.3454,24.3648,24.3648,0,0,0,4.3779,4.0045A17.5479,17.5479,0,0,1,59.98,45.0335a15.5757,15.5757,0,0,1-2.5185-1.5686c-1.4891-1.8435-2.3081-3.0285-3.4994-3.7527a.8665.8665,0,0,0-.3294.0634,9.0941,9.0941,0,0,0-.3408-2.4336c-.2234-.8559-.5956-2.6994-.8935-3.4894-.2978-.7242-1.1168-3.4236-2.01-3.4236l-.1691.0408c-.1408-.228-.1821-.2513-.3521-.5016A9.5489,9.5489,0,0,0,47.7817,27.73a21.0334,21.0334,0,0,0-2.6805-2.1068,1.4541,1.4541,0,0,0-.1206.0937,6.7158,6.7158,0,0,0-1.3872-.9848A3.1236,3.1236,0,0,1,43.24,24.24a4.6425,4.6425,0,0,0-1.7125-1.7118c.5211.9217.5211,1.1192.819,1.7118-.5212.0658-1.2658-.9876-2.0849-.4609C40.9316,23.7793,41.5273,24.8986,41.9741,24.8986Z"/><path d="M88.361,133.1366a2.5075,2.5075,0,0,1,.437-.4306l-.3265.0813C88.4339,132.904,88.4015,133.0194,88.361,133.1366Z"/><path d="M101.2421,54.9867c-.2978.5925-.8189,1.0534-1.0423,1.4484a2.3951,2.3951,0,0,0-.9262.35c-.0982-.0664-.1935-.0839-.2652-.02a3.0661,3.0661,0,0,0-.8461.7482c-.0156-.0291-.0329-.0643-.0474-.09-.0745-.3291-.5957-.0658-.8191.0659-.8189.4609-2.01,1.3167-2.3081,1.5142-.448.3081-1.02.5928-1.4892.94v-.0843c-.1489-.7244-2.3825-.9877-2.9783-1.1852a20.4006,20.4006,0,0,0-2.9038-.6584c-.2659-.056-.5211-.1081-.7694-.157.0082-.0345.0171-.0787.0249-.1063a2.98,2.98,0,0,0-.5661-.2569,7.8927,7.8927,0,0,1,1.1056,3.0012c.7275.1362,1.5457.1747,2.1408.35,1.117.3951,2.5316.9876,3.3507.79.2507-.0888.4261-.1293.519-.3a8.9418,8.9418,0,0,0,1.7892-.9514c.4467-.1974,2.9038-1.4483,3.3506-1.7775-.0085-.0522-.0244-.1032-.0364-.1551A8.8786,8.8786,0,0,0,99.59,57.86c.1535-.0431.3124-.0818.4612-.108a3.4265,3.4265,0,0,0,1.8615-.79c-.8191.066-1.0425.1318-1.5636.1318C100.4975,56.6326,101.7633,54.9208,101.2421,54.9867Z"/><path d="M97.8916,107.3939a8.6748,8.6748,0,0,0-1.7943-2.6789c.1347-.3585.2633-.7.38-1.008.645-.4635.6944-.9412.5625-1.2865a.6286.6286,0,0,0,.0153-.7684,1.6309,1.6309,0,0,0,.6879-1.1053c.0745-1.3826-1.5636-2.0411-2.2337-4.2137-.1759-.5542-.3356-1.1388-.4834-1.7366-.0665-.2959-.137-.5888-.1868-.8969.0012.0422.0032.0828.0045.1248a76.096,76.096,0,0,1-1.27-8.4205C93.1554,81.29,90.92,73.72,87.904,69.8191c-.0178,1.1594,1.0554,6.2053,1.0855,7.4532l.025,1.0878c-.004.5965-.006,1.1692-.014,1.7268l-.0571,1.8976q-.01.2508-.024.4991c-.007,0-.0441.6-.0441.6q-.054.8577-.1311,1.7241L88.3579,88.21q-.0887.6172-.1952,1.2523l-.6807,3.4448-.0353.1587c1.76,2.2677,3.4611,4.0977,4.3393,5.1107.1273.6191.2661,1.1157.3741,1.5765a5.1082,5.1082,0,0,1,.1472,1.8471c-.0879.5431.2454.92.8328,1.0758a1.6734,1.6734,0,0,0,.55,1.1095c-.113.2812-.2232.5555-.3342.8316a9.0687,9.0687,0,0,0-2.9848,1.6577c.9112-.3455,1.7717-.5937,2.6687-.87q-.2913.7269-.5706,1.4325a8.6527,8.6527,0,0,0-2.9916,1.7414c.9242-.3576,1.7731-.63,2.6572-.8905q-.2826.7238-.5492,1.4284a9.9983,9.9983,0,0,0-3.2248,1.8981c1.0007-.3934,1.9184-.6765,2.877-.9591-.2146.5862-.4211,1.1655-.6135,1.7348a9.53,9.53,0,0,0-3.0081,1.8577,25.6142,25.6142,0,0,1,2.7089-.9394c-.1759.5519-.3431,1.0994-.4931,1.6395a8.6414,8.6414,0,0,0-2.4392,1.67c.7951-.3309,1.5048-.6094,2.2344-.8853-.1579.62-.3,1.2357-.4171,1.846a9.7044,9.7044,0,0,0-2.7852,1.8045c.9171-.3816,1.7694-.6878,2.6434-.9812q-.1343.8417-.2093,1.6785a16.0542,16.0542,0,0,0-2.5723,1.4646c.0355.1066.0714.21.1069.317.8093-.3245,1.566-.61,2.4045-.9175a19.9026,19.9026,0,0,0,.1584,3.7057c.1488.9218-.149,2.7652.1488,3.6211a5.9765,5.9765,0,0,1-.0073,2.4908c.2013.7674.3765,1.4539.484,1.8792A4.9946,4.9946,0,0,0,91.19,130.174c.9679.395,1.2658,2.1068,3.7974,1.2509-2.2337-.4608-2.1592-3.0944-3.1272-4.5428-.7543-1.3945-.7957-3.6178-.4386-6.1788.79.7935,1.5024,1.585,2.3,2.4919a10.1035,10.1035,0,0,0-2.14-3.4746c.1143-.6652.247-1.3433.4026-2.0364.8551.8151,1.6465,1.5982,2.4822,2.5481a11.368,11.368,0,0,0-2.2579-3.5015q.2331-.9537.5011-1.915a27.6122,27.6122,0,0,1,2.4269,2.5855,10.21,10.21,0,0,0-2.1691-3.5093c.1479-.5068.3018-1.01.4578-1.51a28.1687,28.1687,0,0,1,2.9771,2.8467,11.6051,11.6051,0,0,0-2.6712-3.8047q.2691-.8328.5407-1.6326c1.0235.9088,1.9265,1.7314,2.8751,2.7379a11.0911,11.0911,0,0,0-2.5548-3.6758q.2377-.6821.4694-1.3259a32.567,32.567,0,0,1,2.3832,2.3024,8.9349,8.9349,0,0,0-2.1039-3.0709q.2589-.7094.4962-1.3464A21.4813,21.4813,0,0,1,97.8916,107.3939Z"/><path d="M80.4685,109.8958c-.3622-1.2356-.8318-3.1056-1.06-4.287.0555-.0867.1109-.1659.1664-.2559.3323-.5265.6944-1.1026,1.0643-1.7l.4248-.7357c-.0974.1723-.1863.321-.2628.4738a51.3708,51.3708,0,0,0,2.5318-4.5523,1.3913,1.3913,0,0,1-.11.1939l.3147-.6415A24.9941,24.9941,0,0,0,85.01,94.49c.12-.448.2129-.9059.3214-1.3584l.1915-.8091c.32-1.4347.5925-2.8818.8011-4.34l.0813-.6591q.2868-2.1732.423-4.34l.0432-.6744v.0877c.0852-1.59.1008-3.1572.0743-4.7024v.2035l-.0072-.5891L86.85,74.086,86.7428,71.48v2.06c-.075,1.3076-.1818,2.6465-.3231,4.0034l-.06.59c-.1724,1.5466-.3937,3.1054-.6658,4.6511l-.12.6428c-.2971,1.5948-.65,3.1669-1.07,4.6858l-.1746.62c-.3511,1.205-.7406,2.3758-1.1806,3.4874-.1814.4572-.3559.895-.5265,1.3227l-.2806.702c-.772,1.9279-1.4334,3.5488-2.0176,4.9271l-.2536.5953c-.6567,1.5278-1.2153,2.7363-1.7317,3.7365l-.3413.6421c-.04.0737-.0792.1349-.1193.2061-.338.5422-.2215.7461-.7708,1.2605a14.3754,14.3754,0,0,1-1.166,1.5239l-.5926.6352c.0185-.5075.0276-1.01.0547-1.5221,1.8161-2.205,3.18-5.2664,6.7774-14.3286,3.6484-9.2173,4.0951-22.6484,3.4251-29.4955-.3723-3.5553-.8936-5.9254-5.6588-5.3987-1.34.1316-3.1272.2632-5.51.5925-.2332.0294-.5433.0453-.859.06a2.3868,2.3868,0,0,1,.0646.2345,13.361,13.361,0,0,1,.1441,2.6269c0,1.0187,0,2.1737.1081,3.2535a82.3689,82.3689,0,0,1-.001,10.3713c-.052,1.3807-.1061,2.8128-.1441,4.2793-.1361,3.8377-.2122,7.9206-.2873,11.8689-.0888,4.7466-.1762,9.3026-.3557,13.2211l-.0416.8584c-.04.7884-.0827,1.5585-.1322,2.2848q.0417.5477.0874,1.0713a.9533.9533,0,0,0-1.1938-.03c.5933-7.44.54-19.1543.898-29.2954.1489-5.6622.5212-10.7974.1489-14.55-.2234-2.2384,0-4.74-.2234-5.728-.0744-.3291-.0744-.3949-.2977-.3949H71.1614c-1.5638-.1975-3.723-.2634-4.6909-.461-6.5523-1.3825-7.8181.8559-8.19,5.1355-.5212,6.8471.67,20.2782,4.393,29.4955,3.4136,8.7305,4.7905,11.8911,6.5332,14.0825.0549.5575.104,1.15.15,1.7586l-.4583-.611-1.008-1.2651-1.4351-2.3879c-.52-1.0038-1.0732-2.2112-1.715-3.7228l-.2565-.6092c-.53-1.2682-1.1221-2.7391-1.8038-4.4644l-.252-.6388c-.2316-.5883-.4711-1.1985-.724-1.8452-.3841-.9508-.7327-1.9484-1.0626-2.9656l-.2147-.6549c-.4748-1.5328-.8883-3.1223-1.2512-4.7344l-.1425-.654c-.3118-1.448-.5822-2.9062-.8114-4.3575l-.0984-.6051c-.2489-1.6514-.4416-3.2775-.5924-4.8547l-.0648-.6977c-.04-.4518-.0745-.8953-.1066-1.336q-.0654.7594-.1072,1.5541a1.0958,1.0958,0,0,1,.06-.2815l-.074.6585c-.0663,1.5153-.07,3.1127,0,4.7715v-.163l.022.6008c.0708,1.4419.189,2.9175.3589,4.4051-.0071-.1055-.0085-.2109-.0085-.3313l.0743.7242a1.77,1.77,0,0,1-.0549-.3057c.1084.9391.2419,1.88.3894,2.82l.0278.2086.12.6555c.0723.4262.1377.8542.2177,1.2779a1.6041,1.6041,0,0,1-.0294-.2449l.1488.7241c-.026-.0692-.0488-.154-.0717-.2366.3683,1.91.8123,3.7869,1.3375,5.57a42.95,42.95,0,0,0,4.5872,9.4949q-.1344-.2374-.2687-.4751l.469.7969c.3836.6186.7511,1.198,1.0922,1.731-.1987,1.1418-.72,3.2381-1.1144,4.5827-1.787,5.728-3.8718,11.2583-5.5844,16.9863-.4467,1.5142-1.638,5.9913-1.638,5.9913l8.5627-21.99,1.4305-3.3732a9.1552,9.1552,0,0,0,2.15,1.72c.1385,2.304.2163,4.8643.2163,7.5129,0,5.9913.149,10.4024.2978,13.5626a8.9639,8.9639,0,0,0,.67,2.9628c.7051-2.8054.6228-13.5172.7759-22.7976.1724,4.7707.5736,27.3283.7133,29.118.1489,1.6459.2979,4.28.819,4.4112.5956-.3951.4468-2.831.3723-4.477l-.0745-24.4919.1476-4.3493,1.1926,22.85a6.4468,6.4468,0,0,0,.8191-2.8968c.3361-6.7372-.25-13.6265-.1185-20.9426a8.2166,8.2166,0,0,0,2.5088-1.9512l1.3326,3.1423,8.5626,21.99s-1.117-4.4771-1.6381-5.9913C84.34,121.1541,82.2554,115.6238,80.4685,109.8958ZM61.4819,98.0449l.4467.8559C61.78,98.6374,61.6307,98.3083,61.4819,98.0449Z"/><path d="M57.2378,73.29c.0031-.061.0021-.1267.0049-.1875C57.2414,73.1639,57.2378,73.22,57.2378,73.29Z"/><path d="M74.2936,56.7227c1.8758-.2594,3.39-.3974,4.6073-.5081l.9339-.0876a12.4345,12.4345,0,0,1,1.3413-.0788,6.6192,6.6192,0,0,1,2.3306.3723c-.1462-4.0105-1.44-9.2612-3.2617-12.2971a.719.719,0,0,0-.52-.3324,5.1309,5.1309,0,0,1-.5411.3318,5.7013,5.7013,0,0,1-1.5124.31c-.0921.0124-.1942.0266-.2963.0407l-.02.1417-.8288.0177a20.82,20.82,0,0,1-3.6274.4407c-.3644.0195-.73.0319-1.061.0319-.1792,0-.3493-.0035-.5075-.0106-.1811-.0045-.3953-.0107-.6086-.02a29.7166,29.7166,0,0,1-3.26-.2558,24.4485,24.4485,0,0,1-4.04-.7054,2.803,2.803,0,0,1-.35-.1838.8482.8482,0,0,0-.176.1274c-2.1138,2.243-2.4935,8.315-2.5282,12.42a6.9289,6.9289,0,0,1,2.7758-.501,17.4241,17.4241,0,0,1,3.5644.4329c.4614.0938,1.3793.1637,2.2681.2318.7627.0584,1.5635.12,2.2571.2045h1.001c-.003-.0089,1.2892-.0708,1.2892-.0708C73.8062,56.7616,74.0844,56.7492,74.2936,56.7227Z"/></svg>