<svg id="Layer_1" data-name="Layer 1" xmlns="http://www.w3.org/2000/svg" viewBox="0 0 144 144"><path d="M80.6474,3.8655a9.7375,9.7375,0,0,0,.7275,1.94,27.5161,27.5161,0,0,0,1.9167,3.6032,44.8453,44.8453,0,0,0,3.9925,5.2035,2.0285,2.0285,0,0,1-.1827.1984,15.7213,15.7213,0,0,1-1.2779,1.1128c-.9457.7529-1.9835,1.5037-3.0351,2.2742-.5821.4268-1.1756.9006-1.7674,1.3507a20.4179,20.4179,0,0,1,2.8741,4.49c.6643-.7057,1.3387-1.4114,2.0621-2.1269.9219-.9158,1.8676-1.8362,2.8169-2.8563a18.4827,18.4827,0,0,0,1.4212-1.6885,8.57,8.57,0,0,0,.7-1.1108l.32-.7605a5.4566,5.4566,0,0,0,.1655-1.1107l.0411-.8748-.684-.5327a27.0122,27.0122,0,0,1-5.0147-5.1958A19.6455,19.6455,0,0,1,83.964,4.6594a13.2837,13.2837,0,0,1-1.06-3.3081l-.0785-.2931-.006-.0217a1.438,1.438,0,0,0-2.7618.8023Z"/><path d="M52.7845,15.4951l.32.7605a8.57,8.57,0,0,0,.7,1.1108,18.4187,18.4187,0,0,0,1.4212,1.6885c.9493,1.02,1.895,1.9405,2.8169,2.8563.7215.7134,1.3958,1.4192,2.06,2.1249a20.4436,20.4436,0,0,1,2.868-4.4937c-.5877-.4481-1.1812-.92-1.7593-1.3447-1.0515-.7705-2.0894-1.5213-3.0351-2.2742a15.6535,15.6535,0,0,1-1.2779-1.1128,1.98,1.98,0,0,1-.1827-.1984,44.8453,44.8453,0,0,0,3.9925-5.2035,27.5161,27.5161,0,0,0,1.9167-3.6032,9.73,9.73,0,0,0,.7271-1.94l.59-2.0267.008-.03a1.438,1.438,0,0,0-2.7778-.7448l-.0765.287a13.2961,13.2961,0,0,1-1.06,3.3081A19.6768,19.6768,0,0,1,58.277,7.7811a27.0122,27.0122,0,0,1-5.0147,5.1958l-.684.5327.0411.8748A5.4842,5.4842,0,0,0,52.7845,15.4951Z"/><path d="M81.77,54.6552a36.8759,36.8759,0,0,1,1.333,6.9882c.244-.3535.4835-.7174.73-1.0713l5.844-7.4326c1.9578-2.4828,4.1439-4.8553,6.208-7.293,1.9815-2.4534,4.1676-4.3677,6.2651-6.5578a120.6046,120.6046,0,0,0,12.9071-3.4224A62.0387,62.0387,0,0,0,121.628,33.27a35.5844,35.5844,0,0,0,3.1728-1.7457,14.9339,14.9339,0,0,0,2.9647-2.4807c.0173-.02.037-.0415.0548-.0628a1.2616,1.2616,0,1,0-1.9558-1.5943l-.0846.1039a9.0775,9.0775,0,0,1-2.306,1.9111A21.9716,21.9716,0,0,1,120.543,30.84a59.3463,59.3463,0,0,1-6.371,2.1052,117.8794,117.8794,0,0,1-13.2827,2.709l-.1083.0157a1.3835,1.3835,0,0,0-.7448.3559c-2.4377,2.2489-5.1858,4.4209-7.34,6.8094-2.2545,2.3725-4.59,4.6331-6.7821,7.11Z"/><path d="M19.2,31.5239A35.6338,35.6338,0,0,0,22.3719,33.27a62.0789,62.0789,0,0,0,6.5719,2.5967,120.5859,120.5859,0,0,0,12.9071,3.4224c2.0975,2.19,4.2836,4.1044,6.2651,6.5578,2.0641,2.4377,4.25,4.81,6.208,7.293l5.844,7.4326c.246.3539.4855.7178.73,1.0733A36.8475,36.8475,0,0,1,62.23,54.6572l-4.1439-4.7119c-2.1917-2.4771-4.5271-4.7377-6.7817-7.11-2.1546-2.3885-4.9027-4.56-7.34-6.8094a1.372,1.372,0,0,0-.7448-.3559l-.11-.0157a118.0084,118.0084,0,0,1-13.2807-2.709,59.3169,59.3169,0,0,1-6.371-2.1052,21.9767,21.9767,0,0,1-2.9313-1.4388A9.0823,9.0823,0,0,1,18.22,27.49l-.0866-.1059a.7091.7091,0,0,0-.0531-.0612,1.2616,1.2616,0,0,0-1.8459,1.72A14.9226,14.9226,0,0,0,19.2,31.5239Z"/><path d="M107.5216,123.6562c-.2613-1.9385-.6466-3.6644-.8551-5.7559l-.6683-6.33-1.12-12.7147-.01-.11a2.0908,2.0908,0,0,0-.8534-1.502l-6.5438-4.7925-3.2872-2.3942a37.92,37.92,0,0,0-3.3415-2.143L82.796,83.0234a27.31,27.31,0,0,1-1.7689,5.63l7.1355,3.955a35.9024,35.9024,0,0,1,3.352,1.9659l3.147,2.1192,5.6121,3.7586,1.4981,11.6216.9356,6.3811c.285,2.1031.8946,4.5094,1.3624,6.7229a.7712.7712,0,0,0,.1514.3184l.1139.1417L118.524,143.239l.1949.244a1.3993,1.3993,0,0,0,2.2114-1.7142Z"/><path d="M137.6769,87.5369l-20.5938-5.241L98.07,67.9713a2.2764,2.2764,0,0,0-1.3841-.46l-.4167.002-5.0207.0193c-1.7807.0455-3.5678.0982-5.37.2359-.7847.0355-1.5806.124-2.3769.2162.0471,1.734.0612,3.6229.0278,5.72.1256-.0193.2552-.037.3792-.0587.8177-.1337,1.6394-.2633,2.4848-.34,1.6687-.2045,3.3673-.3322,5.07-.4542l4.39-.2359,19.1879,13.1314.0825.0551a1.7551,1.7551,0,0,0,.6349.2673l21.2464,4.3838a1.4971,1.4971,0,0,0,.6723-2.9171Z"/><path d="M28.8826,85.7989l.0769-.0511L48.1454,72.6164l4.3915.2359c1.7025.122,3.4007.25,5.07.4542.8454.0769,1.6671.2065,2.4848.34.1236.0217.2536.0394.3792.0587-.0334-2.0975-.02-3.9864.0278-5.72-.7963-.0922-1.5926-.1807-2.3769-.2162-1.8024-.1377-3.59-.19-5.3706-.2359l-5.02-.0193-.4166-.002a2.2739,2.2739,0,0,0-1.3842.46L26.9168,82.2959,6.3234,87.5369a1.4971,1.4971,0,0,0,.6723,2.9171L28.2421,86.07A1.8338,1.8338,0,0,0,28.8826,85.7989Z"/><path d="M62.9813,88.6533a27.1674,27.1674,0,0,1-1.7734-5.6339l-8.05,4.8947a37.9848,37.9848,0,0,0-3.3419,2.143l-3.2868,2.3942-6.5441,4.7925a2.1194,2.1194,0,0,0-.8531,1.5137l-.01.0982-1.12,12.7147-.6683,6.33c-.2085,2.0915-.5938,3.8174-.8555,5.7559L23.07,141.7688a1.3988,1.3988,0,0,0,2.2134,1.71l.1925-.24,14.1893-17.6013.116-.1457a.7823.7823,0,0,0,.1493-.3144c.4678-2.2135,1.077-4.62,1.362-6.7229l.936-6.3811,1.4977-11.6216,5.6125-3.7586,3.147-2.1192a35.8953,35.8953,0,0,1,3.3516-1.9659Z"/><path d="M72,137.1333c11.5117-3.4438,15.0774-11.8024,15.0774-19.8465,0-18.0812-9.2664-17.2438-12.4964-24.4583,1.6039-2.1228,5.164-6.4515,5.5022-15.3645,1.087-28.69-5.1053-24.2279-5.7007-31.02-.1631-1.862-.2122-3.1121-.26-4.0123,5.7539,0,9.5914-1.6651,8.1956-12.3313C81.56,24.3155,76.5019,17.8266,72,17.8266c-4.5586,0-9.57,6.55-10.3185,12.2742-1.39,10.6211,2.4063,12.3313,8.1952,12.3313-.0451.9-.0942,2.15-.2593,4.0123-.5958,6.7917-6.7861,2.3294-5.7007,31.02.34,8.913,3.8979,13.2417,5.5043,15.3645-3.2143,7.1831-12.4965,6.4049-12.4965,24.4583C56.9247,125.3309,60.4885,133.69,72,137.1333Z"/></svg>