<?xml version="1.0" encoding="utf-8"?>
<svg version="1.1" id="Layer_1" xmlns="http://www.w3.org/2000/svg" xmlns:xlink="http://www.w3.org/1999/xlink" x="0px" y="0px"
	 viewBox="0 0 37.1 41.2" style="enable-background:new 0 0 37.1 41.2;" xml:space="preserve">
<g>
	<path class="cls-1" d="M11.7,21.2l3.3-1.6c0-0.6,0-1.1,0.1-1.6l-4,1.9c-0.1,0-0.2,0.1-0.2,0.2H7c-0.3,0-0.5,0.2-0.5,0.5C6.5,20.8,6.7,21,7,21h4
		c0.1,0.1,0.3,0.2,0.5,0.2C11.5,21.2,11.6,21.2,11.7,21.2z"/>
	<path class="cls-1" d="M12,25.3c0.7-0.3,1.9-1,3.1-1.9c0-1.1,0-2.2,0-3.1c-1.3,1.3-3.4,3.9-3.8,4.8c-0.1,0.2-0.1,0.3-0.1,0.5l2.3,8.5l-2.3,3.1
		c-0.2,0.2-0.1,0.5,0.1,0.6c0.1,0.1,0.2,0.1,0.3,0.1c0.1,0,0.3-0.1,0.4-0.2l2.6-3.5L12,25.3C12,25.4,12,25.3,12,25.3z"/>
	<path class="cls-1" d="M21.7,15.3c0,0.3,0.1,0.9,0.1,1.6l2.7-2c0.3-0.2,0.4-0.5,0.4-0.7l-0.6-1.7l0.9-2.2c0.1-0.2,0-0.5-0.3-0.6
		c-0.2-0.1-0.5,0-0.6,0.3l-1,2.5l0.5,1.3L21.7,15.3z"/>
	<path class="cls-1" d="M12.7,12.5l-0.6,1.7c-0.1,0.2,0.1,0.5,0.4,0.7l2.7,2c0-0.7,0.1-1.3,0.1-1.6l-2.1-1.5l0.5-1.3l-1-2.5
		c-0.1-0.2-0.4-0.3-0.6-0.3c-0.2,0.1-0.3,0.4-0.3,0.6L12.7,12.5z"/>
	<path class="cls-1" d="M19.2,38.3c0.1-0.7,1.5-8.6,1.6-9c1.2-6.2,0.3-14.2,0.3-14.3l0,0l0,0c0,0,0.1-0.6-0.3-1.3l0.3-0.2c0.3-0.1,0.3-0.6,0.1-1
		c-0.2-0.4-0.6-0.6-0.8-0.5c-0.2-0.3-0.5-0.7-0.5-0.8c0-0.1-0.1-0.1-0.1-0.2c0.4-3.2,1.5-6.5,2.4-9.1c0.2-0.5,0.4-1,0.5-1.5
		c0.1-0.2,0-0.3-0.2-0.4C22.3,0,22.1,0,22,0.2c-0.2,0.5-0.3,1-0.5,1.5c-0.9,2.6-2,5.8-2.4,9c-0.2-0.1-0.4-0.1-0.5-0.1
		c-0.2,0-0.4,0-0.5,0.1c-0.4-3.2-1.5-6.4-2.4-9c-0.2-0.5-0.4-1-0.5-1.5C15,0,14.8,0,14.6,0c-0.2,0.1-0.2,0.2-0.2,0.4
		c0.2,0.5,0.3,1,0.5,1.5c0.9,2.6,2.1,5.9,2.4,9.1c-0.1,0.1-0.1,0.1-0.1,0.2c0,0.1-0.3,0.5-0.5,0.8c-0.3-0.1-0.6,0.1-0.8,0.5
		c-0.2,0.4-0.2,0.8,0.1,1c0,0,0,0,0,0l0.2,0.1c-0.4,0.6-0.3,1.3-0.3,1.3l0,0l0,0c0,0.1-0.6,5.7-0.1,11.2c0.1,0.7,0.2,1.4,0.2,2.1
		c0.1,0.3,0.1,0.7,0.2,1c0.1,0.3,1.5,8.3,1.6,9c0,0,0.1,1.2,0,2.5c0.1,0.2,0.4,0.4,0.7,0.4c0.3,0,0.5-0.1,0.6-0.3
		C19,39.6,19.2,38.3,19.2,38.3z"/>
	<path class="cls-1" d="M30.1,20.1h-4C26.1,20,26,20,25.9,19.9l-4-1.9c0,0.5,0,1,0.1,1.6l3.4,1.6c0.1,0,0.2,0.1,0.3,0.1c0.2,0,0.4-0.1,0.5-0.2h4
		c0.3,0,0.5-0.2,0.5-0.5C30.6,20.3,30.4,20.1,30.1,20.1z"/>
	<path class="cls-1" d="M23.7,34.1C23.7,34.1,23.7,34.1,23.7,34.1l2.3-8.5c0-0.2,0-0.3-0.1-0.5c-0.5-0.9-2.6-3.5-3.9-4.8c0,0,0,0,0,0
		c0,1,0,2,0,3.1c0,0,0,0,0,0c1.2,0.9,2.4,1.6,3.1,1.9c0,0,0,0,0,0.1l-2.4,8.9c0,0,0,0,0,0l2.6,3.5c0.1,0.1,0.2,0.2,0.4,0.2
		c0.1,0,0.2,0,0.3-0.1c0.2-0.2,0.2-0.5,0.1-0.7L23.7,34.1z"/>
</g>
</svg>
