<svg id="Layer_1" data-name="Layer 1" xmlns="http://www.w3.org/2000/svg" viewBox="0 0 144 144"><path d="M132.8211,87.2475c-17.5987,6.3109-35.1974,4.065-52.7967.6911a27.8028,27.8028,0,0,1,1.4617-3.6336,33.8646,33.8646,0,0,1,3.9613-6.2505c.2875-.3585.5837-.712.8848-1.0618a1.2831,1.2831,0,0,1,1.015-.4493c4.1155.1549,9.2386-.0716,13.8009-3.0271,7.9448-5.1453,6.7379-15.747,6.0474-19.3905a.66.66,0,0,0-1.1044-.3067c-4.4432,3.9317-16.5282.6177-20.55,9.0561a30.4174,30.4174,0,0,0-2.3577,9.4071,1.9092,1.9092,0,0,1-.48,1.1168c-.411.4369-.8163.8786-1.2119,1.33a49.0544,49.0544,0,0,0-5.0664,6.7774q-.4193.6822-.81,1.3859a.2811.2811,0,0,1-.51-.045c-1.3791-3.825-5.78-13.9355-1.2-20.4981,4.5049-6.4609,19.0062-11.0127,17.64-31.1856A54.5067,54.5067,0,0,0,82.187,4.81a.7738.7738,0,0,0-1.3044.1413A46.9535,46.9535,0,0,1,69.8392,18.29c-5.1966,4.1014-26.4153,18.4267-10.3018,47.3354a.226.226,0,0,0,.4232-.0944l.0031-.0413c.0241-.3832.0648-.7657.1018-1.1464a40.053,40.053,0,0,1,.7664-4.5148,39.3615,39.3615,0,0,1,3.0024-8.4655,41.7974,41.7974,0,0,1,4.682-7.42,40.3178,40.3178,0,0,1,2.8617-3.24,30.5388,30.5388,0,0,1,2.6607-2.4459.0959.0959,0,0,1,.1394.129,41.5339,41.5339,0,0,0-3.8114,6.6978c-.4233.9218-.8052,1.856-1.1637,2.7957-.4418.89-.865,1.7894-1.2544,2.7075a44.6741,44.6741,0,0,0-2.65,8.5,40.3988,40.3988,0,0,0-.8163,9.0468c.0148.64.1567,2.0337.385,3.8558l.0007.0012c.4467,3.567,1.2279,8.7894,2.0608,13.3425a54.3973,54.3973,0,0,0,2.0793,8.7444c.0371.0864.0741.1659.11.2369,1.5808,5.6594,4.0187,11.3489,7.7714,15.6662-.543-3.64.0925-7.7251,3.7274-10.6541a2.8431,2.8431,0,0,1,3.5677,4.4278c-2.5668,2.0682-1.8524,5.5883-1.0287,7.8164,4.9017-3.8583,9.1937-9.4429,12.94-9.1566,2.3058.1777,4.585,4.6647,2.9864,10.7553-1.542,5.8728-7.04,13.2654-16.2277,15.9241S65.07,128.44,60.63,124.3034c-4.61-4.2944-5.0793-9.3078-3.2264-10.6886,2.9339-2.1849,8.199.6885,13.875,1.4592-5.1836-5.9271-8.25-13.6849-10.0612-20.9954a87.5976,87.5976,0,0,1-1.8634-10.1741C43.2894,81.0563,27.2258,79.69,11.1616,85.4557a3.59,3.59,0,0,0-2.3447,3.3917v50.73A4.4227,4.4227,0,0,0,13.24,144H130.76a4.4227,4.4227,0,0,0,4.4229-4.4228v-50.73A1.7439,1.7439,0,0,0,132.8211,87.2475Zm-91.3254,9.98a2.1572,2.1572,0,1,1-2.1572,2.1572A2.157,2.157,0,0,1,41.4957,97.2272Zm-19.0746,16.51a3.4082,3.4082,0,1,1,3.4077-3.4084A3.4091,3.4091,0,0,1,22.4211,113.7369ZM29.52,135.1112a2.4718,2.4718,0,1,1,2.1589-3.6528,2.4455,2.4455,0,0,1,.3129,1.181A2.4721,2.4721,0,0,1,29.52,135.1112ZM39.3385,123.28a4.4814,4.4814,0,1,1,4.4815-4.4813A4.4824,4.4824,0,0,1,39.3385,123.28Zm73.6848,13.875a6.2147,6.2147,0,1,1,6.2147-6.2146A6.2143,6.2143,0,0,1,113.0233,137.1547Zm6.2147-26.224a3.7028,3.7028,0,1,1,3.7027-3.7027A3.7029,3.7029,0,0,1,119.238,110.9307Zm7.2636,7.8677A1.9184,1.9184,0,1,1,128.42,116.88,1.918,1.918,0,0,1,126.5016,118.7984Z"/><path d="M115.5352,0a.2546.2546,0,0,0-.2437.1691c-2.1238,5.7-7.14,11.8005-8.2286,15.7544-1.7591,6.3856,3.3152,10.7183,8.4723,10.7183s10.2315-4.3327,8.4717-10.7183C122.9179,11.97,117.9027,5.8691,115.779.1691A.2559.2559,0,0,0,115.5352,0Z"/><path d="M30.6533,61.0488c7.6925,0,15.2609-6.4627,12.6361-15.9871-1.624-5.8974-9.1049-14.9973-12.2727-23.4992a.3881.3881,0,0,0-.7268,0c-3.1678,8.5019-10.6491,17.6018-12.2738,23.4992C15.3919,54.5861,22.9609,61.0488,30.6533,61.0488Z"/></svg>