<svg id="Layer_1" data-name="Layer 1" xmlns="http://www.w3.org/2000/svg" viewBox="0 0 144 144"><path class="cls-1" d="M5.5837,98.7273a2.6782,2.6782,0,0,1-1.6994.243c-.9711-.243-.9711-.4859-.9711-.4859S0,97.5125,0,93.3819c.2428-3.8876,4.8554-10.934,5.8265-15.55a29.3614,29.3614,0,0,1,2.4277-7.0463l.2428.9719a60.0406,60.0406,0,0,1,5.5837-7.7752,35.2023,35.2023,0,0,1,6.7976-5.5884L20.15,59.8512s12.3813-6.0744,14.0807-7.5323c1.6994-1.2148,2.6705-1.9437,2.6705-1.9437l-.4856.9718s3.156,0,8.2542-3.8876c5.341-3.8876,7.5259-6.56,10.1964-7.5322a12.946,12.946,0,0,1,4.8554-1.2149l-2.6705.9719s6.5549-2.1868,9.7109-2.1868,4.37.7289,7.5259.972h4.8554l-1.2139.7288s9.9536.243,15.78,3.1587a103.8458,103.8458,0,0,1,11.653,7.0463l-1.2138-.2429s7.5259,5.3454,10.4391,7.7752a29.83,29.83,0,0,1,3.8844,3.6446l-1.2139-.2429a16.25,16.25,0,0,1,5.0982,8.5041c.9711,5.1025.4855,7.2893.4855,7.2893l-.7283-1.2149a7.7088,7.7088,0,0,0,.4856,5.1025c1.4566,3.1587,2.4277,7.5322,4.6126,10.205,1.9422,2.6728,3.6416,5.8314,8.0114,6.8033s4.37.729,6.0693.729c1.6994.2429,2.6705.4859,2.6705.9718.2428.486-.7283,1.2149-2.4277,1.2149-9.4681-.2429-14.809-1.4578-19.4217-10.6909a7.4124,7.4124,0,0,0-1.6994,1.9438,11.3844,11.3844,0,0,1-2.6705,4.6165,11.8674,11.8674,0,0,0-1.2138,1.7009,15.5215,15.5215,0,0,0-1.4566,2.9156,21.0616,21.0616,0,0,1-.4856,2.43,3.4924,3.4924,0,0,1-.7283.4859.4558.4558,0,0,0,0,.7289,1.3364,1.3364,0,0,1-.7283-1.2148,9.6882,9.6882,0,0,0-.9711.7288,3.0962,3.0962,0,0,1-1.6994,1.2149,3.825,3.825,0,0,1-.9711.243.7516.7516,0,0,1-.4855-.243h-.2428a4.5961,4.5961,0,0,1-1.4566.972,3.1736,3.1736,0,0,1-2.1849,0,1.2007,1.2007,0,0,1-.2428-.729,1.68,1.68,0,0,0-1.2139,0,3.0071,3.0071,0,0,0-.7283.4859v-1.2148a.7517.7517,0,0,1,.4856-.243s-.7284.243-.9711,0l-.2428-.243a2.9961,2.9961,0,0,0-1.9421.9719,2.3348,2.3348,0,0,1,1.4566-2.1867c-1.2139-.486-1.6994,0-2.6705.4859.4855-.9719,1.4566-2.1867,2.6705-1.9438a4.9365,4.9365,0,0,1,1.2138-.2429h1.2139s.2428-.972.9711-.972h.7283a2.8361,2.8361,0,0,1,1.9421-.4859c1.4567,0,1.6994.243,1.6994.243a16.8391,16.8391,0,0,0,3.3988-3.6447,26.888,26.888,0,0,0,2.67-4.1306c.4856-.9719.7283-1.4579.2428-2.1867a3.4244,3.4244,0,0,0-.7283-1.2149s-3.1561.7289-4.6127,1.2149c-1.4566.7288-1.4566.9718-1.9421.9718a1.063,1.063,0,0,1-.7284-.243,3.55,3.55,0,0,0-1.2138.729c-.7283.4859-.7283.4859-.9711.4859h-.2428a11.4458,11.4458,0,0,1-.4855,1.215c0,.2429-.4855.2429-.4855.2429V94.84a1.3349,1.3349,0,0,1-1.2139.7289h-.4856s0,1.2149-.2427,1.4579c0,.243-.9711.486-.9711.486a1.6241,1.6241,0,0,0,0,2.43,3.35,3.35,0,0,1-.9711-.7289c-.2427.486,0,.7289.2428.9719a3.429,3.429,0,0,1-1.9422-3.6446,6.7486,6.7486,0,0,1,0-4.3736c.7283-1.2149.7283-1.9438,1.2139-2.43a2.6615,2.6615,0,0,1,.4855-.972,39.6838,39.6838,0,0,0-8.9825-.7289c-4.6127.486-10.9247,1.2149-13.11.7289s-5.341-1.2149-8.74.486c-3.6415,1.4578-5.0982,2.1868-7.04,5.3455-1.9422,3.4016-3.8844,6.3174-4.6127,7.7752a5.29,5.29,0,0,0-1.2138,1.9438,3.0893,3.0893,0,0,1-2.9133,1.7008h-.7283c-.2428,0-.7283.243-.7283.486a1.0852,1.0852,0,0,1,0-1.2149,4.8453,4.8453,0,0,1-2.1849.486c-1.4567.2429-2.185,0-2.185-.486a1.9931,1.9931,0,0,0-1.6994.2429,1.9486,1.9486,0,0,1,2.4277-1.4578,1.8179,1.8179,0,0,0,1.2139-.243c-1.2139,0-1.9422,0-1.6994-.4859a1.5,1.5,0,0,0-1.6994.4859A2.1527,2.1527,0,0,1,49.04,102.372c1.4566-.7289,2.9133.243,4.37.243.2428,0,.4855-.243.7283-.486.2428-.4859,1.4566-2.1868,1.2138-3.6446-.4855-1.4579-2.1849-2.9158-3.156-4.3736l-.9711-1.9438a3.6609,3.6609,0,0,0-.2427,1.9438l.2427.7289a2.6139,2.6139,0,0,0-.971-1.2149A6.7585,6.7585,0,0,0,47.34,92.653c-.9711-.2431-1.6994-.486-1.6994-.486s.7283.486,1.2139.729l.9711.4859a21.8168,21.8168,0,0,1-3.8844-.972,12.8225,12.8225,0,0,0-3.8843-.4859s1.6994.4859,2.67.729a7.8262,7.8262,0,0,1,1.4566.4859s-3.156-.4859-3.6416-.4859c-.7283-.2431-1.4566-.2431-2.4277-.486-.7283,0-1.6994,0-1.6994.2429a7.05,7.05,0,0,0-1.2138,4.3736,2.9166,2.9166,0,0,1-2.67,2.9158c-.4855.2429-.7283.2429-.9711.7288a.8877.8877,0,0,1,.4856-1.2148,4.5018,4.5018,0,0,0-2.9133,1.7009c-1.9422,1.4578-3.156,2.1867-3.8843,1.4578-.2428.243-.4856.486-.4856.7289.2428-2.43,1.9422-2.1867,2.9133-3.8876a5.5705,5.5705,0,0,0-3.3988.9719c-2.4277,1.2149-3.8843,1.4579-4.1271.4859a1.8406,1.8406,0,0,0-.9711.486,3.5346,3.5346,0,0,1,2.1849-1.4578,2.7768,2.7768,0,0,0,1.6994-1.9438,8.1015,8.1015,0,0,1-3.6415.7289c-4.8554.4859-5.0982.7289-5.0982.7289a7.6336,7.6336,0,0,1-5.0982.9719c-2.6705-.7289-2.6705-.4859-3.6416-1.4579Z"/></svg>