<svg id="Layer_1" data-name="Layer 1" xmlns="http://www.w3.org/2000/svg" viewBox="0 0 144 144"><path d="M133.2863,58.2611a43.4314,43.4314,0,0,0-8.16,2.6852,50.9823,50.9823,0,0,0-7.5242,4.7485c-4.5215,3.236-8.7932,6.2927-13.7279,5.0209a9.0649,9.0649,0,0,1-1.4462-.5057,27.7883,27.7883,0,0,0,.3058,3.7586,40.4867,40.4867,0,0,1-9.0681.2745c-4.126-.5969-7.2677.2711-9.3381,2.58-3.6388,4.0585-2.0565,10.7144-1.8639,11.46A2.4977,2.4977,0,1,0,87.3,87.0347c-.3074-1.2218-.8338-5.125.752-6.883.8858-.9822,2.5336-1.3067,4.8978-.9648a47.3229,47.3229,0,0,0,11.1038-.3408c3.4974,7.613,11.4863-.5074,21.74-3.2769,11.07-2.99,20.5864,1.3966,17.5967-9.6734a25.04,25.04,0,0,0-4.9141-9.2006,39.9985,39.9985,0,0,1-5.19,1.5659Z"/><path d="M81.2778,33.72a2.0439,2.0439,0,1,1-.99,2.7157,2.0437,2.0437,0,0,1,.99-2.7157ZM75.2312,19.706A50.46,50.46,0,0,0,76.6,28.4979c.9083,4.212,1.7779,8.2424.6653,11.7187.1907.1249.3837.243.579.3587,9.8364,5.89,9.4958-6.6075,15.3858-16.4439s15.7854-13.29,5.9445-19.18C92.8875,1.1844,83.7642.5033,76.4573,3.0737c.4518,2.459.0226,5.1134-.4519,8.0766a43.3474,43.3474,0,0,0-.7742,8.5557Z"/><path d="M69.1776,37.86a2.0434,2.0434,0,1,1,.9877-2.7157,2.044,2.044,0,0,1-.9877,2.7157ZM64.7726.5645C58.626.7893,51.9867,3.93,47.2161,8.555A11.937,11.937,0,0,1,49.88,12.3855a44.5172,44.5172,0,0,1,1.7643,4.73,55.0239,55.0239,0,0,0,2.2683,5.999l.0023.0023c.3179.6812.6563,1.3374,1.0014,1.9437a50.9052,50.9052,0,0,0,5.2815,7.1615,35.2234,35.2234,0,0,1,5.0544,7.1457,11.8942,11.8942,0,0,1,.9037,2.6975c.0477,0,.0931,0,.1408-.0023C77.7538,41.64,70.6581,31.3475,70.238,19.89S76.23.1445,64.7726.5645Z"/><path d="M53.7306,41.806a2.0428,2.0428,0,1,1-.99,2.7157,2.0445,2.0445,0,0,1,.99-2.7157ZM36.7916,12.9305a25.6434,25.6434,0,0,0-8.44,8.1719,12.5184,12.5184,0,0,1,4.4777,5.638c.4813,1.0309.9264,2.13,1.3941,3.2924.5087,1.2625,1.0354,2.57,1.653,3.8964A30.1022,30.1022,0,0,0,37.9792,37.76,51.1958,51.1958,0,0,0,43.69,44.583c2.316,2.4545,4.5027,4.78,5.7606,7.3477a27.2454,27.2454,0,0,0,7.8881-2.9177c9.9636-5.6743-1.0876-11.5166-6.7642-21.48-5.672-9.9636-3.8191-20.279-13.7827-14.6024Z"/><path d="M38.9941,53.1864a2.0444,2.0444,0,1,1-.9877,2.7157,2.0437,2.0437,0,0,1,.9877-2.7157ZM19.1375,26.7722C11.89,31.5155,6.7875,41.6993,7.43,50.5366a27.4314,27.4314,0,0,1,7.0435,2.6657,43.6157,43.6157,0,0,0,7.9722,3.2039,51.2013,51.2013,0,0,0,8.8168,1.2148c4.33.34,8.7715.69,11.8346,3.0108,7.3046-5.89-3.3174-10.9944-9.3-20.1359C27.5206,30.9,28.7332,20.4939,19.1375,26.7722Z"/><path d="M35.2454,67.7116a2.0439,2.0439,0,1,1-.99,2.7157,2.0436,2.0436,0,0,1,.99-2.7157ZM1.2608,73.4768c3.2606-1.1785,6.9209-.1907,10.479.772a43.6987,43.6987,0,0,0,8.4308,1.6621,50.9669,50.9669,0,0,0,8.8873-.4473,38.6044,38.6044,0,0,1,8.2106-.3361,12.8318,12.8318,0,0,1,2.4841.52,25.404,25.404,0,0,0,1.5394-4.262c2.89-11.0943-9.0076-7.2546-20.1042-10.1452C10.0913,58.3476,3.9992,49.8259,1.1087,60.92a25.9516,25.9516,0,0,0,.1521,12.5566Z"/><path d="M7.0405,103.67c2.0989-1.7527,4.9713-2.6312,7.9606-3.544a43.5236,43.5236,0,0,0,8.0225-3.0719,51.0314,51.0314,0,0,0,7.291-5.1035c3.6767-2.9095,7.1807-5.6783,11.1981-5.853.0481-10.0464-10.6-4.4525-21.68-5.2034C8.393,80.12.82,72.8787.0462,84.3181-.3992,90.88,2.4086,98.3465,7.0405,103.67Z"/><path d="M24.9058,126.9447a34.1911,34.1911,0,0,1,3.6838-5.0325,43.5941,43.5941,0,0,0,4.9959-6.9894,51.011,51.011,0,0,0,3.2647-8.2794c1.7341-5.2806,3.3739-10.2694,8.1066-12.16a9.0981,9.0981,0,0,1,1.38-.4306c-5.2572-8.0185-11.2742,2.203-20.9489,7.4007-10.1013,5.4269-20.3637,3.32-14.9377,13.4192,2.8389,5.2878,8.3745,9.7769,14.4555,12.0723Z"/><path d="M52.5021,109.0212a2.0444,2.0444,0,1,1,.9877-2.7157,2.0436,2.0436,0,0,1-.9877,2.7157Zm12.6452,20.606c5.4313-10.1-2.4523-24.0414-12.55-29.4728-10.0975-5.4336-9.1824,7.0344-14.6138,17.1342-5.4313,10.0975-15.1542,14.003-5.0567,19.4343,10.1,5.4313,26.7889,3.0018,32.22-7.0957Z"/><path d="M69.5468,131.9914a23.1228,23.1228,0,0,1-11.7839,10.1147c9.276,2.63,19.8629,1.5159,23.0158-4.3487,3.1476-5.8494-2.0538-14.6456-9.4585-20.6929a21.1977,21.1977,0,0,1-1.7734,14.9269Z"/><path d="M87.7341,62.726c1.0088-.8563,2.6855-.9566,4.9806-.3006a42.3632,42.3632,0,0,0,9.4341,1.1151c2.7435,3.9493,5.9978,2.59,10.0614-.1619.6571-.4442,1.3346-.9253,2.036-1.4253a58.6065,58.6065,0,0,1,8.7274-5.5151c10.35-4.9366,20.5026-2.34,15.5661-12.69a25.93,25.93,0,0,0-8.1284-9.4529c-1.9137,2.6011-5.1432,3.9014-8.5264,5.2636a43.5663,43.5663,0,0,0-7.7316,3.7554,50.8542,50.8542,0,0,0-6.8253,5.71c-2.7306,2.5685-5.359,5.0444-8.3345,6.1963a28.1558,28.1558,0,0,0,.81,3.21,29.2819,29.2819,0,0,1-5.7166-.8095c-4.0106-1.1438-7.2387-.7055-9.6,1.3072-4.15,3.5336-3.4724,10.3429-3.3813,11.1072a2.4633,2.4633,0,0,0,.2147.7616,2.4992,2.4992,0,0,0,4.7464-1.3513c-.1424-1.2513-.1406-5.1906,1.6668-6.72Z"/><path d="M74.1626,60.4586a2.19,2.19,0,0,0,.0933.227A2.4969,2.4969,0,0,0,78.8736,58.8c-.41-1.1916-1.27-5.0346.1588-6.9236.7988-1.0538,2.4134-1.5188,4.7978-1.38a39.7468,39.7468,0,0,0,8.6418-.82c2.9173,2.4954,5.7213.8521,9.0223-2.0675,1.04-.9184,2.13-1.9652,3.29-3.05a49.6953,49.6953,0,0,1,6.6343-5.4261c9.5976-6.2765,20.0041-5.0585,13.73-14.6549-3.6359-5.5626-10.4787-9.8627-17.4577-11.2734a11.7332,11.7332,0,0,1-.7632,1.576,32.1423,32.1423,0,0,1-4.1,5.1661,43.4294,43.4294,0,0,0-5.3124,6.7513,51.0909,51.0909,0,0,0-3.6432,8.1175c-1.3922,3.6607-2.73,7.1806-5.0844,9.5237.13.2747.2672.5467.4093.8138a26.92,26.92,0,0,1-5.08.3569c-4.1614-.2418-7.2174.8926-9.0811,3.37-3.2775,4.3567-1.1308,10.8518-.8742,11.5791Z"/><path d="M133.139,91.2127a2.0434,2.0434,0,1,1,.9877-2.7157,2.0438,2.0438,0,0,1-.9877,2.7157Zm2.47-11.9912a43.6409,43.6409,0,0,0-8.5149,1.1694,50.6785,50.6785,0,0,0-8.256,3.3151c-3.9214,1.846-7.6612,3.6034-11.335,3.2742a25.9474,25.9474,0,0,0,7.5612,10.2656l.0025.0017a16.4365,16.4365,0,0,0-2.322,5.5876,13.6192,13.6192,0,0,0,.2927,6.5049,18.1385,18.1385,0,0,0,2.8161,5.5247,17.48,17.48,0,0,1-1.5316-5.7593,12.4044,12.4044,0,0,1,.1326-2.8566,11.8776,11.8776,0,0,1,.79-2.6578,13.313,13.313,0,0,1,2.9238-4.1255c4.0023,2.4239,8.5314,3.5747,12.7813,2.5667a13.2316,13.2316,0,0,0,3.5406-1.4046,17.1894,17.1894,0,0,1,.1094,1.8245,13.48,13.48,0,0,1-1.0056,5.3278,11.8706,11.8706,0,0,1-1.3935,2.3969,12.4357,12.4357,0,0,1-1.9886,2.0551,17.4806,17.4806,0,0,1-5.2431,2.8328,18.1315,18.1315,0,0,0,5.9526-1.737,13.62,13.62,0,0,0,4.9364-4.2463,16.7225,16.7225,0,0,0,2.6328-6.1786,21.913,21.913,0,0,0,.4476-3.3524c.0267-.5649.0442-1.1321.0288-1.7052-.0066-.287-.0178-.5749-.0375-.8681-.0034-.0656-.01-.1344-.0159-.2018l.0014-.0019c4.0167-5.0044,5.7628-12.5157,4.8455-19.0165-2.416,1.0786-5.3133,1.2738-8.1515,1.4646Z"/></svg>