<svg xmlns="http://www.w3.org/2000/svg" viewBox="0 0 33.19 35.77"><g id="Ants"><path class="cls-1" d="M18.74,1a2.5,2.5,0,0,0,.18.48,7,7,0,0,0,.48.9,11,11,0,0,0,1,1.29l0,.05c-.09.09-.2.18-.32.28l-.76.56-.44.34A4.88,4.88,0,0,1,19.55,6l.51-.53c.23-.22.46-.45.7-.71a3,3,0,0,0,.35-.42A2.11,2.11,0,0,0,21.29,4l.08-.19a2.7,2.7,0,0,0,0-.28V3.36l-.17-.14A6.66,6.66,0,0,1,20,1.93a4.86,4.86,0,0,1-.43-.77A3.58,3.58,0,0,1,19.3.34l0-.08h0a.35.35,0,1,0-.68.2Z"/><path class="cls-1" d="M11.82,3.85,11.9,4l.17.27a3.92,3.92,0,0,0,.36.42c.23.26.47.49.7.71l.51.53a5.11,5.11,0,0,1,.71-1.12l-.44-.33L13.16,4c-.12-.1-.23-.19-.32-.28l0-.05a12.26,12.26,0,0,0,1-1.29,8.55,8.55,0,0,0,.48-.9A3.41,3.41,0,0,0,14.45,1l.14-.5h0A.35.35,0,0,0,14.34,0a.36.36,0,0,0-.44.25V.34a3.58,3.58,0,0,1-.27.82,4.86,4.86,0,0,1-.43.77,7,7,0,0,1-1.25,1.29l-.17.14v.21A1.35,1.35,0,0,0,11.82,3.85Z"/><path class="cls-1" d="M19,13.58a8.72,8.72,0,0,1,.33,1.73l.18-.26L21,13.2c.49-.62,1-1.21,1.55-1.81s1-1.09,1.55-1.63a32.26,32.26,0,0,0,3.21-.85,16.27,16.27,0,0,0,1.63-.65,6.76,6.76,0,0,0,.79-.43,3.81,3.81,0,0,0,.74-.62h0a.31.31,0,0,0-.05-.44.32.32,0,0,0-.44,0l0,0a2.08,2.08,0,0,1-.57.47,6.18,6.18,0,0,1-.73.36,13.91,13.91,0,0,1-1.58.52,28.83,28.83,0,0,1-3.3.68h0a.34.34,0,0,0-.18.09c-.61.56-1.29,1.1-1.83,1.69s-1.14,1.15-1.68,1.77Z"/><path class="cls-1" d="M3.48,7.83a6.76,6.76,0,0,0,.79.43,16.27,16.27,0,0,0,1.63.65,31.55,31.55,0,0,0,3.21.85c.52.54,1.06,1,1.55,1.63s1.06,1.19,1.54,1.81l1.46,1.85.18.26a8.72,8.72,0,0,1,.33-1.73l-1-1.17c-.55-.62-1.13-1.18-1.69-1.77S10.24,9.51,9.63,9a.31.31,0,0,0-.18-.09h0a28.83,28.83,0,0,1-3.3-.68,13.91,13.91,0,0,1-1.58-.52,5.5,5.5,0,0,1-.73-.36,2.08,2.08,0,0,1-.57-.47l0,0h0a.31.31,0,1,0-.46.42A3.81,3.81,0,0,0,3.48,7.83Z"/><path class="cls-1" d="M25.42,30.72c-.07-.49-.16-.92-.22-1.43L25,27.71l-.28-3.16v0a.54.54,0,0,0-.21-.38L22.92,23l-.82-.59a8.28,8.28,0,0,0-.83-.53l-2-1.22a6.81,6.81,0,0,1-.44,1.4l1.77,1a9.54,9.54,0,0,1,.83.49l.78.53,1.4.93L24,27.84l.23,1.58c.07.53.22,1.12.34,1.67a.2.2,0,0,0,0,.08l0,0,3.52,4.37.05.06a.35.35,0,0,0,.55-.43Z"/><path class="cls-1" d="M32.91,21.74l-5.12-1.3-4.72-3.56a.6.6,0,0,0-.34-.11H21.38L20,16.83l-.59.06c0,.43,0,.9,0,1.42l.09,0,.62-.08c.41-.05.84-.08,1.26-.11L22.52,18l4.77,3.26h0a.41.41,0,0,0,.15.07l5.28,1.09a.37.37,0,0,0,.17-.73Z"/><path class="cls-1" d="M5.88,21.31h0L10.67,18l1.09.06c.42,0,.84.06,1.26.11l.62.08.09,0c0-.52,0-1,0-1.42l-.59-.06-1.34-.06H10.46a.6.6,0,0,0-.34.11L5.4,20.44.28,21.74a.37.37,0,0,0,.17.73l5.28-1.09A.41.41,0,0,0,5.88,21.31Z"/><path class="cls-1" d="M14.35,22a6.81,6.81,0,0,1-.44-1.4l-2,1.22a9.59,9.59,0,0,0-.83.53l-.81.59L8.64,24.15a.56.56,0,0,0-.21.38v0l-.28,3.16L8,29.29c-.05.51-.14.94-.21,1.43L4.44,35.21a.36.36,0,0,0,.06.48.35.35,0,0,0,.49,0l0-.06,3.52-4.37,0,0a.2.2,0,0,0,0-.08c.11-.55.27-1.14.34-1.67l.23-1.58L9.57,25,11,24l.78-.53a9.54,9.54,0,0,1,.83-.49Z"/><path class="cls-1" d="M16.59,34.06a4.83,4.83,0,0,0,3.75-4.93c0-4.49-2.3-4.28-3.1-6.07a6.08,6.08,0,0,0,1.36-3.82c.27-7.13-1.27-6-1.41-7.7,0-.47-.06-.78-.07-1,1.43,0,2.38-.41,2-3.06C19,6,17.71,4.43,16.59,4.43S14.22,6.05,14,7.48c-.34,2.63.6,3.06,2,3.06,0,.22,0,.53-.07,1-.15,1.68-1.68.57-1.41,7.7A6,6,0,0,0,16,23.06c-.79,1.78-3.1,1.59-3.1,6.07A4.82,4.82,0,0,0,16.59,34.06Z"/></g></svg>