<svg id="Layer_1" data-name="Layer 1" xmlns="http://www.w3.org/2000/svg" viewBox="0 0 144 144"><path d="M144,71.0055s-10.74,3.58-17.9006,0C133.26,59.0718,138.4311,57.4805,144,54.2983c-6.3646-6.3646-16.707-4.3756-16.707-4.3756s0-8.3538,4.7733-12.7294c8.3537-6.7625,12.3316-11.536,11.1383-19.4918-6.3648,3.1823-11.536,4.3758-19.0941,4.7735,5.5691-5.9668,1.9889-14.7183-2.3867-19.8895-2.7846,5.5692-11.536,14.32-17.1049,19.4918A29.7676,29.7676,0,0,0,100.243,4.9721a13.26,13.26,0,0,1-9.5468,9.5471c-7.9558,1.989-12.7293,8.7515-12.7293,8.7515S77.1712,12.1326,81.1491,5.37c-15.5137-.398-25.8564,10.74-27.05,15.9116-3.1823-5.5692-2.3866-11.536,0-16.7073-3.58.7957-15.9116,5.5692-17.9006,14.7183C31.0276,8.1547,16.3093,6.9611,11.5358,6.1657c1.5912,1.591,4.7735,3.9779,6.3648,6.7623s1.591,5.9668,3.58,8.7514L7.16,17.3038s11.1381,13.127,13.5247,18.2983C17.5026,35.2044,5.9669,36.3977,0,37.591c1.1933.398,22.6739,9.5471,25.0608,19.0939-5.5692-1.591-13.1271-.3977-19.4919,3.9779,7.9558.398,12.7294,9.1494,17.9006,13.525-7.16-.7956-13.127,3.9779-19.8895,9.5471,9.9447-1.1936,12.7293,1.9889,20.2874,5.5689-8.7514,3.1823-23.47,12.7293-17.9,34.6078,3.58-7.16,11.5357-15.5139,19.0939-14.32-5.9669,5.1712-11.9338,18.6959-4.7736,31.8232,5.1713-12.3316,15.116-19.0941,23.0718-21.0831,3.58,3.58,3.58,11.9337.7957,20.2875,11.536-5.1713,12.3314-13.1271,18.2982-19.0939,3.1825,5.5689,9.1494,9.5468,19.4919,15.5137-2.7846-7.16,2.3866-12.7294,5.1712-15.5137,1.5913,3.1823,9.1491,8.7512,19.89,11.5358-1.1933-3.58.398-8.7515,1.989-12.7294,4.7735,9.9448,23.0718,15.5139,32.2212,11.9337-3.1826-1.591-11.1384-3.9779-11.1384-13.9226a24.5759,24.5759,0,0,0-6.7622-15.9117s10.74-.3977,17.1049,3.1826c-.3979-5.1715-4.7735-11.1384-9.9447-16.31C141.6134,88.9061,144,71.0055,144,71.0055Zm-42.9613-.3979S99.8453,77.37,96.6631,77.37c1.9889,1.9889,3.58,3.9779,3.58,5.9668-2.3866-1.1933-6.3645-1.1933-6.3645-1.1933a9.1306,9.1306,0,0,1,2.3866,5.9669,6.0281,6.0281,0,0,0,4.3759,5.1712c-3.1823,1.1933-9.9448-.7956-11.9337-4.3756a7.175,7.175,0,0,0-.7957,4.7735c-4.3756-1.1935-7.16-3.1825-7.5581-4.3758-1.1933,1.1933-3.1823,3.1823-1.9889,5.9669-3.58-1.989-5.9669-3.58-7.16-5.569-1.989,2.3867-2.3867,5.1713-6.7625,7.16.7956-3.1823.7956-6.3648-.3977-7.5581A13.0059,13.0059,0,0,0,55.2927,97.26,9.7083,9.7083,0,0,1,56.884,85.3259c-2.7846-.7956-5.9669,2.3869-7.16,5.1712-1.9889-7.9558,3.58-11.5358,6.7623-12.7291-2.7844-1.1936-3.9779-2.3869-7.5579-1.9889,2.7846-1.989,4.7735-3.9779,7.5579-3.58-1.989-1.5912-3.9779-5.1712-6.7623-5.1712,2.3867-1.5912,5.1713-2.3869,7.16-1.5912-.7956-3.58-8.7514-7.16-9.1491-7.16,1.9889-.3977,6.3645-1.1933,7.5578-.7957-1.1933-1.9889-5.1712-6.7624-5.1712-6.7624l4.7736,1.1935a27.342,27.342,0,0,1-1.1934-3.1825,6.8569,6.8569,0,0,0-2.3869-2.3866c1.989,0,7.5582.7956,9.1492,4.7735.7956-3.58,5.5691-5.1712,6.7625-5.5692-.7957,1.989-1.1934,4.3759,0,6.3648.7956-1.9889,4.7735-5.9668,10.3427-5.9668-1.5913,2.7843-1.1936,6.7622-1.1936,6.7622a8.6089,8.6089,0,0,1,4.7735-3.1823,5.5665,5.5665,0,0,0,3.58-3.58A9.02,9.02,0,0,1,86.32,52.3093c1.9889-1.9889,5.1714-5.1712,6.3648-7.16,1.591,1.989,2.7845,5.569.7956,7.5579a21.24,21.24,0,0,0,7.16-1.9889c.7956,2.7845-.7957,4.7735-3.9779,7.16-1.989,1.591-1.989,4.7733-1.989,4.7733s3.9779-.7954,6.3646,1.5912a15.7824,15.7824,0,0,0-6.7625,6.3646C97.0608,71.8012,101.0387,70.6076,101.0387,70.6076Z"/></svg>