<?xml version="1.0" encoding="utf-8"?>
<svg version="1.1" id="Layer_1" xmlns="http://www.w3.org/2000/svg" xmlns:xlink="http://www.w3.org/1999/xlink" x="0px" y="0px"
	 viewBox="0 0 41.1 35.6" style="enable-background:new 0 0 41.1 35.6;" xml:space="preserve">
<path class="st0" d="M40.7,21.3c-1.2-1.2-5.6-0.4-6.1-0.5c-0.3-0.1-0.9-0.4-0.3-0.8c0.5-0.3,1.2-0.3,2.4-0.4c0.9,0,2.3-1.1,2.4-1.5
	c0.6-1.4-1.7-3.4-2.6-4.5c-0.8-1-3-1.3-3-1.3c-0.2-0.5-0.8-1.5-1.7-1.6c-0.9-0.1-1.7-0.7-1.9-0.9c0,0-0.1,0-0.1,0
	c0,0.2-0.1,0.8-0.1,1.4c-0.1,1,0.6,2.3,0.6,2.3c0.2,1.2-0.9,3-6.6,6.9c-6.1,4.2-4.2,12.4-4.1,12.9c-2-1.6-4.4-5.2,2.3-17.3
	c3.4-6.1,2.7-12-2.1-14.7c-5.6-3.2-12,0.2-12,0.2c2-0.4,2.6,0.1,2.6,0.1C5,1.4,0,12.2,0,12.2S11.2,7,14,11.9c0,0-3-2.2-7.7-0.2
	c0,0,7.5,0.3,6.5,5.7c-1,5.6-4.6,13,1.4,16.7c1.6,0.9,2.2,1.5,4,1.5H20h8.7h6c0.2-0.6-0.4-2.2-1.2-1.7c-0.7,0.5-2.3,0-2.3,0
	c3.5-7.5-4.3-9.4-4.3-9.4c2.2-0.1,4,1.8,4,1.8c3.4,0.9,5.9-3.7,6.4-4c0.5-0.3,0.9-0.3,1.3-0.2c0.3,0.1,0.5,0.9,0.9,1
	c0.2,0.1,0.4-0.1,0.7-0.2c0.2-0.1,0.5,0.1,0.6,0C41.4,22.5,41,21.6,40.7,21.3z"/>
</svg>
