<svg id="Layer_1" data-name="Layer 1" xmlns="http://www.w3.org/2000/svg" viewBox="0 0 144 144"><path d="M97.8351,26.7443c-12.2892,8.1714-11.5,20.1345-9.4969,25.509,4.4792-5.046,13.253-11.0891,19.882-10.34-15.3319,7.7133-26.3218,25.7-26.6668,29.4519-2.7923-10.3-14.9963-17.51-20.3732-19.329,9.3645-.26,14.5807,5.3508,15.29,7.1532,1.8049-8.781-5.873-14.5309-9.993-15.8658-8.6745-2.8063-15.7.2008-26.86-4.342C37.5092,54.1646,50.0534,76.978,71.2723,70.3444a58.8977,58.8977,0,0,1,4.9754,11.6631h13.05c.5385-7.243,2.8678-15.5941,5.9957-20.9188,21.6583,13.6,47.2336-10.31,48.7078-46.1919C120.2447,19.2981,107.6154,20.2406,97.8351,26.7443Z"/><path d="M137.5325,90.9823c-.5339-3.3311-4.8522-3.8909-9.3928-3.1349-5.4144.9072-22.504,5.5728-28.75,7.0492a14.6791,14.6791,0,0,1-3.0853,7.8456c-2.1736,2.8419-6.2792,6.2226-13.48,6.2226-8.1549,0-23.0357-2.8066-28.76.3425a7.1741,7.1741,0,0,1,2.8726-5.4831C60.59,101.2114,70.16,101.67,82.8244,101.67a9.439,9.439,0,0,0,6.9738-2.5512c1.5782-1.5758,4.1908-5.7076,1.11-8.32-4.1768-3.3829-18.4361-1.408-18.9557-1.38-2.06.111-10.2622.619-12.3175-3.3476-5.7927-9.7612-19.1874-7.9943-22.4333-7.34-3.35.6757-9.1045,4.6-11.1126,5.6343-3.4728,1.8-12.4641,4.9067-22.9576,5.488A3.5088,3.5088,0,0,0-.0009,93.51c.0426,5.8658,1.2759,11.1718,5.4289,18.3628a35.6985,35.6985,0,0,0,6.7517,8.8589,7.5609,7.5609,0,0,0,5.83,2.2657c9.01-.9734,13.4422-.8694,21.3419.8172,7.98,1.7057,20.9875,6.6786,34.8878,4.9163,25.4712-3.2341,56.3429-29.49,58.4453-30.1914C134.5372,97.4787,138.0523,94.318,137.5325,90.9823Z"/></svg>