<svg id="Layer_1" data-name="Layer 1" xmlns="http://www.w3.org/2000/svg" viewBox="0 0 144 144"><path d="M87.4448,60.5529H73.6611v5.2154H87.4448v9.6858H73.6611V80.67H87.4448v9.6858H73.6611v5.2155H87.4448v9.6858H73.6611v2.98H59.8774V53.4748H54.662v71.5261a18.9991,18.9991,0,1,0,37.9982,0V53.4748H87.4448ZM100.1109,9.8885a12.0575,12.0575,0,0,0-17.1365,2.6077c-2.98,3.7254-2.98,8.9408-1.1176,13.0387,3.7253-2.6078,9.6858-4.843,16.0189-2.2352-6.3331-1.49-11.5485,1.49-14.9013,4.0978A4.4889,4.4889,0,0,0,81.1118,29.26l-.3726.3725a16.5077,16.5077,0,0,0-1.8626,2.2352h0a24.9759,24.9759,0,0,0-4.47,11.921H71.7985c-.3726-4.0978-1.49-12.2935-7.0782-19.3716h0a13.4519,13.4519,0,0,1-1.49-1.8627h0c-2.98-2.98-9.3133-8.5682-17.1364-6.333,6.333-2.98,12.2935-.3726,16.0188,2.2352A11.9538,11.9538,0,0,0,60.995,5.4181c-3.3528-5.96-11.1759-7.0781-16.7639-2.98-9.3133,6.7056-21.9794.745-21.9794.745l11.176,15.2739S44.2311,32.613,58.76,22.1821h0c.3726.3725.7451,1.1176,1.1176,1.49L60.995,24.79c4.0979,5.9605,5.9605,14.1562,6.3331,18.2541H54.662a5.2155,5.2155,0,1,0,0,10.4309H92.2877a5.2155,5.2155,0,1,0,0-10.4309H79.9942A17.6144,17.6144,0,0,1,84.8371,32.613,17.4135,17.4135,0,0,0,86.7,30.3778c13.7837,8.9407,23.8421-4.8429,23.8421-4.8429l11.1759-15.2738C122.4628,10.6336,109.4242,16.9666,100.1109,9.8885ZM58.76,22.1821Z"/></svg>