<svg id="Layer_1" data-name="Layer 1" xmlns="http://www.w3.org/2000/svg" viewBox="0 0 144 144"><path d="M85.84,79.8144c1.3112-3.1972,2.6456-6.8469,3.8624-10.8749a6.7837,6.7837,0,0,1-1.0563.0928,6.6938,6.6938,0,0,1-2.2866-.3852c-.0384.0691-.0775.1358-.1166.2-1.9589,3.3124-4.34,4.0168-5.9888,4.0168a6.0957,6.0957,0,0,1-.824-.0576l-.33.2026c-.4534.2783-.9111.52-1.3673.746-.237.8375-.498,1.7668-.7907,2.8118a55.5975,55.5975,0,0,0-1.8713,11.9455c-4.2122-1.2069-17.2661-4.66-17.6489-1.2149-.0478.4538-.08.9173-.0919,1.38-3.548,5.3085-15.1267,22.9585-11.4377,21.7934a7.8888,7.8888,0,0,1,1.0177-.1916c-1.2913,1.2729-2.6962,2.7919-1.8167,2.5888a12.1013,12.1013,0,0,1,1.35-.0378,2.793,2.793,0,0,0-.4365.723s-2.6256,2.283-1.1415,1.94a4.454,4.454,0,0,1,.7725-.0052,2.735,2.735,0,0,0-.6584.9185s-2.5114,2.74-1.0274,2.3973c.119-.02.3092-.0365.5224-.053a1.6453,1.6453,0,0,0-.2941.5095s-2.5114,1.9407-1.0273,1.7125a2.7307,2.7307,0,0,1,.9787.0067,2.2792,2.2792,0,0,0-1.0928,1.1347s-1.0716,1.8847-.2677,2.0637a1.7365,1.7365,0,0,0-.5316.676s-1.0313,1.8089-.3262,2.1318c.509,5.2158-1.121,7.1274,1.81,8.142-.6847-1.484.2284-2.9678.5708-4.2236l.2125-4.034a.6182.6182,0,0,0,.3584-.19c.3425-.5707.1141-1.484.3425-2.3971a.7785.7785,0,0,0,.0069-.15.8946.8946,0,0,0,.6779-.3068c.3424-.5708-.1141-1.4839.2283-2.3972a.7886.7886,0,0,0-.008-.251c.2814-.0114.4958-.067.5789-.2055.3424-.5709.1141-1.4842.3424-2.3972a.8329.8329,0,0,0,.0094-.1667c.2253-.0766.3984-.1682.4472-.29.3814-.4766.2085-1.6665.2732-2.579.4244-.0282.7638-.1006.8682-.2748.2863-.477-.2971-1.5884-.3659-2.4748a2.0773,2.0773,0,0,0,1.1651-.265,8.5552,8.5552,0,0,0,.9132-2.0548,1.9856,1.9856,0,0,0,.07-.5439c1.6788-.2,3.242-.5426,3.8113-1.3966,1.37-2.0548,1.9406-5.5934,3.0822-8.5615a29.9347,29.9347,0,0,0,1.7688-6.7854c1.6558,1.1918,11.13,1.42,13.6419,2.2192a5.3283,5.3283,0,0,0,3.4212-.0033c1.3733.8025,2.629-.7957,5.3687-6.1609,1.0447-2.0479,2.2889-4.6206,3.5859-7.6471a2.4125,2.4125,0,0,1,.2415-.7867A1.4742,1.4742,0,0,1,85.84,79.8144Z"/><path d="M117.01,85.6985a5.22,5.22,0,0,0,2.2993-.7165,2.5829,2.5829,0,0,0,.5544.1458c2.4576.2048,3.4441-6.603,3.951-22.8329a8.1884,8.1884,0,0,1-1.7648-.7437l-.8686,2.5758-3.419-2.3073a3.2093,3.2093,0,0,0-1.8047-.41c-.2746,0-.5662.0206-.8638.0478.11,3.84.8517,10.3477,1.117,15.5658.0318.7476.0908,1.4267.1657,2.065a40.7571,40.7571,0,0,0-9.2572.5608,3.3483,3.3483,0,0,0-3.4653,4.2235s3.0393,8.9274,5.9234,9.8353a.6631.6631,0,0,0,.0126.21s.2229,2.1365,1.284,1.6266a.9947.9947,0,0,0-.2567.8848s.2691,1.7731,1.1177,1.718a.9457.9457,0,0,0-.2045.7936s.218,2.0414,1.3225,1.6467a.9061.9061,0,0,0-.1809.8646s.2069,1.9385,1.15,1.5783a.9476.9476,0,0,0-.2368.9331s.2149,2.0165,1.2057,1.6526a.9147.9147,0,0,0-.1782.7446s.1739,1.7023,1.0333,1.7193c3.9757,3.9137,3.6838,5.9266,7.1858,5.7008-1.7123-.9135-1.7123-2.2833-2.2831-3.4247l-2.2831-3.3105c-.0263-.0177,0-.0641,0-.1141a4.1944,4.1944,0,0,0-.5708-1.8266.8568.8568,0,0,0-.6232-.5355.3209.3209,0,0,0,.0525-.1494,4.2575,4.2575,0,0,0-.4566-1.8264.8849.8849,0,0,0-.5824-.45c.0888-.0724.1473-.1485.1257-.2347a3.9139,3.9139,0,0,0-.4566-1.8265.8919.8919,0,0,0-.6184-.4607.2317.2317,0,0,0,.0477-.11,5.1489,5.1489,0,0,0-.5708-1.9406.7789.7789,0,0,0-.4721-.4316.3765.3765,0,0,0,.13-.2533,7.0554,7.0554,0,0,0-.4565-1.8265.9118.9118,0,0,0-.7046-.4857c.0075-.0282.027-.0549.02-.085a3.9146,3.9146,0,0,0-.4566-1.8266.9425.9425,0,0,0-.5539-.4915,5.1544,5.1544,0,0,0,.3256-2.3623,10.6416,10.6416,0,0,0-1.2013-3.8A32.5351,32.5351,0,0,0,117.01,85.6985Z"/><path d="M108.6771,111.6115l-2.9695-2.7573a.6467.6467,0,0,0,.1157-.5533,10.3823,10.3823,0,0,0-.9133-2.0547.6422.6422,0,0,0-.684-.3332,10.2611,10.2611,0,0,0-.9142-2.0641.6723.6723,0,0,0-.5866-.3535.486.486,0,0,0,.0159-.3312,6.3336,6.3336,0,0,0-.9132-2.055.6428.6428,0,0,0-.6739-.335.3985.3985,0,0,0-.011-.1214,4.2307,4.2307,0,0,0-.9133-1.9407.7212.7212,0,0,0-.5089-.3808.548.548,0,0,0,.0524-.3042,6.8973,6.8973,0,0,0-1.0275-2.0547.67.67,0,0,0-.5786-.3515.4467.4467,0,0,0,.0078-.1051,7.4468,7.4468,0,0,0-.9133-1.9406.7827.7827,0,0,0-.6291-.3941,10.25,10.25,0,0,0-.3982-2.9164,20.2116,20.2116,0,0,0-2.5156-4.7387c1.0545-.0025,2.1552-.0539,3.3147-.17a5.189,5.189,0,0,0,3.1243-1.2747c2.7245.019,6.9777-7.6078,9.2049-21.5888a19.525,19.525,0,0,1-3.3434.3392,11.8322,11.8322,0,0,1-1.3136-.07,19.8557,19.8557,0,0,1-5.6134,2.3944,36.6155,36.6155,0,0,1-.4607,5.2456,40.5885,40.5885,0,0,0-.3457,7.7459,4.5386,4.5386,0,0,0-.4533-.0978s-9.685-.4731-11.9924,1.7643c-.25.61-.4986,1.1992-.7457,1.7759a5.8355,5.8355,0,0,0,.5236,3.0809s6.3773,10.82,9.3466,11.2407a1.0784,1.0784,0,0,0,.1282.4029s.82,2.3527,1.4888,1.4325a1.6832,1.6832,0,0,0,.1092,1.0789s.7355,2.106,1.3815,1.549a1.5585,1.5585,0,0,0,.1026,1.0766s.8055,2.3146,1.471,1.5562a1.5949,1.5949,0,0,0,.1273.9552s.6652,2.1765,1.3888,1.5185a1.5541,1.5541,0,0,0,.095,1.1072s.677,2.2153,1.4075,1.5917a1.6525,1.6525,0,0,0,.0766.9195s.6971,2.0035,1.4062,1.5961c4.1891,3.0326,4.5633,5.5759,7.2695,3.9973C109.9328,114.3512,109.4762,112.6389,108.6771,111.6115Z"/><path d="M48.29,39.58c.5709.5709,1.5981,2.3973,2.5115,2.9681-.685.5708-1.2557,1.2557-1.8265,1.8265-3.0822,3.5388-1.8264,3.4246-1.7124,7.0775.3425,7.9908,5.9361,27.5111,10.16,25.3422.6869-.3815,5.6061-.8748,9.7487-3.0987-2.6236-2.41-4.85-8.9579-7.773-19.5851-.4366-1.5883-.8011-2.9142-1.0765-3.78l-.2011-.5969c-1.21-3.5656-.9583-4.4641,2.2451-8.0114.2195-.2762.5057-.5907.8087-.9092-.5471-.7013-1.1463-1.4279-1.4386-1.72-4.0214-3.3645-1.3474-7.8341.25-10.505.2225-.3721.4389-.7328.6315-1.0773,2.3678-4.3973,3.828-7.6606,4.8355-10.0108,1.168-2.7247,1.9292-4.3691,2.599-5.5709A42.59,42.59,0,0,0,56.1663,8.8729C51.8284,12.4117,41.44,33.6444,48.29,39.58Z"/><path d="M61.9881,28.2791c-1.5981,2.8537-4.68,6.735-1.1414,9.7031a33.8454,33.8454,0,0,1,2.3972,2.968c-.5709.5707-1.2558,1.2557-1.7124,1.8263-3.1964,3.539-2.8538,3.6531-1.7123,7.0777,1.5982,5.0229,6.1644,25.3422,10.388,23.1733.8011-.4313,4.2265-.8428,7.2486-2.698-4.34-2.96-7.34-12.2785-7.9015-19.0908a17.6817,17.6817,0,0,0-.2762-1.7778c-.47-2.4154-.2279-3.4919,2.3725-6.4637l.7312-.7358c-.2778-.3453-.5264-.7052-.7535-1.0343a5.6629,5.6629,0,0,0-.4972-.6783c-3.9485-3.4375-2.0172-6.1414-.6061-8.1157.3168-.4435.6529-.9115.9606-1.4241a55.5183,55.5183,0,0,0,6.3662-12.9934,20.1071,20.1071,0,0,1,1.5429-3.6036c-3.2389-1.6059-6.8126-3.0733-9.0734-3.1418-.9131,1.2558-1.7123,2.8538-3.4246,6.8492C65.8694,20.5167,64.3854,23.8271,61.9881,28.2791Z"/><path d="M20.5212,43.3272c.1734-.2187.3867-.46.6168-.7075a7.7086,7.7086,0,0,1-1.6419-2.608c-4.1888-12.4654-3.4051-19.7706-1.4515-24.0033a21.7148,21.7148,0,0,1-5.0285,2.2251C8.5641,21.3158,5.71,26.3384,10.5047,39.01a7.4967,7.4967,0,0,0,2.5114,2.5114,7.682,7.682,0,0,0-1.7123,1.5982c-1.9406,1.8265-1.1415,6.3926-.4567,10.16C12.3312,61.27,17.24,68.8037,18.61,70.0593A16.4154,16.4154,0,0,0,25.644,74.17c-2.5172-4.1865-4.9972-11.5994-5.9615-17.6771C18.7855,50.8044,18.2292,45.8884,20.5212,43.3272Z"/><path d="M96.3484,49.0551c-1.2556,2.74-3.0821,3.9954-4.4519,6.735,1.43,8.6673,6.4263,7.2627,12.1978,3.67,4.58,1.2229,11.36-2.9914,15.4274-.2457.2743-.8154.52-1.5826.7481-2.3191a17.904,17.904,0,0,0-1.9854-1.3832,14.2818,14.2818,0,0,1-4.2715-3.6132l-1.8691-2.6564,4.4488.254c1.2092.0721,2.1261.1281,2.86.1281a6.0974,6.0974,0,0,0,1.0888-.0652,14.9081,14.9081,0,0,1-5.3534-2.85l-2.7592-2.3648,3.6132-.3906c2.8237-.3054,4.0436-.7458,4.9222-1.3535a11.1572,11.1572,0,0,1-.0529-8.3082,6.606,6.606,0,0,1,3.316-3.6846c-3.5326-2.5179-8.3626-6.3448-11.441-6.4381a3.8433,3.8433,0,0,0-.2982.9382c-2.726-2.2775-6.7918-4.472-9.7474-4.7053-1.37,2.8538.9133,9.4748-8.1049,18.2646C91.8965,41.4067,90.1842,45.7447,96.3484,49.0551Z"/><path d="M86.5312,45.2881c-6.1644,4.3378-4.1095,6.7351-3.8812,9.2464,1.6087,13.6009,6.8691,13.0486,11.1043,8.3193-1.7062-1.187-2.8547-3.45-3.4086-6.8079l-.0828-.5026.2278-.4558A19.7105,19.7105,0,0,1,92.85,51.5533a22.1913,22.1913,0,0,0,1.4056-1.9267,7.5734,7.5734,0,0,1-3.61-5.1c-.3383-2.3.6837-4.7756,2.88-6.97,6.2151-6.0578,6.6985-10.7928,7.0514-14.25a12.8381,12.8381,0,0,1,.5918-3.1739,14.131,14.131,0,0,0-7.3315-2.0129c-1.37,3.0822-2.2831,4.9086-8.9041,16.21C81.965,39.4661,80.3668,41.8635,86.5312,45.2881Z"/><path d="M72.1478,39.352c.5708.4567,1.484,2.3973,2.5113,2.8539-.6848.685-1.2556,1.2556-1.8264,1.8264-3.1963,3.6531-2.0548,3.5388-1.7122,7.0775.9132,11.073,7.6483,24.2007,12.4427,16.0958a10.4906,10.4906,0,0,0,.807-2.0188q-2.4017-3.1178-3.2811-10.4676a9.2561,9.2561,0,0,0-.21-1.1755c-.5455-2.4684-.6967-4.96,2.9195-8.1172a6.87,6.87,0,0,1-2.8865-3.6608c-.6783-2.4545.6975-4.8316,2.4385-7.84l.2217-.3829c5.7553-9.8228,7.1708-12.4494,8.2728-14.8336-3.3561-1.8583-7.3815-3.8746-10.223-4.585-2.3972,1.9406-1.9406,7.1918-8.79,17.6938C71.1205,34.6718,68.609,36.27,72.1478,39.352Z"/><path d="M10.1412,42.0573q.2025-.2475.4143-.4773a6.946,6.946,0,0,1-1.51-1.988c-1.8608-4.917-2.7263-9.0174-2.5791-12.4452C4.6712,29.3758,3.6306,31.7726,3.88,34.11,1.8817,37.0609-.08,40.4955.0025,41.4067c.1142,2.1689,2.74,5.2512,4.3378,6.1644a6.37,6.37,0,0,1,2.2625,2.2363c.0813.4024.1659.8006.249,1.1882A33.0888,33.0888,0,0,0,12.0765,62.205a39.5691,39.5691,0,0,1-2.7747-8.639C8.5682,49.53,7.6575,44.5249,10.1412,42.0573Z"/><path d="M142.5329,58.3555a14.3507,14.3507,0,0,0,1.3036-8.73c-.2284-1.94-1.5982-3.653-3.4245-6.2785-17.2373-23.9723-21.2327-4.2237-17.3515-.4565-1.4841,1.37-2.6255,2.1689-6.8493,2.6253,1.5983,1.37,3.7672,2.5116,7.8767,3.3106-2.6256,2.74-2.74,2.5114-8.79,2.1688,2.1689,3.0824,6.9634,3.9955,7.42,6.9634,1.1662,1.8023,4.2035,1.6472,7.2822,2.3458-.0934,5.717,3.5625,12.8367,3.5625,12.8367.5709-2.5112-.799-4.9084-.2283-7.5341a46.7848,46.7848,0,0,0,2.8243,9.2974l.8286,6.57c3.0823-2.8537,4.4521-5.7078,3.9954-10.0455-.0321-.4181-.0629-.8683-.0927-1.33a19.8148,19.8148,0,0,1,.5494,6.5812c1.8264-6.6211,1.37-10.2738,1.0274-15.525A13.5363,13.5363,0,0,1,142.5329,58.3555ZM134.59,52.5939a1.7814,1.7814,0,0,1-1.8264-1.7122,1.8031,1.8031,0,0,1,1.8264-1.8266,1.7814,1.7814,0,0,1,1.7123,1.8266A1.7556,1.7556,0,0,1,134.59,52.5939Z"/><path d="M31.3223,52.4956c.0645-.5034.1136-.9691.1589-1.4.3031-2.8712.5923-4.5193,3.4091-7.7535.2478-.2539.7136-.75.7711-.811-.2739-.3422-.5317-.7013-.7773-1.0436a7.8041,7.8041,0,0,0-.6046-.7964c-2.5252-2.1822-3.8395-6.367-3.72-12.0258.14-6.6321,2.2435-14.3474,4.813-18.5649-4.9362.7774-10.6111,2.4079-13.2243,2.9959-4.3378,3.5386-6.05,11.872-1.1415,26.4835a7.2838,7.2838,0,0,0,2.3972,2.9681c-.5708.5708-1.2557,1.2557-1.7123,1.8265-1.9406,2.169-1.1415,7.5342-.4567,11.8721,1.4841,9.3605,5.9361,19.0636,7.8767,19.6344a36.7861,36.7861,0,0,0,9.3314,1.3821C34.4877,71.6671,30.7347,56.8016,31.3223,52.4956Z"/><path d="M42.6962,78.05c.6928-.3463,6.3863.2226,11.4724-.7236-4.9167-4.5606-8.2639-20.8508-8.4764-25.8069a15.5888,15.5888,0,0,0-.2071-2.0433c-.3307-2.1515-.2179-3.238,2.3049-6.1338.2486-.2539.7136-.75.7712-.81-.274-.3429-.5325-.702-.7773-1.0435a7.82,7.82,0,0,0-.6054-.7972C45.34,39.104,44.3932,36.48,44.4454,32.9679c.117-7.9044,5.3638-18.8192,9.08-23.5408-5.1384-.6408-12.5072-.3879-15.1669-.5542C33.9062,12.4117,28.541,33.6444,35.39,39.58c.5707.5709,1.5981,2.3973,2.5113,2.9681-.6849.5708-1.2556,1.2557-1.8264,1.8265-3.0822,3.5388-2.74,4.7944-3.1963,8.3332C32.1939,57.7308,38.4725,80.2193,42.6962,78.05Z"/></svg>