<svg id="Layer_1" data-name="Layer 1" xmlns="http://www.w3.org/2000/svg" viewBox="0 0 144 144"><path class="cls-1" d="M86.8644,65.5734a2.3565,2.3565,0,0,0-2.0322,1.5458c-.0128.0279-.0246.0564-.0366.0849a3.3957,3.3957,0,0,0-.1233.34c-.0218.0714-.0373.1455-.0547.2193-.02.0879-.0431.1738-.0567.2646a3.5047,3.5047,0,0,0-.0441.5388c0,1.5665,1.1194,2.9934,2.3476,2.9934.7685-.2463,2.4259-2.9744,2.7039-4.2661a2.5534,2.5534,0,0,0-.1517-.2166A3.623,3.623,0,0,0,86.8644,65.5734Z"/><path class="cls-1" d="M56.7314,67.7424a3.4734,3.4734,0,0,0-.14-.4731c-.0166-.0431-.0353-.0836-.0535-.1255a3.1384,3.1384,0,0,0-.24-.4553c-.0138-.0212-.0269-.0425-.041-.0633a2.7275,2.7275,0,0,0-.3658-.44,2.0288,2.0288,0,0,0-1.407-.6116,2.6507,2.6507,0,0,0-1.4855.555,4.7215,4.7215,0,0,0-.944.8889,2.984,2.984,0,0,0-.2014.28c.2727,1.2536,1.8571,3.9057,2.708,4.2608,1.2389-.0539,2.2716-1.4016,2.2716-2.9913a3.7563,3.7563,0,0,0-.0634-.6664C56.76,67.846,56.7437,67.7957,56.7314,67.7424Z"/><path class="cls-1" d="M76.8355,98.7974c.2865-3.2953-.2149-2.0775,1.7909-4.8A104.4779,104.4779,0,0,0,87.554,79.4721c-.2992.0129-.6142.02-.9517.02-1.0454,0-2.132-.0613-3.1838-.1215-.9555-.0539-1.8572-.1057-2.6351-.1057a4.9939,4.9939,0,0,0-1.5317.1374l-.1173.04c-.056.0179-5.6751,1.7483-7.7437,1.7483l-.1417.0031a25.5486,25.5486,0,0,1-5.3675-1.0084c-1.0835-.2748-2.1077-.5337-2.9005-.6775a2.0432,2.0432,0,0,0-.4461-.0339c-.4407,0-1.0242.05-1.7007.1079-.94.0813-2.0041.1723-3.1616.1723-.6172,0-1.188-.0254-1.7451-.0783-.2284-.0182-.4579-.0606-.6872-.0965,2.9249,5.0449,6.3493,10.0339,9.1305,15.0628,1.2178,2.2208,1.0029,3.0805,1.1462,5.5161a63.4318,63.4318,0,0,0,1.0029,8.4531,5.2721,5.2721,0,0,0,4.728,4.0833c1.8624.215,4.0833-.86,5.0861-3.7967a9.1919,9.1919,0,0,0,.32-1.1947c.0156-.0751.0284-.1509.0424-.2266q.0957-.5168.149-1.0445c.0083-.08.0184-.1588.0254-.239.0307-.3675.0519-.7368.06-1.107.0366-1.3333-.0417-2.66-.0937-3.866A20.1676,20.1676,0,0,1,76.8355,98.7974Z"/><path class="cls-1" d="M22.2484,80.53c1.3611-.358.7164-1.361,4.8713-5.0145,1.7193-1.5044,3.367-2.7221,4.9429-4.37.7881-.7164,3.152-1.6477,3.8685-2.4356a5.3641,5.3641,0,0,0,.82-.9838,1.0375,1.0375,0,0,0,.7564.4823c.0224,0,.1841.0138.4452.037-.0055-.1288-.0261-.2557-.02-.3859a4.65,4.65,0,0,1,.2568-1.5221,4.1577,4.1577,0,0,1,.92-1.446c.0764-.105.1648-.2115.2488-.3174a4.7621,4.7621,0,0,0-2.2092.0525,1.5749,1.5749,0,0,0-.4684.7426c-.7616.3933-2.2048,1.58-4.188,2.9826-1.3612.9313-4.8714,3.08-6.1608,4.1549a46.5733,46.5733,0,0,0-5.4444,4.728c-.2243.2564-.5913.7712-.942,1.2872a19.1986,19.1986,0,0,0-2.2816-.4276,9.3384,9.3384,0,0,0-3.08.2866,1.4437,1.4437,0,0,0-.0351.1959c-1.4676-.0454-3.8461-.1915-4.3347-.6258A10.2328,10.2328,0,0,1,8.351,76.8766c-.7165.2865,1.0745,1.791,1.361,2.2208a3.2793,3.2793,0,0,0-1.6477,2.3639c.86-.7163,1.9342-1.4327,2.2208-1.6476a30.1809,30.1809,0,0,1,4.3922-.1492,1.78,1.78,0,0,0,.1925.3641c.6449.0716,2.2208.0716,2.7939.0716.6175,0,1.174.2158,1.8118.2391A4.7375,4.7375,0,0,0,22.2484,80.53Z"/><path class="cls-1" d="M109.2152,48.8668c.5015-.5732-1.7193-.9314-2.1491-1.1463a3.3007,3.3007,0,0,0,.5015-2.6506,21.7368,21.7368,0,0,1-1.3611,2.364,32.5487,32.5487,0,0,1-3.9144,2.2252,1.0413,1.0413,0,0,0-.312-.1477c-.6449.215-2.0059,1.0029-2.579,1.2895-.3267.1782-.6041.3214-.8782.492a6.7613,6.7613,0,0,0-.9845.2243,2.1817,2.1817,0,0,0-.6446.9313c0,.6447.7163,1.0746.86,1.3611a7.1751,7.1751,0,0,0,.8634.9514c-1.2728.5294-4.0819,1.67-7.009,2.8822a8.4355,8.4355,0,0,0,1.4592.6093l.1057.0348a34.308,34.308,0,0,1,3.2651,1.4971c2.6921-1.0231,4.86-1.9223,4.969-2.25a1.5178,1.5178,0,0,0,.7164-1.6475s-.9312-1.5761-1.1461-2.0776c-.382-.9277-.3086-1.2323-.4727-1.5779a10.7473,10.7473,0,0,0,2.4785-1.5742c-.02-.0611-.0512-.1283-.0778-.1937,1.3329-.6677,3.5652-1.7054,4.161-1.597A10.6955,10.6955,0,0,1,109.2152,48.8668Z"/><path class="cls-1" d="M40.0143,50.2277c.051.6124,6.4958,4.821,10.4607,7.4779a16.0061,16.0061,0,0,0,2.255-1.7617c.1645-.1556.3263-.3125.49-.47-4.053-3.0149-9.87-7.1563-10.4355-7.6377.1822-.2395.3756-.49.5967-.76.573-.7163,2.2923-2.4356,2.7936-3.2236a13.2214,13.2214,0,0,0,1.7911-3.2954,5.6284,5.6284,0,0,0-.1434-1.6475,2.7807,2.7807,0,0,0-.8141-.0688,11.0725,11.0725,0,0,1-1.3349-.9341,25.846,25.846,0,0,0-2.1491-1.791.98.98,0,0,0-.3041.0636,25.6845,25.6845,0,0,1-3.2061-3.0007c-.1433-.2865-.5014-1.5044-.788-2.5073a2.9671,2.9671,0,0,0-.0717,2.5789c-.5014.0717-2.7221-.0716-2.364.5731a10.1934,10.1934,0,0,1,2.0058.5014c.6474.054,2.5115,1.5283,3.6384,2.4681-.045.0619-.0937.1252-.1281.1825a10.6174,10.6174,0,0,0,2.1492,2.2208c.065.0413.1222.064.1847.1-.0363.0147-.08.0286-.1132.0436-.9313.43.2866.7879-1.0745,3.2953-.5014,1.0745-1.1462,2.0058-1.576,3.08-.1433.5015-1.6477,1.4328-1.8626,1.9342a1.1305,1.1305,0,0,0,.18,1.111A1.9349,1.9349,0,0,0,40.0143,50.2277Z"/><path class="cls-1" d="M134.288,79.0974c.2866-.43,2.0775-1.9343,1.3612-2.2208a13.0647,13.0647,0,0,1-1.791,1.0745c-.5423.4338-2.93.58-4.4009.6258a1.7965,1.7965,0,0,0-.0405-.1959,8.9252,8.9252,0,0,0-3.0087-.2866,18.9824,18.9824,0,0,0-2.328.4223,9.9294,9.9294,0,0,0-.9674-1.2819,54.3655,54.3655,0,0,0-5.3728-4.728c-1.361-1.0746-4.8-3.2236-6.1607-4.1549-1.9936-1.41-3.4735-2.6015-4.2305-2.9883a1.4978,1.4978,0,0,0-.4974-.7369c-.1671-.2506-1.9186-.11-4.0384.1451a5.3815,5.3815,0,0,1,1.0809,3.6687c1.5092-.1322,2.5889-.2319,2.6708-.2319a1.0009,1.0009,0,0,0,.7246-.4785,5.2678,5.2678,0,0,0,.78.98c.7164.7879,3.08,1.7192,3.8684,2.4356,1.6476,1.6477,3.2237,2.8654,4.943,4.37,4.1549,3.6535,3.51,4.6565,4.8713,5.0145a4.7267,4.7267,0,0,0,2.7824-.1908c.6338-.0251,1.1878-.239,1.8023-.239.6446,0,2.1491,0,2.7938-.0716a1.4446,1.4446,0,0,0,.2194-.364,29.1883,29.1883,0,0,1,4.3654.1491c.2864.2149,1.3609.9313,2.2207,1.6476A3.2788,3.2788,0,0,0,134.288,79.0974Z"/><path class="cls-1" d="M41.5087,95.1657c-.0618-.8965-.1063-1.7507-.1393-2.5687-3.5673,2.9809-8.3712,6.9844-8.2323,7.6331a1.9719,1.9719,0,0,0,.2719,1.1338c-.301,1.1248-.46,3.6453-.845,6.8179-.2865,2.2208-1.2893,7.5219-1.3611,9.8141a70.8676,70.8676,0,0,0-.2864,9.5994c.0644.4509.2457,1.2636.4442,2.061a23.9125,23.9125,0,0,0-2.45,1.879,12.8813,12.8813,0,0,0-2.5073,3.2237,2.6652,2.6652,0,0,0,.1877.2391c-1.36,1.4258-3.619,3.6641-4.486,3.7725-.6447.0716-1.7193.788-2.7938.788-.3582.9312,2.7938.5732,3.51.7165A4.515,4.515,0,0,0,23.5379,144a29.5769,29.5769,0,0,1,.5015-3.6534c.1726-.6331,2.6543-3.2515,3.7731-4.4805a2.0114,2.0114,0,0,0,.4534.1106,23.7757,23.7757,0,0,0,2.6506-2.7221c.5153-.5623,1.2122-.9151,1.7946-1.5094a6.002,6.002,0,0,0,2.7184-2.5739c.86-1.6476-.6447-1.9342-.5731-9.2411.0717-3.08.2866-5.8026.1434-8.883-.0717-1.361,1.1461-4.5847,1.0745-5.9458a7.41,7.41,0,0,0-.2589-1.65,1.3452,1.3452,0,0,0,1.1185-.2847c.0734-.0979,1.5678-1.4746,3.5029-3.2786.0043-.0561.0719-.1037.0719-.1037a23.19,23.19,0,0,1,.5708-3.1415C41.217,96.1382,41.3607,95.6467,41.5087,95.1657Z"/><path class="cls-1" d="M122.7546,138.7706c-.8635-.1079-3.1489-2.329-4.5-3.7555a2.6615,2.6615,0,0,0,.2018-.2561,14.7908,14.7908,0,0,0-2.5073-3.2237c-.61-.48-1.5394-1.275-2.4636-1.8747a16,16,0,0,0,.3861-2.0653,62.62,62.62,0,0,0-.2149-9.5994c-.1433-2.2922-1.0745-7.5933-1.3611-9.8141-.4425-3.245-.5814-5.8145-.88-6.8991a1.8862,1.8862,0,0,0,.2349-1.0526c.2281-.7983-7.0736-6.6764-10.3533-9.4767.0453,1.8043.0432,3.8449-.1045,6.144,3.213,3.0529,6.55,6.1219,6.6611,6.27a1.3465,1.3465,0,0,0,1.1279.2832,7.0768,7.0768,0,0,0-.2683,1.651c-.0716,1.3611,1.1461,4.5848,1.0745,5.9458-.0716,3.08.1433,5.8026.1433,8.883.1433,7.3069-1.3611,7.5935-.573,9.2411a6.4806,6.4806,0,0,0,2.7619,2.5659c.6042.5989,1.3052.9527,1.8227,1.5174a23.1821,23.1821,0,0,0,2.5789,2.7221,2.22,2.22,0,0,0,.4876-.1109c1.1558,1.229,3.638,3.8476,3.8107,4.4808A21.89,21.89,0,0,1,121.25,144a4.6,4.6,0,0,0,.788-3.7249c.7165-.1433,3.7968.2147,3.4387-.7165C124.4738,139.5586,123.3993,138.8422,122.7546,138.7706Z"/><path class="cls-1" d="M99.7848,106.3986a20.7194,20.7194,0,0,0-.1834-2.3726c-.0213-.1962-.0459-.3966-.075-.5947q-.0846-.6352-.1895-1.29c-.0262-.1839-.0475-.36-.0792-.55-.1374-.7477-.2784-1.504-.4415-2.2774.6716-6.1394.1551-10.5054.1551-13.9841,0-3.8326-.6177-7.4651-.4415-10.75-2.5,1.7628-5.7287,3.9354-8.8315,4.6247-.2648.0633-.5573.1119-.8642.154a105.992,105.992,0,0,1-9.3382,15.2827c-.3287.4461-.5919.79-.8023,1.0634a2.1,2.1,0,0,0-.6775,1.7092c-.02.3668-.0465.8393-.1026,1.4777a25.1329,25.1329,0,0,0,.0339,2.9238,19.9861,19.9861,0,0,1-.5909,7.4382c-1.1458,3.3539-3.6679,4.5505-5.6455,4.5505a5.1278,5.1278,0,0,1-.5867-.0338c-3.09-.5137-4.92-2.1088-5.6508-4.8835a60.9971,60.9971,0,0,1-1.0042-8.2257l-.0317-.4207c-.0275-.4619-.0412-.853-.055-1.21a6.8772,6.8772,0,0,0-.9608-3.8676c-1.5274-2.761-3.2926-5.5758-5.0008-8.2966-1.5658-2.4956-3.1512-5.0232-4.6028-7.584-.7293-.1972-1.428-.4334-2.0479-.6449-.4535-.1543-.8562-.296-1.1776-.3763a19.4581,19.4581,0,0,1-6.7422-3.2788c.1271,3.1783-.3976,6.671-.3976,10.3477,0,2.5059-.0645,5.8982.2439,10.0887-.1824.58-.3607,1.1755-.5305,1.803a24.1,24.1,0,0,0-.6133,3.7754c-.1092,1.0321-.1835,2.1557-.2269,3.3547-.0071.18-.0123.3617-.0141.5469-.0224.8482-.0322,1.7219-.0053,2.6387.0518,1.9368.1832,3.9749.4424,6.0133.0331.2786.0789.5777.1247.8733q.1025.705.2263,1.4035c.0478.2926.0853.5906.1379.8793a34.3126,34.3126,0,0,0,1.576,5.4445c.1786.4539.3865.897.5891,1.3421a2.19,2.19,0,0,0,.161.3669c.1721.3645.3606.7211.5482,1.0788a12.5569,12.5569,0,0,0,.5642,1.1521,33.6672,33.6672,0,0,0,5.31,6.7087c.3624.3741.7651.7163,1.1584,1.0611.0531.0471.1047.096.1581.1427a12.8621,12.8621,0,0,0,1.0391.8989c.5314.4092,1.0509.8308,1.5761,1.2177a33.9315,33.9315,0,0,0,5.5882,3.07c.1618.0756.3245.1329.4871.1954.3507.1415.6981.2944,1.0529.4209.0643.0649.1251.1325.1912.1956.0784.0749.1659.14.2467.2127.233.2087.4693.4136.7217.6018.1433.1074.296.2024.4449.3031.1968.1323.3919.2655.5979.386s.4181.2287.6313.3376c.1561.079.31.16.4706.2323.2615.12.5287.2265.7995.3286.1161.0435.2314.0872.3491.1273.31.1069.6244.2011.9438.285.081.021.1619.0411.2433.0607.3491.0847.7.1565,1.0565.2133.0559.0089.112.0159.1681.024.3753.0551.7514.0974,1.1312.121.0434.0027.0868.0029.13.0052.3868.02.7732.0289,1.161.0159.0527-.0017.1051-.0079.1579-.01.3751-.017.7491-.0417,1.1215-.0906.0748-.0095.1481-.0265.2226-.0372a4.3143,4.3143,0,0,1,.4933-.0494,3.6674,3.6674,0,0,1,.546-.1374,11.95,11.95,0,0,0,2.8922-1.08,10.8486,10.8486,0,0,0,1.9342-1.29c.2761-.2329.5412-.4614.7885-.7158.257-.3329.53-.652.7908-.99.3094-.1431.6189-.2875.9284-.4422a33.8655,33.8655,0,0,0,5.5678-3.5928c.2053-.1452.3765-.3059.5591-.4624q.71-.5861,1.3859-1.2057.2653-.231.5142-.4784a31.8922,31.8922,0,0,0,5.7186-7.2525c.1946-.3433.38-.6859.5817-1.049.3431-.6979.7019-1.506,1.0529-2.4039.0556-.1345.1092-.2507.1649-.39a33.9319,33.9319,0,0,0,1.5933-6.0093,23.3529,23.3529,0,0,0,.4-3.0636l.0837-.6695a7.7139,7.7139,0,0,1,.0052-.9012c.02-.3952.0525-.77.0665-1.1763C99.8928,108.679,99.8581,107.5589,99.7848,106.3986Z"/><path class="cls-1" d="M99.1861,63.9821a32.652,32.652,0,0,0-6.7338-3.6535,13.68,13.68,0,0,1-4.8-2.7939c-2.7222-2.5788-4.9429-4.5131-7.02-4.1548a6.2044,6.2044,0,0,0-2.2527.8282,3.6858,3.6858,0,0,1-.3054.517l-.204.2569a3.583,3.583,0,0,1-3.1119,1.558h-8.453a3.826,3.826,0,0,1-2.9586-1.64L63.2622,54.8a3.4208,3.4208,0,0,1-.6065-.8143,7.3353,7.3353,0,0,0-1.9384-.606c-2.1491-.3583-3.7967,1.576-6.5189,4.1548a13.8846,13.8846,0,0,1-4.8,3.08,30.9216,30.9216,0,0,0-6.7339,3.6535,11.5175,11.5175,0,0,0-1.9,2.0315,1.989,1.989,0,0,0-.5358.7623,2.5462,2.5462,0,0,0-.1317.8652,1.8831,1.8831,0,0,0,.1352.8594,3.7723,3.7723,0,0,0,1.5725,2.0722c2.2208,1.4327,5.4444,4.4414,9.3127,5.3011a29.16,29.16,0,0,0,5.0146,1.361c3.0087.2866,5.8742-.43,7.2353-.1432,2.364.43,6.304,1.7193,8.0233,1.6476a42.2832,42.2832,0,0,0,7.0921-1.6476c2.0774-.788,7.7367.43,10.7454-.2866,3.8684-.86,8.3815-4.6563,10.6739-6.0891a4.0574,4.0574,0,0,0,1.7143-2.271C102.1269,67.3944,101.2194,65.7611,99.1861,63.9821ZM54.4849,73.7246c-2.4357,0-5.1578-5.731-4.8-6.877a5.7482,5.7482,0,0,1,4.8-3.4386c2.5074,0,4.5132,2.2923,4.5132,5.1576C58.9981,71.3606,56.9923,73.7246,54.4849,73.7246Zm32.38,0c-2.4357,0-4.5131-2.364-4.5131-5.158,0-2.8653,2.0774-5.1576,4.5131-5.1576a5.7657,5.7657,0,0,1,4.8712,3.4386C92.0941,67.9936,89.372,73.7246,86.8647,73.7246Z"/><path class="cls-1" d="M18.0219,4.5848a3.91,3.91,0,0,0,1.0323.3349c1.3186.3032,3.1086.4149,3.7673.5247a38.2568,38.2568,0,0,1,6.304,2.0774c.62.2669,1.2478.5672,1.8758.8725.5387.266,1.078.5408,1.6218.8333.2269.1265.4412.2481.6573.3717.2569.1221.51.2605.76.3984,3.1467,1.7994,6.3137.949,9.3453,3.4762.2043.1782.4187.3657.63.5433.4068.347.8151.6906,1.216,1.0482.1257.1156.2544.2314.37.3471q1.0253.9059,2.0058,1.8625a88.7024,88.7024,0,0,1,6.4569,7.0134c.4537.5572.897,1.1225,1.3369,1.6866.0776.1.16.1995.2372.2992.1131.1523.224.3046.3482.4538.05.0658.0971.13.1468.1957a51.4071,51.4071,0,0,1,5.3731,8.625.8159.8159,0,0,0-.2165,1.0682A39.062,39.062,0,0,1,63.3678,42.44v1.4587a2.0024,2.0024,0,0,0-.6447-.1179A2.1552,2.1552,0,0,0,60.574,45.93a2.2122,2.2122,0,0,0,1.2092,1.9942c-.0731.2816,1.2647,1.6536,1.5846,2.8054v.788a2.9123,2.9123,0,0,0,.7163,2.579,2.9453,2.9453,0,0,0,2.2209,1.361h8.4531a2.6977,2.6977,0,0,0,2.4356-1.361,3.5793,3.5793,0,0,0,.43-2.579V50.56l.0716.1689c.32-1.1517,1.6576-2.5238,1.5847-2.8054A2.2121,2.2121,0,0,0,80.4891,45.93,2.1553,2.1553,0,0,0,78.34,43.7805a2.0151,2.0151,0,0,0-.7163.1412V42.42c.4841-2.0042,1.033-4.7781,1.6476-5.8026a.9085.9085,0,0,0-.5368-1.2911,42,42,0,0,1,2.8342-8.0813c.5315-1.13,1.0941-2.2666,1.7143-3.4506a66.0506,66.0506,0,0,1,4.728-7.5218c.5051-.7006,1.0291-1.3853,1.5622-2.06.36-.4329.6417-.7836.9836-1.195,2.6182-3.1419,5.5044-2.8824,8.4918-5.1875.2176-.17.4353-.3384.6558-.5014.4453-.3311.893-.6443,1.3412-.952.3292-.2219.6575-.4458.9884-.6575.5308-.3421,1.062-.6837,1.5938-.99a32.4772,32.4772,0,0,1,5.9458-2.7223c.44-.1466,1.3851-.3313,2.348-.5624a7.8627,7.8627,0,0,0,2.38-.7987c.2866-.2149.3582-.43.1433-.6447a13.99,13.99,0,0,0-3.7968.6447c-.4428.1378-.9014.2766-1.361.43a36.1555,36.1555,0,0,0-6.0175,2.7939c-.5313.3055-1.0583.65-1.5853.9936L101.6217,4.8c-.3511.2536-.7138.5257-1.0726.79-.5034.3563-.9332.6429-1.363,1.0011a.3092.3092,0,0,1-.0971.1047c-.061.0473-.1215.0966-.1825.1444-.41.32-.8239.6346-1.2248.9687-2.7073,2.3155-5.3181,1.9554-7.72,4.8891-.1032.1227-.2023.24-.2981.3608q-.9231,1.1426-1.8009,2.3205c-.0459.0589-.0925.1179-.1384.1768-.0685.0975-.1443.19-.2149.2867a73.9789,73.9789,0,0,0-4.7849,7.6724c-.2116.3686-.3906.7411-.5785,1.1159-.0185.0358-.0374.0716-.0557.1073-.24.4888-.5266.99-.7416,1.42a44.1249,44.1249,0,0,0-3.2236,8.9546.9467.9467,0,0,0-.0064.1135,1.3049,1.3049,0,0,0-.9249.4595c0,.4468-.431,2.0575-.5891,2.9548a8.9736,8.9736,0,0,0-.7719-1.0207,6.3716,6.3716,0,0,0-5.4445-2.4355h-.6448a7.741,7.741,0,0,0-2.937.788,5.7234,5.7234,0,0,0-2.5316,2.5355,19.6677,19.6677,0,0,1-.9787-2.75,1.2469,1.2469,0,0,0-1.2981-.4452,49.9865,49.9865,0,0,0-5.02-8.1808c-.3184-.449-.6339-.9034-.9756-1.35-.1654-.2388-.3307-.4777-.5144-.6981-.3249-.3722-.6171-.7533-.9314-1.1463-2.0053-2.3689-4.1952-4.7507-6.5189-7.02-.0968-.0955-.1984-.1862-.2957-.2813-.2781-.2764-.5685-.5445-.8566-.8151-.2653-.2521-.5266-.5081-.7951-.7566A13.7433,13.7433,0,0,0,44.8856,13.98c-3.57-3.17-7.3644-2.9185-11.1114-5.0857a3.8467,3.8467,0,0,0-.4152-.2352c-.1209-.0693-.2417-.1266-.3626-.194a6.9684,6.9684,0,0,1-.6472-.37c-1.04-.5422-2.0681-1.0622-3.08-1.5043a45.4639,45.4639,0,0,0-6.4473-2.0775q-.7-.15-1.3668-.2706a15.1393,15.1393,0,0,0-2.3413-.3042q-.3023-.02-.5794-.0227c-.288-.002-.5565.0057-.7987.0243C17.52,4.1549,17.6637,4.4414,18.0219,4.5848Z"/></svg>