<svg id="Layer_1" data-name="Layer 1" xmlns="http://www.w3.org/2000/svg" viewBox="0 0 144 144"><path d="M125.5194,82.0155A67.1708,67.1708,0,0,0,121.0758,68.1a112.1789,112.1789,0,0,0-5.994-11.41,52.4293,52.4293,0,0,1-4.6271-9.27,13.7632,13.7632,0,0,1-.551-7.3668,17.8342,17.8342,0,0,1,1.7727-4.5816c.6-1.0054.92-1.54.92-1.54l.0491-.0819a1.2335,1.2335,0,0,0-2.0892-1.3106s-.3779.5726-1.0887,1.6454A20.5338,20.5338,0,0,0,107.1785,39.4a16.8028,16.8028,0,0,0,.2275,8.9448,55.2845,55.2845,0,0,0,4.4488,10.1177c1.8036,3.4963,3.774,7.1869,5.4,11.2522A62.5568,62.5568,0,0,1,120.985,82.857a71.21,71.21,0,0,1,.8493,14.5776,50.9582,50.9582,0,0,1-2.6638,14.5646,37.5992,37.5992,0,0,1-7.2067,12.5137,36.22,36.22,0,0,1-11.0086,8.4268,41.5123,41.5123,0,0,1-24.1,3.8236A30.2453,30.2453,0,0,1,67.73,133.98a18.8378,18.8378,0,0,1-3.54-2.3272,35.6923,35.6923,0,0,1-6.3053.7109h-.1307c-.5835-.0071-1.1889-.08-1.7835-.1218a17.074,17.074,0,0,0,1.1744,1.7146,22.0314,22.0314,0,0,0,7.4468,6.06,34.7478,34.7478,0,0,0,11.2649,3.5418,46.3448,46.3448,0,0,0,28.0292-4.947,42.4021,42.4021,0,0,0,12.6157-10.2249,43.3856,43.3856,0,0,0,7.916-14.6375A56.2247,56.2247,0,0,0,126.93,97.5873,75.1679,75.1679,0,0,0,125.5194,82.0155Z"/><path d="M88.2233,58.8748a23.7222,23.7222,0,0,1-14.441-1.26c-6.8343-2.8384-8.5069-9.5-8.0906-14.2667A18.5921,18.5921,0,0,0,75.71,52.9717c8.8722,3.68,18.6205.4837,21.7806-7.1378,3.1634-7.6178-5.2944-11.4831-14.1629-15.1592-2.2329-.9271-4.2782-1.7526-6.14-2.3491C71.57,8.0415,63.9119,0,57.82,0c-6.1961,0-14.0175,8.2887-19.657,29.3421-.8855.32-1.7966.6616-2.7491,1.0273C26.4468,33.8016,17.8908,37.4309,20.84,45.1358c2.9527,7.7048,12.61,11.1665,21.5769,7.7339a18.7023,18.7023,0,0,0,10.1068-8.9392C53.7,48.81,51.4,54.81,44.2165,57.5605a23.5251,23.5251,0,0,1-16.3734.2744C21.8979,72.2542,16.169,86.1772,17.1855,95.5074c1.72,15.7735,24.1695,31.6126,40.6341,31.8308,16.4643-.2182,38.9139-16.0573,40.63-31.8308C99.4408,86.4025,94.01,72.92,88.2233,58.8748ZM48.2344,25.1987a2.9308,2.9308,0,1,1,2.9311-2.9307A2.927,2.927,0,0,1,48.2344,25.1987ZM64.3829,22.268a2.9326,2.9326,0,1,1,2.9341,2.9307A2.93,2.93,0,0,1,64.3829,22.268Z"/></svg>