<svg id="Layer_1" data-name="Layer 1" xmlns="http://www.w3.org/2000/svg" viewBox="0 0 144 144"><path d="M63.2463,33.2909a4.3167,4.3167,0,0,0,.1008.7068l.141.4217c.1009.2786.2.4568.3024.6886.205.4.4165.776.6315,1.1337.2907.4768.603.9218.9087,1.37a12.5968,12.5968,0,0,1,3.1274-1.2445c-.0086-.0117-.0186-.022-.0272-.0337-.4482-.5926-.8833-1.1956-1.2765-1.7986-.1946-.3023-.3725-.5981-.5321-.8836l-.1413-.29c.7474-1.8846,1.4563-3.7908,2.2808-5.6448l.0657-.1462.0117-.03a1.4282,1.4282,0,1,0-2.64-1.09c-.8716,2.11-1.8859,4.1533-2.8332,6.236l-.1362.2989.0168.3023Z"/><path d="M71.8034,61.849l.1951-.0134.1981.0134a29.7805,29.7805,0,0,1,5.2819.8245,20.0909,20.0909,0,0,0,4.4928-12.3359c0-7.6586-4.4-11.16-9.9728-11.2073-5.5729.0471-9.9663,3.5487-9.9663,11.2073a20.1071,20.1071,0,0,0,4.4893,12.3359A29.8006,29.8006,0,0,1,71.8034,61.849Z"/><path d="M75.24,27.72c.8231,1.8526,1.5317,3.7571,2.2791,5.6417l-.141.29c-.16.2855-.3375.5813-.5324.8836-.3929.603-.828,1.206-1.2765,1.7986-.01.0151-.0234.0268-.0334.042A12.6384,12.6384,0,0,1,78.6627,37.62c.3089-.4516.6229-.8984.9153-1.3786.215-.3577.4265-.734.6315-1.1337.1022-.2318.2016-.41.302-.6886l.1414-.4217a4.3167,4.3167,0,0,0,.1008-.7068v-.0035l.0165-.3023-.1359-.2972c-.9473-2.0844-1.9616-4.13-2.8349-6.2412-.0035-.01-.01-.0251-.0151-.0351a1.4285,1.4285,0,1,0-2.61,1.1619Z"/><path d="M110.5814,48.4348l-.0166.0286c-.03.0653-.054.1328-.0842.1981Z"/><path d="M139.1732,115.1562a4.799,4.799,0,0,1-2.6048-1.9884c-1.4344-1.8206-2.7964-5.1794-4.0007-9.3482-1.2344-4.1685-2.3664-9.1766-3.7653-14.5376-1.4274-5.3544-3.0131-11.1251-5.8095-16.62a24.2688,24.2688,0,0,0-5.6916-7.5744l-1.0177-.8214-.9054-.5844-.45-.2907a5.8743,5.8743,0,0,0-.734-.2837L112.93,62.69a34.72,34.72,0,0,0-4.4574-.8681c-5.6045-.7072-10.7674-1.0144-15.2148-1.2142-.8465-.0372-1.6424-.064-2.437-.0908l2.8483-1.2851c2.867-1.3366,5.7308-2.6853,8.5571-4.2087,1.4144-.7656,2.8219-1.5636,4.2156-2.472.6986-.4537,1.3889-.9758,2.0844-1.5269l1.0429-.9992a8.4867,8.4867,0,0,0,.9961-1.5619,32.1268,32.1268,0,0,0,1.7969-4.7546c.2721-.8314.4131-1.68.625-2.5178.2163-.8379.3323-1.6827.4768-2.5243a83.5715,83.5715,0,0,0,.9506-10.0719l.2687-9.9495c.0536-1.639.1007-3.2831.2872-4.8619a21.823,21.823,0,0,1,.3628-2.3128l.3526-1.0026c.1379-.2989.3175-.4637.4417-.7289l.2369-.5a1.03,1.03,0,0,0-1.7717-1.0347,8.6,8.6,0,0,0-.8819,1.3638l-.4754,1.3384a25.9424,25.9424,0,0,0-.52,2.5732c-.2755,1.7012-.3949,3.3691-.5242,5.0352l-.66,9.8989a80.6382,80.6382,0,0,1-1.2933,9.6571c-.1679.7842-.3055,1.5788-.5373,2.3362-.225.7574-.3863,1.5468-.6618,2.2773a28.97,28.97,0,0,1-1.8055,4.261l-.1007.2267c-.1614.0991-.1493.1661-.3106.3478l-.6886.596c-.5493.3915-1.1286.8046-1.7587,1.1774-1.2679.7557-2.62,1.456-3.992,2.13-2.7545,1.3469-5.62,2.5646-8.49,3.7657l-6.7733,2.7376c.2518-.279.5057-.5342.7526-.8331a64.5865,64.5865,0,0,0,6.5247-9.4792c1.0415-1.8089,2.0407-3.7152,2.9762-5.7q.7054-1.4863,1.3418-3.0533a20.35,20.35,0,0,0,1.1251-3.5,4.51,4.51,0,0,0,.0692-1.209l-.0623-.81-.1224-1.6173c-.1008-1.0835-.1211-2.1346-.2872-3.23-.42-2.18-.6518-4.412-1.2194-6.3922-.9455-4.0457-2.1766-7.6886-3.2064-10.77-1.0546-3.0888-1.8171-5.6162-2.2151-7.3848-.1864-.8785-.173-1.5317-.247-1.9971-.0485-.4616-.0757-.7068-.0757-.7068L90.4427.96a1.0806,1.0806,0,0,0-2.1532.1713s.0152.2941.04.8465a22.4815,22.4815,0,0,0,.19,2.3781,78.3352,78.3352,0,0,0,1.96,7.7594c.8967,3.1256,1.9417,6.7331,2.68,10.6446.4719,1.9551.5658,3.9336.8868,5.9557.1176,1.0178.0942,2.1278.1479,3.1961l.0536,1.6225c.0083.5624.074,1.1537-.03,1.2159a32.5806,32.5806,0,0,1-2.3864,5.4078C90.8692,41.9938,89.84,43.7707,88.78,45.44c-1.1774,1.8608-2.3867,3.5772-3.5875,5.1409A23.53,23.53,0,0,1,80.7671,63.67,29.96,29.96,0,0,1,93.8906,73.414a70.3039,70.3039,0,0,1,10.6312,5.27c2.3582,1.478,4.899,3.4768,5.62,5.4955a32.7152,32.7152,0,0,1,.1462,8.8777,119.6848,119.6848,0,0,1-3.6732,18.3067c-1.5333,5.8277-3.09,11.2726-4.1248,16.0527-1.0446,4.77-1.5368,8.9079-1.06,11.9444a8.1015,8.1015,0,0,0,1.3132,3.4128,7.7806,7.7806,0,0,0,.9239,1.0147.8964.8964,0,1,0,1.1554-1.3707,5.2125,5.2125,0,0,1-1.6225-3.3454c-.48-2.5766.1816-6.5569,1.347-11.1722,1.1756-4.6421,2.9106-10,4.659-15.8075a122.5355,122.5355,0,0,0,4.4154-18.6592,33.9308,33.9308,0,0,0,.0623-10.2921,11.1631,11.1631,0,0,0-3.0919-4.7126,27.619,27.619,0,0,0-3.8545-3.097A86.5317,86.5317,0,0,0,91.6634,67.6c-2.1212-.8733-4.0725-1.6225-5.8494-2.276,2.0707-.045,4.5128-.0722,7.3175-.04,4.36.05,9.4806.1933,14.8282.6886a34.0265,34.0265,0,0,1,3.7925.5861l.7774.1967c.0843.0031.3728.1208.2906.0251l.46.2773.9239.5541.6718.5342a20.77,20.77,0,0,1,4.9327,6.2291c2.7173,4.9108,4.4874,10.4971,6.0562,15.7236,1.5585,5.2533,2.8586,10.2414,4.2641,14.4839,1.3892,4.2359,2.8955,7.7628,4.72,9.9628a8.18,8.18,0,0,0,2.6234,2.19c.7842.3123,1.2211.4369,1.2211.4369a1.036,1.036,0,1,0,.48-2.0157Z"/><path d="M33.5191,48.6615c-.03-.0653-.0537-.1328-.0839-.1981l-.0169-.0286Z"/><path d="M37.3856,111.3641a119.6127,119.6127,0,0,1-3.6732-18.3067,32.7031,32.7031,0,0,1,.1462-8.8777c.72-2.0187,3.2614-4.0175,5.62-5.4955a70.3039,70.3039,0,0,1,10.6312-5.27A29.96,29.96,0,0,1,63.2329,63.67a23.5308,23.5308,0,0,1-4.4254-13.0884c-1.2008-1.5637-2.41-3.28-3.5875-5.1409-1.06-1.67-2.0892-3.4465-3.0516-5.2822A32.5734,32.5734,0,0,1,49.7819,34.75c-.1042-.0622-.0388-.6535-.03-1.2159l.0536-1.6225c.0537-1.0683.03-2.1783.1479-3.1961.3206-2.0221.4149-4.0006.8868-5.9557.7388-3.9115,1.7835-7.519,2.68-10.6446a78.4484,78.4484,0,0,0,1.96-7.7594,22.6725,22.6725,0,0,0,.19-2.3781c.0251-.5524.04-.8465.04-.8465A1.08,1.08,0,0,0,53.5573.9636l-.03.279s-.0268.2452-.0753.7068c-.074.4654-.0606,1.1186-.2469,1.9971-.398,1.7686-1.1606,4.296-2.2155,7.3848-1.0295,3.0819-2.2606,6.7248-3.2061,10.7705-.5676,1.98-.7994,4.2122-1.2194,6.3922-.1661,1.0952-.1864,2.1463-.2872,3.23l-.1224,1.6173-.0623.81a4.5111,4.5111,0,0,0,.0688,1.209,20.3829,20.3829,0,0,0,1.1255,3.5q.6372,1.5644,1.3418,3.0533c.9355,1.985,1.9347,3.8913,2.9763,5.7a64.5555,64.5555,0,0,0,6.5246,9.4792c.2469.2989.5.5541.7526.8331l-6.7737-2.7376c-2.87-1.2011-5.7352-2.4188-8.49-3.7657-1.3725-.6735-2.7242-1.3738-3.9924-2.1295-.63-.3728-1.209-.7859-1.7583-1.1774l-.6887-.596c-.1613-.1817-.15-.2487-.3106-.3478l-.1007-.2267a28.9812,28.9812,0,0,1-1.8055-4.261c-.2755-.73-.4368-1.52-.6618-2.2773-.2318-.7574-.3694-1.552-.5376-2.3362A80.6785,80.6785,0,0,1,32.47,28.4135l-.66-9.8989c-.1293-1.6661-.2487-3.334-.5242-5.0352a25.9424,25.9424,0,0,0-.52-2.5732L30.29,9.5678a8.6,8.6,0,0,0-.8819-1.3638A1.03,1.03,0,0,0,27.636,9.2387l.2366.5c.1245.2652.3041.43.442.7289l.3526,1.0026a21.9,21.9,0,0,1,.3628,2.3128c.1865,1.5788.2332,3.2229.2872,4.8619l.2687,9.95a83.5718,83.5718,0,0,0,.9507,10.0719c.1441.8416.26,1.6864.4767,2.5243.2116.8382.3529,1.6864.625,2.5178a32.0934,32.0934,0,0,0,1.7969,4.7546,8.4658,8.4658,0,0,0,.9961,1.5619l1.0429.9992c.6951.5511,1.3855,1.0732,2.0844,1.5269,1.3937.9084,2.8012,1.7064,4.2152,2.472,2.8267,1.5234,5.69,2.8721,8.5571,4.2087l2.85,1.2851c-.7959.0268-1.5936.0536-2.4418.0922-4.4474.1984-9.61.5056-15.2148,1.2128a34.7756,34.7756,0,0,0-4.4574.8681l-1.2627.4166a5.768,5.768,0,0,0-.734.2837l-.45.2924-.9053.5844-1.0178.8214a24.2831,24.2831,0,0,0-5.6915,7.5761c-2.7947,5.492-4.3821,11.2661-5.8078,16.6171-1.3992,5.361-2.5312,10.3691-3.7653,14.5376-1.2043,4.1688-2.5663,7.5276-4.0007,9.3482a4.7979,4.7979,0,0,1-2.6051,1.9884,1.0361,1.0361,0,1,0,.4805,2.0157s.4365-.1246,1.221-.4369a8.1841,8.1841,0,0,0,2.6234-2.19c1.8237-2.2,3.33-5.7269,4.7192-9.9628,1.4058-4.2425,2.7059-9.2306,4.2627-14.4805,1.57-5.2268,3.3389-10.8128,6.0562-15.727a20.8565,20.8565,0,0,1,4.9327-6.2291l.6718-.5325.9239-.5544.46-.2769c-.0822.0939.2064-.0238.29-.0269l.7794-.195a33.9384,33.9384,0,0,1,3.7891-.5878c5.3476-.4953,10.4681-.6381,14.8282-.6886,2.8047-.032,5.2485-.0048,7.3209.04-1.7769.6535-3.7286,1.4027-5.85,2.276A86.5328,86.5328,0,0,0,37.2628,75.332a27.619,27.619,0,0,0-3.8545,3.097,11.16,11.16,0,0,0-3.0918,4.7126,33.9278,33.9278,0,0,0,.0622,10.2921,122.5831,122.5831,0,0,0,4.4151,18.6592c1.7484,5.8078,3.4833,11.1654,4.6573,15.8075,1.1656,4.6153,1.8274,8.5956,1.3473,11.1722a5.2186,5.2186,0,0,1-1.6242,3.3454.8963.8963,0,1,0,1.1553,1.3707,7.5074,7.5074,0,0,0,.9239-1.0147,8.0989,8.0989,0,0,0,1.315-3.4128c.4771-3.0331-.0152-7.1747-1.06-11.9444C40.474,122.6367,38.9189,117.1918,37.3856,111.3641Z"/><path d="M71.9985,65.0836c15.458.9373,25.7331,14.6824,25.7331,29.5223,0,12.9491-11.9949,26.7578-25.7331,29.052-13.7351-2.2942-25.73-16.1029-25.73-29.052C46.2684,79.766,56.5436,66.0209,71.9985,65.0836Z"/></svg>