<svg id="Layer_1" data-name="Layer 1" xmlns="http://www.w3.org/2000/svg" viewBox="0 0 144 144"><path d="M143.9457,92.3688c-.5588-3.4863-5.0784-4.0723-9.8307-3.281-5.6669.9494-23.5532,5.8326-30.0905,7.3779a15.3635,15.3635,0,0,1-3.2292,8.2113c-2.2749,2.9745-6.572,6.5128-14.1084,6.5128-8.5351,0-24.11-2.9375-30.1006.3584a7.5089,7.5089,0,0,1,3.0066-5.7387c3.8226-2.7347,13.839-2.2552,27.094-2.2552a9.8787,9.8787,0,0,0,7.2989-2.67c1.6518-1.6493,4.3863-5.9738,1.1621-8.7084-4.3715-3.54-19.2956-1.4736-19.8394-1.444-2.1562.1163-10.7407.648-12.8918-3.5035-6.0628-10.2163-20.0821-8.3672-23.4793-7.6822-3.5059.7071-9.529,4.814-11.6307,5.8969-3.6347,1.8842-13.0452,5.1354-24.0279,5.7438C2.8929,91.37,0,91.5726,0,95.0143c.0445,6.1394,1.3353,11.6927,5.6821,19.219a37.3594,37.3594,0,0,0,7.0664,9.272,7.9131,7.9131,0,0,0,6.102,2.3713c9.43-1.0188,14.0689-.91,22.337.8552,8.3521,1.7853,21.966,6.99,36.5143,5.1455,26.6589-3.3847,58.97-30.8647,61.17-31.5988C140.8108,99.1681,144.49,95.86,143.9457,92.3688ZM42.6815,37.5013,48.604,40.92a26.8007,26.8007,0,0,0,0,9.76L42.6815,54.101a1.6771,1.6771,0,0,0-.7634,1.9458,34.6211,34.6211,0,0,0,7.6029,13.15,1.6752,1.6752,0,0,0,2.0578.3215l5.9225-3.4207a26.2111,26.2111,0,0,0,8.4534,4.8791v6.84a1.6625,1.6625,0,0,0,1.3069,1.6263,34.9221,34.9221,0,0,0,15.1808,0,1.6646,1.6646,0,0,0,1.3069-1.6263v-6.84a27.0624,27.0624,0,0,0,8.4512-4.8791l5.9226,3.4207a1.653,1.653,0,0,0,2.0579-.3215,34.4244,34.4244,0,0,0,7.6048-13.15,1.7161,1.7161,0,0,0-.78-1.96l-5.92-3.4209a26.79,26.79,0,0,0,0-9.7582l5.92-3.4207a1.6781,1.6781,0,0,0,.7655-1.9458,34.6059,34.6059,0,0,0-7.6049-13.152,1.6712,1.6712,0,0,0-2.0578-.3195l-5.92,3.4208a26.2751,26.2751,0,0,0-8.4534-4.8812V13.7842a1.6644,1.6644,0,0,0-1.3069-1.6264,34.9247,34.9247,0,0,0-15.1807,0A1.6644,1.6644,0,0,0,65.94,13.7842v6.8395a27.113,27.113,0,0,0-8.4534,4.8791l-5.908-3.4187a1.65,1.65,0,0,0-2.0578.3194,34.413,34.413,0,0,0-7.6029,13.152A1.6627,1.6627,0,0,0,42.6815,37.5013Zm32.1559-2.8358a11.1211,11.1211,0,1,1-11.121,11.1211A11.1365,11.1365,0,0,1,74.8374,34.6655Z"/></svg>