<svg id="Layer_1" data-name="Layer 1" xmlns="http://www.w3.org/2000/svg" viewBox="0 0 144 144"><path d="M131.8218,56.3013c-1.3722,0-2.4723-.0251-3.5709.0049a16.6787,16.6787,0,0,0-8.1415,1.9249c-3.3926,1.975-5.5,4.8061-5.6434,8.8747-.0324.9225-.1331,1.8426-.2,2.7259a5.1125,5.1125,0,0,1-2.8912.2877,25.6612,25.6612,0,0,0-7.8544.9715,13.0149,13.0149,0,0,0-8.8456,7.5511,14.2773,14.2773,0,0,0-1.1135,6.5188c.0638,1.0225.1718,2.0424.266,3.1365-1.0413.5949-2.18.1176-3.2378.3181-.636.1205-1.4882-.1623-1.656.7829-.1336.7524.617.9314,1.08,1.2653.4692.3385.96.647,1.5583,1.0467-.6769,1.2634-1.026,2.6266-2.9437,2.554A12.1737,12.1737,0,0,1,88.41,92.71a2.3742,2.3742,0,0,0-.5453-1.654c-.6426-.7377-1.2863-.8285-1.9728-.18a12.4756,12.4756,0,0,0-2.7607,4.56c-1.0542,2.5652-1.1974,5.3039-1.5508,7.985-.6777.3325-1.0313-.1325-1.2378-.5576a7.9313,7.9313,0,0,0-2.4949-2.8769,7.0511,7.0511,0,0,0-4.4528-1.45c-.8855-.8328-.9847-2.14-2.2123-2.6877a2.4222,2.4222,0,0,0-1.2576,3.67c-1.5772.5593-1.639.5279-2.0929-.5322-.2557-.5972-.57-1.1692-.8648-1.7656.6705-1.1241,2.24-1.3753,2.6045-2.7622-.3471-.7676-1.11-.9867-1.7766-1.3534a16.4505,16.4505,0,0,1-7.9671-8.6465,10.6639,10.6639,0,0,0-1.0586-2.0409,8.3715,8.3715,0,0,0-7.248-3.6653,11.4854,11.4854,0,0,0-3.8788,1.1281c-.9579.3462-1.8552.8568-2.7941,1.26a2.6919,2.6919,0,0,1-2.681-.21,15.8731,15.8731,0,0,0-9.3137-2.2881,12.4116,12.4116,0,0,0-8.9865,3.7079,3.33,3.33,0,0,0-.3506.3734,1.73,1.73,0,0,1-2.2783.5493c-.4-.1457-.8253-.2253-1.2243-.3748a20.8285,20.8285,0,0,0-8.0788-1.0263c-2.1829.0712-4.4811-.0423-6.4932,1.0886-1.4044.79-2.72,1.7353-4.09,2.5887A12.1014,12.1014,0,0,1,0,86.145a4.0758,4.0758,0,0,1,.1907-1.1925A81.6283,81.6283,0,0,1,26.8161,58.7406c.8024-.4881,1.5548-1.0579,2.3536-1.5522a11.5384,11.5384,0,0,0,5.5343-6.6761,8.6832,8.6832,0,0,1,1.1136.7375,9.1649,9.1649,0,0,0,4.2331,2.2636,26.86,26.86,0,0,1,6.68,2.548,19.2233,19.2233,0,0,1,3.7652,2.6444,16.6179,16.6179,0,0,0,9.7355,4.1636,3.7983,3.7983,0,0,0,.7631-.04,2.0457,2.0457,0,0,0,.4019-.1814c-.11-.3312-.124-.7955-.3627-1.0106a11.0047,11.0047,0,0,0-1.8608-1.3207,14.6427,14.6427,0,0,1-6.0645-6.4289c-.8626-1.798-.9452-3.7471-1.205-5.8476a3.319,3.319,0,0,1,1.1022.1388,10.7257,10.7257,0,0,1,1.19.961,9.1207,9.1207,0,0,0,3.81,2.0312,19.4536,19.4536,0,0,1,5.9825,2.3575c2.5791-1.6926,5.4227-1.1694,8.2152-.9808.2232-.1876.4849-.3108.5959-.5156A10.5657,10.5657,0,0,1,77.88,47.5191c1.7431-.8182,3.639-1.4242,4.7688-3.6131A6.1491,6.1491,0,0,1,83.28,45.2a14.0466,14.0466,0,0,1-4.21,12.133c-.7867.7856-1.5721,1.5758-2.3057,2.41a1.06,1.06,0,0,0-.1307,1.4084,1.6344,1.6344,0,0,0,1.0715.5569,8.022,8.022,0,0,0,2.2768-.26,27.2432,27.2432,0,0,0,11.1694-6.06,26.3468,26.3468,0,0,0,6.42-9.18c.469-1.0877.9357-2.1763,1.4324-3.3319a12.7689,12.7689,0,0,0,5.921-.5644c.63-.2554,1.295-.4377,1.8962-.7464a44.1613,44.1613,0,0,1,10.6153-3.6575,16.7141,16.7141,0,0,1,3.0637-.2584c1.283-.0443,2.5687-.0465,3.8524-.02a28.8708,28.8708,0,0,1,17.4188,6.5416c.6077.4716,1.2008.9658,1.7627,1.49a3.1969,3.1969,0,0,1,.4662.7434c-.4228.5689-.864.3226-1.26.3136a13.4745,13.4745,0,0,0-6.7273,1.2339c-2.5635,1.3338-4.07,3.3105-4.0687,6.2911C131.9448,54.8286,131.877,55.414,131.8218,56.3013Z"/></svg>