<svg id="Layer_1" data-name="Layer 1" xmlns="http://www.w3.org/2000/svg" viewBox="0 0 144 144"><path d="M95.6256,25.3417a22.2327,22.2327,0,0,1,2.7277-7.2455c3.1007-5.8155,8.6321-7.4646,14.5019-8.539a21.9809,21.9809,0,0,1,6.2522-.28,14.3869,14.3869,0,0,1,7.0792,2.8748c2.2752,1.6762,4.7686,3.1088,6.3893,5.5421.38.5694.9962.563,1.57.67a30.3551,30.3551,0,0,1,6.47,1.8586A13.3742,13.3742,0,0,1,144,22.6886c-2.9233-.018-5.2062,1.143-7.6259,1.7868a27.906,27.906,0,0,0-3.9585,1.6569c-.6433.2844-.8663.9264-1.1391,1.5024-.7111,1.5036-1.3421,3.048-2.1165,4.518a9.9114,9.9114,0,0,0-1.1313,4.9389c.0259,1.5929.8078,2.9207,1.1584,4.392a26.8388,26.8388,0,0,1,.8951,4.29,59.9287,59.9287,0,0,1,.3171,8.6238,22.475,22.475,0,0,1-.4083,2.6375c-.457,2.38-.9163,4.76-1.58,7.11-.97,3.44-2.1578,6.8046-3.3447,10.1623a20.4151,20.4151,0,0,1-2.7891,4.9317c-.9988,1.3918-1.8263,2.8838-2.7465,4.3138a18.8026,18.8026,0,0,1-3.7446,4.3733A131.68,131.68,0,0,1,102.9156,97.84a5.8893,5.8893,0,0,0-2.9636,4.7877,2.3019,2.3019,0,0,1-.1991.9411c-1.3346,2.465-1.4041,5.2693-2.14,7.8933-.087.307-.2615.6975-.15.9354.9613,2.0609,1.0126,4.5381,2.7949,6.22a15.6,15.6,0,0,1,2.986,4.1148,22.7947,22.7947,0,0,0,4.65,5.4973c1.1532,1.1133,2.2493,2.1217,4.0658,2.262,1.3285.1021,2.6262.6949,4.04.66a4.85,4.85,0,0,0,2.5942-.6167,2.85,2.85,0,0,1,2.7591-.24,5.802,5.802,0,0,0,3.43.3562,1.6343,1.6343,0,0,1,1.91.79c.4325.6853,1.5771.8585,1.3983,2.152-.3914-.1655-.7673-.2882-1.109-.4757-.957-.525-1.631-.4868-2.2034.6361-.492.9645-2.4368,1.3743-3.6363.8442-2.3877-1.0569-4.83-.6619-7.238-.2818-1.4555.2307-2.7365.5566-4.042-.5857a3.608,3.608,0,0,0-3.3422-.5883,32.0142,32.0142,0,0,0-3.7374.9568,12.9532,12.9532,0,0,1-4.9179.46,1.892,1.892,0,0,1-1.8236-1.0337c-.1536-.309-.0227-.9277-.5091-.8417-.55.097-1.1875-.1991-1.6485.265a8.8,8.8,0,0,0-.7411.958c-.662-.221-.6323-.8784-1.2593-.8843-1.972-.0161-3.9272-.3155-5.9035-.3885-2.7325-.1015-5.4612.062-8.19-.0427-1.0115-.0388-1.9983-.349-2.9892.3491-.54.3808-1.68-.5514-2.0655-1.5185-.595-1.4926-1.4749-1.7312-2.7742-.7a5.1672,5.1672,0,0,1-1.2147.7693c-.46.1894-.3643.7331-.7189.99-.57-.3582-.3442-.93-.2253-1.3072.6892-2.183,3.325-4.7747,6.1682-3.6789,1.5279.5883,3.1815.69,4.6115,1.74,1.2482.9154,3.2745-.3762,3.2455-1.9717a15.4524,15.4524,0,0,0-1.1149-6.13,58.6684,58.6684,0,0,1-3.3282-8.1738c-.5169-1.8514-1.4041-3.591-1.386-5.5821.0045-.4874-.4238-.7162-.6972-1.035-.48-.5578-1.1617-.947-1.35-1.7538a.9991.9991,0,0,0-.5534-.55,47.9108,47.9108,0,0,0-5.863-2.1113,18.7027,18.7027,0,0,0-5.15-.978,12.725,12.725,0,0,0-2.3088.5346c-2.3858.4273-4.8025.671-7.175,1.0666a45.2884,45.2884,0,0,0-7.1886,1.6259c-2.8172.9561-5.7027,1.7984-8.5829,2.5217a20.5109,20.5109,0,0,1-5.7612.5379c-2.0858-.0918-3.71.8488-5.342,1.7816-.7725.4415-1.5663.87-2.3269,1.3388-5.9628,3.6758-12.6052,5.7606-19.0936,8.2041a7.51,7.51,0,0,1-1.8689.4546c-2.1433.2139-3.135-1.0092-2.4678-3.0494.1616-.4926.6486-.896-.1132-1.3194-.2892-.161-.1309-.4771.1238-.6413,3.4133-2.1986,5.7922-5.5627,9.0054-7.99a21.1092,21.1092,0,0,0,2.3043-2.01,33.2332,33.2332,0,0,1,10.107-6.7432,9.2866,9.2866,0,0,0,2.9649-2.1533,32.19,32.19,0,0,1,3.3086-3.0532A92.6133,92.6133,0,0,0,38.16,82.4726a87.1563,87.1563,0,0,1,8.5785-7.7367c2.39-1.9937,4.9857-3.7365,7.2709-5.8989,2.1534-2.0383,4.9324-3.2006,7.4711-4.692a32.5317,32.5317,0,0,0,5.1448-3.8418A63.1091,63.1091,0,0,1,73.93,54.7637a44.31,44.31,0,0,0,6.1788-5.6125,63.4094,63.4094,0,0,1,7.4377-6.471,19.2382,19.2382,0,0,0,4.5385-4.8381c.6985-.9884.9916-2.1507,1.7079-3.1385a5.628,5.628,0,0,0,.6626-2.5321c.1888-1.7216.8856-5.1212,1.17-6.83Zm6.8951,105.324a4.6222,4.6222,0,0,0,.4826-.0026c.4479-.0491,1.03.1869,1.2172-.47a1.225,1.225,0,0,0-.4858-1.271,10.7391,10.7391,0,0,1-1.05-1.1966c-1.54-1.9775-3.1631-3.8916-4.74-5.84-1.9536-2.4145-4.2585-4.5026-6.3165-6.822a7.49,7.49,0,0,1-1.7186-3.7087,25.8931,25.8931,0,0,1-.382-4.9551c-.004-1.3394-.1158-1.3718-1.3121-.9684a7.656,7.656,0,0,0-3.2878,2.2271,7.24,7.24,0,0,1-1.9238,1.6891c-1.7891.9477-1.9223,1.4662-1.63,3.454.7243,4.9363,2.7785,9.446,4.45,14.0733a4.1649,4.1649,0,0,0,2.2354,2.2238,9.0605,9.0605,0,0,0,6.8737.5191c2.0874-.8,3.7986.1325,5.595.6659a6.9662,6.9662,0,0,0,1.9941.382Z"/></svg>