<svg id="Layer_1" data-name="Layer 1" xmlns="http://www.w3.org/2000/svg" viewBox="0 0 144 144"><path d="M98.4105,42.131a13.1314,13.1314,0,0,1,10.0611,7.5459H47.79C49.6769,41.5022,56.28,37.1,63.1965,37.4148a17.3575,17.3575,0,0,1,12.262-5.03,16.6038,16.6038,0,0,1,12.5764,5.345C90.55,36.786,96.21,38.0437,98.4105,42.131Z"/><path d="M102.8122,93.0655,111.3013,58.48a2.0841,2.0841,0,0,0-.6288-2.2009,2.8545,2.8545,0,0,0-2.2009-.9433H47.79A2.8545,2.8545,0,0,0,45.59,56.28a2.9933,2.9933,0,0,0-.6288,2.2009l4.4017,17.9213L17.9214,19.179a4.3445,4.3445,0,0,0-3.4585-1.8864H4.0873A4.1619,4.1619,0,0,0,0,21.38a3.8988,3.8988,0,0,0,4.0873,3.7729h7.86L53.45,99.6681a25.79,25.79,0,0,1,50.3057,2.83H111.93V93.0655Z"/><path d="M44.9607,121.9913l8.8035-6.9171a19.8678,19.8678,0,0,1-1.2576-9.1179L39.93,116.0175a4.2861,4.2861,0,0,0-.6288,5.6594A4.33,4.33,0,0,0,44.9607,121.9913Z"/><path d="M78.2882,86.4629a20.1223,20.1223,0,1,0,20.1223,20.1223A20.2633,20.2633,0,0,0,78.2882,86.4629Zm0,27.9825a7.86,7.86,0,1,1,7.86-7.86A7.7839,7.7839,0,0,1,78.2882,114.4454Z"/><path d="M114.76,83.9476a4.0874,4.0874,0,1,0,4.0874-4.0873C116.6463,79.5459,114.76,81.4323,114.76,83.9476Z"/><path d="M135.8253,83.9476a4.0874,4.0874,0,1,0,4.0874-4.0873C137.7118,79.5459,135.8253,81.4323,135.8253,83.9476Z"/><path d="M125.1354,95.5808a4.0873,4.0873,0,1,0,4.0873-4.0873A4.1618,4.1618,0,0,0,125.1354,95.5808Z"/></svg>