<svg xmlns="http://www.w3.org/2000/svg" viewBox="0 0 32.84 41.55"><g id="Cockroaches"><path class="cls-1" d="M15.92,12.75a4.19,4.19,0,0,1-2.71-.92c-4.64,5.64-3,24.06,2.39,25.36.09,0,.14-.56.32-1.43Z"/><path class="cls-1" d="M11.43,11.84c.15.08.32.13.47.22l0,0a7.06,7.06,0,0,1,.87-1.15,2.54,2.54,0,0,1,0-.29v-.05l-.19-.08a4.75,4.75,0,0,0-.64-.2,4.58,4.58,0,0,0-.64-.15c-.21,0-.43-.07-.65-.09l-.18,0L10,8.56c-.18-.69-.44-1.34-.66-2h0a.31.31,0,0,0-.13-.19c-.33-.25-.65-.52-1-.74l-1.05-.7a.39.39,0,0,0-.44.65l0,0,1,.67a8.36,8.36,0,0,1,.84.63c.13.63.28,1.26.36,1.9l.29,2a.68.68,0,0,0,.56.57l.1,0c.14,0,.33.05.5.1a4.44,4.44,0,0,1,.52.15A3,3,0,0,1,11.43,11.84Zm-2.85-5Z"/><path class="cls-1" d="M7.76,17.12a.66.66,0,0,0-.51.49l-.66,2.52c-.22.85-.47,1.67-.71,2.51a5.1,5.1,0,0,1-.2.59l-.21.58L5.39,24h0a2.93,2.93,0,0,1-.58,0,13.1,13.1,0,0,1-2.52-.51h0a.29.29,0,0,0-.14.56c.86.21,1.69.48,2.58.65a3.29,3.29,0,0,0,.73.07h.1a1,1,0,0,0,.2-.05.56.56,0,0,0,.16-.08l0,0H6s-.08.09.07-.09H6l.15-.31.3-.63c.09-.21.21-.42.28-.63.32-.82.65-1.64,1-2.46l.73-2L10,18.29c.08-.59.17-1.15.28-1.69l-2.5.52Z"/><path class="cls-1" d="M10.26,39.46h0v-.16l-.09-.87c-.06-.57-.11-1.17-.2-1.72L9.71,35c-.3-2.18-.64-4.33-1-6.5l0,0a1.72,1.72,0,0,1,.16-.2,6.5,6.5,0,0,1,.53-.47l.53-.38q-.12-1-.18-2.07l-.09.07c-.45.34-.9.69-1.35,1.09a5.3,5.3,0,0,0-.67.67,2.27,2.27,0,0,0-.33.47,1.58,1.58,0,0,0-.23.8.81.81,0,0,0,0,.15c.48,2.19,1,4.39,1.41,6.59l.33,1.65c.13.55.2,1.08.29,1.62l.14.8,0,.1s-.05.08-.07.07l-.06.07-.13.15c-.36.41-.75.81-1.14,1.21a.4.4,0,0,0,0,.53.38.38,0,0,0,.55,0c.43-.38.84-.76,1.25-1.17l.16-.16a2,2,0,0,0,.2-.26,1.22,1.22,0,0,0,.15-.23v0h0Z"/><path class="cls-1" d="M32.72,11.42a13.92,13.92,0,0,0-.22-1.54,17.6,17.6,0,0,0-.91-3.13,14.37,14.37,0,0,0-1.66-3,11.11,11.11,0,0,0-2.42-2.42A7.13,7.13,0,0,0,24.37.05a5.42,5.42,0,0,0-3.15.57A7.86,7.86,0,0,0,19,2.35a11.91,11.91,0,0,0-2.24,3.51c-.13.31-.23.59-.31.82-.08-.23-.18-.51-.31-.82a12.12,12.12,0,0,0-2.24-3.51A8.22,8.22,0,0,0,11.62.61,5.53,5.53,0,0,0,8.47.05,7.09,7.09,0,0,0,5.33,1.37,11.11,11.11,0,0,0,2.91,3.79a14.17,14.17,0,0,0-1.66,3A17.6,17.6,0,0,0,.34,9.88a13.92,13.92,0,0,0-.22,1.54A12.69,12.69,0,0,0,0,12.9a23.57,23.57,0,0,0,.07,2.71c.1.83.19,1.61.34,2.28s.27,1.25.43,1.72c.33.93.51,1.46.51,1.46a.22.22,0,0,0,.28.13.22.22,0,0,0,.14-.28v0l-.49-1.42C1.13,19,1,18.45.87,17.8S.66,16.4.56,15.59a21.32,21.32,0,0,1,0-2.66,11.67,11.67,0,0,1,.13-1.44A12.87,12.87,0,0,1,.92,10a16.72,16.72,0,0,1,1-3A13.52,13.52,0,0,1,3.5,4.24,10.83,10.83,0,0,1,5.8,2.05,6.47,6.47,0,0,1,8.54,1,5.53,5.53,0,0,1,13.17,3a11.41,11.41,0,0,1,2,3.24c.17.44.28.75.36,1l0,.07a4.31,4.31,0,0,1,1.68,0l0-.08a10.16,10.16,0,0,1,.36-1,11.41,11.41,0,0,1,2-3.24A5.53,5.53,0,0,1,24.3,1,6.47,6.47,0,0,1,27,2.05a10.83,10.83,0,0,1,2.3,2.19A13.52,13.52,0,0,1,31,7a16.72,16.72,0,0,1,1,3,12.87,12.87,0,0,1,.25,1.49,11.67,11.67,0,0,1,.13,1.44,21.32,21.32,0,0,1,0,2.66c-.1.81-.17,1.56-.31,2.21s-.26,1.22-.42,1.68l-.49,1.42v0a.22.22,0,0,0,.14.28.22.22,0,0,0,.28-.13s.18-.53.51-1.46c.16-.47.26-1.06.43-1.72s.23-1.45.34-2.28a23.57,23.57,0,0,0,.07-2.71A12.69,12.69,0,0,0,32.72,11.42Z"/><path class="cls-1" d="M30.56,23.51h0A13.1,13.1,0,0,1,28,24a2.93,2.93,0,0,1-.58,0h0l-.09-.23-.2-.58a5.1,5.1,0,0,1-.2-.59c-.24-.84-.49-1.66-.71-2.51l-.66-2.52a.66.66,0,0,0-.51-.49h0l-2.5-.52c.11.54.2,1.1.28,1.69l1.55.17.73,2c.3.82.63,1.64.95,2.46.07.21.19.42.28.63l.3.63.15.31h0l.08.09h0l0,0a.56.56,0,0,0,.16.08.9.9,0,0,0,.19.05h.11a3.29,3.29,0,0,0,.73-.07c.89-.17,1.72-.44,2.58-.65h0a.29.29,0,1,0-.18-.55Z"/><path class="cls-1" d="M25.15,27.21a5.3,5.3,0,0,0-.67-.67c-.45-.4-.9-.75-1.35-1.09L23,25.37c-.05.68-.11,1.37-.19,2.05l.56.41a6.5,6.5,0,0,1,.53.47,1.72,1.72,0,0,1,.16.2l0,0c-.33,2.17-.67,4.32-1,6.5l-.24,1.67c-.09.55-.14,1.15-.2,1.72l-.09.87v.16h0l0,.15h0l0,0a1.77,1.77,0,0,0,.14.23c.07.09.15.2.21.26l.16.16c.41.41.82.79,1.25,1.17a.39.39,0,0,0,.53,0,.39.39,0,0,0,0-.55c-.39-.4-.78-.8-1.14-1.21l-.13-.15-.06-.07s0,0-.07-.07l0-.1.14-.8c.09-.54.16-1.07.29-1.62l.33-1.65c.45-2.2.93-4.4,1.41-6.59a.76.76,0,0,0,0-.15,1.58,1.58,0,0,0-.23-.8A2.27,2.27,0,0,0,25.15,27.21Z"/><path class="cls-1" d="M16.92,12.77v23h0c.16.82.24,1.41.33,1.39,5.44-1.3,7.05-19.78,2.37-25.4A3.91,3.91,0,0,1,16.92,12.77Z"/><path class="cls-1" d="M19.14,10.64a2.67,2.67,0,0,0-2.72-2.45h-.09a2.66,2.66,0,0,0-2.63,2.45c0,.71,2.15,1.08,2.72,1.08S19.14,11.35,19.14,10.64Z"/><path class="cls-1" d="M23,11.39a.69.69,0,0,0,.56-.57l.29-2c.08-.64.23-1.27.35-1.9a9.8,9.8,0,0,1,.85-.63l1-.67.05,0a.39.39,0,0,0-.44-.65l-1.05.7a12.3,12.3,0,0,0-1,.74.33.33,0,0,0-.13.19h0c-.22.66-.48,1.31-.66,2l-.43,1.49-.18,0c-.22,0-.44,0-.65.09a5.08,5.08,0,0,0-.65.15,5.1,5.1,0,0,0-.63.2l-.19.08v.05a2.36,2.36,0,0,1,0,.28,7.63,7.63,0,0,1,.87,1.16l0,0c.15-.09.32-.14.47-.22a3,3,0,0,1,.5-.18,4.44,4.44,0,0,1,.52-.15c.17,0,.36-.07.5-.1Zm1.23-4.6Z"/></g></svg>