<svg id="Logo" xmlns="http://www.w3.org/2000/svg" viewBox="0 0 303.628 41.0478"><defs><style>.cls-1{fill:#47a836;}.cls-2{fill:#1a1818;}</style></defs><path class="cls-1" d="M248.406.9053,268.023.9037H248.406Zm48.1261,15.3955a12.8346,12.8346,0,0,1,7.0959,4.1786V9.0953Zm-1.3833,23.8449h8.4792V34.759A15.1835,15.1835,0,0,1,295.1488,40.1457Zm-7.18-15.335h-5.241v-8.172l5.8-5.918h-14.09V.9037H268.023v10.26H256.532v28.981h-8.126v.0009h31.2962a27.07,27.07,0,0,1-7.2932-2.6539l4.509-9.807a21.5907,21.5907,0,0,0,10.6,2.875c2.9881,0,5.129-1.0151,5.129-3.0431C292.647,25.8257,291.347,24.8107,287.969,24.8107Z"/><path id="Path_2" data-name="Path 2" class="cls-2" d="M13.674,12.5648c0-1.346,1.234-2.467,5.1-2.467a24.2228,24.2228,0,0,1,10.932,2.915l3.981-9.586a31.1388,31.1388,0,0,0-14.8-3.421C6.722.0058.611,5.9488.611,13.2387c0,14.631,21.7,10.65,21.7,15.583,0,1.346-1.346,2.13-5.1,2.13a26.9171,26.9171,0,0,1-12.95-3.5889L0,37.0058c3.924,2.41,10.539,4.038,17.1,4.038,12.165,0,18.276-6.054,18.276-13.231C35.369,13.3488,13.674,17.2728,13.674,12.5648ZM58.187.9038H39.295v39.241h13.23v-9.641h5.662c10.932,0,17.882-5.719,17.882-14.8S69.118.9038,58.186.9038Zm-.84,19.4H52.525v-9.193h4.822c3.644,0,5.38,1.738,5.38,4.6S60.99,20.3,57.346,20.3Zm59.817-4.6c0-9.083-6.951-14.8-17.882-14.8H80.388v39.241H93.619v-9.866h3.587l6.671,9.866h14.128l-8.241-12.108a13.14,13.14,0,0,0,7.4-12.333Zm-18.724,4.6H93.619v-9.193H98.44c3.644,0,5.382,1.738,5.382,4.6S102.084,20.3,98.44,20.3ZM142.73.01c-12.782,0-22.145,8.634-22.145,20.519s9.363,20.519,22.145,20.519,22.143-8.634,22.143-20.519S155.51.0058,142.732.0058Zm0,30.329c-4.877,0-8.8-3.7-8.8-9.81s3.924-9.81,8.8-9.81,8.8,3.7,8.8,9.81-3.925,9.806-8.798,9.806ZM219.59.9077l-7.233,22.5871L205.518.9028H193.353l-7.232,22.311L179.282.9028H165.658l12.557,39.241h14.183l6.671-20.967,6.336,20.967h14.183l12.224-38.2v9.22h11.493v28.981h13.227V11.1638h11.491V.9038Z"/></svg>