<svg id="Layer_1" data-name="Layer 1" xmlns="http://www.w3.org/2000/svg" viewBox="0 0 291.727 39.4375"><defs><style>.cls-1{fill:#47a836;}.cls-2{fill:#fff;}</style></defs><path class="cls-1" d="M284.904,15.6656a12.2933,12.2933,0,0,1,6.823,4.0157V8.738ZM238.67.8694,257.52.8686H238.67Zm44.9151,37.7022h8.1419V33.3893A14.58,14.58,0,0,1,283.5851,38.5716Zm-6.9121-14.73h-5.036v-7.851l5.577-5.686H263.676V.8686H257.52v9.857H246.479v27.846h22.2429a26.0117,26.0117,0,0,1-6.9949-2.5471l4.332-9.423a20.74,20.74,0,0,0,10.181,2.763c2.87,0,4.928-.9749,4.928-2.9229C281.168,24.8166,279.922,23.8416,276.673,23.8416Z"/><path id="Path_2" data-name="Path 2" class="cls-2" d="M13.142,12.0726c0-1.2931,1.185-2.37,4.9-2.37a23.275,23.275,0,0,1,10.5,2.8l3.825-9.21A29.9189,29.9189,0,0,0,18.147.0055C6.459.0055.587,5.7156.587,12.72c0,14.057,20.845,10.232,20.845,14.972,0,1.293-1.293,2.047-4.9,2.047a25.86,25.86,0,0,1-12.438-3.444L0,35.5585c3.77,2.316,10.126,3.879,16.428,3.879,11.688,0,17.56-5.817,17.56-12.7119C33.987,12.8255,13.142,16.5945,13.142,12.0726ZM55.909.8725H37.759v37.7H50.47V29.31h5.44c10.5,0,17.181-5.495,17.181-14.22S66.412.8686,55.909.8686Zm-.807,18.6351H50.469V10.6745h4.633c3.5,0,5.169,1.67,5.169,4.417s-1.668,4.412-5.169,4.412Zm57.471-4.4161c0-8.727-6.678-14.22-17.181-14.22H77.237v37.7H89.949V29.0945h3.446l6.409,9.479h13.574l-7.918-11.633a12.6249,12.6249,0,0,0,7.114-11.852Zm-17.99,4.4161H89.951V10.6745h4.632c3.5,0,5.171,1.67,5.171,4.417s-1.669,4.412-5.17,4.412Zm42.553-19.5c-12.281,0-21.276,8.3-21.276,19.7139s9,19.714,21.276,19.714,21.275-8.3,21.275-19.714S149.416.0055,137.137.0055Zm0,29.14c-4.686,0-8.456-3.5561-8.456-9.4261s3.77-9.426,8.456-9.426,8.456,3.556,8.456,9.426-3.771,9.4241-8.455,9.4241ZM210.982.8706l-6.945,21.704L197.467.8686H185.775l-6.949,21.4359L172.256.8686H159.167l12.065,37.7h13.627l6.409-20.144,6.087,20.144h13.627l11.744-36.7v8.859h11.042v27.845h12.711V10.7256H257.52V.8686Z"/></svg>