<svg id="Layer_1" data-name="Layer 1" xmlns="http://www.w3.org/2000/svg" viewBox="0 0 182.701 19.716"><defs><style>.cls-1{fill:#fff;}</style></defs><title>cm-footer-logo</title><path class="cls-1" d="M17.572,15.886a14.209,14.209,0,0,1-1.554,1.433,11.126,11.126,0,0,1-1.874,1.2,10.669,10.669,0,0,1-2.2.828,9.661,9.661,0,0,1-2.491.31,10.983,10.983,0,0,1-3.883-.653A8.173,8.173,0,0,1,2.6,17.1,8.58,8.58,0,0,1,.684,14.076,11.19,11.19,0,0,1,0,10.047,10.512,10.512,0,0,1,.777,5.909,10.291,10.291,0,0,1,2.759,2.8,8.7,8.7,0,0,1,5.4.859,6.493,6.493,0,0,1,8.142.189,5.518,5.518,0,0,1,9.87.432a6.165,6.165,0,0,1,1.246.547,3.542,3.542,0,0,1,.791.617c.187.2.307.346.362.414l.616-1.5h4.2V8.116H12.3a5.084,5.084,0,0,0-.214-1.258,3.71,3.71,0,0,0-.522-1.084,2.511,2.511,0,0,0-.858-.752,2.607,2.607,0,0,0-1.245-.28,2.241,2.241,0,0,0-1.314.416,3.487,3.487,0,0,0-1,1.139A6.169,6.169,0,0,0,6.5,7.984a8.934,8.934,0,0,0-.227,2.063,7.017,7.017,0,0,0,.254,1.9,5.109,5.109,0,0,0,.751,1.608,3.786,3.786,0,0,0,1.217,1.111,3.353,3.353,0,0,0,1.688.417,3.5,3.5,0,0,0,1.58-.377,6.842,6.842,0,0,0,1.313-.843A8.078,8.078,0,0,0,14,12.979c.24-.277.387-.448.441-.522Z"/><path class="cls-1" d="M27.964,19.716a11.6,11.6,0,0,1-3.858-.617,8.182,8.182,0,0,1-3.04-1.848,8.4,8.4,0,0,1-1.981-3.093,12.286,12.286,0,0,1-.71-4.38,11.1,11.1,0,0,1,.682-3.964A9.107,9.107,0,0,1,20.986,2.72,8.632,8.632,0,0,1,23.96.711,9.993,9.993,0,0,1,27.776,0a11.706,11.706,0,0,1,4.272.711,7.952,7.952,0,0,1,3,2.009,8.181,8.181,0,0,1,1.769,3.148,13.727,13.727,0,0,1,.576,4.1,12.634,12.634,0,0,1-.617,4.083,8.179,8.179,0,0,1-1.821,3.068,7.946,7.946,0,0,1-2.961,1.926A11.232,11.232,0,0,1,27.964,19.716Zm0-4.205a1.761,1.761,0,0,0,1.139-.4,3.368,3.368,0,0,0,.857-1.126,6.542,6.542,0,0,0,.549-1.739A12.734,12.734,0,0,0,30.7,9.967a14.331,14.331,0,0,0-.172-2.279,7.352,7.352,0,0,0-.537-1.859,3.416,3.416,0,0,0-.912-1.247,2,2,0,0,0-1.324-.456,1.728,1.728,0,0,0-1.125.416,3.352,3.352,0,0,0-.871,1.166A7.332,7.332,0,0,0,25.191,7.5a12.055,12.055,0,0,0-.2,2.276,11.358,11.358,0,0,0,.228,2.371,7.374,7.374,0,0,0,.615,1.809,3.263,3.263,0,0,0,.94,1.15A1.969,1.969,0,0,0,27.964,15.511Z"/><path class="cls-1" d="M58.9,19.234H48.16V15.726h2.545l-.563-1.821H44.651l-.563,1.821h2.089v3.508H37.66V15.726h1.822L43.1,3.966H42V.509H52.285l4.741,15.217H58.9ZM45.643,10.691H49.15L47.382,4.9Z"/><path class="cls-1" d="M59.973.509h8.464V4.045H67.016V15.672h3.455v-3.4h4.5v6.966h-15V15.672h1.472V4.045H59.973Z"/><path class="cls-1" d="M94.9,5.223q-.081.459-.186.994c-.073.355-.147.7-.217,1.029s-.137.635-.2.911-.121.5-.176.658L91.31,19.234h-5.6q-.75-2.678-1.5-5.345t-1.5-5.344c-.037-.106-.081-.28-.135-.52s-.106-.513-.16-.817-.107-.625-.16-.966a9.193,9.193,0,0,1-.108-1.019h-.106V15.781h1.525v3.453H76.311V15.781h1.446V3.966h-1.42V.509H86.489l2.7,10.019L91.765.509h10.2V3.966H100.5V15.751h1.472v3.483H93.507V15.751h1.527l-.027-8.945V5.223Z"/><path class="cls-1" d="M124.285,19.234H113.542V15.726h2.545l-.564-1.821h-5.489l-.563,1.821h2.087v3.508h-8.516V15.726h1.823l3.614-11.76h-1.1V.509h10.284l4.742,15.217h1.876Zm-13.26-8.543h3.509L112.765,4.9Z"/><path class="cls-1" d="M125.354.509h8.7a13.63,13.63,0,0,1,3.777.429A5.72,5.72,0,0,1,140.1,2.116a3.716,3.716,0,0,1,1.1,1.755,7.952,7.952,0,0,1,.284,2.159,3.564,3.564,0,0,1-1.114,2.609,4.553,4.553,0,0,1-1.232.829,5.045,5.045,0,0,1-1.539.444,4.178,4.178,0,0,1,1.325.443,4.324,4.324,0,0,1,1.112.844,4.231,4.231,0,0,1,.776,1.151,3.207,3.207,0,0,1,.3,1.367,5.206,5.206,0,0,0,.133,1.338c.09.321.258.481.508.481.413,0,.617-.283.617-.855V13.8h1.8v1.475a6.854,6.854,0,0,1-.189,1.607,3.574,3.574,0,0,1-.643,1.367,3.327,3.327,0,0,1-1.206.949,4.3,4.3,0,0,1-1.874.364,5.251,5.251,0,0,1-3.924-1.313,5.061,5.061,0,0,1-1.273-3.672,11.387,11.387,0,0,0-.081-1.5,1.8,1.8,0,0,0-.36-.924,1.541,1.541,0,0,0-.819-.469,6.047,6.047,0,0,0-1.418-.135V15.7h1.634v3.538h-8.652V15.7h1.5V4.021h-1.5Zm7.018,3.483V8.545h1.2A2.935,2.935,0,0,0,135.451,8a1.927,1.927,0,0,0,.7-1.617,2.354,2.354,0,0,0-.629-1.8,2.554,2.554,0,0,0-1.809-.59Z"/><path class="cls-1" d="M162.4,15.886a14.118,14.118,0,0,1-1.554,1.433,11.1,11.1,0,0,1-1.876,1.2,10.565,10.565,0,0,1-2.195.828,9.676,9.676,0,0,1-2.493.31,10.983,10.983,0,0,1-3.881-.653,8.177,8.177,0,0,1-2.975-1.9,8.606,8.606,0,0,1-1.914-3.028,11.169,11.169,0,0,1-.684-4.029,10.512,10.512,0,0,1,.777-4.138A10.31,10.31,0,0,1,147.586,2.8,8.689,8.689,0,0,1,150.225.859a6.484,6.484,0,0,1,2.746-.67A5.507,5.507,0,0,1,154.7.432a6.067,6.067,0,0,1,1.246.547,3.474,3.474,0,0,1,.791.617c.187.2.308.346.361.414l.615-1.5h4.209V8.116h-4.8a5.04,5.04,0,0,0-.215-1.258,3.737,3.737,0,0,0-.523-1.084,2.465,2.465,0,0,0-.855-.752,2.622,2.622,0,0,0-1.248-.28,2.231,2.231,0,0,0-1.31.416A3.483,3.483,0,0,0,151.965,6.3a6.267,6.267,0,0,0-.643,1.687,8.934,8.934,0,0,0-.227,2.063,7.017,7.017,0,0,0,.254,1.9,5.132,5.132,0,0,0,.751,1.608,3.821,3.821,0,0,0,1.218,1.111,3.351,3.351,0,0,0,1.689.417,3.509,3.509,0,0,0,1.579-.377,6.842,6.842,0,0,0,1.313-.843,8.061,8.061,0,0,0,.924-.885c.241-.277.388-.448.443-.522Z"/><path class="cls-1" d="M163.47.509h8.678V4.045h-1.662V8.093h5.09V4.045H174V.509h8.7V4.045h-1.552V15.7H182.7v3.538H174V15.7h1.58V11.654h-5.09V15.7h1.662v3.538H163.47V15.7h1.473V4.045H163.47Z"/></svg>