<?xml version="1.0" encoding="utf-8"?>
<!-- Generator: Adobe Illustrator 25.2.1, SVG Export Plug-In . SVG Version: 6.00 Build 0)  -->
<svg version="1.1" id="Layer_1" xmlns="http://www.w3.org/2000/svg" xmlns:xlink="http://www.w3.org/1999/xlink" x="0px" y="0px"
	 viewBox="0 0 24 24" style="enable-background:new 0 0 24 24;" xml:space="preserve">
<path d="M22.5,2.9l-0.1-0.3l-0.3-0.1c-2.1-1.2-4.4-1.8-6.7-1.8c-3.6,0-7,1.5-9.5,4.1c-2.5,2.6-3.7,6.1-3.5,9.8L2.6,17l1.1-2.2
	c1.6-3.1,4-5.6,6.9-7.3c-4.4,3.7-7.1,9.2-7,15.2l0,0.7l3.8-0.3l-0.1-0.7c-0.2-1.3-0.2-2.5-0.1-3.8c0.9,0.2,1.7,0.3,2.6,0.3
	c3.9,0,7.6-1.8,10.1-4.8C22.4,10.9,23.3,7,22.5,2.9z M6.8,16.9l-0.7-0.2c1.8-5.3,6-9.6,11.6-11.3l-0.4-1.8c-5.2,0.6-9.8,3.2-13,7.2
	c0.5-1.8,1.4-3.5,2.7-4.9c2.2-2.3,5.2-3.6,8.3-3.6c1.9,0,3.8,0.5,5.5,1.4c0.6,3.5-0.2,6.8-2.4,9.4c-2.2,2.7-5.4,4.2-8.9,4.2
	C8.8,17.3,7.8,17.1,6.8,16.9z"/>
</svg>
