<?xml version="1.0" standalone="no"?>
<!DOCTYPE svg PUBLIC "-//W3C//DTD SVG 20010904//EN"
 "http://www.w3.org/TR/2001/REC-SVG-20010904/DTD/svg10.dtd">
<svg version="1.0" xmlns="http://www.w3.org/2000/svg"
 width="65.000000pt" height="65.000000pt" viewBox="0 0 65.000000 65.000000"
 preserveAspectRatio="xMidYMid meet">

<g transform="translate(0.000000,65.000000) scale(0.100000,-0.100000)"
fill="#000000" stroke="none">
<path d="M62 538 c-18 -18 -15 -36 7 -48 29 -15 31 -13 31 25 0 36 -15 46 -38
23z"/>
<path d="M130 515 l0 -35 63 0 c74 0 109 18 91 47 -9 14 -26 19 -83 21 l-71 3
0 -36z"/>
<path d="M373 534 c-8 -20 8 -48 31 -52 12 -3 16 4 16 32 0 30 -4 36 -20 36
-11 0 -23 -7 -27 -16z"/>
<path d="M450 515 l0 -35 63 0 c73 0 90 9 85 41 -3 22 -8 24 -75 27 l-73 3 0
-36z"/>
<path d="M54 405 c-9 -23 3 -45 26 -45 16 0 20 7 20 30 0 23 -4 30 -20 30 -11
0 -23 -7 -26 -15z"/>
<path d="M130 390 l0 -31 78 3 c75 3 77 4 77 28 0 24 -2 25 -77 28 l-78 3 0
-31z"/>
<path d="M374 405 c-9 -23 3 -45 26 -45 16 0 20 7 20 30 0 23 -4 30 -20 30
-11 0 -23 -7 -26 -15z"/>
<path d="M450 390 l0 -30 76 0 75 0 -3 28 c-3 26 -5 27 -75 30 l-73 3 0 -31z"/>
<path d="M54 275 c-9 -23 3 -45 26 -45 16 0 20 7 20 30 0 23 -4 30 -20 30 -11
0 -23 -7 -26 -15z"/>
<path d="M130 260 l0 -31 78 3 c75 3 77 4 77 28 0 24 -2 25 -77 28 l-78 3 0
-31z"/>
<path d="M374 275 c-9 -23 3 -45 26 -45 16 0 20 7 20 30 0 23 -4 30 -20 30
-11 0 -23 -7 -26 -15z"/>
<path d="M450 260 l0 -30 76 0 75 0 -3 28 c-3 26 -5 27 -75 30 l-73 3 0 -31z"/>
<path d="M54 145 c-9 -23 3 -45 26 -45 16 0 20 7 20 30 0 23 -4 30 -20 30 -11
0 -23 -7 -26 -15z"/>
<path d="M130 130 l0 -31 78 3 c75 3 77 4 77 28 0 24 -2 25 -77 28 l-78 3 0
-31z"/>
<path d="M374 145 c-9 -23 3 -45 26 -45 16 0 20 7 20 30 0 23 -4 30 -20 30
-11 0 -23 -7 -26 -15z"/>
<path d="M450 130 l0 -31 73 3 c70 3 72 4 75 31 l3 27 -75 0 -76 0 0 -30z"/>
</g>
</svg>
