<?xml version="1.0" standalone="no"?>
<!DOCTYPE svg PUBLIC "-//W3C//DTD SVG 20010904//EN"
 "http://www.w3.org/TR/2001/REC-SVG-20010904/DTD/svg10.dtd">
<svg version="1.0" xmlns="http://www.w3.org/2000/svg"
 width="58.000000pt" height="58.000000pt" viewBox="0 0 58.000000 58.000000"
 preserveAspectRatio="xMidYMid meet">

<g transform="translate(0.000000,58.000000) scale(0.100000,-0.100000)"
fill="#000000" stroke="none">
<path d="M55 455 c-24 -23 -25 -29 -25 -163 0 -201 -19 -187 260 -187 279 0
260 -14 260 187 0 134 -1 140 -25 163 -24 25 -24 25 -235 25 -211 0 -211 0
-235 -25z m161 -140 c1 -16 5 -38 9 -47 9 -22 -35 -50 -72 -46 -27 3 -28 5
-31 66 l-3 63 48 -3 c46 -3 48 -4 49 -33z m124 21 c0 -7 -9 -16 -21 -19 -17
-5 -20 -12 -17 -49 2 -33 0 -43 -12 -43 -11 0 -16 13 -18 48 -2 33 -7 47 -18
47 -7 0 -14 7 -14 15 0 11 12 15 50 15 36 0 50 -4 50 -14z m62 -18 l27 -33 1
33 c0 21 5 32 14 32 17 0 27 -118 12 -128 -5 -3 -25 12 -43 33 l-33 38 0 -31
c0 -22 -5 -32 -15 -32 -12 0 -15 13 -15 60 0 70 12 76 52 28z"/>
<path d="M160 310 c0 -5 4 -10 9 -10 6 0 13 5 16 10 3 6 -1 10 -9 10 -9 0 -16
-4 -16 -10z"/>
<path d="M160 260 c0 -5 7 -10 15 -10 8 0 15 5 15 10 0 6 -7 10 -15 10 -8 0
-15 -4 -15 -10z"/>
</g>
</svg>
